<svg xmlns="http://www.w3.org/2000/svg" viewBox="0 0 480 480" width="480" height="480">
  <rect width="100%" height="100%" fill="#0A0A0E"/>
  <g stroke="#C07FA0" fill="none" stroke-width="1">
    <circle cx="240.00" cy="240.00" r="18.00" stroke-opacity="0.550"/>
    <circle cx="240.00" cy="240.00" r="21.82" stroke-opacity="0.548"/>
    <circle cx="240.00" cy="240.00" r="26.46" stroke-opacity="0.544"/>
    <circle cx="240.00" cy="240.00" r="32.07" stroke-opacity="0.537"/>
    <circle cx="240.00" cy="240.00" r="38.88" stroke-opacity="0.527"/>
    <circle cx="240.00" cy="240.00" r="47.14" stroke-opacity="0.513"/>
    <circle cx="240.00" cy="240.00" r="57.15" stroke-opacity="0.495"/>
    <circle cx="240.00" cy="240.00" r="69.29" stroke-opacity="0.469"/>
    <circle cx="240.00" cy="240.00" r="84.00" stroke-opacity="0.435"/>
    <circle cx="240.00" cy="240.00" r="101.84" stroke-opacity="0.389"/>
    <circle cx="240.00" cy="240.00" r="123.46" stroke-opacity="0.329"/>
    <circle cx="240.00" cy="240.00" r="149.68" stroke-opacity="0.248"/>
    <circle cx="240.00" cy="240.00" r="181.47" stroke-opacity="0.141"/>
    <circle cx="240.00" cy="240.00" r="220.00" stroke-opacity="0.000"/>
  </g>
  <defs>
    <radialGradient id="spokeFade" cx="50%" cy="50%" r="50%">
      <stop offset="0%" stop-color="#C07FA0" stop-opacity="0.550"/>
      <stop offset="55%" stop-color="#C07FA0" stop-opacity="0.303"/>
      <stop offset="100%" stop-color="#C07FA0" stop-opacity="0.000"/>
    </radialGradient>
  </defs>
  <g stroke="url(#spokeFade)" stroke-width="1" fill="none">
    <line x1="258.00" y1="240.00" x2="460.00" y2="240.00"/>
    <line x1="257.85" y1="242.35" x2="458.12" y2="268.72"/>
    <line x1="257.39" y1="244.66" x2="452.50" y2="296.94"/>
    <line x1="256.63" y1="246.89" x2="443.25" y2="324.19"/>
    <line x1="255.59" y1="249.00" x2="430.53" y2="350.00"/>
    <line x1="254.28" y1="250.96" x2="414.54" y2="373.93"/>
    <line x1="252.73" y1="252.73" x2="395.56" y2="395.56"/>
    <line x1="250.96" y1="254.28" x2="373.93" y2="414.54"/>
    <line x1="249.00" y1="255.59" x2="350.00" y2="430.53"/>
    <line x1="246.89" y1="256.63" x2="324.19" y2="443.25"/>
    <line x1="244.66" y1="257.39" x2="296.94" y2="452.50"/>
    <line x1="242.35" y1="257.85" x2="268.72" y2="458.12"/>
    <line x1="240.00" y1="258.00" x2="240.00" y2="460.00"/>
    <line x1="237.65" y1="257.85" x2="211.28" y2="458.12"/>
    <line x1="235.34" y1="257.39" x2="183.06" y2="452.50"/>
    <line x1="233.11" y1="256.63" x2="155.81" y2="443.25"/>
    <line x1="231.00" y1="255.59" x2="130.00" y2="430.53"/>
    <line x1="229.04" y1="254.28" x2="106.07" y2="414.54"/>
    <line x1="227.27" y1="252.73" x2="84.44" y2="395.56"/>
    <line x1="225.72" y1="250.96" x2="65.46" y2="373.93"/>
    <line x1="224.41" y1="249.00" x2="49.47" y2="350.00"/>
    <line x1="223.37" y1="246.89" x2="36.75" y2="324.19"/>
    <line x1="222.61" y1="244.66" x2="27.50" y2="296.94"/>
    <line x1="222.15" y1="242.35" x2="21.88" y2="268.72"/>
    <line x1="222.00" y1="240.00" x2="20.00" y2="240.00"/>
    <line x1="222.15" y1="237.65" x2="21.88" y2="211.28"/>
    <line x1="222.61" y1="235.34" x2="27.50" y2="183.06"/>
    <line x1="223.37" y1="233.11" x2="36.75" y2="155.81"/>
    <line x1="224.41" y1="231.00" x2="49.47" y2="130.00"/>
    <line x1="225.72" y1="229.04" x2="65.46" y2="106.07"/>
    <line x1="227.27" y1="227.27" x2="84.44" y2="84.44"/>
    <line x1="229.04" y1="225.72" x2="106.07" y2="65.46"/>
    <line x1="231.00" y1="224.41" x2="130.00" y2="49.47"/>
    <line x1="233.11" y1="223.37" x2="155.81" y2="36.75"/>
    <line x1="235.34" y1="222.61" x2="183.06" y2="27.50"/>
    <line x1="237.65" y1="222.15" x2="211.28" y2="21.88"/>
    <line x1="240.00" y1="222.00" x2="240.00" y2="20.00"/>
    <line x1="242.35" y1="222.15" x2="268.72" y2="21.88"/>
    <line x1="244.66" y1="222.61" x2="296.94" y2="27.50"/>
    <line x1="246.89" y1="223.37" x2="324.19" y2="36.75"/>
    <line x1="249.00" y1="224.41" x2="350.00" y2="49.47"/>
    <line x1="250.96" y1="225.72" x2="373.93" y2="65.46"/>
    <line x1="252.73" y1="227.27" x2="395.56" y2="84.44"/>
    <line x1="254.28" y1="229.04" x2="414.54" y2="106.07"/>
    <line x1="255.59" y1="231.00" x2="430.53" y2="130.00"/>
    <line x1="256.63" y1="233.11" x2="443.25" y2="155.81"/>
    <line x1="257.39" y1="235.34" x2="452.50" y2="183.06"/>
    <line x1="257.85" y1="237.65" x2="458.12" y2="211.28"/>
  </g>
  <g fill="#0A0A0E" stroke="#FFFFFF" stroke-width="1.5">
    <circle cx="240.0" cy="240.0" r="5.0"/>
    <line x1="235.0" y1="240.0" x2="245.0" y2="240.0" stroke="#FFFFFF" stroke-width="1"/>
    <line x1="240.0" y1="235.0" x2="240.0" y2="245.0" stroke="#FFFFFF" stroke-width="1"/>
  </g>
  <text x="240.0" y="240.0" font-family="Didot, 'Bodoni 72', 'Bodoni MT', Georgia, serif" font-weight="700" font-size="300" fill="#C07FA0" text-anchor="middle" dominant-baseline="central">H</text>
</svg>