<svg xmlns="http://www.w3.org/2000/svg" viewBox="0 0 520 520">
  <rect x="16.00" y="16.00" width="488.00" height="488.00" fill="none" stroke="#FFFFFF" stroke-width="3.0" stroke-opacity="0.900"/>
  <rect x="24.00" y="24.00" width="472.00" height="472.00" fill="none" stroke="#FFFFFF" stroke-width="1" stroke-opacity="0.540"/>
  <g stroke="#FFFFFF" fill="none" stroke-width="1.2">
    <path d="M 340.00 260.00 L 346.85 263.79 L 346.60 267.58 L 339.32 270.44 L 331.96 272.69 L 331.34 275.82 L 337.27 280.71 L 342.90 286.14 L 341.69 289.73 L 333.91 290.61 L 326.23 290.88 L 324.82 293.74 L 329.28 300.00 L 333.31 306.71 L 331.21 309.86 L 323.47 308.70 L 315.98 306.97 L 313.87 309.37 L 316.57 316.57 L 318.73 324.09 L 315.88 326.59 L 308.70 323.47 L 301.91 319.86 L 299.26 321.63 L 300.00 329.28 L 300.14 337.11 L 296.74 338.78 L 290.61 333.91 L 284.99 328.67 L 281.97 329.69 L 280.71 337.27 L 278.81 344.87 L 275.09 345.61 L 270.44 339.32 L 266.37 332.79 L 263.19 333.00 L 260.00 340.00 L 256.21 346.85 L 252.42 346.60 L 249.56 339.32 L 247.31 331.96 L 244.18 331.34 L 239.29 337.27 L 233.86 342.90 L 230.27 341.69 L 229.39 333.91 L 229.12 326.23 L 226.26 324.82 L 220.00 329.28 L 213.29 333.31 L 210.14 331.21 L 211.30 323.47 L 213.03 315.98 L 210.63 313.87 L 203.43 316.57 L 195.91 318.73 L 193.41 315.88 L 196.53 308.70 L 200.14 301.91 L 198.37 299.26 L 190.72 300.00 L 182.89 300.14 L 181.22 296.74 L 186.09 290.61 L 191.33 284.99 L 190.31 281.97 L 182.73 280.71 L 175.13 278.81 L 174.39 275.09 L 180.68 270.44 L 187.21 266.37 L 187.00 263.19 L 180.00 260.00 L 173.15 256.21 L 173.40 252.42 L 180.68 249.56 L 188.04 247.31 L 188.66 244.18 L 182.73 239.29 L 177.10 233.86 L 178.31 230.27 L 186.09 229.39 L 193.77 229.12 L 195.18 226.26 L 190.72 220.00 L 186.69 213.29 L 188.79 210.14 L 196.53 211.30 L 204.02 213.03 L 206.13 210.63 L 203.43 203.43 L 201.27 195.91 L 204.12 193.41 L 211.30 196.53 L 218.09 200.14 L 220.74 198.37 L 220.00 190.72 L 219.86 182.89 L 223.26 181.22 L 229.39 186.09 L 235.01 191.33 L 238.03 190.31 L 239.29 182.73 L 241.19 175.13 L 244.91 174.39 L 249.56 180.68 L 253.63 187.21 L 256.81 187.00 L 260.00 180.00 L 263.79 173.15 L 267.58 173.40 L 270.44 180.68 L 272.69 188.04 L 275.82 188.66 L 280.71 182.73 L 286.14 177.10 L 289.73 178.31 L 290.61 186.09 L 290.88 193.77 L 293.74 195.18 L 300.00 190.72 L 306.71 186.69 L 309.86 188.79 L 308.70 196.53 L 306.97 204.02 L 309.37 206.13 L 316.57 203.43 L 324.09 201.27 L 326.59 204.12 L 323.47 211.30 L 319.86 218.09 L 321.63 220.74 L 329.28 220.00 L 337.11 219.86 L 338.78 223.26 L 333.91 229.39 L 328.67 235.01 L 329.69 238.03 L 337.27 239.29 L 344.87 241.19 L 345.61 244.91 L 339.32 249.56 L 332.79 253.63 L 333.00 256.81 L 340.00 260.00 Z" stroke-opacity="0.812"/>
    <path d="M 398.00 260.00 L 393.87 265.84 L 385.52 270.98 L 380.96 275.92 L 384.09 281.88 L 390.82 289.00 L 393.30 295.72 L 387.80 300.29 L 378.40 303.09 L 372.71 306.69 L 374.19 313.25 L 378.86 321.87 L 379.51 329.00 L 373.01 332.00 L 363.21 332.27 L 356.79 334.27 L 356.52 340.99 L 358.80 350.53 L 357.58 357.58 L 350.53 358.80 L 340.99 356.52 L 334.27 356.79 L 332.27 363.21 L 332.00 373.01 L 329.00 379.51 L 321.87 378.86 L 313.25 374.19 L 306.69 372.71 L 303.09 378.40 L 300.29 387.80 L 295.72 393.30 L 289.00 390.82 L 281.88 384.09 L 275.92 380.96 L 270.98 385.52 L 265.84 393.87 L 260.00 398.00 L 254.16 393.87 L 249.02 385.52 L 244.08 380.96 L 238.12 384.09 L 231.00 390.82 L 224.28 393.30 L 219.71 387.80 L 216.91 378.40 L 213.31 372.71 L 206.75 374.19 L 198.13 378.86 L 191.00 379.51 L 188.00 373.01 L 187.73 363.21 L 185.73 356.79 L 179.01 356.52 L 169.47 358.80 L 162.42 357.58 L 161.20 350.53 L 163.48 340.99 L 163.21 334.27 L 156.79 332.27 L 146.99 332.00 L 140.49 329.00 L 141.14 321.87 L 145.81 313.25 L 147.29 306.69 L 141.60 303.09 L 132.20 300.29 L 126.70 295.72 L 129.18 289.00 L 135.91 281.88 L 139.04 275.92 L 134.48 270.98 L 126.13 265.84 L 122.00 260.00 L 126.13 254.16 L 134.48 249.02 L 139.04 244.08 L 135.91 238.12 L 129.18 231.00 L 126.70 224.28 L 132.20 219.71 L 141.60 216.91 L 147.29 213.31 L 145.81 206.75 L 141.14 198.13 L 140.49 191.00 L 146.99 188.00 L 156.79 187.73 L 163.21 185.73 L 163.48 179.01 L 161.20 169.47 L 162.42 162.42 L 169.47 161.20 L 179.01 163.48 L 185.73 163.21 L 187.73 156.79 L 188.00 146.99 L 191.00 140.49 L 198.13 141.14 L 206.75 145.81 L 213.31 147.29 L 216.91 141.60 L 219.71 132.20 L 224.28 126.70 L 231.00 129.18 L 238.12 135.91 L 244.08 139.04 L 249.02 134.48 L 254.16 126.13 L 260.00 122.00 L 265.84 126.13 L 270.98 134.48 L 275.92 139.04 L 281.88 135.91 L 289.00 129.18 L 295.72 126.70 L 300.29 132.20 L 303.09 141.60 L 306.69 147.29 L 313.25 145.81 L 321.87 141.14 L 329.00 140.49 L 332.00 146.99 L 332.27 156.79 L 334.27 163.21 L 340.99 163.48 L 350.53 161.20 L 357.58 162.42 L 358.80 169.47 L 356.52 179.01 L 356.79 185.73 L 363.21 187.73 L 373.01 188.00 L 379.51 191.00 L 378.86 198.13 L 374.19 206.75 L 372.71 213.31 L 378.40 216.91 L 387.80 219.71 L 393.30 224.28 L 390.82 231.00 L 384.09 238.12 L 380.96 244.08 L 385.52 249.02 L 393.87 254.16 L 398.00 260.00 Z" stroke-opacity="0.725"/>
    <path d="M 440.00 260.00 L 432.91 267.55 L 432.41 275.08 L 438.46 283.49 L 444.09 292.46 L 442.50 300.46 L 433.87 306.59 L 425.06 312.04 L 422.63 319.19 L 426.30 328.88 L 429.41 339.00 L 425.81 346.31 L 415.88 350.00 L 405.97 352.99 L 401.77 359.27 L 402.80 369.58 L 403.20 380.16 L 397.82 386.29 L 387.28 387.28 L 376.93 387.60 L 371.25 392.58 L 369.58 402.80 L 367.22 413.12 L 360.44 417.65 L 350.00 415.88 L 339.92 413.52 L 333.14 416.86 L 328.88 426.30 L 323.93 435.66 L 316.21 438.28 L 306.59 433.87 L 297.46 428.97 L 290.05 430.44 L 283.49 438.46 L 276.29 446.22 L 268.15 446.75 L 260.00 440.00 L 252.45 432.91 L 244.92 432.41 L 236.51 438.46 L 227.54 444.09 L 219.54 442.50 L 213.41 433.87 L 207.96 425.06 L 200.81 422.63 L 191.12 426.30 L 181.00 429.41 L 173.69 425.81 L 170.00 415.88 L 167.01 405.97 L 160.73 401.77 L 150.42 402.80 L 139.84 403.20 L 133.71 397.82 L 132.72 387.28 L 132.40 376.93 L 127.42 371.25 L 117.20 369.58 L 106.88 367.22 L 102.35 360.44 L 104.12 350.00 L 106.48 339.92 L 103.14 333.14 L 93.70 328.88 L 84.34 323.93 L 81.72 316.21 L 86.13 306.59 L 91.03 297.46 L 89.56 290.05 L 81.54 283.49 L 73.78 276.29 L 73.25 268.15 L 80.00 260.00 L 87.09 252.45 L 87.59 244.92 L 81.54 236.51 L 75.91 227.54 L 77.50 219.54 L 86.13 213.41 L 94.94 207.96 L 97.37 200.81 L 93.70 191.12 L 90.59 181.00 L 94.19 173.69 L 104.12 170.00 L 114.03 167.01 L 118.23 160.73 L 117.20 150.42 L 116.80 139.84 L 122.18 133.71 L 132.72 132.72 L 143.07 132.40 L 148.75 127.42 L 150.42 117.20 L 152.78 106.88 L 159.56 102.35 L 170.00 104.12 L 180.08 106.48 L 186.86 103.14 L 191.12 93.70 L 196.07 84.34 L 203.79 81.72 L 213.41 86.13 L 222.54 91.03 L 229.95 89.56 L 236.51 81.54 L 243.71 73.78 L 251.85 73.25 L 260.00 80.00 L 267.55 87.09 L 275.08 87.59 L 283.49 81.54 L 292.46 75.91 L 300.46 77.50 L 306.59 86.13 L 312.04 94.94 L 319.19 97.37 L 328.88 93.70 L 339.00 90.59 L 346.31 94.19 L 350.00 104.12 L 352.99 114.03 L 359.27 118.23 L 369.58 117.20 L 380.16 116.80 L 386.29 122.18 L 387.28 132.72 L 387.60 143.07 L 392.58 148.75 L 402.80 150.42 L 413.12 152.78 L 417.65 159.56 L 415.88 170.00 L 413.52 180.08 L 416.86 186.86 L 426.30 191.12 L 435.66 196.07 L 438.28 203.79 L 433.87 213.41 L 428.97 222.54 L 430.44 229.95 L 438.46 236.51 L 446.22 243.71 L 446.75 251.85 L 440.00 260.00 Z" stroke-opacity="0.638"/>
    <path d="M 482.00 260.00 L 485.78 269.86 L 493.11 280.39 L 495.96 291.07 L 490.45 300.63 L 480.64 308.92 L 474.44 317.46 L 475.54 327.96 L 479.89 340.03 L 479.88 351.08 L 472.08 358.89 L 460.46 364.36 L 452.26 371.00 L 450.61 381.43 L 451.68 394.22 L 448.82 404.89 L 439.25 410.41 L 426.62 412.68 L 416.98 416.98 L 412.68 426.62 L 410.41 439.25 L 404.89 448.82 L 394.22 451.68 L 381.43 450.61 L 371.00 452.26 L 364.36 460.46 L 358.89 472.08 L 351.08 479.88 L 340.03 479.89 L 327.96 475.54 L 317.46 474.44 L 308.92 480.64 L 300.63 490.45 L 291.07 495.96 L 280.39 493.11 L 269.86 485.78 L 260.00 482.00 L 250.14 485.78 L 239.61 493.11 L 228.93 495.96 L 219.37 490.45 L 211.08 480.64 L 202.54 474.44 L 192.04 475.54 L 179.97 479.89 L 168.92 479.88 L 161.11 472.08 L 155.64 460.46 L 149.00 452.26 L 138.57 450.61 L 125.78 451.68 L 115.11 448.82 L 109.59 439.25 L 107.32 426.62 L 103.02 416.98 L 93.38 412.68 L 80.75 410.41 L 71.18 404.89 L 68.32 394.22 L 69.39 381.43 L 67.74 371.00 L 59.54 364.36 L 47.92 358.89 L 40.12 351.08 L 40.11 340.03 L 44.46 327.96 L 45.56 317.46 L 39.36 308.92 L 29.55 300.63 L 24.04 291.07 L 26.89 280.39 L 34.22 269.86 L 38.00 260.00 L 34.22 250.14 L 26.89 239.61 L 24.04 228.93 L 29.55 219.37 L 39.36 211.08 L 45.56 202.54 L 44.46 192.04 L 40.11 179.97 L 40.12 168.92 L 47.92 161.11 L 59.54 155.64 L 67.74 149.00 L 69.39 138.57 L 68.32 125.78 L 71.18 115.11 L 80.75 109.59 L 93.38 107.32 L 103.02 103.02 L 107.32 93.38 L 109.59 80.75 L 115.11 71.18 L 125.78 68.32 L 138.57 69.39 L 149.00 67.74 L 155.64 59.54 L 161.11 47.92 L 168.92 40.12 L 179.97 40.11 L 192.04 44.46 L 202.54 45.56 L 211.08 39.36 L 219.37 29.55 L 228.93 24.04 L 239.61 26.89 L 250.14 34.22 L 260.00 38.00 L 269.86 34.22 L 280.39 26.89 L 291.07 24.04 L 300.63 29.55 L 308.92 39.36 L 317.46 45.56 L 327.96 44.46 L 340.03 40.11 L 351.08 40.12 L 358.89 47.92 L 364.36 59.54 L 371.00 67.74 L 381.43 69.39 L 394.22 68.32 L 404.89 71.18 L 410.41 80.75 L 412.68 93.38 L 416.98 103.02 L 426.62 107.32 L 439.25 109.59 L 448.82 115.11 L 451.68 125.78 L 450.61 138.57 L 452.26 149.00 L 460.46 155.64 L 472.08 161.11 L 479.88 168.92 L 479.89 179.97 L 475.54 192.04 L 474.44 202.54 L 480.64 211.08 L 490.45 219.37 L 495.96 228.93 L 493.11 239.61 L 485.78 250.14 L 482.00 260.00 Z" stroke-opacity="0.550"/>
  </g>
  <g stroke="#FFFFFF" fill="none" stroke-width="1">
    <line x1="290.00" y1="260.00" x2="490.00" y2="260.00" stroke-opacity="0.711"/>
    <line x1="289.42" y1="265.85" x2="422.42" y2="292.31" stroke-opacity="0.779"/>
    <line x1="287.72" y1="271.48" x2="472.49" y2="348.02" stroke-opacity="0.711"/>
    <line x1="284.94" y1="276.67" x2="397.69" y2="352.00" stroke-opacity="0.779"/>
    <line x1="281.21" y1="281.21" x2="422.63" y2="422.63" stroke-opacity="0.711"/>
    <line x1="276.67" y1="284.94" x2="352.00" y2="397.69" stroke-opacity="0.779"/>
    <line x1="271.48" y1="287.72" x2="348.02" y2="472.49" stroke-opacity="0.711"/>
    <line x1="265.85" y1="289.42" x2="292.31" y2="422.42" stroke-opacity="0.779"/>
    <line x1="260.00" y1="290.00" x2="260.00" y2="490.00" stroke-opacity="0.711"/>
    <line x1="254.15" y1="289.42" x2="227.69" y2="422.42" stroke-opacity="0.779"/>
    <line x1="248.52" y1="287.72" x2="171.98" y2="472.49" stroke-opacity="0.711"/>
    <line x1="243.33" y1="284.94" x2="168.00" y2="397.69" stroke-opacity="0.779"/>
    <line x1="238.79" y1="281.21" x2="97.37" y2="422.63" stroke-opacity="0.711"/>
    <line x1="235.06" y1="276.67" x2="122.31" y2="352.00" stroke-opacity="0.779"/>
    <line x1="232.28" y1="271.48" x2="47.51" y2="348.02" stroke-opacity="0.711"/>
    <line x1="230.58" y1="265.85" x2="97.58" y2="292.31" stroke-opacity="0.779"/>
    <line x1="230.00" y1="260.00" x2="30.00" y2="260.00" stroke-opacity="0.711"/>
    <line x1="230.58" y1="254.15" x2="97.58" y2="227.69" stroke-opacity="0.779"/>
    <line x1="232.28" y1="248.52" x2="47.51" y2="171.98" stroke-opacity="0.711"/>
    <line x1="235.06" y1="243.33" x2="122.31" y2="168.00" stroke-opacity="0.779"/>
    <line x1="238.79" y1="238.79" x2="97.37" y2="97.37" stroke-opacity="0.711"/>
    <line x1="243.33" y1="235.06" x2="168.00" y2="122.31" stroke-opacity="0.779"/>
    <line x1="248.52" y1="232.28" x2="171.98" y2="47.51" stroke-opacity="0.711"/>
    <line x1="254.15" y1="230.58" x2="227.69" y2="97.58" stroke-opacity="0.779"/>
    <line x1="260.00" y1="230.00" x2="260.00" y2="30.00" stroke-opacity="0.711"/>
    <line x1="265.85" y1="230.58" x2="292.31" y2="97.58" stroke-opacity="0.779"/>
    <line x1="271.48" y1="232.28" x2="348.02" y2="47.51" stroke-opacity="0.711"/>
    <line x1="276.67" y1="235.06" x2="352.00" y2="122.31" stroke-opacity="0.779"/>
    <line x1="281.21" y1="238.79" x2="422.63" y2="97.37" stroke-opacity="0.711"/>
    <line x1="284.94" y1="243.33" x2="397.69" y2="168.00" stroke-opacity="0.779"/>
    <line x1="287.72" y1="248.52" x2="472.49" y2="171.98" stroke-opacity="0.711"/>
    <line x1="289.42" y1="254.15" x2="422.42" y2="227.69" stroke-opacity="0.779"/>
  </g>
  <circle cx="260.00" cy="260.00" r="16.50" fill="none" stroke="#FFFFFF" stroke-width="1.2" stroke-opacity="0.900"/>
</svg>