<svg xmlns="http://www.w3.org/2000/svg" viewBox="0 0 520 660" width="520" height="660">
  <rect width="100%" height="100%" fill="#0A0A0E"/>
  <g stroke="#FFFFFF" fill="none" stroke-width="1">
    <circle cx="260.00" cy="382.80" r="16.00" stroke-opacity="0.800"/>
    <circle cx="260.00" cy="382.80" r="19.89" stroke-opacity="0.798"/>
    <circle cx="260.00" cy="382.80" r="24.74" stroke-opacity="0.795"/>
    <circle cx="260.00" cy="382.80" r="30.76" stroke-opacity="0.792"/>
    <circle cx="260.00" cy="382.80" r="38.24" stroke-opacity="0.786"/>
    <circle cx="260.00" cy="382.80" r="47.55" stroke-opacity="0.779"/>
    <circle cx="260.00" cy="382.80" r="59.13" stroke-opacity="0.769"/>
    <circle cx="260.00" cy="382.80" r="73.52" stroke-opacity="0.757"/>
    <circle cx="260.00" cy="382.80" r="91.41" stroke-opacity="0.740"/>
    <circle cx="260.00" cy="382.80" r="113.66" stroke-opacity="0.718"/>
    <circle cx="260.00" cy="382.80" r="141.32" stroke-opacity="0.690"/>
    <circle cx="260.00" cy="382.80" r="175.72" stroke-opacity="0.652"/>
    <circle cx="260.00" cy="382.80" r="218.49" stroke-opacity="0.604"/>
    <circle cx="260.00" cy="382.80" r="271.66" stroke-opacity="0.540"/>
    <circle cx="260.00" cy="382.80" r="337.79" stroke-opacity="0.458"/>
    <circle cx="260.00" cy="382.80" r="420.00" stroke-opacity="0.350"/>
  </g>
  <g stroke="#FFFFFF" fill="none" stroke-width="1">
    <line x1="276.00" y1="382.80" x2="279.89" y2="382.80" stroke-opacity="0.799"/>
    <line x1="275.76" y1="385.58" x2="279.59" y2="386.25" stroke-opacity="0.799"/>
    <line x1="275.04" y1="388.27" x2="278.69" y2="389.60" stroke-opacity="0.799"/>
    <line x1="273.86" y1="390.80" x2="277.23" y2="392.75" stroke-opacity="0.799"/>
    <line x1="272.26" y1="393.08" x2="275.24" y2="395.59" stroke-opacity="0.799"/>
    <line x1="270.28" y1="395.06" x2="272.79" y2="398.04" stroke-opacity="0.799"/>
    <line x1="268.00" y1="396.66" x2="269.95" y2="400.03" stroke-opacity="0.799"/>
    <line x1="265.47" y1="397.84" x2="266.80" y2="401.49" stroke-opacity="0.799"/>
    <line x1="262.78" y1="398.56" x2="263.45" y2="402.39" stroke-opacity="0.799"/>
    <line x1="260.00" y1="398.80" x2="260.00" y2="402.69" stroke-opacity="0.799"/>
    <line x1="257.22" y1="398.56" x2="256.55" y2="402.39" stroke-opacity="0.799"/>
    <line x1="254.53" y1="397.84" x2="253.20" y2="401.49" stroke-opacity="0.799"/>
    <line x1="252.00" y1="396.66" x2="250.05" y2="400.03" stroke-opacity="0.799"/>
    <line x1="249.72" y1="395.06" x2="247.21" y2="398.04" stroke-opacity="0.799"/>
    <line x1="247.74" y1="393.08" x2="244.76" y2="395.59" stroke-opacity="0.799"/>
    <line x1="246.14" y1="390.80" x2="242.77" y2="392.75" stroke-opacity="0.799"/>
    <line x1="244.96" y1="388.27" x2="241.31" y2="389.60" stroke-opacity="0.799"/>
    <line x1="244.24" y1="385.58" x2="240.41" y2="386.25" stroke-opacity="0.799"/>
    <line x1="244.00" y1="382.80" x2="240.11" y2="382.80" stroke-opacity="0.799"/>
    <line x1="244.24" y1="380.02" x2="240.41" y2="379.35" stroke-opacity="0.799"/>
    <line x1="244.96" y1="377.33" x2="241.31" y2="376.00" stroke-opacity="0.799"/>
    <line x1="246.14" y1="374.80" x2="242.77" y2="372.85" stroke-opacity="0.799"/>
    <line x1="247.74" y1="372.52" x2="244.76" y2="370.01" stroke-opacity="0.799"/>
    <line x1="249.72" y1="370.54" x2="247.21" y2="367.56" stroke-opacity="0.799"/>
    <line x1="252.00" y1="368.94" x2="250.05" y2="365.57" stroke-opacity="0.799"/>
    <line x1="254.53" y1="367.76" x2="253.20" y2="364.11" stroke-opacity="0.799"/>
    <line x1="257.22" y1="367.04" x2="256.55" y2="363.21" stroke-opacity="0.799"/>
    <line x1="260.00" y1="366.80" x2="260.00" y2="362.91" stroke-opacity="0.799"/>
    <line x1="262.78" y1="367.04" x2="263.45" y2="363.21" stroke-opacity="0.799"/>
    <line x1="265.47" y1="367.76" x2="266.80" y2="364.11" stroke-opacity="0.799"/>
    <line x1="268.00" y1="368.94" x2="269.95" y2="365.57" stroke-opacity="0.799"/>
    <line x1="270.28" y1="370.54" x2="272.79" y2="367.56" stroke-opacity="0.799"/>
    <line x1="272.26" y1="372.52" x2="275.24" y2="370.01" stroke-opacity="0.799"/>
    <line x1="273.86" y1="374.80" x2="277.23" y2="372.85" stroke-opacity="0.799"/>
    <line x1="275.04" y1="377.33" x2="278.69" y2="376.00" stroke-opacity="0.799"/>
    <line x1="275.76" y1="380.02" x2="279.59" y2="379.35" stroke-opacity="0.799"/>
    <line x1="279.82" y1="384.53" x2="284.64" y2="384.96" stroke-opacity="0.797"/>
    <line x1="279.22" y1="387.95" x2="283.89" y2="389.20" stroke-opacity="0.797"/>
    <line x1="278.03" y1="391.21" x2="282.42" y2="393.25" stroke-opacity="0.797"/>
    <line x1="276.30" y1="394.21" x2="280.26" y2="396.99" stroke-opacity="0.797"/>
    <line x1="274.07" y1="396.87" x2="277.49" y2="400.29" stroke-opacity="0.797"/>
    <line x1="271.41" y1="399.10" x2="274.19" y2="403.06" stroke-opacity="0.797"/>
    <line x1="268.41" y1="400.83" x2="270.45" y2="405.22" stroke-opacity="0.797"/>
    <line x1="265.15" y1="402.02" x2="266.40" y2="406.69" stroke-opacity="0.797"/>
    <line x1="261.73" y1="402.62" x2="262.16" y2="407.44" stroke-opacity="0.797"/>
    <line x1="258.27" y1="402.62" x2="257.84" y2="407.44" stroke-opacity="0.797"/>
    <line x1="254.85" y1="402.02" x2="253.60" y2="406.69" stroke-opacity="0.797"/>
    <line x1="251.59" y1="400.83" x2="249.55" y2="405.22" stroke-opacity="0.797"/>
    <line x1="248.59" y1="399.10" x2="245.81" y2="403.06" stroke-opacity="0.797"/>
    <line x1="245.93" y1="396.87" x2="242.51" y2="400.29" stroke-opacity="0.797"/>
    <line x1="243.70" y1="394.21" x2="239.74" y2="396.99" stroke-opacity="0.797"/>
    <line x1="241.97" y1="391.21" x2="237.58" y2="393.25" stroke-opacity="0.797"/>
    <line x1="240.78" y1="387.95" x2="236.11" y2="389.20" stroke-opacity="0.797"/>
    <line x1="240.18" y1="384.53" x2="235.36" y2="384.96" stroke-opacity="0.797"/>
    <line x1="240.18" y1="381.07" x2="235.36" y2="380.64" stroke-opacity="0.797"/>
    <line x1="240.78" y1="377.65" x2="236.11" y2="376.40" stroke-opacity="0.797"/>
    <line x1="241.97" y1="374.39" x2="237.58" y2="372.35" stroke-opacity="0.797"/>
    <line x1="243.70" y1="371.39" x2="239.74" y2="368.61" stroke-opacity="0.797"/>
    <line x1="245.93" y1="368.73" x2="242.51" y2="365.31" stroke-opacity="0.797"/>
    <line x1="248.59" y1="366.50" x2="245.81" y2="362.54" stroke-opacity="0.797"/>
    <line x1="251.59" y1="364.77" x2="249.55" y2="360.38" stroke-opacity="0.797"/>
    <line x1="254.85" y1="363.58" x2="253.60" y2="358.91" stroke-opacity="0.797"/>
    <line x1="258.27" y1="362.98" x2="257.84" y2="358.16" stroke-opacity="0.797"/>
    <line x1="261.73" y1="362.98" x2="262.16" y2="358.16" stroke-opacity="0.797"/>
    <line x1="265.15" y1="363.58" x2="266.40" y2="358.91" stroke-opacity="0.797"/>
    <line x1="268.41" y1="364.77" x2="270.45" y2="360.38" stroke-opacity="0.797"/>
    <line x1="271.41" y1="366.50" x2="274.19" y2="362.54" stroke-opacity="0.797"/>
    <line x1="274.07" y1="368.73" x2="277.49" y2="365.31" stroke-opacity="0.797"/>
    <line x1="276.30" y1="371.39" x2="280.26" y2="368.61" stroke-opacity="0.797"/>
    <line x1="278.03" y1="374.39" x2="282.42" y2="372.35" stroke-opacity="0.797"/>
    <line x1="279.22" y1="377.65" x2="283.89" y2="376.40" stroke-opacity="0.797"/>
    <line x1="279.82" y1="381.07" x2="284.64" y2="380.64" stroke-opacity="0.797"/>
    <line x1="284.74" y1="382.80" x2="290.76" y2="382.80" stroke-opacity="0.794"/>
    <line x1="284.36" y1="387.10" x2="290.29" y2="388.14" stroke-opacity="0.794"/>
    <line x1="283.24" y1="391.26" x2="288.90" y2="393.32" stroke-opacity="0.794"/>
    <line x1="281.42" y1="395.17" x2="286.64" y2="398.18" stroke-opacity="0.794"/>
    <line x1="278.95" y1="398.70" x2="283.56" y2="402.57" stroke-opacity="0.794"/>
    <line x1="275.90" y1="401.75" x2="279.77" y2="406.36" stroke-opacity="0.794"/>
    <line x1="272.37" y1="404.22" x2="275.38" y2="409.44" stroke-opacity="0.794"/>
    <line x1="268.46" y1="406.04" x2="270.52" y2="411.70" stroke-opacity="0.794"/>
    <line x1="264.30" y1="407.16" x2="265.34" y2="413.09" stroke-opacity="0.794"/>
    <line x1="260.00" y1="407.54" x2="260.00" y2="413.56" stroke-opacity="0.794"/>
    <line x1="255.70" y1="407.16" x2="254.66" y2="413.09" stroke-opacity="0.794"/>
    <line x1="251.54" y1="406.04" x2="249.48" y2="411.70" stroke-opacity="0.794"/>
    <line x1="247.63" y1="404.22" x2="244.62" y2="409.44" stroke-opacity="0.794"/>
    <line x1="244.10" y1="401.75" x2="240.23" y2="406.36" stroke-opacity="0.794"/>
    <line x1="241.05" y1="398.70" x2="236.44" y2="402.57" stroke-opacity="0.794"/>
    <line x1="238.58" y1="395.17" x2="233.36" y2="398.18" stroke-opacity="0.794"/>
    <line x1="236.76" y1="391.26" x2="231.10" y2="393.32" stroke-opacity="0.794"/>
    <line x1="235.64" y1="387.10" x2="229.71" y2="388.14" stroke-opacity="0.794"/>
    <line x1="235.26" y1="382.80" x2="229.24" y2="382.80" stroke-opacity="0.794"/>
    <line x1="235.64" y1="378.50" x2="229.71" y2="377.46" stroke-opacity="0.794"/>
    <line x1="236.76" y1="374.34" x2="231.10" y2="372.28" stroke-opacity="0.794"/>
    <line x1="238.58" y1="370.43" x2="233.36" y2="367.42" stroke-opacity="0.794"/>
    <line x1="241.05" y1="366.90" x2="236.44" y2="363.03" stroke-opacity="0.794"/>
    <line x1="244.10" y1="363.85" x2="240.23" y2="359.24" stroke-opacity="0.794"/>
    <line x1="247.63" y1="361.38" x2="244.62" y2="356.16" stroke-opacity="0.794"/>
    <line x1="251.54" y1="359.56" x2="249.48" y2="353.90" stroke-opacity="0.794"/>
    <line x1="255.70" y1="358.44" x2="254.66" y2="352.51" stroke-opacity="0.794"/>
    <line x1="260.00" y1="358.06" x2="260.00" y2="352.04" stroke-opacity="0.794"/>
    <line x1="264.30" y1="358.44" x2="265.34" y2="352.51" stroke-opacity="0.794"/>
    <line x1="268.46" y1="359.56" x2="270.52" y2="353.90" stroke-opacity="0.794"/>
    <line x1="272.37" y1="361.38" x2="275.38" y2="356.16" stroke-opacity="0.794"/>
    <line x1="275.90" y1="363.85" x2="279.77" y2="359.24" stroke-opacity="0.794"/>
    <line x1="278.95" y1="366.90" x2="283.56" y2="363.03" stroke-opacity="0.794"/>
    <line x1="281.42" y1="370.43" x2="286.64" y2="367.42" stroke-opacity="0.794"/>
    <line x1="283.24" y1="374.34" x2="288.90" y2="372.28" stroke-opacity="0.794"/>
    <line x1="284.36" y1="378.50" x2="290.29" y2="377.46" stroke-opacity="0.794"/>
    <line x1="290.64" y1="385.48" x2="298.10" y2="386.13" stroke-opacity="0.789"/>
    <line x1="289.71" y1="390.76" x2="296.94" y2="392.70" stroke-opacity="0.789"/>
    <line x1="287.88" y1="395.80" x2="294.66" y2="398.96" stroke-opacity="0.789"/>
    <line x1="285.19" y1="400.44" x2="291.33" y2="404.74" stroke-opacity="0.789"/>
    <line x1="281.75" y1="404.55" x2="287.04" y2="409.84" stroke-opacity="0.789"/>
    <line x1="277.64" y1="407.99" x2="281.94" y2="414.13" stroke-opacity="0.789"/>
    <line x1="273.00" y1="410.68" x2="276.16" y2="417.46" stroke-opacity="0.789"/>
    <line x1="267.96" y1="412.51" x2="269.90" y2="419.74" stroke-opacity="0.789"/>
    <line x1="262.68" y1="413.44" x2="263.33" y2="420.90" stroke-opacity="0.789"/>
    <line x1="257.32" y1="413.44" x2="256.67" y2="420.90" stroke-opacity="0.789"/>
    <line x1="252.04" y1="412.51" x2="250.10" y2="419.74" stroke-opacity="0.789"/>
    <line x1="247.00" y1="410.68" x2="243.84" y2="417.46" stroke-opacity="0.789"/>
    <line x1="242.36" y1="407.99" x2="238.06" y2="414.13" stroke-opacity="0.789"/>
    <line x1="238.25" y1="404.55" x2="232.96" y2="409.84" stroke-opacity="0.789"/>
    <line x1="234.81" y1="400.44" x2="228.67" y2="404.74" stroke-opacity="0.789"/>
    <line x1="232.12" y1="395.80" x2="225.34" y2="398.96" stroke-opacity="0.789"/>
    <line x1="230.29" y1="390.76" x2="223.06" y2="392.70" stroke-opacity="0.789"/>
    <line x1="229.36" y1="385.48" x2="221.90" y2="386.13" stroke-opacity="0.789"/>
    <line x1="229.36" y1="380.12" x2="221.90" y2="379.47" stroke-opacity="0.789"/>
    <line x1="230.29" y1="374.84" x2="223.06" y2="372.90" stroke-opacity="0.789"/>
    <line x1="232.12" y1="369.80" x2="225.34" y2="366.64" stroke-opacity="0.789"/>
    <line x1="234.81" y1="365.16" x2="228.67" y2="360.86" stroke-opacity="0.789"/>
    <line x1="238.25" y1="361.05" x2="232.96" y2="355.76" stroke-opacity="0.789"/>
    <line x1="242.36" y1="357.61" x2="238.06" y2="351.47" stroke-opacity="0.789"/>
    <line x1="247.00" y1="354.92" x2="243.84" y2="348.14" stroke-opacity="0.789"/>
    <line x1="252.04" y1="353.09" x2="250.10" y2="345.86" stroke-opacity="0.789"/>
    <line x1="257.32" y1="352.16" x2="256.67" y2="344.70" stroke-opacity="0.789"/>
    <line x1="262.68" y1="352.16" x2="263.33" y2="344.70" stroke-opacity="0.789"/>
    <line x1="267.96" y1="353.09" x2="269.90" y2="345.86" stroke-opacity="0.789"/>
    <line x1="273.00" y1="354.92" x2="276.16" y2="348.14" stroke-opacity="0.789"/>
    <line x1="277.64" y1="357.61" x2="281.94" y2="351.47" stroke-opacity="0.789"/>
    <line x1="281.75" y1="361.05" x2="287.04" y2="355.76" stroke-opacity="0.789"/>
    <line x1="285.19" y1="365.16" x2="291.33" y2="360.86" stroke-opacity="0.789"/>
    <line x1="287.88" y1="369.80" x2="294.66" y2="366.64" stroke-opacity="0.789"/>
    <line x1="289.71" y1="374.84" x2="296.94" y2="372.90" stroke-opacity="0.789"/>
    <line x1="290.64" y1="380.12" x2="298.10" y2="379.47" stroke-opacity="0.789"/>
    <line x1="298.24" y1="382.80" x2="307.55" y2="382.80" stroke-opacity="0.783"/>
    <line x1="297.66" y1="389.44" x2="306.83" y2="391.06" stroke-opacity="0.783"/>
    <line x1="295.94" y1="395.88" x2="304.68" y2="399.06" stroke-opacity="0.783"/>
    <line x1="293.12" y1="401.92" x2="301.18" y2="406.58" stroke-opacity="0.783"/>
    <line x1="289.30" y1="407.38" x2="296.43" y2="413.37" stroke-opacity="0.783"/>
    <line x1="284.58" y1="412.10" x2="290.57" y2="419.23" stroke-opacity="0.783"/>
    <line x1="279.12" y1="415.92" x2="283.78" y2="423.98" stroke-opacity="0.783"/>
    <line x1="273.08" y1="418.74" x2="276.26" y2="427.48" stroke-opacity="0.783"/>
    <line x1="266.64" y1="420.46" x2="268.26" y2="429.63" stroke-opacity="0.783"/>
    <line x1="260.00" y1="421.04" x2="260.00" y2="430.35" stroke-opacity="0.783"/>
    <line x1="253.36" y1="420.46" x2="251.74" y2="429.63" stroke-opacity="0.783"/>
    <line x1="246.92" y1="418.74" x2="243.74" y2="427.48" stroke-opacity="0.783"/>
    <line x1="240.88" y1="415.92" x2="236.22" y2="423.98" stroke-opacity="0.783"/>
    <line x1="235.42" y1="412.10" x2="229.43" y2="419.23" stroke-opacity="0.783"/>
    <line x1="230.70" y1="407.38" x2="223.57" y2="413.37" stroke-opacity="0.783"/>
    <line x1="226.88" y1="401.92" x2="218.82" y2="406.58" stroke-opacity="0.783"/>
    <line x1="224.06" y1="395.88" x2="215.32" y2="399.06" stroke-opacity="0.783"/>
    <line x1="222.34" y1="389.44" x2="213.17" y2="391.06" stroke-opacity="0.783"/>
    <line x1="221.76" y1="382.80" x2="212.45" y2="382.80" stroke-opacity="0.783"/>
    <line x1="222.34" y1="376.16" x2="213.17" y2="374.54" stroke-opacity="0.783"/>
    <line x1="224.06" y1="369.72" x2="215.32" y2="366.54" stroke-opacity="0.783"/>
    <line x1="226.88" y1="363.68" x2="218.82" y2="359.02" stroke-opacity="0.783"/>
    <line x1="230.70" y1="358.22" x2="223.57" y2="352.23" stroke-opacity="0.783"/>
    <line x1="235.42" y1="353.50" x2="229.43" y2="346.37" stroke-opacity="0.783"/>
    <line x1="240.88" y1="349.68" x2="236.22" y2="341.62" stroke-opacity="0.783"/>
    <line x1="246.92" y1="346.86" x2="243.74" y2="338.12" stroke-opacity="0.783"/>
    <line x1="253.36" y1="345.14" x2="251.74" y2="335.97" stroke-opacity="0.783"/>
    <line x1="260.00" y1="344.56" x2="260.00" y2="335.25" stroke-opacity="0.783"/>
    <line x1="266.64" y1="345.14" x2="268.26" y2="335.97" stroke-opacity="0.783"/>
    <line x1="273.08" y1="346.86" x2="276.26" y2="338.12" stroke-opacity="0.783"/>
    <line x1="279.12" y1="349.68" x2="283.78" y2="341.62" stroke-opacity="0.783"/>
    <line x1="284.58" y1="353.50" x2="290.57" y2="346.37" stroke-opacity="0.783"/>
    <line x1="289.30" y1="358.22" x2="296.43" y2="352.23" stroke-opacity="0.783"/>
    <line x1="293.12" y1="363.68" x2="301.18" y2="359.02" stroke-opacity="0.783"/>
    <line x1="295.94" y1="369.72" x2="304.68" y2="366.54" stroke-opacity="0.783"/>
    <line x1="297.66" y1="376.16" x2="306.83" y2="374.54" stroke-opacity="0.783"/>
    <line x1="307.37" y1="386.94" x2="318.90" y2="387.95" stroke-opacity="0.774"/>
    <line x1="305.93" y1="395.11" x2="317.11" y2="398.10" stroke-opacity="0.774"/>
    <line x1="303.10" y1="402.90" x2="313.59" y2="407.79" stroke-opacity="0.774"/>
    <line x1="298.95" y1="410.07" x2="308.43" y2="416.71" stroke-opacity="0.774"/>
    <line x1="293.62" y1="416.42" x2="301.81" y2="424.61" stroke-opacity="0.774"/>
    <line x1="287.27" y1="421.75" x2="293.91" y2="431.23" stroke-opacity="0.774"/>
    <line x1="280.10" y1="425.90" x2="284.99" y2="436.39" stroke-opacity="0.774"/>
    <line x1="272.31" y1="428.73" x2="275.30" y2="439.91" stroke-opacity="0.774"/>
    <line x1="264.14" y1="430.17" x2="265.15" y2="441.70" stroke-opacity="0.774"/>
    <line x1="255.86" y1="430.17" x2="254.85" y2="441.70" stroke-opacity="0.774"/>
    <line x1="247.69" y1="428.73" x2="244.70" y2="439.91" stroke-opacity="0.774"/>
    <line x1="239.90" y1="425.90" x2="235.01" y2="436.39" stroke-opacity="0.774"/>
    <line x1="232.73" y1="421.75" x2="226.09" y2="431.23" stroke-opacity="0.774"/>
    <line x1="226.38" y1="416.42" x2="218.19" y2="424.61" stroke-opacity="0.774"/>
    <line x1="221.05" y1="410.07" x2="211.57" y2="416.71" stroke-opacity="0.774"/>
    <line x1="216.90" y1="402.90" x2="206.41" y2="407.79" stroke-opacity="0.774"/>
    <line x1="214.07" y1="395.11" x2="202.89" y2="398.10" stroke-opacity="0.774"/>
    <line x1="212.63" y1="386.94" x2="201.10" y2="387.95" stroke-opacity="0.774"/>
    <line x1="212.63" y1="378.66" x2="201.10" y2="377.65" stroke-opacity="0.774"/>
    <line x1="214.07" y1="370.49" x2="202.89" y2="367.50" stroke-opacity="0.774"/>
    <line x1="216.90" y1="362.70" x2="206.41" y2="357.81" stroke-opacity="0.774"/>
    <line x1="221.05" y1="355.53" x2="211.57" y2="348.89" stroke-opacity="0.774"/>
    <line x1="226.38" y1="349.18" x2="218.19" y2="340.99" stroke-opacity="0.774"/>
    <line x1="232.73" y1="343.85" x2="226.09" y2="334.37" stroke-opacity="0.774"/>
    <line x1="239.90" y1="339.70" x2="235.01" y2="329.21" stroke-opacity="0.774"/>
    <line x1="247.69" y1="336.87" x2="244.70" y2="325.69" stroke-opacity="0.774"/>
    <line x1="255.86" y1="335.43" x2="254.85" y2="323.90" stroke-opacity="0.774"/>
    <line x1="264.14" y1="335.43" x2="265.15" y2="323.90" stroke-opacity="0.774"/>
    <line x1="272.31" y1="336.87" x2="275.30" y2="325.69" stroke-opacity="0.774"/>
    <line x1="280.10" y1="339.70" x2="284.99" y2="329.21" stroke-opacity="0.774"/>
    <line x1="287.27" y1="343.85" x2="293.91" y2="334.37" stroke-opacity="0.774"/>
    <line x1="293.62" y1="349.18" x2="301.81" y2="340.99" stroke-opacity="0.774"/>
    <line x1="298.95" y1="355.53" x2="308.43" y2="348.89" stroke-opacity="0.774"/>
    <line x1="303.10" y1="362.70" x2="313.59" y2="357.81" stroke-opacity="0.774"/>
    <line x1="305.93" y1="370.49" x2="317.11" y2="367.50" stroke-opacity="0.774"/>
    <line x1="307.37" y1="378.66" x2="318.90" y2="377.65" stroke-opacity="0.774"/>
    <line x1="319.13" y1="382.80" x2="333.52" y2="382.80" stroke-opacity="0.763"/>
    <line x1="318.23" y1="393.07" x2="332.40" y2="395.57" stroke-opacity="0.763"/>
    <line x1="315.56" y1="403.02" x2="329.08" y2="407.94" stroke-opacity="0.763"/>
    <line x1="311.20" y1="412.36" x2="323.67" y2="419.56" stroke-opacity="0.763"/>
    <line x1="305.29" y1="420.80" x2="316.32" y2="430.06" stroke-opacity="0.763"/>
    <line x1="298.00" y1="428.09" x2="307.26" y2="439.12" stroke-opacity="0.763"/>
    <line x1="289.56" y1="434.00" x2="296.76" y2="446.47" stroke-opacity="0.763"/>
    <line x1="280.22" y1="438.36" x2="285.14" y2="451.88" stroke-opacity="0.763"/>
    <line x1="270.27" y1="441.03" x2="272.77" y2="455.20" stroke-opacity="0.763"/>
    <line x1="260.00" y1="441.93" x2="260.00" y2="456.32" stroke-opacity="0.763"/>
    <line x1="249.73" y1="441.03" x2="247.23" y2="455.20" stroke-opacity="0.763"/>
    <line x1="239.78" y1="438.36" x2="234.86" y2="451.88" stroke-opacity="0.763"/>
    <line x1="230.44" y1="434.00" x2="223.24" y2="446.47" stroke-opacity="0.763"/>
    <line x1="222.00" y1="428.09" x2="212.74" y2="439.12" stroke-opacity="0.763"/>
    <line x1="214.71" y1="420.80" x2="203.68" y2="430.06" stroke-opacity="0.763"/>
    <line x1="208.80" y1="412.36" x2="196.33" y2="419.56" stroke-opacity="0.763"/>
    <line x1="204.44" y1="403.02" x2="190.92" y2="407.94" stroke-opacity="0.763"/>
    <line x1="201.77" y1="393.07" x2="187.60" y2="395.57" stroke-opacity="0.763"/>
    <line x1="200.87" y1="382.80" x2="186.48" y2="382.80" stroke-opacity="0.763"/>
    <line x1="201.77" y1="372.53" x2="187.60" y2="370.03" stroke-opacity="0.763"/>
    <line x1="204.44" y1="362.58" x2="190.92" y2="357.66" stroke-opacity="0.763"/>
    <line x1="208.80" y1="353.24" x2="196.33" y2="346.04" stroke-opacity="0.763"/>
    <line x1="214.71" y1="344.80" x2="203.68" y2="335.54" stroke-opacity="0.763"/>
    <line x1="222.00" y1="337.51" x2="212.74" y2="326.48" stroke-opacity="0.763"/>
    <line x1="230.44" y1="331.60" x2="223.24" y2="319.13" stroke-opacity="0.763"/>
    <line x1="239.78" y1="327.24" x2="234.86" y2="313.72" stroke-opacity="0.763"/>
    <line x1="249.73" y1="324.57" x2="247.23" y2="310.40" stroke-opacity="0.763"/>
    <line x1="260.00" y1="323.67" x2="260.00" y2="309.28" stroke-opacity="0.763"/>
    <line x1="270.27" y1="324.57" x2="272.77" y2="310.40" stroke-opacity="0.763"/>
    <line x1="280.22" y1="327.24" x2="285.14" y2="313.72" stroke-opacity="0.763"/>
    <line x1="289.56" y1="331.60" x2="296.76" y2="319.13" stroke-opacity="0.763"/>
    <line x1="298.00" y1="337.51" x2="307.26" y2="326.48" stroke-opacity="0.763"/>
    <line x1="305.29" y1="344.80" x2="316.32" y2="335.54" stroke-opacity="0.763"/>
    <line x1="311.20" y1="353.24" x2="323.67" y2="346.04" stroke-opacity="0.763"/>
    <line x1="315.56" y1="362.58" x2="329.08" y2="357.66" stroke-opacity="0.763"/>
    <line x1="318.23" y1="372.53" x2="332.40" y2="370.03" stroke-opacity="0.763"/>
    <line x1="333.24" y1="389.21" x2="351.06" y2="390.77" stroke-opacity="0.748"/>
    <line x1="331.01" y1="401.83" x2="348.29" y2="406.46" stroke-opacity="0.748"/>
    <line x1="326.63" y1="413.87" x2="342.84" y2="421.43" stroke-opacity="0.748"/>
    <line x1="320.22" y1="424.97" x2="334.88" y2="435.23" stroke-opacity="0.748"/>
    <line x1="311.98" y1="434.78" x2="324.64" y2="447.44" stroke-opacity="0.748"/>
    <line x1="302.17" y1="443.02" x2="312.43" y2="457.68" stroke-opacity="0.748"/>
    <line x1="291.07" y1="449.43" x2="298.63" y2="465.64" stroke-opacity="0.748"/>
    <line x1="279.03" y1="453.81" x2="283.66" y2="471.09" stroke-opacity="0.748"/>
    <line x1="266.41" y1="456.04" x2="267.97" y2="473.86" stroke-opacity="0.748"/>
    <line x1="253.59" y1="456.04" x2="252.03" y2="473.86" stroke-opacity="0.748"/>
    <line x1="240.97" y1="453.81" x2="236.34" y2="471.09" stroke-opacity="0.748"/>
    <line x1="228.93" y1="449.43" x2="221.37" y2="465.64" stroke-opacity="0.748"/>
    <line x1="217.83" y1="443.02" x2="207.57" y2="457.68" stroke-opacity="0.748"/>
    <line x1="208.02" y1="434.78" x2="195.36" y2="447.44" stroke-opacity="0.748"/>
    <line x1="199.78" y1="424.97" x2="185.12" y2="435.23" stroke-opacity="0.748"/>
    <line x1="193.37" y1="413.87" x2="177.16" y2="421.43" stroke-opacity="0.748"/>
    <line x1="188.99" y1="401.83" x2="171.71" y2="406.46" stroke-opacity="0.748"/>
    <line x1="186.76" y1="389.21" x2="168.94" y2="390.77" stroke-opacity="0.748"/>
    <line x1="186.76" y1="376.39" x2="168.94" y2="374.83" stroke-opacity="0.748"/>
    <line x1="188.99" y1="363.77" x2="171.71" y2="359.14" stroke-opacity="0.748"/>
    <line x1="193.37" y1="351.73" x2="177.16" y2="344.17" stroke-opacity="0.748"/>
    <line x1="199.78" y1="340.63" x2="185.12" y2="330.37" stroke-opacity="0.748"/>
    <line x1="208.02" y1="330.82" x2="195.36" y2="318.16" stroke-opacity="0.748"/>
    <line x1="217.83" y1="322.58" x2="207.57" y2="307.92" stroke-opacity="0.748"/>
    <line x1="228.93" y1="316.17" x2="221.37" y2="299.96" stroke-opacity="0.748"/>
    <line x1="240.97" y1="311.79" x2="236.34" y2="294.51" stroke-opacity="0.748"/>
    <line x1="253.59" y1="309.56" x2="252.03" y2="291.74" stroke-opacity="0.748"/>
    <line x1="266.41" y1="309.56" x2="267.97" y2="291.74" stroke-opacity="0.748"/>
    <line x1="279.03" y1="311.79" x2="283.66" y2="294.51" stroke-opacity="0.748"/>
    <line x1="291.07" y1="316.17" x2="298.63" y2="299.96" stroke-opacity="0.748"/>
    <line x1="302.17" y1="322.58" x2="312.43" y2="307.92" stroke-opacity="0.748"/>
    <line x1="311.98" y1="330.82" x2="324.64" y2="318.16" stroke-opacity="0.748"/>
    <line x1="320.22" y1="340.63" x2="334.88" y2="330.37" stroke-opacity="0.748"/>
    <line x1="326.63" y1="351.73" x2="342.84" y2="344.17" stroke-opacity="0.748"/>
    <line x1="331.01" y1="363.77" x2="348.29" y2="359.14" stroke-opacity="0.748"/>
    <line x1="333.24" y1="376.39" x2="351.06" y2="374.83" stroke-opacity="0.748"/>
    <line x1="351.41" y1="382.80" x2="373.66" y2="382.80" stroke-opacity="0.729"/>
    <line x1="350.02" y1="398.67" x2="371.93" y2="402.54" stroke-opacity="0.729"/>
    <line x1="345.90" y1="414.06" x2="366.80" y2="421.67" stroke-opacity="0.729"/>
    <line x1="339.16" y1="428.50" x2="358.43" y2="439.63" stroke-opacity="0.729"/>
    <line x1="330.02" y1="441.56" x2="347.07" y2="455.86" stroke-opacity="0.729"/>
    <line x1="318.76" y1="452.82" x2="333.06" y2="469.87" stroke-opacity="0.729"/>
    <line x1="305.70" y1="461.96" x2="316.83" y2="481.23" stroke-opacity="0.729"/>
    <line x1="291.26" y1="468.70" x2="298.87" y2="489.60" stroke-opacity="0.729"/>
    <line x1="275.87" y1="472.82" x2="279.74" y2="494.73" stroke-opacity="0.729"/>
    <line x1="260.00" y1="474.21" x2="260.00" y2="496.46" stroke-opacity="0.729"/>
    <line x1="244.13" y1="472.82" x2="240.26" y2="494.73" stroke-opacity="0.729"/>
    <line x1="228.74" y1="468.70" x2="221.13" y2="489.60" stroke-opacity="0.729"/>
    <line x1="214.30" y1="461.96" x2="203.17" y2="481.23" stroke-opacity="0.729"/>
    <line x1="201.24" y1="452.82" x2="186.94" y2="469.87" stroke-opacity="0.729"/>
    <line x1="189.98" y1="441.56" x2="172.93" y2="455.86" stroke-opacity="0.729"/>
    <line x1="180.84" y1="428.50" x2="161.57" y2="439.63" stroke-opacity="0.729"/>
    <line x1="174.10" y1="414.06" x2="153.20" y2="421.67" stroke-opacity="0.729"/>
    <line x1="169.98" y1="398.67" x2="148.07" y2="402.54" stroke-opacity="0.729"/>
    <line x1="168.59" y1="382.80" x2="146.34" y2="382.80" stroke-opacity="0.729"/>
    <line x1="169.98" y1="366.93" x2="148.07" y2="363.06" stroke-opacity="0.729"/>
    <line x1="174.10" y1="351.54" x2="153.20" y2="343.93" stroke-opacity="0.729"/>
    <line x1="180.84" y1="337.10" x2="161.57" y2="325.97" stroke-opacity="0.729"/>
    <line x1="189.98" y1="324.04" x2="172.93" y2="309.74" stroke-opacity="0.729"/>
    <line x1="201.24" y1="312.78" x2="186.94" y2="295.73" stroke-opacity="0.729"/>
    <line x1="214.30" y1="303.64" x2="203.17" y2="284.37" stroke-opacity="0.729"/>
    <line x1="228.74" y1="296.90" x2="221.13" y2="276.00" stroke-opacity="0.729"/>
    <line x1="244.13" y1="292.78" x2="240.26" y2="270.87" stroke-opacity="0.729"/>
    <line x1="260.00" y1="291.39" x2="260.00" y2="269.14" stroke-opacity="0.729"/>
    <line x1="275.87" y1="292.78" x2="279.74" y2="270.87" stroke-opacity="0.729"/>
    <line x1="291.26" y1="296.90" x2="298.87" y2="276.00" stroke-opacity="0.729"/>
    <line x1="305.70" y1="303.64" x2="316.83" y2="284.37" stroke-opacity="0.729"/>
    <line x1="318.76" y1="312.78" x2="333.06" y2="295.73" stroke-opacity="0.729"/>
    <line x1="330.02" y1="324.04" x2="347.07" y2="309.74" stroke-opacity="0.729"/>
    <line x1="339.16" y1="337.10" x2="358.43" y2="325.97" stroke-opacity="0.729"/>
    <line x1="345.90" y1="351.54" x2="366.80" y2="343.93" stroke-opacity="0.729"/>
    <line x1="350.02" y1="366.93" x2="371.93" y2="363.06" stroke-opacity="0.729"/>
    <line x1="373.22" y1="392.71" x2="400.78" y2="395.12" stroke-opacity="0.704"/>
    <line x1="369.78" y1="412.22" x2="396.51" y2="419.38" stroke-opacity="0.704"/>
    <line x1="363.01" y1="430.83" x2="388.08" y2="442.52" stroke-opacity="0.704"/>
    <line x1="353.10" y1="447.99" x2="375.76" y2="463.86" stroke-opacity="0.704"/>
    <line x1="340.37" y1="463.17" x2="359.93" y2="482.73" stroke-opacity="0.704"/>
    <line x1="325.19" y1="475.90" x2="341.06" y2="498.56" stroke-opacity="0.704"/>
    <line x1="308.03" y1="485.81" x2="319.72" y2="510.88" stroke-opacity="0.704"/>
    <line x1="289.42" y1="492.58" x2="296.58" y2="519.31" stroke-opacity="0.704"/>
    <line x1="269.91" y1="496.02" x2="272.32" y2="523.58" stroke-opacity="0.704"/>
    <line x1="250.09" y1="496.02" x2="247.68" y2="523.58" stroke-opacity="0.704"/>
    <line x1="230.58" y1="492.58" x2="223.42" y2="519.31" stroke-opacity="0.704"/>
    <line x1="211.97" y1="485.81" x2="200.28" y2="510.88" stroke-opacity="0.704"/>
    <line x1="194.81" y1="475.90" x2="178.94" y2="498.56" stroke-opacity="0.704"/>
    <line x1="179.63" y1="463.17" x2="160.07" y2="482.73" stroke-opacity="0.704"/>
    <line x1="166.90" y1="447.99" x2="144.24" y2="463.86" stroke-opacity="0.704"/>
    <line x1="156.99" y1="430.83" x2="131.92" y2="442.52" stroke-opacity="0.704"/>
    <line x1="150.22" y1="412.22" x2="123.49" y2="419.38" stroke-opacity="0.704"/>
    <line x1="146.78" y1="392.71" x2="119.22" y2="395.12" stroke-opacity="0.704"/>
    <line x1="146.78" y1="372.89" x2="119.22" y2="370.48" stroke-opacity="0.704"/>
    <line x1="150.22" y1="353.38" x2="123.49" y2="346.22" stroke-opacity="0.704"/>
    <line x1="156.99" y1="334.77" x2="131.92" y2="323.08" stroke-opacity="0.704"/>
    <line x1="166.90" y1="317.61" x2="144.24" y2="301.74" stroke-opacity="0.704"/>
    <line x1="179.63" y1="302.43" x2="160.07" y2="282.87" stroke-opacity="0.704"/>
    <line x1="194.81" y1="289.70" x2="178.94" y2="267.04" stroke-opacity="0.704"/>
    <line x1="211.97" y1="279.79" x2="200.28" y2="254.72" stroke-opacity="0.704"/>
    <line x1="230.58" y1="273.02" x2="223.42" y2="246.29" stroke-opacity="0.704"/>
    <line x1="250.09" y1="269.58" x2="247.68" y2="242.02" stroke-opacity="0.704"/>
    <line x1="269.91" y1="269.58" x2="272.32" y2="242.02" stroke-opacity="0.704"/>
    <line x1="289.42" y1="273.02" x2="296.58" y2="246.29" stroke-opacity="0.704"/>
    <line x1="308.03" y1="279.79" x2="319.72" y2="254.72" stroke-opacity="0.704"/>
    <line x1="325.19" y1="289.70" x2="341.06" y2="267.04" stroke-opacity="0.704"/>
    <line x1="340.37" y1="302.43" x2="359.93" y2="282.87" stroke-opacity="0.704"/>
    <line x1="353.10" y1="317.61" x2="375.76" y2="301.74" stroke-opacity="0.704"/>
    <line x1="363.01" y1="334.77" x2="388.08" y2="323.08" stroke-opacity="0.704"/>
    <line x1="369.78" y1="353.38" x2="396.51" y2="346.22" stroke-opacity="0.704"/>
    <line x1="373.22" y1="372.89" x2="400.78" y2="370.48" stroke-opacity="0.704"/>
    <line x1="401.32" y1="382.80" x2="435.72" y2="382.80" stroke-opacity="0.671"/>
    <line x1="399.17" y1="407.34" x2="433.05" y2="413.31" stroke-opacity="0.671"/>
    <line x1="392.80" y1="431.13" x2="425.12" y2="442.90" stroke-opacity="0.671"/>
    <line x1="382.39" y1="453.46" x2="412.18" y2="470.66" stroke-opacity="0.671"/>
    <line x1="368.26" y1="473.64" x2="394.61" y2="495.75" stroke-opacity="0.671"/>
    <line x1="350.84" y1="491.06" x2="372.95" y2="517.41" stroke-opacity="0.671"/>
    <line x1="330.66" y1="505.19" x2="347.86" y2="534.98" stroke-opacity="0.671"/>
    <line x1="308.33" y1="515.60" x2="320.10" y2="547.92" stroke-opacity="0.671"/>
    <line x1="284.54" y1="521.97" x2="290.51" y2="555.85" stroke-opacity="0.671"/>
    <line x1="260.00" y1="524.12" x2="260.00" y2="558.52" stroke-opacity="0.671"/>
    <line x1="235.46" y1="521.97" x2="229.49" y2="555.85" stroke-opacity="0.671"/>
    <line x1="211.67" y1="515.60" x2="199.90" y2="547.92" stroke-opacity="0.671"/>
    <line x1="189.34" y1="505.19" x2="172.14" y2="534.98" stroke-opacity="0.671"/>
    <line x1="169.16" y1="491.06" x2="147.05" y2="517.41" stroke-opacity="0.671"/>
    <line x1="151.74" y1="473.64" x2="125.39" y2="495.75" stroke-opacity="0.671"/>
    <line x1="137.61" y1="453.46" x2="107.82" y2="470.66" stroke-opacity="0.671"/>
    <line x1="127.20" y1="431.13" x2="94.88" y2="442.90" stroke-opacity="0.671"/>
    <line x1="120.83" y1="407.34" x2="86.95" y2="413.31" stroke-opacity="0.671"/>
    <line x1="118.68" y1="382.80" x2="84.28" y2="382.80" stroke-opacity="0.671"/>
    <line x1="120.83" y1="358.26" x2="86.95" y2="352.29" stroke-opacity="0.671"/>
    <line x1="127.20" y1="334.47" x2="94.88" y2="322.70" stroke-opacity="0.671"/>
    <line x1="137.61" y1="312.14" x2="107.82" y2="294.94" stroke-opacity="0.671"/>
    <line x1="151.74" y1="291.96" x2="125.39" y2="269.85" stroke-opacity="0.671"/>
    <line x1="169.16" y1="274.54" x2="147.05" y2="248.19" stroke-opacity="0.671"/>
    <line x1="189.34" y1="260.41" x2="172.14" y2="230.62" stroke-opacity="0.671"/>
    <line x1="211.67" y1="250.00" x2="199.90" y2="217.68" stroke-opacity="0.671"/>
    <line x1="235.46" y1="243.63" x2="229.49" y2="209.75" stroke-opacity="0.671"/>
    <line x1="260.00" y1="241.48" x2="260.00" y2="207.08" stroke-opacity="0.671"/>
    <line x1="284.54" y1="243.63" x2="290.51" y2="209.75" stroke-opacity="0.671"/>
    <line x1="308.33" y1="250.00" x2="320.10" y2="217.68" stroke-opacity="0.671"/>
    <line x1="330.66" y1="260.41" x2="347.86" y2="230.62" stroke-opacity="0.671"/>
    <line x1="350.84" y1="274.54" x2="372.95" y2="248.19" stroke-opacity="0.671"/>
    <line x1="368.26" y1="291.96" x2="394.61" y2="269.85" stroke-opacity="0.671"/>
    <line x1="382.39" y1="312.14" x2="412.18" y2="294.94" stroke-opacity="0.671"/>
    <line x1="392.80" y1="334.47" x2="425.12" y2="322.70" stroke-opacity="0.671"/>
    <line x1="399.17" y1="358.26" x2="433.05" y2="352.29" stroke-opacity="0.671"/>
    <line x1="435.05" y1="398.11" x2="477.65" y2="401.84" stroke-opacity="0.628"/>
    <line x1="429.73" y1="428.28" x2="471.04" y2="439.35" stroke-opacity="0.628"/>
    <line x1="419.25" y1="457.06" x2="458.02" y2="475.14" stroke-opacity="0.628"/>
    <line x1="403.94" y1="483.59" x2="438.97" y2="508.12" stroke-opacity="0.628"/>
    <line x1="384.25" y1="507.05" x2="414.49" y2="537.29" stroke-opacity="0.628"/>
    <line x1="360.79" y1="526.74" x2="385.32" y2="561.77" stroke-opacity="0.628"/>
    <line x1="334.26" y1="542.05" x2="352.34" y2="580.82" stroke-opacity="0.628"/>
    <line x1="305.48" y1="552.53" x2="316.55" y2="593.84" stroke-opacity="0.628"/>
    <line x1="275.31" y1="557.85" x2="279.04" y2="600.45" stroke-opacity="0.628"/>
    <line x1="244.69" y1="557.85" x2="240.96" y2="600.45" stroke-opacity="0.628"/>
    <line x1="214.52" y1="552.53" x2="203.45" y2="593.84" stroke-opacity="0.628"/>
    <line x1="185.74" y1="542.05" x2="167.66" y2="580.82" stroke-opacity="0.628"/>
    <line x1="159.21" y1="526.74" x2="134.68" y2="561.77" stroke-opacity="0.628"/>
    <line x1="135.75" y1="507.05" x2="105.51" y2="537.29" stroke-opacity="0.628"/>
    <line x1="116.06" y1="483.59" x2="81.03" y2="508.12" stroke-opacity="0.628"/>
    <line x1="100.75" y1="457.06" x2="61.98" y2="475.14" stroke-opacity="0.628"/>
    <line x1="90.27" y1="428.28" x2="48.96" y2="439.35" stroke-opacity="0.628"/>
    <line x1="84.95" y1="398.11" x2="42.35" y2="401.84" stroke-opacity="0.628"/>
    <line x1="84.95" y1="367.49" x2="42.35" y2="363.76" stroke-opacity="0.628"/>
    <line x1="90.27" y1="337.32" x2="48.96" y2="326.25" stroke-opacity="0.628"/>
    <line x1="100.75" y1="308.54" x2="61.98" y2="290.46" stroke-opacity="0.628"/>
    <line x1="116.06" y1="282.01" x2="81.03" y2="257.48" stroke-opacity="0.628"/>
    <line x1="135.75" y1="258.55" x2="105.51" y2="228.31" stroke-opacity="0.628"/>
    <line x1="159.21" y1="238.86" x2="134.68" y2="203.83" stroke-opacity="0.628"/>
    <line x1="185.74" y1="223.55" x2="167.66" y2="184.78" stroke-opacity="0.628"/>
    <line x1="214.52" y1="213.07" x2="203.45" y2="171.76" stroke-opacity="0.628"/>
    <line x1="244.69" y1="207.75" x2="240.96" y2="165.15" stroke-opacity="0.628"/>
    <line x1="275.31" y1="207.75" x2="279.04" y2="165.15" stroke-opacity="0.628"/>
    <line x1="305.48" y1="213.07" x2="316.55" y2="171.76" stroke-opacity="0.628"/>
    <line x1="334.26" y1="223.55" x2="352.34" y2="184.78" stroke-opacity="0.628"/>
    <line x1="360.79" y1="238.86" x2="385.32" y2="203.83" stroke-opacity="0.628"/>
    <line x1="384.25" y1="258.55" x2="414.49" y2="228.31" stroke-opacity="0.628"/>
    <line x1="403.94" y1="282.01" x2="438.97" y2="257.48" stroke-opacity="0.628"/>
    <line x1="419.25" y1="308.54" x2="458.02" y2="290.46" stroke-opacity="0.628"/>
    <line x1="429.73" y1="337.32" x2="471.04" y2="326.25" stroke-opacity="0.628"/>
    <line x1="435.05" y1="367.49" x2="477.65" y2="363.76" stroke-opacity="0.628"/>
    <line x1="478.49" y1="382.80" x2="531.66" y2="382.80" stroke-opacity="0.572"/>
    <line x1="475.17" y1="420.74" x2="527.54" y2="429.97" stroke-opacity="0.572"/>
    <line x1="465.31" y1="457.53" x2="515.28" y2="475.71" stroke-opacity="0.572"/>
    <line x1="449.21" y1="492.04" x2="495.27" y2="518.63" stroke-opacity="0.572"/>
    <line x1="427.37" y1="523.24" x2="468.11" y2="557.42" stroke-opacity="0.572"/>
    <line x1="400.44" y1="550.17" x2="434.62" y2="590.91" stroke-opacity="0.572"/>
    <line x1="369.24" y1="572.01" x2="395.83" y2="618.07" stroke-opacity="0.572"/>
    <line x1="334.73" y1="588.11" x2="352.91" y2="638.08" stroke-opacity="0.572"/>
    <line x1="297.94" y1="597.97" x2="307.17" y2="650.34" stroke-opacity="0.572"/>
    <line x1="260.00" y1="601.29" x2="260.00" y2="654.46" stroke-opacity="0.572"/>
    <line x1="222.06" y1="597.97" x2="212.83" y2="650.34" stroke-opacity="0.572"/>
    <line x1="185.27" y1="588.11" x2="167.09" y2="638.08" stroke-opacity="0.572"/>
    <line x1="150.76" y1="572.01" x2="124.17" y2="618.07" stroke-opacity="0.572"/>
    <line x1="119.56" y1="550.17" x2="85.38" y2="590.91" stroke-opacity="0.572"/>
    <line x1="92.63" y1="523.24" x2="51.89" y2="557.42" stroke-opacity="0.572"/>
    <line x1="70.79" y1="492.04" x2="24.73" y2="518.63" stroke-opacity="0.572"/>
    <line x1="54.69" y1="457.53" x2="4.72" y2="475.71" stroke-opacity="0.572"/>
    <line x1="44.83" y1="420.74" x2="-7.54" y2="429.97" stroke-opacity="0.572"/>
    <line x1="41.51" y1="382.80" x2="-11.66" y2="382.80" stroke-opacity="0.572"/>
    <line x1="44.83" y1="344.86" x2="-7.54" y2="335.63" stroke-opacity="0.572"/>
    <line x1="54.69" y1="308.07" x2="4.72" y2="289.89" stroke-opacity="0.572"/>
    <line x1="70.79" y1="273.56" x2="24.73" y2="246.97" stroke-opacity="0.572"/>
    <line x1="92.63" y1="242.36" x2="51.89" y2="208.18" stroke-opacity="0.572"/>
    <line x1="119.56" y1="215.43" x2="85.38" y2="174.69" stroke-opacity="0.572"/>
    <line x1="150.76" y1="193.59" x2="124.17" y2="147.53" stroke-opacity="0.572"/>
    <line x1="185.27" y1="177.49" x2="167.09" y2="127.52" stroke-opacity="0.572"/>
    <line x1="222.06" y1="167.63" x2="212.83" y2="115.26" stroke-opacity="0.572"/>
    <line x1="260.00" y1="164.31" x2="260.00" y2="111.14" stroke-opacity="0.572"/>
    <line x1="297.94" y1="167.63" x2="307.17" y2="115.26" stroke-opacity="0.572"/>
    <line x1="334.73" y1="177.49" x2="352.91" y2="127.52" stroke-opacity="0.572"/>
    <line x1="369.24" y1="193.59" x2="395.83" y2="147.53" stroke-opacity="0.572"/>
    <line x1="400.44" y1="215.43" x2="434.62" y2="174.69" stroke-opacity="0.572"/>
    <line x1="427.37" y1="242.36" x2="468.11" y2="208.18" stroke-opacity="0.572"/>
    <line x1="449.21" y1="273.56" x2="495.27" y2="246.97" stroke-opacity="0.572"/>
    <line x1="465.31" y1="308.07" x2="515.28" y2="289.89" stroke-opacity="0.572"/>
    <line x1="475.17" y1="344.86" x2="527.54" y2="335.63" stroke-opacity="0.572"/>
    <line x1="530.63" y1="406.48" x2="596.50" y2="412.24" stroke-opacity="0.499"/>
    <line x1="522.41" y1="453.11" x2="586.28" y2="470.23" stroke-opacity="0.499"/>
    <line x1="506.21" y1="497.61" x2="566.14" y2="525.55" stroke-opacity="0.499"/>
    <line x1="482.53" y1="538.62" x2="536.70" y2="576.55" stroke-opacity="0.499"/>
    <line x1="452.10" y1="574.90" x2="498.85" y2="621.65" stroke-opacity="0.499"/>
    <line x1="415.82" y1="605.33" x2="453.75" y2="659.50" stroke-opacity="0.499"/>
    <line x1="374.81" y1="629.01" x2="402.75" y2="688.94" stroke-opacity="0.499"/>
    <line x1="330.31" y1="645.21" x2="347.43" y2="709.08" stroke-opacity="0.499"/>
    <line x1="283.68" y1="653.43" x2="289.44" y2="719.30" stroke-opacity="0.499"/>
    <line x1="236.32" y1="653.43" x2="230.56" y2="719.30" stroke-opacity="0.499"/>
    <line x1="189.69" y1="645.21" x2="172.57" y2="709.08" stroke-opacity="0.499"/>
    <line x1="145.19" y1="629.01" x2="117.25" y2="688.94" stroke-opacity="0.499"/>
    <line x1="104.18" y1="605.33" x2="66.25" y2="659.50" stroke-opacity="0.499"/>
    <line x1="67.90" y1="574.90" x2="21.15" y2="621.65" stroke-opacity="0.499"/>
    <line x1="37.47" y1="538.62" x2="-16.70" y2="576.55" stroke-opacity="0.499"/>
    <line x1="13.79" y1="497.61" x2="-46.14" y2="525.55" stroke-opacity="0.499"/>
    <line x1="-2.41" y1="453.11" x2="-66.28" y2="470.23" stroke-opacity="0.499"/>
    <line x1="-10.63" y1="406.48" x2="-76.50" y2="412.24" stroke-opacity="0.499"/>
    <line x1="-10.63" y1="359.12" x2="-76.50" y2="353.36" stroke-opacity="0.499"/>
    <line x1="-2.41" y1="312.49" x2="-66.28" y2="295.37" stroke-opacity="0.499"/>
    <line x1="13.79" y1="267.99" x2="-46.14" y2="240.05" stroke-opacity="0.499"/>
    <line x1="37.47" y1="226.98" x2="-16.70" y2="189.05" stroke-opacity="0.499"/>
    <line x1="67.90" y1="190.70" x2="21.15" y2="143.95" stroke-opacity="0.499"/>
    <line x1="104.18" y1="160.27" x2="66.25" y2="106.10" stroke-opacity="0.499"/>
    <line x1="145.19" y1="136.59" x2="117.25" y2="76.66" stroke-opacity="0.499"/>
    <line x1="189.69" y1="120.39" x2="172.57" y2="56.52" stroke-opacity="0.499"/>
    <line x1="236.32" y1="112.17" x2="230.56" y2="46.30" stroke-opacity="0.499"/>
    <line x1="283.68" y1="112.17" x2="289.44" y2="46.30" stroke-opacity="0.499"/>
    <line x1="330.31" y1="120.39" x2="347.43" y2="56.52" stroke-opacity="0.499"/>
    <line x1="374.81" y1="136.59" x2="402.75" y2="76.66" stroke-opacity="0.499"/>
    <line x1="415.82" y1="160.27" x2="453.75" y2="106.10" stroke-opacity="0.499"/>
    <line x1="452.10" y1="190.70" x2="498.85" y2="143.95" stroke-opacity="0.499"/>
    <line x1="482.53" y1="226.98" x2="536.70" y2="189.05" stroke-opacity="0.499"/>
    <line x1="506.21" y1="267.99" x2="566.14" y2="240.05" stroke-opacity="0.499"/>
    <line x1="522.41" y1="312.49" x2="586.28" y2="295.37" stroke-opacity="0.499"/>
    <line x1="530.63" y1="359.12" x2="596.50" y2="353.36" stroke-opacity="0.499"/>
    <line x1="597.79" y1="382.80" x2="680.00" y2="382.80" stroke-opacity="0.404"/>
    <line x1="592.65" y1="441.46" x2="673.62" y2="455.73" stroke-opacity="0.404"/>
    <line x1="577.41" y1="498.33" x2="654.67" y2="526.45" stroke-opacity="0.404"/>
    <line x1="552.53" y1="551.69" x2="623.73" y2="592.80" stroke-opacity="0.404"/>
    <line x1="518.76" y1="599.92" x2="581.74" y2="652.77" stroke-opacity="0.404"/>
    <line x1="477.12" y1="641.56" x2="529.97" y2="704.54" stroke-opacity="0.404"/>
    <line x1="428.89" y1="675.33" x2="470.00" y2="746.53" stroke-opacity="0.404"/>
    <line x1="375.53" y1="700.21" x2="403.65" y2="777.47" stroke-opacity="0.404"/>
    <line x1="318.66" y1="715.45" x2="332.93" y2="796.42" stroke-opacity="0.404"/>
    <line x1="260.00" y1="720.59" x2="260.00" y2="802.80" stroke-opacity="0.404"/>
    <line x1="201.34" y1="715.45" x2="187.07" y2="796.42" stroke-opacity="0.404"/>
    <line x1="144.47" y1="700.21" x2="116.35" y2="777.47" stroke-opacity="0.404"/>
    <line x1="91.11" y1="675.33" x2="50.00" y2="746.53" stroke-opacity="0.404"/>
    <line x1="42.88" y1="641.56" x2="-9.97" y2="704.54" stroke-opacity="0.404"/>
    <line x1="1.24" y1="599.92" x2="-61.74" y2="652.77" stroke-opacity="0.404"/>
    <line x1="-32.53" y1="551.69" x2="-103.73" y2="592.80" stroke-opacity="0.404"/>
    <line x1="-57.41" y1="498.33" x2="-134.67" y2="526.45" stroke-opacity="0.404"/>
    <line x1="-72.65" y1="441.46" x2="-153.62" y2="455.73" stroke-opacity="0.404"/>
    <line x1="-77.79" y1="382.80" x2="-160.00" y2="382.80" stroke-opacity="0.404"/>
    <line x1="-72.65" y1="324.14" x2="-153.62" y2="309.87" stroke-opacity="0.404"/>
    <line x1="-57.41" y1="267.27" x2="-134.67" y2="239.15" stroke-opacity="0.404"/>
    <line x1="-32.53" y1="213.91" x2="-103.73" y2="172.80" stroke-opacity="0.404"/>
    <line x1="1.24" y1="165.68" x2="-61.74" y2="112.83" stroke-opacity="0.404"/>
    <line x1="42.88" y1="124.04" x2="-9.97" y2="61.06" stroke-opacity="0.404"/>
    <line x1="91.11" y1="90.27" x2="50.00" y2="19.07" stroke-opacity="0.404"/>
    <line x1="144.47" y1="65.39" x2="116.35" y2="-11.87" stroke-opacity="0.404"/>
    <line x1="201.34" y1="50.15" x2="187.07" y2="-30.82" stroke-opacity="0.404"/>
    <line x1="260.00" y1="45.01" x2="260.00" y2="-37.20" stroke-opacity="0.404"/>
    <line x1="318.66" y1="50.15" x2="332.93" y2="-30.82" stroke-opacity="0.404"/>
    <line x1="375.53" y1="65.39" x2="403.65" y2="-11.87" stroke-opacity="0.404"/>
    <line x1="428.89" y1="90.27" x2="470.00" y2="19.07" stroke-opacity="0.404"/>
    <line x1="477.12" y1="124.04" x2="529.97" y2="61.06" stroke-opacity="0.404"/>
    <line x1="518.76" y1="165.68" x2="581.74" y2="112.83" stroke-opacity="0.404"/>
    <line x1="552.53" y1="213.91" x2="623.73" y2="172.80" stroke-opacity="0.404"/>
    <line x1="577.41" y1="267.27" x2="654.67" y2="239.15" stroke-opacity="0.404"/>
    <line x1="592.65" y1="324.14" x2="673.62" y2="309.87" stroke-opacity="0.404"/>
  </g>
  <text x="260.0" y="8" font-family="Didot, 'Bodoni 72', 'Bodoni MT', Georgia, serif" font-weight="700" font-size="520" fill="#FFFFFF" text-anchor="middle" dominant-baseline="text-before-edge">I</text>
</svg>