<svg xmlns="http://www.w3.org/2000/svg" viewBox="0 0 282 660" width="282" height="660">
  <rect width="100%" height="100%" fill="#0A0A0E"/>
  <g stroke="#C07FA0" fill="none" stroke-width="1">
    <circle cx="141.00" cy="382.80" r="16.00" stroke-opacity="0.800"/>
    <circle cx="141.00" cy="382.80" r="19.10" stroke-opacity="0.797"/>
    <circle cx="141.00" cy="382.80" r="22.80" stroke-opacity="0.793"/>
    <circle cx="141.00" cy="382.80" r="27.21" stroke-opacity="0.787"/>
    <circle cx="141.00" cy="382.80" r="32.49" stroke-opacity="0.779"/>
    <circle cx="141.00" cy="382.80" r="38.78" stroke-opacity="0.769"/>
    <circle cx="141.00" cy="382.80" r="46.29" stroke-opacity="0.756"/>
    <circle cx="141.00" cy="382.80" r="55.25" stroke-opacity="0.740"/>
    <circle cx="141.00" cy="382.80" r="65.96" stroke-opacity="0.720"/>
    <circle cx="141.00" cy="382.80" r="78.73" stroke-opacity="0.695"/>
    <circle cx="141.00" cy="382.80" r="93.98" stroke-opacity="0.664"/>
    <circle cx="141.00" cy="382.80" r="112.18" stroke-opacity="0.625"/>
    <circle cx="141.00" cy="382.80" r="133.91" stroke-opacity="0.577"/>
    <circle cx="141.00" cy="382.80" r="159.85" stroke-opacity="0.517"/>
    <circle cx="141.00" cy="382.80" r="190.81" stroke-opacity="0.443"/>
    <circle cx="141.00" cy="382.80" r="227.77" stroke-opacity="0.350"/>
  </g>
  <g stroke="#C07FA0" fill="none" stroke-width="1">
    <line x1="157.00" y1="382.80" x2="160.10" y2="382.80" stroke-opacity="0.799"/>
    <line x1="156.76" y1="385.58" x2="159.81" y2="386.12" stroke-opacity="0.799"/>
    <line x1="156.04" y1="388.27" x2="158.95" y2="389.33" stroke-opacity="0.799"/>
    <line x1="154.86" y1="390.80" x2="157.54" y2="392.35" stroke-opacity="0.799"/>
    <line x1="153.26" y1="393.08" x2="155.63" y2="395.08" stroke-opacity="0.799"/>
    <line x1="151.28" y1="395.06" x2="153.28" y2="397.43" stroke-opacity="0.799"/>
    <line x1="149.00" y1="396.66" x2="150.55" y2="399.34" stroke-opacity="0.799"/>
    <line x1="146.47" y1="397.84" x2="147.53" y2="400.75" stroke-opacity="0.799"/>
    <line x1="143.78" y1="398.56" x2="144.32" y2="401.61" stroke-opacity="0.799"/>
    <line x1="141.00" y1="398.80" x2="141.00" y2="401.90" stroke-opacity="0.799"/>
    <line x1="138.22" y1="398.56" x2="137.68" y2="401.61" stroke-opacity="0.799"/>
    <line x1="135.53" y1="397.84" x2="134.47" y2="400.75" stroke-opacity="0.799"/>
    <line x1="133.00" y1="396.66" x2="131.45" y2="399.34" stroke-opacity="0.799"/>
    <line x1="130.72" y1="395.06" x2="128.72" y2="397.43" stroke-opacity="0.799"/>
    <line x1="128.74" y1="393.08" x2="126.37" y2="395.08" stroke-opacity="0.799"/>
    <line x1="127.14" y1="390.80" x2="124.46" y2="392.35" stroke-opacity="0.799"/>
    <line x1="125.96" y1="388.27" x2="123.05" y2="389.33" stroke-opacity="0.799"/>
    <line x1="125.24" y1="385.58" x2="122.19" y2="386.12" stroke-opacity="0.799"/>
    <line x1="125.00" y1="382.80" x2="121.90" y2="382.80" stroke-opacity="0.799"/>
    <line x1="125.24" y1="380.02" x2="122.19" y2="379.48" stroke-opacity="0.799"/>
    <line x1="125.96" y1="377.33" x2="123.05" y2="376.27" stroke-opacity="0.799"/>
    <line x1="127.14" y1="374.80" x2="124.46" y2="373.25" stroke-opacity="0.799"/>
    <line x1="128.74" y1="372.52" x2="126.37" y2="370.52" stroke-opacity="0.799"/>
    <line x1="130.72" y1="370.54" x2="128.72" y2="368.17" stroke-opacity="0.799"/>
    <line x1="133.00" y1="368.94" x2="131.45" y2="366.26" stroke-opacity="0.799"/>
    <line x1="135.53" y1="367.76" x2="134.47" y2="364.85" stroke-opacity="0.799"/>
    <line x1="138.22" y1="367.04" x2="137.68" y2="363.99" stroke-opacity="0.799"/>
    <line x1="141.00" y1="366.80" x2="141.00" y2="363.70" stroke-opacity="0.799"/>
    <line x1="143.78" y1="367.04" x2="144.32" y2="363.99" stroke-opacity="0.799"/>
    <line x1="146.47" y1="367.76" x2="147.53" y2="364.85" stroke-opacity="0.799"/>
    <line x1="149.00" y1="368.94" x2="150.55" y2="366.26" stroke-opacity="0.799"/>
    <line x1="151.28" y1="370.54" x2="153.28" y2="368.17" stroke-opacity="0.799"/>
    <line x1="153.26" y1="372.52" x2="155.63" y2="370.52" stroke-opacity="0.799"/>
    <line x1="154.86" y1="374.80" x2="157.54" y2="373.25" stroke-opacity="0.799"/>
    <line x1="156.04" y1="377.33" x2="158.95" y2="376.27" stroke-opacity="0.799"/>
    <line x1="156.76" y1="380.02" x2="159.81" y2="379.48" stroke-opacity="0.799"/>
    <line x1="160.03" y1="384.46" x2="163.71" y2="384.79" stroke-opacity="0.795"/>
    <line x1="159.45" y1="387.74" x2="163.02" y2="388.70" stroke-opacity="0.795"/>
    <line x1="158.31" y1="390.87" x2="161.66" y2="392.43" stroke-opacity="0.795"/>
    <line x1="156.65" y1="393.75" x2="159.68" y2="395.88" stroke-opacity="0.795"/>
    <line x1="154.51" y1="396.31" x2="157.12" y2="398.92" stroke-opacity="0.795"/>
    <line x1="151.95" y1="398.45" x2="154.08" y2="401.48" stroke-opacity="0.795"/>
    <line x1="149.07" y1="400.11" x2="150.63" y2="403.46" stroke-opacity="0.795"/>
    <line x1="145.94" y1="401.25" x2="146.90" y2="404.82" stroke-opacity="0.795"/>
    <line x1="142.66" y1="401.83" x2="142.99" y2="405.51" stroke-opacity="0.795"/>
    <line x1="139.34" y1="401.83" x2="139.01" y2="405.51" stroke-opacity="0.795"/>
    <line x1="136.06" y1="401.25" x2="135.10" y2="404.82" stroke-opacity="0.795"/>
    <line x1="132.93" y1="400.11" x2="131.37" y2="403.46" stroke-opacity="0.795"/>
    <line x1="130.05" y1="398.45" x2="127.92" y2="401.48" stroke-opacity="0.795"/>
    <line x1="127.49" y1="396.31" x2="124.88" y2="398.92" stroke-opacity="0.795"/>
    <line x1="125.35" y1="393.75" x2="122.32" y2="395.88" stroke-opacity="0.795"/>
    <line x1="123.69" y1="390.87" x2="120.34" y2="392.43" stroke-opacity="0.795"/>
    <line x1="122.55" y1="387.74" x2="118.98" y2="388.70" stroke-opacity="0.795"/>
    <line x1="121.97" y1="384.46" x2="118.29" y2="384.79" stroke-opacity="0.795"/>
    <line x1="121.97" y1="381.14" x2="118.29" y2="380.81" stroke-opacity="0.795"/>
    <line x1="122.55" y1="377.86" x2="118.98" y2="376.90" stroke-opacity="0.795"/>
    <line x1="123.69" y1="374.73" x2="120.34" y2="373.17" stroke-opacity="0.795"/>
    <line x1="125.35" y1="371.85" x2="122.32" y2="369.72" stroke-opacity="0.795"/>
    <line x1="127.49" y1="369.29" x2="124.88" y2="366.68" stroke-opacity="0.795"/>
    <line x1="130.05" y1="367.15" x2="127.92" y2="364.12" stroke-opacity="0.795"/>
    <line x1="132.93" y1="365.49" x2="131.37" y2="362.14" stroke-opacity="0.795"/>
    <line x1="136.06" y1="364.35" x2="135.10" y2="360.78" stroke-opacity="0.795"/>
    <line x1="139.34" y1="363.77" x2="139.01" y2="360.09" stroke-opacity="0.795"/>
    <line x1="142.66" y1="363.77" x2="142.99" y2="360.09" stroke-opacity="0.795"/>
    <line x1="145.94" y1="364.35" x2="146.90" y2="360.78" stroke-opacity="0.795"/>
    <line x1="149.07" y1="365.49" x2="150.63" y2="362.14" stroke-opacity="0.795"/>
    <line x1="151.95" y1="367.15" x2="154.08" y2="364.12" stroke-opacity="0.795"/>
    <line x1="154.51" y1="369.29" x2="157.12" y2="366.68" stroke-opacity="0.795"/>
    <line x1="156.65" y1="371.85" x2="159.68" y2="369.72" stroke-opacity="0.795"/>
    <line x1="158.31" y1="374.73" x2="161.66" y2="373.17" stroke-opacity="0.795"/>
    <line x1="159.45" y1="377.86" x2="163.02" y2="376.90" stroke-opacity="0.795"/>
    <line x1="160.03" y1="381.14" x2="163.71" y2="380.81" stroke-opacity="0.795"/>
    <line x1="163.80" y1="382.80" x2="168.21" y2="382.80" stroke-opacity="0.790"/>
    <line x1="163.45" y1="386.76" x2="167.80" y2="387.53" stroke-opacity="0.790"/>
    <line x1="162.42" y1="390.60" x2="166.57" y2="392.11" stroke-opacity="0.790"/>
    <line x1="160.74" y1="394.20" x2="164.57" y2="396.41" stroke-opacity="0.790"/>
    <line x1="158.46" y1="397.45" x2="161.85" y2="400.29" stroke-opacity="0.790"/>
    <line x1="155.65" y1="400.26" x2="158.49" y2="403.65" stroke-opacity="0.790"/>
    <line x1="152.40" y1="402.54" x2="154.61" y2="406.37" stroke-opacity="0.790"/>
    <line x1="148.80" y1="404.22" x2="150.31" y2="408.37" stroke-opacity="0.790"/>
    <line x1="144.96" y1="405.25" x2="145.73" y2="409.60" stroke-opacity="0.790"/>
    <line x1="141.00" y1="405.60" x2="141.00" y2="410.01" stroke-opacity="0.790"/>
    <line x1="137.04" y1="405.25" x2="136.27" y2="409.60" stroke-opacity="0.790"/>
    <line x1="133.20" y1="404.22" x2="131.69" y2="408.37" stroke-opacity="0.790"/>
    <line x1="129.60" y1="402.54" x2="127.39" y2="406.37" stroke-opacity="0.790"/>
    <line x1="126.35" y1="400.26" x2="123.51" y2="403.65" stroke-opacity="0.790"/>
    <line x1="123.54" y1="397.45" x2="120.15" y2="400.29" stroke-opacity="0.790"/>
    <line x1="121.26" y1="394.20" x2="117.43" y2="396.41" stroke-opacity="0.790"/>
    <line x1="119.58" y1="390.60" x2="115.43" y2="392.11" stroke-opacity="0.790"/>
    <line x1="118.55" y1="386.76" x2="114.20" y2="387.53" stroke-opacity="0.790"/>
    <line x1="118.20" y1="382.80" x2="113.79" y2="382.80" stroke-opacity="0.790"/>
    <line x1="118.55" y1="378.84" x2="114.20" y2="378.07" stroke-opacity="0.790"/>
    <line x1="119.58" y1="375.00" x2="115.43" y2="373.49" stroke-opacity="0.790"/>
    <line x1="121.26" y1="371.40" x2="117.43" y2="369.19" stroke-opacity="0.790"/>
    <line x1="123.54" y1="368.15" x2="120.15" y2="365.31" stroke-opacity="0.790"/>
    <line x1="126.35" y1="365.34" x2="123.51" y2="361.95" stroke-opacity="0.790"/>
    <line x1="129.60" y1="363.06" x2="127.39" y2="359.23" stroke-opacity="0.790"/>
    <line x1="133.20" y1="361.38" x2="131.69" y2="357.23" stroke-opacity="0.790"/>
    <line x1="137.04" y1="360.35" x2="136.27" y2="356.00" stroke-opacity="0.790"/>
    <line x1="141.00" y1="360.00" x2="141.00" y2="355.59" stroke-opacity="0.790"/>
    <line x1="144.96" y1="360.35" x2="145.73" y2="356.00" stroke-opacity="0.790"/>
    <line x1="148.80" y1="361.38" x2="150.31" y2="357.23" stroke-opacity="0.790"/>
    <line x1="152.40" y1="363.06" x2="154.61" y2="359.23" stroke-opacity="0.790"/>
    <line x1="155.65" y1="365.34" x2="158.49" y2="361.95" stroke-opacity="0.790"/>
    <line x1="158.46" y1="368.15" x2="161.85" y2="365.31" stroke-opacity="0.790"/>
    <line x1="160.74" y1="371.40" x2="164.57" y2="369.19" stroke-opacity="0.790"/>
    <line x1="162.42" y1="375.00" x2="166.57" y2="373.49" stroke-opacity="0.790"/>
    <line x1="163.45" y1="378.84" x2="167.80" y2="378.07" stroke-opacity="0.790"/>
    <line x1="168.11" y1="385.17" x2="173.36" y2="385.63" stroke-opacity="0.783"/>
    <line x1="167.29" y1="389.84" x2="172.38" y2="391.21" stroke-opacity="0.783"/>
    <line x1="165.66" y1="394.30" x2="170.44" y2="396.53" stroke-opacity="0.783"/>
    <line x1="163.29" y1="398.41" x2="167.61" y2="401.43" stroke-opacity="0.783"/>
    <line x1="160.24" y1="402.04" x2="163.97" y2="405.77" stroke-opacity="0.783"/>
    <line x1="156.61" y1="405.09" x2="159.63" y2="409.41" stroke-opacity="0.783"/>
    <line x1="152.50" y1="407.46" x2="154.73" y2="412.24" stroke-opacity="0.783"/>
    <line x1="148.04" y1="409.09" x2="149.41" y2="414.18" stroke-opacity="0.783"/>
    <line x1="143.37" y1="409.91" x2="143.83" y2="415.16" stroke-opacity="0.783"/>
    <line x1="138.63" y1="409.91" x2="138.17" y2="415.16" stroke-opacity="0.783"/>
    <line x1="133.96" y1="409.09" x2="132.59" y2="414.18" stroke-opacity="0.783"/>
    <line x1="129.50" y1="407.46" x2="127.27" y2="412.24" stroke-opacity="0.783"/>
    <line x1="125.39" y1="405.09" x2="122.37" y2="409.41" stroke-opacity="0.783"/>
    <line x1="121.76" y1="402.04" x2="118.03" y2="405.77" stroke-opacity="0.783"/>
    <line x1="118.71" y1="398.41" x2="114.39" y2="401.43" stroke-opacity="0.783"/>
    <line x1="116.34" y1="394.30" x2="111.56" y2="396.53" stroke-opacity="0.783"/>
    <line x1="114.71" y1="389.84" x2="109.62" y2="391.21" stroke-opacity="0.783"/>
    <line x1="113.89" y1="385.17" x2="108.64" y2="385.63" stroke-opacity="0.783"/>
    <line x1="113.89" y1="380.43" x2="108.64" y2="379.97" stroke-opacity="0.783"/>
    <line x1="114.71" y1="375.76" x2="109.62" y2="374.39" stroke-opacity="0.783"/>
    <line x1="116.34" y1="371.30" x2="111.56" y2="369.07" stroke-opacity="0.783"/>
    <line x1="118.71" y1="367.19" x2="114.39" y2="364.17" stroke-opacity="0.783"/>
    <line x1="121.76" y1="363.56" x2="118.03" y2="359.83" stroke-opacity="0.783"/>
    <line x1="125.39" y1="360.51" x2="122.37" y2="356.19" stroke-opacity="0.783"/>
    <line x1="129.50" y1="358.14" x2="127.27" y2="353.36" stroke-opacity="0.783"/>
    <line x1="133.96" y1="356.51" x2="132.59" y2="351.42" stroke-opacity="0.783"/>
    <line x1="138.63" y1="355.69" x2="138.17" y2="350.44" stroke-opacity="0.783"/>
    <line x1="143.37" y1="355.69" x2="143.83" y2="350.44" stroke-opacity="0.783"/>
    <line x1="148.04" y1="356.51" x2="149.41" y2="351.42" stroke-opacity="0.783"/>
    <line x1="152.50" y1="358.14" x2="154.73" y2="353.36" stroke-opacity="0.783"/>
    <line x1="156.61" y1="360.51" x2="159.63" y2="356.19" stroke-opacity="0.783"/>
    <line x1="160.24" y1="363.56" x2="163.97" y2="359.83" stroke-opacity="0.783"/>
    <line x1="163.29" y1="367.19" x2="167.61" y2="364.17" stroke-opacity="0.783"/>
    <line x1="165.66" y1="371.30" x2="170.44" y2="369.07" stroke-opacity="0.783"/>
    <line x1="167.29" y1="375.76" x2="172.38" y2="374.39" stroke-opacity="0.783"/>
    <line x1="168.11" y1="380.43" x2="173.36" y2="379.97" stroke-opacity="0.783"/>
    <line x1="173.49" y1="382.80" x2="179.78" y2="382.80" stroke-opacity="0.774"/>
    <line x1="172.99" y1="388.44" x2="179.19" y2="389.53" stroke-opacity="0.774"/>
    <line x1="171.53" y1="393.91" x2="177.44" y2="396.06" stroke-opacity="0.774"/>
    <line x1="169.13" y1="399.04" x2="174.58" y2="402.19" stroke-opacity="0.774"/>
    <line x1="165.89" y1="403.68" x2="170.71" y2="407.73" stroke-opacity="0.774"/>
    <line x1="161.88" y1="407.69" x2="165.93" y2="412.51" stroke-opacity="0.774"/>
    <line x1="157.24" y1="410.93" x2="160.39" y2="416.38" stroke-opacity="0.774"/>
    <line x1="152.11" y1="413.33" x2="154.26" y2="419.24" stroke-opacity="0.774"/>
    <line x1="146.64" y1="414.79" x2="147.73" y2="420.99" stroke-opacity="0.774"/>
    <line x1="141.00" y1="415.29" x2="141.00" y2="421.58" stroke-opacity="0.774"/>
    <line x1="135.36" y1="414.79" x2="134.27" y2="420.99" stroke-opacity="0.774"/>
    <line x1="129.89" y1="413.33" x2="127.74" y2="419.24" stroke-opacity="0.774"/>
    <line x1="124.76" y1="410.93" x2="121.61" y2="416.38" stroke-opacity="0.774"/>
    <line x1="120.12" y1="407.69" x2="116.07" y2="412.51" stroke-opacity="0.774"/>
    <line x1="116.11" y1="403.68" x2="111.29" y2="407.73" stroke-opacity="0.774"/>
    <line x1="112.87" y1="399.04" x2="107.42" y2="402.19" stroke-opacity="0.774"/>
    <line x1="110.47" y1="393.91" x2="104.56" y2="396.06" stroke-opacity="0.774"/>
    <line x1="109.01" y1="388.44" x2="102.81" y2="389.53" stroke-opacity="0.774"/>
    <line x1="108.51" y1="382.80" x2="102.22" y2="382.80" stroke-opacity="0.774"/>
    <line x1="109.01" y1="377.16" x2="102.81" y2="376.07" stroke-opacity="0.774"/>
    <line x1="110.47" y1="371.69" x2="104.56" y2="369.54" stroke-opacity="0.774"/>
    <line x1="112.87" y1="366.56" x2="107.42" y2="363.41" stroke-opacity="0.774"/>
    <line x1="116.11" y1="361.92" x2="111.29" y2="357.87" stroke-opacity="0.774"/>
    <line x1="120.12" y1="357.91" x2="116.07" y2="353.09" stroke-opacity="0.774"/>
    <line x1="124.76" y1="354.67" x2="121.61" y2="349.22" stroke-opacity="0.774"/>
    <line x1="129.89" y1="352.27" x2="127.74" y2="346.36" stroke-opacity="0.774"/>
    <line x1="135.36" y1="350.81" x2="134.27" y2="344.61" stroke-opacity="0.774"/>
    <line x1="141.00" y1="350.31" x2="141.00" y2="344.02" stroke-opacity="0.774"/>
    <line x1="146.64" y1="350.81" x2="147.73" y2="344.61" stroke-opacity="0.774"/>
    <line x1="152.11" y1="352.27" x2="154.26" y2="346.36" stroke-opacity="0.774"/>
    <line x1="157.24" y1="354.67" x2="160.39" y2="349.22" stroke-opacity="0.774"/>
    <line x1="161.88" y1="357.91" x2="165.93" y2="353.09" stroke-opacity="0.774"/>
    <line x1="165.89" y1="361.92" x2="170.71" y2="357.87" stroke-opacity="0.774"/>
    <line x1="169.13" y1="366.56" x2="174.58" y2="363.41" stroke-opacity="0.774"/>
    <line x1="171.53" y1="371.69" x2="177.44" y2="369.54" stroke-opacity="0.774"/>
    <line x1="172.99" y1="377.16" x2="179.19" y2="376.07" stroke-opacity="0.774"/>
    <line x1="179.63" y1="386.18" x2="187.11" y2="386.83" stroke-opacity="0.763"/>
    <line x1="178.46" y1="392.84" x2="185.71" y2="394.78" stroke-opacity="0.763"/>
    <line x1="176.14" y1="399.19" x2="182.95" y2="402.36" stroke-opacity="0.763"/>
    <line x1="172.76" y1="405.04" x2="178.92" y2="409.35" stroke-opacity="0.763"/>
    <line x1="168.42" y1="410.22" x2="173.73" y2="415.53" stroke-opacity="0.763"/>
    <line x1="163.24" y1="414.56" x2="167.55" y2="420.72" stroke-opacity="0.763"/>
    <line x1="157.39" y1="417.94" x2="160.56" y2="424.75" stroke-opacity="0.763"/>
    <line x1="151.04" y1="420.26" x2="152.98" y2="427.51" stroke-opacity="0.763"/>
    <line x1="144.38" y1="421.43" x2="145.03" y2="428.91" stroke-opacity="0.763"/>
    <line x1="137.62" y1="421.43" x2="136.97" y2="428.91" stroke-opacity="0.763"/>
    <line x1="130.96" y1="420.26" x2="129.02" y2="427.51" stroke-opacity="0.763"/>
    <line x1="124.61" y1="417.94" x2="121.44" y2="424.75" stroke-opacity="0.763"/>
    <line x1="118.76" y1="414.56" x2="114.45" y2="420.72" stroke-opacity="0.763"/>
    <line x1="113.58" y1="410.22" x2="108.27" y2="415.53" stroke-opacity="0.763"/>
    <line x1="109.24" y1="405.04" x2="103.08" y2="409.35" stroke-opacity="0.763"/>
    <line x1="105.86" y1="399.19" x2="99.05" y2="402.36" stroke-opacity="0.763"/>
    <line x1="103.54" y1="392.84" x2="96.29" y2="394.78" stroke-opacity="0.763"/>
    <line x1="102.37" y1="386.18" x2="94.89" y2="386.83" stroke-opacity="0.763"/>
    <line x1="102.37" y1="379.42" x2="94.89" y2="378.77" stroke-opacity="0.763"/>
    <line x1="103.54" y1="372.76" x2="96.29" y2="370.82" stroke-opacity="0.763"/>
    <line x1="105.86" y1="366.41" x2="99.05" y2="363.24" stroke-opacity="0.763"/>
    <line x1="109.24" y1="360.56" x2="103.08" y2="356.25" stroke-opacity="0.763"/>
    <line x1="113.58" y1="355.38" x2="108.27" y2="350.07" stroke-opacity="0.763"/>
    <line x1="118.76" y1="351.04" x2="114.45" y2="344.88" stroke-opacity="0.763"/>
    <line x1="124.61" y1="347.66" x2="121.44" y2="340.85" stroke-opacity="0.763"/>
    <line x1="130.96" y1="345.34" x2="129.02" y2="338.09" stroke-opacity="0.763"/>
    <line x1="137.62" y1="344.17" x2="136.97" y2="336.69" stroke-opacity="0.763"/>
    <line x1="144.38" y1="344.17" x2="145.03" y2="336.69" stroke-opacity="0.763"/>
    <line x1="151.04" y1="345.34" x2="152.98" y2="338.09" stroke-opacity="0.763"/>
    <line x1="157.39" y1="347.66" x2="160.56" y2="340.85" stroke-opacity="0.763"/>
    <line x1="163.24" y1="351.04" x2="167.55" y2="344.88" stroke-opacity="0.763"/>
    <line x1="168.42" y1="355.38" x2="173.73" y2="350.07" stroke-opacity="0.763"/>
    <line x1="172.76" y1="360.56" x2="178.92" y2="356.25" stroke-opacity="0.763"/>
    <line x1="176.14" y1="366.41" x2="182.95" y2="363.24" stroke-opacity="0.763"/>
    <line x1="178.46" y1="372.76" x2="185.71" y2="370.82" stroke-opacity="0.763"/>
    <line x1="179.63" y1="379.42" x2="187.11" y2="378.77" stroke-opacity="0.763"/>
    <line x1="187.29" y1="382.80" x2="196.25" y2="382.80" stroke-opacity="0.749"/>
    <line x1="186.58" y1="390.84" x2="195.41" y2="392.39" stroke-opacity="0.749"/>
    <line x1="184.50" y1="398.63" x2="192.92" y2="401.70" stroke-opacity="0.749"/>
    <line x1="181.09" y1="405.94" x2="188.85" y2="410.43" stroke-opacity="0.749"/>
    <line x1="176.46" y1="412.55" x2="183.33" y2="418.32" stroke-opacity="0.749"/>
    <line x1="170.75" y1="418.26" x2="176.52" y2="425.13" stroke-opacity="0.749"/>
    <line x1="164.14" y1="422.89" x2="168.63" y2="430.65" stroke-opacity="0.749"/>
    <line x1="156.83" y1="426.30" x2="159.90" y2="434.72" stroke-opacity="0.749"/>
    <line x1="149.04" y1="428.38" x2="150.59" y2="437.21" stroke-opacity="0.749"/>
    <line x1="141.00" y1="429.09" x2="141.00" y2="438.05" stroke-opacity="0.749"/>
    <line x1="132.96" y1="428.38" x2="131.41" y2="437.21" stroke-opacity="0.749"/>
    <line x1="125.17" y1="426.30" x2="122.10" y2="434.72" stroke-opacity="0.749"/>
    <line x1="117.86" y1="422.89" x2="113.37" y2="430.65" stroke-opacity="0.749"/>
    <line x1="111.25" y1="418.26" x2="105.48" y2="425.13" stroke-opacity="0.749"/>
    <line x1="105.54" y1="412.55" x2="98.67" y2="418.32" stroke-opacity="0.749"/>
    <line x1="100.91" y1="405.94" x2="93.15" y2="410.43" stroke-opacity="0.749"/>
    <line x1="97.50" y1="398.63" x2="89.08" y2="401.70" stroke-opacity="0.749"/>
    <line x1="95.42" y1="390.84" x2="86.59" y2="392.39" stroke-opacity="0.749"/>
    <line x1="94.71" y1="382.80" x2="85.75" y2="382.80" stroke-opacity="0.749"/>
    <line x1="95.42" y1="374.76" x2="86.59" y2="373.21" stroke-opacity="0.749"/>
    <line x1="97.50" y1="366.97" x2="89.08" y2="363.90" stroke-opacity="0.749"/>
    <line x1="100.91" y1="359.66" x2="93.15" y2="355.17" stroke-opacity="0.749"/>
    <line x1="105.54" y1="353.05" x2="98.67" y2="347.28" stroke-opacity="0.749"/>
    <line x1="111.25" y1="347.34" x2="105.48" y2="340.47" stroke-opacity="0.749"/>
    <line x1="117.86" y1="342.71" x2="113.37" y2="334.95" stroke-opacity="0.749"/>
    <line x1="125.17" y1="339.30" x2="122.10" y2="330.88" stroke-opacity="0.749"/>
    <line x1="132.96" y1="337.22" x2="131.41" y2="328.39" stroke-opacity="0.749"/>
    <line x1="141.00" y1="336.51" x2="141.00" y2="327.55" stroke-opacity="0.749"/>
    <line x1="149.04" y1="337.22" x2="150.59" y2="328.39" stroke-opacity="0.749"/>
    <line x1="156.83" y1="339.30" x2="159.90" y2="330.88" stroke-opacity="0.749"/>
    <line x1="164.14" y1="342.71" x2="168.63" y2="334.95" stroke-opacity="0.749"/>
    <line x1="170.75" y1="347.34" x2="176.52" y2="340.47" stroke-opacity="0.749"/>
    <line x1="176.46" y1="353.05" x2="183.33" y2="347.28" stroke-opacity="0.749"/>
    <line x1="181.09" y1="359.66" x2="188.85" y2="355.17" stroke-opacity="0.749"/>
    <line x1="184.50" y1="366.97" x2="192.92" y2="363.90" stroke-opacity="0.749"/>
    <line x1="186.58" y1="374.76" x2="195.41" y2="373.21" stroke-opacity="0.749"/>
    <line x1="196.04" y1="387.62" x2="206.70" y2="388.55" stroke-opacity="0.731"/>
    <line x1="194.37" y1="397.10" x2="204.71" y2="399.87" stroke-opacity="0.731"/>
    <line x1="191.08" y1="406.15" x2="200.78" y2="410.67" stroke-opacity="0.731"/>
    <line x1="186.26" y1="414.49" x2="195.03" y2="420.63" stroke-opacity="0.731"/>
    <line x1="180.07" y1="421.87" x2="187.64" y2="429.44" stroke-opacity="0.731"/>
    <line x1="172.69" y1="428.06" x2="178.83" y2="436.83" stroke-opacity="0.731"/>
    <line x1="164.35" y1="432.88" x2="168.87" y2="442.58" stroke-opacity="0.731"/>
    <line x1="155.30" y1="436.17" x2="158.07" y2="446.51" stroke-opacity="0.731"/>
    <line x1="145.82" y1="437.84" x2="146.75" y2="448.50" stroke-opacity="0.731"/>
    <line x1="136.18" y1="437.84" x2="135.25" y2="448.50" stroke-opacity="0.731"/>
    <line x1="126.70" y1="436.17" x2="123.93" y2="446.51" stroke-opacity="0.731"/>
    <line x1="117.65" y1="432.88" x2="113.13" y2="442.58" stroke-opacity="0.731"/>
    <line x1="109.31" y1="428.06" x2="103.17" y2="436.83" stroke-opacity="0.731"/>
    <line x1="101.93" y1="421.87" x2="94.36" y2="429.44" stroke-opacity="0.731"/>
    <line x1="95.74" y1="414.49" x2="86.97" y2="420.63" stroke-opacity="0.731"/>
    <line x1="90.92" y1="406.15" x2="81.22" y2="410.67" stroke-opacity="0.731"/>
    <line x1="87.63" y1="397.10" x2="77.29" y2="399.87" stroke-opacity="0.731"/>
    <line x1="85.96" y1="387.62" x2="75.30" y2="388.55" stroke-opacity="0.731"/>
    <line x1="85.96" y1="377.98" x2="75.30" y2="377.05" stroke-opacity="0.731"/>
    <line x1="87.63" y1="368.50" x2="77.29" y2="365.73" stroke-opacity="0.731"/>
    <line x1="90.92" y1="359.45" x2="81.22" y2="354.93" stroke-opacity="0.731"/>
    <line x1="95.74" y1="351.11" x2="86.97" y2="344.97" stroke-opacity="0.731"/>
    <line x1="101.93" y1="343.73" x2="94.36" y2="336.16" stroke-opacity="0.731"/>
    <line x1="109.31" y1="337.54" x2="103.17" y2="328.77" stroke-opacity="0.731"/>
    <line x1="117.65" y1="332.72" x2="113.13" y2="323.02" stroke-opacity="0.731"/>
    <line x1="126.70" y1="329.43" x2="123.93" y2="319.09" stroke-opacity="0.731"/>
    <line x1="136.18" y1="327.76" x2="135.25" y2="317.10" stroke-opacity="0.731"/>
    <line x1="145.82" y1="327.76" x2="146.75" y2="317.10" stroke-opacity="0.731"/>
    <line x1="155.30" y1="329.43" x2="158.07" y2="319.09" stroke-opacity="0.731"/>
    <line x1="164.35" y1="332.72" x2="168.87" y2="323.02" stroke-opacity="0.731"/>
    <line x1="172.69" y1="337.54" x2="178.83" y2="328.77" stroke-opacity="0.731"/>
    <line x1="180.07" y1="343.73" x2="187.64" y2="336.16" stroke-opacity="0.731"/>
    <line x1="186.26" y1="351.11" x2="195.03" y2="344.97" stroke-opacity="0.731"/>
    <line x1="191.08" y1="359.45" x2="200.78" y2="354.93" stroke-opacity="0.731"/>
    <line x1="194.37" y1="368.50" x2="204.71" y2="365.73" stroke-opacity="0.731"/>
    <line x1="196.04" y1="377.98" x2="206.70" y2="377.05" stroke-opacity="0.731"/>
    <line x1="206.96" y1="382.80" x2="219.73" y2="382.80" stroke-opacity="0.708"/>
    <line x1="205.95" y1="394.25" x2="218.53" y2="396.47" stroke-opacity="0.708"/>
    <line x1="202.98" y1="405.36" x2="214.98" y2="409.73" stroke-opacity="0.708"/>
    <line x1="198.12" y1="415.78" x2="209.18" y2="422.17" stroke-opacity="0.708"/>
    <line x1="191.53" y1="425.20" x2="201.31" y2="433.41" stroke-opacity="0.708"/>
    <line x1="183.40" y1="433.33" x2="191.61" y2="443.11" stroke-opacity="0.708"/>
    <line x1="173.98" y1="439.92" x2="180.37" y2="450.98" stroke-opacity="0.708"/>
    <line x1="163.56" y1="444.78" x2="167.93" y2="456.78" stroke-opacity="0.708"/>
    <line x1="152.45" y1="447.75" x2="154.67" y2="460.33" stroke-opacity="0.708"/>
    <line x1="141.00" y1="448.76" x2="141.00" y2="461.53" stroke-opacity="0.708"/>
    <line x1="129.55" y1="447.75" x2="127.33" y2="460.33" stroke-opacity="0.708"/>
    <line x1="118.44" y1="444.78" x2="114.07" y2="456.78" stroke-opacity="0.708"/>
    <line x1="108.02" y1="439.92" x2="101.63" y2="450.98" stroke-opacity="0.708"/>
    <line x1="98.60" y1="433.33" x2="90.39" y2="443.11" stroke-opacity="0.708"/>
    <line x1="90.47" y1="425.20" x2="80.69" y2="433.41" stroke-opacity="0.708"/>
    <line x1="83.88" y1="415.78" x2="72.82" y2="422.17" stroke-opacity="0.708"/>
    <line x1="79.02" y1="405.36" x2="67.02" y2="409.73" stroke-opacity="0.708"/>
    <line x1="76.05" y1="394.25" x2="63.47" y2="396.47" stroke-opacity="0.708"/>
    <line x1="75.04" y1="382.80" x2="62.27" y2="382.80" stroke-opacity="0.708"/>
    <line x1="76.05" y1="371.35" x2="63.47" y2="369.13" stroke-opacity="0.708"/>
    <line x1="79.02" y1="360.24" x2="67.02" y2="355.87" stroke-opacity="0.708"/>
    <line x1="83.88" y1="349.82" x2="72.82" y2="343.43" stroke-opacity="0.708"/>
    <line x1="90.47" y1="340.40" x2="80.69" y2="332.19" stroke-opacity="0.708"/>
    <line x1="98.60" y1="332.27" x2="90.39" y2="322.49" stroke-opacity="0.708"/>
    <line x1="108.02" y1="325.68" x2="101.63" y2="314.62" stroke-opacity="0.708"/>
    <line x1="118.44" y1="320.82" x2="114.07" y2="308.82" stroke-opacity="0.708"/>
    <line x1="129.55" y1="317.85" x2="127.33" y2="305.27" stroke-opacity="0.708"/>
    <line x1="141.00" y1="316.84" x2="141.00" y2="304.07" stroke-opacity="0.708"/>
    <line x1="152.45" y1="317.85" x2="154.67" y2="305.27" stroke-opacity="0.708"/>
    <line x1="163.56" y1="320.82" x2="167.93" y2="308.82" stroke-opacity="0.708"/>
    <line x1="173.98" y1="325.68" x2="180.37" y2="314.62" stroke-opacity="0.708"/>
    <line x1="183.40" y1="332.27" x2="191.61" y2="322.49" stroke-opacity="0.708"/>
    <line x1="191.53" y1="340.40" x2="201.31" y2="332.19" stroke-opacity="0.708"/>
    <line x1="198.12" y1="349.82" x2="209.18" y2="343.43" stroke-opacity="0.708"/>
    <line x1="202.98" y1="360.24" x2="214.98" y2="355.87" stroke-opacity="0.708"/>
    <line x1="205.95" y1="371.35" x2="218.53" y2="369.13" stroke-opacity="0.708"/>
    <line x1="219.43" y1="389.66" x2="234.62" y2="390.99" stroke-opacity="0.680"/>
    <line x1="217.05" y1="403.18" x2="231.78" y2="407.12" stroke-opacity="0.680"/>
    <line x1="212.35" y1="416.07" x2="226.18" y2="422.52" stroke-opacity="0.680"/>
    <line x1="205.49" y1="427.96" x2="217.98" y2="436.70" stroke-opacity="0.680"/>
    <line x1="196.67" y1="438.47" x2="207.45" y2="449.25" stroke-opacity="0.680"/>
    <line x1="186.16" y1="447.29" x2="194.90" y2="459.78" stroke-opacity="0.680"/>
    <line x1="174.27" y1="454.15" x2="180.72" y2="467.98" stroke-opacity="0.680"/>
    <line x1="161.38" y1="458.85" x2="165.32" y2="473.58" stroke-opacity="0.680"/>
    <line x1="147.86" y1="461.23" x2="149.19" y2="476.42" stroke-opacity="0.680"/>
    <line x1="134.14" y1="461.23" x2="132.81" y2="476.42" stroke-opacity="0.680"/>
    <line x1="120.62" y1="458.85" x2="116.68" y2="473.58" stroke-opacity="0.680"/>
    <line x1="107.73" y1="454.15" x2="101.28" y2="467.98" stroke-opacity="0.680"/>
    <line x1="95.84" y1="447.29" x2="87.10" y2="459.78" stroke-opacity="0.680"/>
    <line x1="85.33" y1="438.47" x2="74.55" y2="449.25" stroke-opacity="0.680"/>
    <line x1="76.51" y1="427.96" x2="64.02" y2="436.70" stroke-opacity="0.680"/>
    <line x1="69.65" y1="416.07" x2="55.82" y2="422.52" stroke-opacity="0.680"/>
    <line x1="64.95" y1="403.18" x2="50.22" y2="407.12" stroke-opacity="0.680"/>
    <line x1="62.57" y1="389.66" x2="47.38" y2="390.99" stroke-opacity="0.680"/>
    <line x1="62.57" y1="375.94" x2="47.38" y2="374.61" stroke-opacity="0.680"/>
    <line x1="64.95" y1="362.42" x2="50.22" y2="358.48" stroke-opacity="0.680"/>
    <line x1="69.65" y1="349.53" x2="55.82" y2="343.08" stroke-opacity="0.680"/>
    <line x1="76.51" y1="337.64" x2="64.02" y2="328.90" stroke-opacity="0.680"/>
    <line x1="85.33" y1="327.13" x2="74.55" y2="316.35" stroke-opacity="0.680"/>
    <line x1="95.84" y1="318.31" x2="87.10" y2="305.82" stroke-opacity="0.680"/>
    <line x1="107.73" y1="311.45" x2="101.28" y2="297.62" stroke-opacity="0.680"/>
    <line x1="120.62" y1="306.75" x2="116.68" y2="292.02" stroke-opacity="0.680"/>
    <line x1="134.14" y1="304.37" x2="132.81" y2="289.18" stroke-opacity="0.680"/>
    <line x1="147.86" y1="304.37" x2="149.19" y2="289.18" stroke-opacity="0.680"/>
    <line x1="161.38" y1="306.75" x2="165.32" y2="292.02" stroke-opacity="0.680"/>
    <line x1="174.27" y1="311.45" x2="180.72" y2="297.62" stroke-opacity="0.680"/>
    <line x1="186.16" y1="318.31" x2="194.90" y2="305.82" stroke-opacity="0.680"/>
    <line x1="196.67" y1="327.13" x2="207.45" y2="316.35" stroke-opacity="0.680"/>
    <line x1="205.49" y1="337.64" x2="217.98" y2="328.90" stroke-opacity="0.680"/>
    <line x1="212.35" y1="349.53" x2="226.18" y2="343.08" stroke-opacity="0.680"/>
    <line x1="217.05" y1="362.42" x2="231.78" y2="358.48" stroke-opacity="0.680"/>
    <line x1="219.43" y1="375.94" x2="234.62" y2="374.61" stroke-opacity="0.680"/>
    <line x1="234.98" y1="382.80" x2="253.18" y2="382.80" stroke-opacity="0.645"/>
    <line x1="233.55" y1="399.12" x2="251.48" y2="402.28" stroke-opacity="0.645"/>
    <line x1="229.31" y1="414.94" x2="246.42" y2="421.17" stroke-opacity="0.645"/>
    <line x1="222.39" y1="429.79" x2="238.15" y2="438.89" stroke-opacity="0.645"/>
    <line x1="212.99" y1="443.21" x2="226.94" y2="454.91" stroke-opacity="0.645"/>
    <line x1="201.41" y1="454.79" x2="213.11" y2="468.74" stroke-opacity="0.645"/>
    <line x1="187.99" y1="464.19" x2="197.09" y2="479.95" stroke-opacity="0.645"/>
    <line x1="173.14" y1="471.11" x2="179.37" y2="488.22" stroke-opacity="0.645"/>
    <line x1="157.32" y1="475.35" x2="160.48" y2="493.28" stroke-opacity="0.645"/>
    <line x1="141.00" y1="476.78" x2="141.00" y2="494.98" stroke-opacity="0.645"/>
    <line x1="124.68" y1="475.35" x2="121.52" y2="493.28" stroke-opacity="0.645"/>
    <line x1="108.86" y1="471.11" x2="102.63" y2="488.22" stroke-opacity="0.645"/>
    <line x1="94.01" y1="464.19" x2="84.91" y2="479.95" stroke-opacity="0.645"/>
    <line x1="80.59" y1="454.79" x2="68.89" y2="468.74" stroke-opacity="0.645"/>
    <line x1="69.01" y1="443.21" x2="55.06" y2="454.91" stroke-opacity="0.645"/>
    <line x1="59.61" y1="429.79" x2="43.85" y2="438.89" stroke-opacity="0.645"/>
    <line x1="52.69" y1="414.94" x2="35.58" y2="421.17" stroke-opacity="0.645"/>
    <line x1="48.45" y1="399.12" x2="30.52" y2="402.28" stroke-opacity="0.645"/>
    <line x1="47.02" y1="382.80" x2="28.82" y2="382.80" stroke-opacity="0.645"/>
    <line x1="48.45" y1="366.48" x2="30.52" y2="363.32" stroke-opacity="0.645"/>
    <line x1="52.69" y1="350.66" x2="35.58" y2="344.43" stroke-opacity="0.645"/>
    <line x1="59.61" y1="335.81" x2="43.85" y2="326.71" stroke-opacity="0.645"/>
    <line x1="69.01" y1="322.39" x2="55.06" y2="310.69" stroke-opacity="0.645"/>
    <line x1="80.59" y1="310.81" x2="68.89" y2="296.86" stroke-opacity="0.645"/>
    <line x1="94.01" y1="301.41" x2="84.91" y2="285.65" stroke-opacity="0.645"/>
    <line x1="108.86" y1="294.49" x2="102.63" y2="277.38" stroke-opacity="0.645"/>
    <line x1="124.68" y1="290.25" x2="121.52" y2="272.32" stroke-opacity="0.645"/>
    <line x1="141.00" y1="288.82" x2="141.00" y2="270.62" stroke-opacity="0.645"/>
    <line x1="157.32" y1="290.25" x2="160.48" y2="272.32" stroke-opacity="0.645"/>
    <line x1="173.14" y1="294.49" x2="179.37" y2="277.38" stroke-opacity="0.645"/>
    <line x1="187.99" y1="301.41" x2="197.09" y2="285.65" stroke-opacity="0.645"/>
    <line x1="201.41" y1="310.81" x2="213.11" y2="296.86" stroke-opacity="0.645"/>
    <line x1="212.99" y1="322.39" x2="226.94" y2="310.69" stroke-opacity="0.645"/>
    <line x1="222.39" y1="335.81" x2="238.15" y2="326.71" stroke-opacity="0.645"/>
    <line x1="229.31" y1="350.66" x2="246.42" y2="344.43" stroke-opacity="0.645"/>
    <line x1="233.55" y1="366.48" x2="251.48" y2="363.32" stroke-opacity="0.645"/>
    <line x1="252.76" y1="392.58" x2="274.40" y2="394.47" stroke-opacity="0.602"/>
    <line x1="249.36" y1="411.84" x2="270.35" y2="417.46" stroke-opacity="0.602"/>
    <line x1="242.67" y1="430.21" x2="262.37" y2="439.39" stroke-opacity="0.602"/>
    <line x1="232.90" y1="447.15" x2="250.69" y2="459.61" stroke-opacity="0.602"/>
    <line x1="220.33" y1="462.13" x2="235.69" y2="477.49" stroke-opacity="0.602"/>
    <line x1="205.35" y1="474.70" x2="217.81" y2="492.49" stroke-opacity="0.602"/>
    <line x1="188.41" y1="484.47" x2="197.59" y2="504.17" stroke-opacity="0.602"/>
    <line x1="170.04" y1="491.16" x2="175.66" y2="512.15" stroke-opacity="0.602"/>
    <line x1="150.78" y1="494.56" x2="152.67" y2="516.20" stroke-opacity="0.602"/>
    <line x1="131.22" y1="494.56" x2="129.33" y2="516.20" stroke-opacity="0.602"/>
    <line x1="111.96" y1="491.16" x2="106.34" y2="512.15" stroke-opacity="0.602"/>
    <line x1="93.59" y1="484.47" x2="84.41" y2="504.17" stroke-opacity="0.602"/>
    <line x1="76.65" y1="474.70" x2="64.19" y2="492.49" stroke-opacity="0.602"/>
    <line x1="61.67" y1="462.13" x2="46.31" y2="477.49" stroke-opacity="0.602"/>
    <line x1="49.10" y1="447.15" x2="31.31" y2="459.61" stroke-opacity="0.602"/>
    <line x1="39.33" y1="430.21" x2="19.63" y2="439.39" stroke-opacity="0.602"/>
    <line x1="32.64" y1="411.84" x2="11.65" y2="417.46" stroke-opacity="0.602"/>
    <line x1="29.24" y1="392.58" x2="7.60" y2="394.47" stroke-opacity="0.602"/>
    <line x1="29.24" y1="373.02" x2="7.60" y2="371.13" stroke-opacity="0.602"/>
    <line x1="32.64" y1="353.76" x2="11.65" y2="348.14" stroke-opacity="0.602"/>
    <line x1="39.33" y1="335.39" x2="19.63" y2="326.21" stroke-opacity="0.602"/>
    <line x1="49.10" y1="318.45" x2="31.31" y2="305.99" stroke-opacity="0.602"/>
    <line x1="61.67" y1="303.47" x2="46.31" y2="288.11" stroke-opacity="0.602"/>
    <line x1="76.65" y1="290.90" x2="64.19" y2="273.11" stroke-opacity="0.602"/>
    <line x1="93.59" y1="281.13" x2="84.41" y2="261.43" stroke-opacity="0.602"/>
    <line x1="111.96" y1="274.44" x2="106.34" y2="253.45" stroke-opacity="0.602"/>
    <line x1="131.22" y1="271.04" x2="129.33" y2="249.40" stroke-opacity="0.602"/>
    <line x1="150.78" y1="271.04" x2="152.67" y2="249.40" stroke-opacity="0.602"/>
    <line x1="170.04" y1="274.44" x2="175.66" y2="253.45" stroke-opacity="0.602"/>
    <line x1="188.41" y1="281.13" x2="197.59" y2="261.43" stroke-opacity="0.602"/>
    <line x1="205.35" y1="290.90" x2="217.81" y2="273.11" stroke-opacity="0.602"/>
    <line x1="220.33" y1="303.47" x2="235.69" y2="288.11" stroke-opacity="0.602"/>
    <line x1="232.90" y1="318.45" x2="250.69" y2="305.99" stroke-opacity="0.602"/>
    <line x1="242.67" y1="335.39" x2="262.37" y2="326.21" stroke-opacity="0.602"/>
    <line x1="249.36" y1="353.76" x2="270.35" y2="348.14" stroke-opacity="0.602"/>
    <line x1="252.76" y1="373.02" x2="274.40" y2="371.13" stroke-opacity="0.602"/>
    <line x1="274.91" y1="382.80" x2="300.85" y2="382.80" stroke-opacity="0.547"/>
    <line x1="272.88" y1="406.05" x2="298.42" y2="410.56" stroke-opacity="0.547"/>
    <line x1="266.84" y1="428.60" x2="291.21" y2="437.47" stroke-opacity="0.547"/>
    <line x1="256.97" y1="449.76" x2="279.43" y2="462.72" stroke-opacity="0.547"/>
    <line x1="243.58" y1="468.88" x2="263.45" y2="485.55" stroke-opacity="0.547"/>
    <line x1="227.08" y1="485.38" x2="243.75" y2="505.25" stroke-opacity="0.547"/>
    <line x1="207.96" y1="498.77" x2="220.92" y2="521.23" stroke-opacity="0.547"/>
    <line x1="186.80" y1="508.64" x2="195.67" y2="533.01" stroke-opacity="0.547"/>
    <line x1="164.25" y1="514.68" x2="168.76" y2="540.22" stroke-opacity="0.547"/>
    <line x1="141.00" y1="516.71" x2="141.00" y2="542.65" stroke-opacity="0.547"/>
    <line x1="117.75" y1="514.68" x2="113.24" y2="540.22" stroke-opacity="0.547"/>
    <line x1="95.20" y1="508.64" x2="86.33" y2="533.01" stroke-opacity="0.547"/>
    <line x1="74.04" y1="498.77" x2="61.08" y2="521.23" stroke-opacity="0.547"/>
    <line x1="54.92" y1="485.38" x2="38.25" y2="505.25" stroke-opacity="0.547"/>
    <line x1="38.42" y1="468.88" x2="18.55" y2="485.55" stroke-opacity="0.547"/>
    <line x1="25.03" y1="449.76" x2="2.57" y2="462.72" stroke-opacity="0.547"/>
    <line x1="15.16" y1="428.60" x2="-9.21" y2="437.47" stroke-opacity="0.547"/>
    <line x1="9.12" y1="406.05" x2="-16.42" y2="410.56" stroke-opacity="0.547"/>
    <line x1="7.09" y1="382.80" x2="-18.85" y2="382.80" stroke-opacity="0.547"/>
    <line x1="9.12" y1="359.55" x2="-16.42" y2="355.04" stroke-opacity="0.547"/>
    <line x1="15.16" y1="337.00" x2="-9.21" y2="328.13" stroke-opacity="0.547"/>
    <line x1="25.03" y1="315.84" x2="2.57" y2="302.88" stroke-opacity="0.547"/>
    <line x1="38.42" y1="296.72" x2="18.55" y2="280.05" stroke-opacity="0.547"/>
    <line x1="54.92" y1="280.22" x2="38.25" y2="260.35" stroke-opacity="0.547"/>
    <line x1="74.04" y1="266.83" x2="61.08" y2="244.37" stroke-opacity="0.547"/>
    <line x1="95.20" y1="256.96" x2="86.33" y2="232.59" stroke-opacity="0.547"/>
    <line x1="117.75" y1="250.92" x2="113.24" y2="225.38" stroke-opacity="0.547"/>
    <line x1="141.00" y1="248.89" x2="141.00" y2="222.95" stroke-opacity="0.547"/>
    <line x1="164.25" y1="250.92" x2="168.76" y2="225.38" stroke-opacity="0.547"/>
    <line x1="186.80" y1="256.96" x2="195.67" y2="232.59" stroke-opacity="0.547"/>
    <line x1="207.96" y1="266.83" x2="220.92" y2="244.37" stroke-opacity="0.547"/>
    <line x1="227.08" y1="280.22" x2="243.75" y2="260.35" stroke-opacity="0.547"/>
    <line x1="243.58" y1="296.72" x2="263.45" y2="280.05" stroke-opacity="0.547"/>
    <line x1="256.97" y1="315.84" x2="279.43" y2="302.88" stroke-opacity="0.547"/>
    <line x1="266.84" y1="337.00" x2="291.21" y2="328.13" stroke-opacity="0.547"/>
    <line x1="272.88" y1="359.55" x2="298.42" y2="355.04" stroke-opacity="0.547"/>
    <line x1="300.24" y1="396.73" x2="331.08" y2="399.43" stroke-opacity="0.480"/>
    <line x1="295.40" y1="424.17" x2="325.31" y2="432.19" stroke-opacity="0.480"/>
    <line x1="285.87" y1="450.36" x2="313.93" y2="463.44" stroke-opacity="0.480"/>
    <line x1="271.94" y1="474.49" x2="297.30" y2="492.24" stroke-opacity="0.480"/>
    <line x1="254.03" y1="495.83" x2="275.92" y2="517.72" stroke-opacity="0.480"/>
    <line x1="232.69" y1="513.74" x2="250.44" y2="539.10" stroke-opacity="0.480"/>
    <line x1="208.56" y1="527.67" x2="221.64" y2="555.73" stroke-opacity="0.480"/>
    <line x1="182.37" y1="537.20" x2="190.39" y2="567.11" stroke-opacity="0.480"/>
    <line x1="154.93" y1="542.04" x2="157.63" y2="572.88" stroke-opacity="0.480"/>
    <line x1="127.07" y1="542.04" x2="124.37" y2="572.88" stroke-opacity="0.480"/>
    <line x1="99.63" y1="537.20" x2="91.61" y2="567.11" stroke-opacity="0.480"/>
    <line x1="73.44" y1="527.67" x2="60.36" y2="555.73" stroke-opacity="0.480"/>
    <line x1="49.31" y1="513.74" x2="31.56" y2="539.10" stroke-opacity="0.480"/>
    <line x1="27.97" y1="495.83" x2="6.08" y2="517.72" stroke-opacity="0.480"/>
    <line x1="10.06" y1="474.49" x2="-15.30" y2="492.24" stroke-opacity="0.480"/>
    <line x1="-3.87" y1="450.36" x2="-31.93" y2="463.44" stroke-opacity="0.480"/>
    <line x1="-13.40" y1="424.17" x2="-43.31" y2="432.19" stroke-opacity="0.480"/>
    <line x1="-18.24" y1="396.73" x2="-49.08" y2="399.43" stroke-opacity="0.480"/>
    <line x1="-18.24" y1="368.87" x2="-49.08" y2="366.17" stroke-opacity="0.480"/>
    <line x1="-13.40" y1="341.43" x2="-43.31" y2="333.41" stroke-opacity="0.480"/>
    <line x1="-3.87" y1="315.24" x2="-31.93" y2="302.16" stroke-opacity="0.480"/>
    <line x1="10.06" y1="291.11" x2="-15.30" y2="273.36" stroke-opacity="0.480"/>
    <line x1="27.97" y1="269.77" x2="6.08" y2="247.88" stroke-opacity="0.480"/>
    <line x1="49.31" y1="251.86" x2="31.56" y2="226.50" stroke-opacity="0.480"/>
    <line x1="73.44" y1="237.93" x2="60.36" y2="209.87" stroke-opacity="0.480"/>
    <line x1="99.63" y1="228.40" x2="91.61" y2="198.49" stroke-opacity="0.480"/>
    <line x1="127.07" y1="223.56" x2="124.37" y2="192.72" stroke-opacity="0.480"/>
    <line x1="154.93" y1="223.56" x2="157.63" y2="192.72" stroke-opacity="0.480"/>
    <line x1="182.37" y1="228.40" x2="190.39" y2="198.49" stroke-opacity="0.480"/>
    <line x1="208.56" y1="237.93" x2="221.64" y2="209.87" stroke-opacity="0.480"/>
    <line x1="232.69" y1="251.86" x2="250.44" y2="226.50" stroke-opacity="0.480"/>
    <line x1="254.03" y1="269.77" x2="275.92" y2="247.88" stroke-opacity="0.480"/>
    <line x1="271.94" y1="291.11" x2="297.30" y2="273.36" stroke-opacity="0.480"/>
    <line x1="285.87" y1="315.24" x2="313.93" y2="302.16" stroke-opacity="0.480"/>
    <line x1="295.40" y1="341.43" x2="325.31" y2="333.41" stroke-opacity="0.480"/>
    <line x1="300.24" y1="368.87" x2="331.08" y2="366.17" stroke-opacity="0.480"/>
    <line x1="331.81" y1="382.80" x2="368.77" y2="382.80" stroke-opacity="0.397"/>
    <line x1="328.91" y1="415.93" x2="365.31" y2="422.35" stroke-opacity="0.397"/>
    <line x1="320.30" y1="448.06" x2="355.03" y2="460.70" stroke-opacity="0.397"/>
    <line x1="306.25" y1="478.21" x2="338.25" y2="496.68" stroke-opacity="0.397"/>
    <line x1="287.17" y1="505.45" x2="315.48" y2="529.21" stroke-opacity="0.397"/>
    <line x1="263.65" y1="528.97" x2="287.41" y2="557.28" stroke-opacity="0.397"/>
    <line x1="236.41" y1="548.05" x2="254.88" y2="580.05" stroke-opacity="0.397"/>
    <line x1="206.26" y1="562.10" x2="218.90" y2="596.83" stroke-opacity="0.397"/>
    <line x1="174.13" y1="570.71" x2="180.55" y2="607.11" stroke-opacity="0.397"/>
    <line x1="141.00" y1="573.61" x2="141.00" y2="610.57" stroke-opacity="0.397"/>
    <line x1="107.87" y1="570.71" x2="101.45" y2="607.11" stroke-opacity="0.397"/>
    <line x1="75.74" y1="562.10" x2="63.10" y2="596.83" stroke-opacity="0.397"/>
    <line x1="45.59" y1="548.05" x2="27.12" y2="580.05" stroke-opacity="0.397"/>
    <line x1="18.35" y1="528.97" x2="-5.41" y2="557.28" stroke-opacity="0.397"/>
    <line x1="-5.17" y1="505.45" x2="-33.48" y2="529.21" stroke-opacity="0.397"/>
    <line x1="-24.25" y1="478.21" x2="-56.25" y2="496.68" stroke-opacity="0.397"/>
    <line x1="-38.30" y1="448.06" x2="-73.03" y2="460.70" stroke-opacity="0.397"/>
    <line x1="-46.91" y1="415.93" x2="-83.31" y2="422.35" stroke-opacity="0.397"/>
    <line x1="-49.81" y1="382.80" x2="-86.77" y2="382.80" stroke-opacity="0.397"/>
    <line x1="-46.91" y1="349.67" x2="-83.31" y2="343.25" stroke-opacity="0.397"/>
    <line x1="-38.30" y1="317.54" x2="-73.03" y2="304.90" stroke-opacity="0.397"/>
    <line x1="-24.25" y1="287.39" x2="-56.25" y2="268.92" stroke-opacity="0.397"/>
    <line x1="-5.17" y1="260.15" x2="-33.48" y2="236.39" stroke-opacity="0.397"/>
    <line x1="18.35" y1="236.63" x2="-5.41" y2="208.32" stroke-opacity="0.397"/>
    <line x1="45.59" y1="217.55" x2="27.12" y2="185.55" stroke-opacity="0.397"/>
    <line x1="75.74" y1="203.50" x2="63.10" y2="168.77" stroke-opacity="0.397"/>
    <line x1="107.87" y1="194.89" x2="101.45" y2="158.49" stroke-opacity="0.397"/>
    <line x1="141.00" y1="191.99" x2="141.00" y2="155.03" stroke-opacity="0.397"/>
    <line x1="174.13" y1="194.89" x2="180.55" y2="158.49" stroke-opacity="0.397"/>
    <line x1="206.26" y1="203.50" x2="218.90" y2="168.77" stroke-opacity="0.397"/>
    <line x1="236.41" y1="217.55" x2="254.88" y2="185.55" stroke-opacity="0.397"/>
    <line x1="263.65" y1="236.63" x2="287.41" y2="208.32" stroke-opacity="0.397"/>
    <line x1="287.17" y1="260.15" x2="315.48" y2="236.39" stroke-opacity="0.397"/>
    <line x1="306.25" y1="287.39" x2="338.25" y2="268.92" stroke-opacity="0.397"/>
    <line x1="320.30" y1="317.54" x2="355.03" y2="304.90" stroke-opacity="0.397"/>
    <line x1="328.91" y1="349.67" x2="365.31" y2="343.25" stroke-opacity="0.397"/>
  </g>
  <text x="141.0" y="-75" font-family="Didot, 'Bodoni 72', 'Bodoni MT', Georgia, serif" font-weight="700" font-size="520" fill="#C07FA0" text-anchor="middle" dominant-baseline="text-before-edge">I</text>
</svg>