<svg xmlns="http://www.w3.org/2000/svg" viewBox="0 0 480 480" width="480" height="480">
  <rect width="100%" height="100%" fill="#0A0A0E"/>
  <defs>
    <radialGradient id="hatchFade" cx="50%" cy="50%" r="50%">
      <stop offset="0%" stop-color="#C07FA0" stop-opacity="0.500"/>
      <stop offset="70%" stop-color="#C07FA0" stop-opacity="0.175"/>
      <stop offset="100%" stop-color="#C07FA0" stop-opacity="0.000"/>
    </radialGradient>
  </defs>
  <g stroke="url(#hatchFade)" stroke-width="1" fill="none">
    <line x1="358.49" y1="41.70" x2="438.30" y2="121.51"/>
    <line x1="334.83" y1="29.36" x2="450.64" y2="145.17"/>
    <line x1="316.03" y1="21.87" x2="458.13" y2="163.97"/>
    <line x1="299.69" y1="16.84" x2="463.16" y2="180.31"/>
    <line x1="284.94" y1="13.41" x2="466.59" y2="195.06"/>
    <line x1="271.35" y1="11.14" x2="468.86" y2="208.65"/>
    <line x1="258.66" y1="9.75" x2="470.25" y2="221.34"/>
    <line x1="246.68" y1="9.10" x2="470.90" y2="233.32"/>
    <line x1="235.32" y1="9.05" x2="470.95" y2="244.68"/>
    <line x1="224.48" y1="9.52" x2="470.48" y2="255.52"/>
    <line x1="214.10" y1="10.46" x2="469.54" y2="265.90"/>
    <line x1="204.13" y1="11.80" x2="468.20" y2="275.87"/>
    <line x1="194.54" y1="13.52" x2="466.48" y2="285.46"/>
    <line x1="185.28" y1="15.57" x2="464.43" y2="294.72"/>
    <line x1="176.34" y1="17.95" x2="462.05" y2="303.66"/>
    <line x1="167.69" y1="20.61" x2="459.39" y2="312.31"/>
    <line x1="159.31" y1="23.55" x2="456.45" y2="320.69"/>
    <line x1="151.20" y1="26.75" x2="453.25" y2="328.80"/>
    <line x1="143.34" y1="30.20" x2="449.80" y2="336.66"/>
    <line x1="135.71" y1="33.88" x2="446.12" y2="344.29"/>
    <line x1="128.31" y1="37.80" x2="442.20" y2="351.69"/>
    <line x1="121.13" y1="41.93" x2="438.07" y2="358.87"/>
    <line x1="114.16" y1="46.28" x2="433.72" y2="365.84"/>
    <line x1="107.41" y1="50.84" x2="429.16" y2="372.59"/>
    <line x1="100.86" y1="55.61" x2="424.39" y2="379.14"/>
    <line x1="94.51" y1="60.57" x2="419.43" y2="385.49"/>
    <line x1="88.36" y1="65.74" x2="414.26" y2="391.64"/>
    <line x1="82.41" y1="71.10" x2="408.90" y2="397.59"/>
    <line x1="76.66" y1="76.66" x2="403.34" y2="403.34"/>
    <line x1="71.10" y1="82.41" x2="397.59" y2="408.90"/>
    <line x1="65.74" y1="88.36" x2="391.64" y2="414.26"/>
    <line x1="60.57" y1="94.51" x2="385.49" y2="419.43"/>
    <line x1="55.61" y1="100.86" x2="379.14" y2="424.39"/>
    <line x1="50.84" y1="107.41" x2="372.59" y2="429.16"/>
    <line x1="46.28" y1="114.16" x2="365.84" y2="433.72"/>
    <line x1="41.93" y1="121.13" x2="358.87" y2="438.07"/>
    <line x1="37.80" y1="128.31" x2="351.69" y2="442.20"/>
    <line x1="33.88" y1="135.71" x2="344.29" y2="446.12"/>
    <line x1="30.20" y1="143.34" x2="336.66" y2="449.80"/>
    <line x1="26.75" y1="151.20" x2="328.80" y2="453.25"/>
    <line x1="23.55" y1="159.31" x2="320.69" y2="456.45"/>
    <line x1="20.61" y1="167.69" x2="312.31" y2="459.39"/>
    <line x1="17.95" y1="176.34" x2="303.66" y2="462.05"/>
    <line x1="15.57" y1="185.28" x2="294.72" y2="464.43"/>
    <line x1="13.52" y1="194.54" x2="285.46" y2="466.48"/>
    <line x1="11.80" y1="204.13" x2="275.87" y2="468.20"/>
    <line x1="10.46" y1="214.10" x2="265.90" y2="469.54"/>
    <line x1="9.52" y1="224.48" x2="255.52" y2="470.48"/>
    <line x1="9.05" y1="235.32" x2="244.68" y2="470.95"/>
    <line x1="9.10" y1="246.68" x2="233.32" y2="470.90"/>
    <line x1="9.75" y1="258.66" x2="221.34" y2="470.25"/>
    <line x1="11.14" y1="271.35" x2="208.65" y2="468.86"/>
    <line x1="13.41" y1="284.94" x2="195.06" y2="466.59"/>
    <line x1="16.84" y1="299.69" x2="180.31" y2="463.16"/>
    <line x1="21.87" y1="316.03" x2="163.97" y2="458.13"/>
    <line x1="29.36" y1="334.83" x2="145.17" y2="450.64"/>
    <line x1="41.70" y1="358.49" x2="121.51" y2="438.30"/>
    <line x1="41.70" y1="121.51" x2="121.51" y2="41.70"/>
    <line x1="29.36" y1="145.17" x2="145.17" y2="29.36"/>
    <line x1="21.87" y1="163.97" x2="163.97" y2="21.87"/>
    <line x1="16.84" y1="180.31" x2="180.31" y2="16.84"/>
    <line x1="13.41" y1="195.06" x2="195.06" y2="13.41"/>
    <line x1="11.14" y1="208.65" x2="208.65" y2="11.14"/>
    <line x1="9.75" y1="221.34" x2="221.34" y2="9.75"/>
    <line x1="9.10" y1="233.32" x2="233.32" y2="9.10"/>
    <line x1="9.05" y1="244.68" x2="244.68" y2="9.05"/>
    <line x1="9.52" y1="255.52" x2="255.52" y2="9.52"/>
    <line x1="10.46" y1="265.90" x2="265.90" y2="10.46"/>
    <line x1="11.80" y1="275.87" x2="275.87" y2="11.80"/>
    <line x1="13.52" y1="285.46" x2="285.46" y2="13.52"/>
    <line x1="15.57" y1="294.72" x2="294.72" y2="15.57"/>
    <line x1="17.95" y1="303.66" x2="303.66" y2="17.95"/>
    <line x1="20.61" y1="312.31" x2="312.31" y2="20.61"/>
    <line x1="23.55" y1="320.69" x2="320.69" y2="23.55"/>
    <line x1="26.75" y1="328.80" x2="328.80" y2="26.75"/>
    <line x1="30.20" y1="336.66" x2="336.66" y2="30.20"/>
    <line x1="33.88" y1="344.29" x2="344.29" y2="33.88"/>
    <line x1="37.80" y1="351.69" x2="351.69" y2="37.80"/>
    <line x1="41.93" y1="358.87" x2="358.87" y2="41.93"/>
    <line x1="46.28" y1="365.84" x2="365.84" y2="46.28"/>
    <line x1="50.84" y1="372.59" x2="372.59" y2="50.84"/>
    <line x1="55.61" y1="379.14" x2="379.14" y2="55.61"/>
    <line x1="60.57" y1="385.49" x2="385.49" y2="60.57"/>
    <line x1="65.74" y1="391.64" x2="391.64" y2="65.74"/>
    <line x1="71.10" y1="397.59" x2="397.59" y2="71.10"/>
    <line x1="76.66" y1="403.34" x2="403.34" y2="76.66"/>
    <line x1="82.41" y1="408.90" x2="408.90" y2="82.41"/>
    <line x1="88.36" y1="414.26" x2="414.26" y2="88.36"/>
    <line x1="94.51" y1="419.43" x2="419.43" y2="94.51"/>
    <line x1="100.86" y1="424.39" x2="424.39" y2="100.86"/>
    <line x1="107.41" y1="429.16" x2="429.16" y2="107.41"/>
    <line x1="114.16" y1="433.72" x2="433.72" y2="114.16"/>
    <line x1="121.13" y1="438.07" x2="438.07" y2="121.13"/>
    <line x1="128.31" y1="442.20" x2="442.20" y2="128.31"/>
    <line x1="135.71" y1="446.12" x2="446.12" y2="135.71"/>
    <line x1="143.34" y1="449.80" x2="449.80" y2="143.34"/>
    <line x1="151.20" y1="453.25" x2="453.25" y2="151.20"/>
    <line x1="159.31" y1="456.45" x2="456.45" y2="159.31"/>
    <line x1="167.69" y1="459.39" x2="459.39" y2="167.69"/>
    <line x1="176.34" y1="462.05" x2="462.05" y2="176.34"/>
    <line x1="185.28" y1="464.43" x2="464.43" y2="185.28"/>
    <line x1="194.54" y1="466.48" x2="466.48" y2="194.54"/>
    <line x1="204.13" y1="468.20" x2="468.20" y2="204.13"/>
    <line x1="214.10" y1="469.54" x2="469.54" y2="214.10"/>
    <line x1="224.48" y1="470.48" x2="470.48" y2="224.48"/>
    <line x1="235.32" y1="470.95" x2="470.95" y2="235.32"/>
    <line x1="246.68" y1="470.90" x2="470.90" y2="246.68"/>
    <line x1="258.66" y1="470.25" x2="470.25" y2="258.66"/>
    <line x1="271.35" y1="468.86" x2="468.86" y2="271.35"/>
    <line x1="284.94" y1="466.59" x2="466.59" y2="284.94"/>
    <line x1="299.69" y1="463.16" x2="463.16" y2="299.69"/>
    <line x1="316.03" y1="458.13" x2="458.13" y2="316.03"/>
    <line x1="334.83" y1="450.64" x2="450.64" y2="334.83"/>
    <line x1="358.49" y1="438.30" x2="438.30" y2="358.49"/>
  </g>
  <g fill="#0A0A0E" stroke="#FFFFFF" stroke-width="1.5">
    <circle cx="240.0" cy="240.0" r="5.0"/>
    <line x1="235.0" y1="240.0" x2="245.0" y2="240.0" stroke="#FFFFFF" stroke-width="1"/>
    <line x1="240.0" y1="235.0" x2="240.0" y2="245.0" stroke="#FFFFFF" stroke-width="1"/>
  </g>
  <text x="240.0" y="240.0" font-family="Didot, 'Bodoni 72', 'Bodoni MT', Georgia, serif" font-weight="700" font-size="300" fill="#C07FA0" text-anchor="middle" dominant-baseline="central">H</text>
</svg>