<svg xmlns="http://www.w3.org/2000/svg" viewBox="0 0 532 660" width="532" height="660">
  <rect width="100%" height="100%" fill="#0A0A0E"/>
  <g stroke="#C07FA0" fill="none" stroke-width="1">
    <circle cx="266.00" cy="382.80" r="16.00" stroke-opacity="0.800"/>
    <circle cx="266.00" cy="382.80" r="19.92" stroke-opacity="0.798"/>
    <circle cx="266.00" cy="382.80" r="24.81" stroke-opacity="0.796"/>
    <circle cx="266.00" cy="382.80" r="30.90" stroke-opacity="0.792"/>
    <circle cx="266.00" cy="382.80" r="38.48" stroke-opacity="0.786"/>
    <circle cx="266.00" cy="382.80" r="47.91" stroke-opacity="0.779"/>
    <circle cx="266.00" cy="382.80" r="59.67" stroke-opacity="0.770"/>
    <circle cx="266.00" cy="382.80" r="74.30" stroke-opacity="0.757"/>
    <circle cx="266.00" cy="382.80" r="92.53" stroke-opacity="0.741"/>
    <circle cx="266.00" cy="382.80" r="115.22" stroke-opacity="0.719"/>
    <circle cx="266.00" cy="382.80" r="143.49" stroke-opacity="0.690"/>
    <circle cx="266.00" cy="382.80" r="178.68" stroke-opacity="0.653"/>
    <circle cx="266.00" cy="382.80" r="222.51" stroke-opacity="0.605"/>
    <circle cx="266.00" cy="382.80" r="277.09" stroke-opacity="0.541"/>
    <circle cx="266.00" cy="382.80" r="345.06" stroke-opacity="0.458"/>
    <circle cx="266.00" cy="382.80" r="429.69" stroke-opacity="0.350"/>
  </g>
  <g stroke="#C07FA0" fill="none" stroke-width="1">
    <line x1="282.00" y1="382.80" x2="285.92" y2="382.80" stroke-opacity="0.799"/>
    <line x1="281.76" y1="385.58" x2="285.62" y2="386.26" stroke-opacity="0.799"/>
    <line x1="281.04" y1="388.27" x2="284.72" y2="389.61" stroke-opacity="0.799"/>
    <line x1="279.86" y1="390.80" x2="283.26" y2="392.76" stroke-opacity="0.799"/>
    <line x1="278.26" y1="393.08" x2="281.26" y2="395.61" stroke-opacity="0.799"/>
    <line x1="276.28" y1="395.06" x2="278.81" y2="398.06" stroke-opacity="0.799"/>
    <line x1="274.00" y1="396.66" x2="275.96" y2="400.06" stroke-opacity="0.799"/>
    <line x1="271.47" y1="397.84" x2="272.81" y2="401.52" stroke-opacity="0.799"/>
    <line x1="268.78" y1="398.56" x2="269.46" y2="402.42" stroke-opacity="0.799"/>
    <line x1="266.00" y1="398.80" x2="266.00" y2="402.72" stroke-opacity="0.799"/>
    <line x1="263.22" y1="398.56" x2="262.54" y2="402.42" stroke-opacity="0.799"/>
    <line x1="260.53" y1="397.84" x2="259.19" y2="401.52" stroke-opacity="0.799"/>
    <line x1="258.00" y1="396.66" x2="256.04" y2="400.06" stroke-opacity="0.799"/>
    <line x1="255.72" y1="395.06" x2="253.19" y2="398.06" stroke-opacity="0.799"/>
    <line x1="253.74" y1="393.08" x2="250.74" y2="395.61" stroke-opacity="0.799"/>
    <line x1="252.14" y1="390.80" x2="248.74" y2="392.76" stroke-opacity="0.799"/>
    <line x1="250.96" y1="388.27" x2="247.28" y2="389.61" stroke-opacity="0.799"/>
    <line x1="250.24" y1="385.58" x2="246.38" y2="386.26" stroke-opacity="0.799"/>
    <line x1="250.00" y1="382.80" x2="246.08" y2="382.80" stroke-opacity="0.799"/>
    <line x1="250.24" y1="380.02" x2="246.38" y2="379.34" stroke-opacity="0.799"/>
    <line x1="250.96" y1="377.33" x2="247.28" y2="375.99" stroke-opacity="0.799"/>
    <line x1="252.14" y1="374.80" x2="248.74" y2="372.84" stroke-opacity="0.799"/>
    <line x1="253.74" y1="372.52" x2="250.74" y2="369.99" stroke-opacity="0.799"/>
    <line x1="255.72" y1="370.54" x2="253.19" y2="367.54" stroke-opacity="0.799"/>
    <line x1="258.00" y1="368.94" x2="256.04" y2="365.54" stroke-opacity="0.799"/>
    <line x1="260.53" y1="367.76" x2="259.19" y2="364.08" stroke-opacity="0.799"/>
    <line x1="263.22" y1="367.04" x2="262.54" y2="363.18" stroke-opacity="0.799"/>
    <line x1="266.00" y1="366.80" x2="266.00" y2="362.88" stroke-opacity="0.799"/>
    <line x1="268.78" y1="367.04" x2="269.46" y2="363.18" stroke-opacity="0.799"/>
    <line x1="271.47" y1="367.76" x2="272.81" y2="364.08" stroke-opacity="0.799"/>
    <line x1="274.00" y1="368.94" x2="275.96" y2="365.54" stroke-opacity="0.799"/>
    <line x1="276.28" y1="370.54" x2="278.81" y2="367.54" stroke-opacity="0.799"/>
    <line x1="278.26" y1="372.52" x2="281.26" y2="369.99" stroke-opacity="0.799"/>
    <line x1="279.86" y1="374.80" x2="283.26" y2="372.84" stroke-opacity="0.799"/>
    <line x1="281.04" y1="377.33" x2="284.72" y2="375.99" stroke-opacity="0.799"/>
    <line x1="281.76" y1="380.02" x2="285.62" y2="379.34" stroke-opacity="0.799"/>
    <line x1="285.85" y1="384.54" x2="290.72" y2="384.96" stroke-opacity="0.797"/>
    <line x1="285.25" y1="387.96" x2="289.97" y2="389.22" stroke-opacity="0.797"/>
    <line x1="284.06" y1="391.22" x2="288.49" y2="393.29" stroke-opacity="0.797"/>
    <line x1="282.32" y1="394.23" x2="286.32" y2="397.03" stroke-opacity="0.797"/>
    <line x1="280.09" y1="396.89" x2="283.54" y2="400.34" stroke-opacity="0.797"/>
    <line x1="277.43" y1="399.12" x2="280.23" y2="403.12" stroke-opacity="0.797"/>
    <line x1="274.42" y1="400.86" x2="276.49" y2="405.29" stroke-opacity="0.797"/>
    <line x1="271.16" y1="402.05" x2="272.42" y2="406.77" stroke-opacity="0.797"/>
    <line x1="267.74" y1="402.65" x2="268.16" y2="407.52" stroke-opacity="0.797"/>
    <line x1="264.26" y1="402.65" x2="263.84" y2="407.52" stroke-opacity="0.797"/>
    <line x1="260.84" y1="402.05" x2="259.58" y2="406.77" stroke-opacity="0.797"/>
    <line x1="257.58" y1="400.86" x2="255.51" y2="405.29" stroke-opacity="0.797"/>
    <line x1="254.57" y1="399.12" x2="251.77" y2="403.12" stroke-opacity="0.797"/>
    <line x1="251.91" y1="396.89" x2="248.46" y2="400.34" stroke-opacity="0.797"/>
    <line x1="249.68" y1="394.23" x2="245.68" y2="397.03" stroke-opacity="0.797"/>
    <line x1="247.94" y1="391.22" x2="243.51" y2="393.29" stroke-opacity="0.797"/>
    <line x1="246.75" y1="387.96" x2="242.03" y2="389.22" stroke-opacity="0.797"/>
    <line x1="246.15" y1="384.54" x2="241.28" y2="384.96" stroke-opacity="0.797"/>
    <line x1="246.15" y1="381.06" x2="241.28" y2="380.64" stroke-opacity="0.797"/>
    <line x1="246.75" y1="377.64" x2="242.03" y2="376.38" stroke-opacity="0.797"/>
    <line x1="247.94" y1="374.38" x2="243.51" y2="372.31" stroke-opacity="0.797"/>
    <line x1="249.68" y1="371.37" x2="245.68" y2="368.57" stroke-opacity="0.797"/>
    <line x1="251.91" y1="368.71" x2="248.46" y2="365.26" stroke-opacity="0.797"/>
    <line x1="254.57" y1="366.48" x2="251.77" y2="362.48" stroke-opacity="0.797"/>
    <line x1="257.58" y1="364.74" x2="255.51" y2="360.31" stroke-opacity="0.797"/>
    <line x1="260.84" y1="363.55" x2="259.58" y2="358.83" stroke-opacity="0.797"/>
    <line x1="264.26" y1="362.95" x2="263.84" y2="358.08" stroke-opacity="0.797"/>
    <line x1="267.74" y1="362.95" x2="268.16" y2="358.08" stroke-opacity="0.797"/>
    <line x1="271.16" y1="363.55" x2="272.42" y2="358.83" stroke-opacity="0.797"/>
    <line x1="274.42" y1="364.74" x2="276.49" y2="360.31" stroke-opacity="0.797"/>
    <line x1="277.43" y1="366.48" x2="280.23" y2="362.48" stroke-opacity="0.797"/>
    <line x1="280.09" y1="368.71" x2="283.54" y2="365.26" stroke-opacity="0.797"/>
    <line x1="282.32" y1="371.37" x2="286.32" y2="368.57" stroke-opacity="0.797"/>
    <line x1="284.06" y1="374.38" x2="288.49" y2="372.31" stroke-opacity="0.797"/>
    <line x1="285.25" y1="377.64" x2="289.97" y2="376.38" stroke-opacity="0.797"/>
    <line x1="285.85" y1="381.06" x2="290.72" y2="380.64" stroke-opacity="0.797"/>
    <line x1="290.81" y1="382.80" x2="296.90" y2="382.80" stroke-opacity="0.794"/>
    <line x1="290.43" y1="387.11" x2="296.43" y2="388.17" stroke-opacity="0.794"/>
    <line x1="289.32" y1="391.29" x2="295.03" y2="393.37" stroke-opacity="0.794"/>
    <line x1="287.49" y1="395.21" x2="292.76" y2="398.25" stroke-opacity="0.794"/>
    <line x1="285.01" y1="398.75" x2="289.67" y2="402.66" stroke-opacity="0.794"/>
    <line x1="281.95" y1="401.81" x2="285.86" y2="406.47" stroke-opacity="0.794"/>
    <line x1="278.41" y1="404.29" x2="281.45" y2="409.56" stroke-opacity="0.794"/>
    <line x1="274.49" y1="406.12" x2="276.57" y2="411.83" stroke-opacity="0.794"/>
    <line x1="270.31" y1="407.23" x2="271.37" y2="413.23" stroke-opacity="0.794"/>
    <line x1="266.00" y1="407.61" x2="266.00" y2="413.70" stroke-opacity="0.794"/>
    <line x1="261.69" y1="407.23" x2="260.63" y2="413.23" stroke-opacity="0.794"/>
    <line x1="257.51" y1="406.12" x2="255.43" y2="411.83" stroke-opacity="0.794"/>
    <line x1="253.59" y1="404.29" x2="250.55" y2="409.56" stroke-opacity="0.794"/>
    <line x1="250.05" y1="401.81" x2="246.14" y2="406.47" stroke-opacity="0.794"/>
    <line x1="246.99" y1="398.75" x2="242.33" y2="402.66" stroke-opacity="0.794"/>
    <line x1="244.51" y1="395.21" x2="239.24" y2="398.25" stroke-opacity="0.794"/>
    <line x1="242.68" y1="391.29" x2="236.97" y2="393.37" stroke-opacity="0.794"/>
    <line x1="241.57" y1="387.11" x2="235.57" y2="388.17" stroke-opacity="0.794"/>
    <line x1="241.19" y1="382.80" x2="235.10" y2="382.80" stroke-opacity="0.794"/>
    <line x1="241.57" y1="378.49" x2="235.57" y2="377.43" stroke-opacity="0.794"/>
    <line x1="242.68" y1="374.31" x2="236.97" y2="372.23" stroke-opacity="0.794"/>
    <line x1="244.51" y1="370.39" x2="239.24" y2="367.35" stroke-opacity="0.794"/>
    <line x1="246.99" y1="366.85" x2="242.33" y2="362.94" stroke-opacity="0.794"/>
    <line x1="250.05" y1="363.79" x2="246.14" y2="359.13" stroke-opacity="0.794"/>
    <line x1="253.59" y1="361.31" x2="250.55" y2="356.04" stroke-opacity="0.794"/>
    <line x1="257.51" y1="359.48" x2="255.43" y2="353.77" stroke-opacity="0.794"/>
    <line x1="261.69" y1="358.37" x2="260.63" y2="352.37" stroke-opacity="0.794"/>
    <line x1="266.00" y1="357.99" x2="266.00" y2="351.90" stroke-opacity="0.794"/>
    <line x1="270.31" y1="358.37" x2="271.37" y2="352.37" stroke-opacity="0.794"/>
    <line x1="274.49" y1="359.48" x2="276.57" y2="353.77" stroke-opacity="0.794"/>
    <line x1="278.41" y1="361.31" x2="281.45" y2="356.04" stroke-opacity="0.794"/>
    <line x1="281.95" y1="363.79" x2="285.86" y2="359.13" stroke-opacity="0.794"/>
    <line x1="285.01" y1="366.85" x2="289.67" y2="362.94" stroke-opacity="0.794"/>
    <line x1="287.49" y1="370.39" x2="292.76" y2="367.35" stroke-opacity="0.794"/>
    <line x1="289.32" y1="374.31" x2="295.03" y2="372.23" stroke-opacity="0.794"/>
    <line x1="290.43" y1="378.49" x2="296.43" y2="377.43" stroke-opacity="0.794"/>
    <line x1="296.78" y1="385.49" x2="304.33" y2="386.15" stroke-opacity="0.789"/>
    <line x1="295.84" y1="390.80" x2="303.17" y2="392.76" stroke-opacity="0.789"/>
    <line x1="294.00" y1="395.86" x2="300.87" y2="399.06" stroke-opacity="0.789"/>
    <line x1="291.31" y1="400.52" x2="297.52" y2="404.87" stroke-opacity="0.789"/>
    <line x1="287.85" y1="404.65" x2="293.21" y2="410.01" stroke-opacity="0.789"/>
    <line x1="283.72" y1="408.11" x2="288.07" y2="414.32" stroke-opacity="0.789"/>
    <line x1="279.06" y1="410.80" x2="282.26" y2="417.67" stroke-opacity="0.789"/>
    <line x1="274.00" y1="412.64" x2="275.96" y2="419.97" stroke-opacity="0.789"/>
    <line x1="268.69" y1="413.58" x2="269.35" y2="421.13" stroke-opacity="0.789"/>
    <line x1="263.31" y1="413.58" x2="262.65" y2="421.13" stroke-opacity="0.789"/>
    <line x1="258.00" y1="412.64" x2="256.04" y2="419.97" stroke-opacity="0.789"/>
    <line x1="252.94" y1="410.80" x2="249.74" y2="417.67" stroke-opacity="0.789"/>
    <line x1="248.28" y1="408.11" x2="243.93" y2="414.32" stroke-opacity="0.789"/>
    <line x1="244.15" y1="404.65" x2="238.79" y2="410.01" stroke-opacity="0.789"/>
    <line x1="240.69" y1="400.52" x2="234.48" y2="404.87" stroke-opacity="0.789"/>
    <line x1="238.00" y1="395.86" x2="231.13" y2="399.06" stroke-opacity="0.789"/>
    <line x1="236.16" y1="390.80" x2="228.83" y2="392.76" stroke-opacity="0.789"/>
    <line x1="235.22" y1="385.49" x2="227.67" y2="386.15" stroke-opacity="0.789"/>
    <line x1="235.22" y1="380.11" x2="227.67" y2="379.45" stroke-opacity="0.789"/>
    <line x1="236.16" y1="374.80" x2="228.83" y2="372.84" stroke-opacity="0.789"/>
    <line x1="238.00" y1="369.74" x2="231.13" y2="366.54" stroke-opacity="0.789"/>
    <line x1="240.69" y1="365.08" x2="234.48" y2="360.73" stroke-opacity="0.789"/>
    <line x1="244.15" y1="360.95" x2="238.79" y2="355.59" stroke-opacity="0.789"/>
    <line x1="248.28" y1="357.49" x2="243.93" y2="351.28" stroke-opacity="0.789"/>
    <line x1="252.94" y1="354.80" x2="249.74" y2="347.93" stroke-opacity="0.789"/>
    <line x1="258.00" y1="352.96" x2="256.04" y2="345.63" stroke-opacity="0.789"/>
    <line x1="263.31" y1="352.02" x2="262.65" y2="344.47" stroke-opacity="0.789"/>
    <line x1="268.69" y1="352.02" x2="269.35" y2="344.47" stroke-opacity="0.789"/>
    <line x1="274.00" y1="352.96" x2="275.96" y2="345.63" stroke-opacity="0.789"/>
    <line x1="279.06" y1="354.80" x2="282.26" y2="347.93" stroke-opacity="0.789"/>
    <line x1="283.72" y1="357.49" x2="288.07" y2="351.28" stroke-opacity="0.789"/>
    <line x1="287.85" y1="360.95" x2="293.21" y2="355.59" stroke-opacity="0.789"/>
    <line x1="291.31" y1="365.08" x2="297.52" y2="360.73" stroke-opacity="0.789"/>
    <line x1="294.00" y1="369.74" x2="300.87" y2="366.54" stroke-opacity="0.789"/>
    <line x1="295.84" y1="374.80" x2="303.17" y2="372.84" stroke-opacity="0.789"/>
    <line x1="296.78" y1="380.11" x2="304.33" y2="379.45" stroke-opacity="0.789"/>
    <line x1="304.48" y1="382.80" x2="313.91" y2="382.80" stroke-opacity="0.783"/>
    <line x1="303.89" y1="389.48" x2="313.19" y2="391.12" stroke-opacity="0.783"/>
    <line x1="302.16" y1="395.96" x2="311.02" y2="399.19" stroke-opacity="0.783"/>
    <line x1="299.32" y1="402.04" x2="307.50" y2="406.76" stroke-opacity="0.783"/>
    <line x1="295.47" y1="407.53" x2="302.70" y2="413.60" stroke-opacity="0.783"/>
    <line x1="290.73" y1="412.27" x2="296.80" y2="419.50" stroke-opacity="0.783"/>
    <line x1="285.24" y1="416.12" x2="289.96" y2="424.30" stroke-opacity="0.783"/>
    <line x1="279.16" y1="418.96" x2="282.39" y2="427.82" stroke-opacity="0.783"/>
    <line x1="272.68" y1="420.69" x2="274.32" y2="429.99" stroke-opacity="0.783"/>
    <line x1="266.00" y1="421.28" x2="266.00" y2="430.71" stroke-opacity="0.783"/>
    <line x1="259.32" y1="420.69" x2="257.68" y2="429.99" stroke-opacity="0.783"/>
    <line x1="252.84" y1="418.96" x2="249.61" y2="427.82" stroke-opacity="0.783"/>
    <line x1="246.76" y1="416.12" x2="242.04" y2="424.30" stroke-opacity="0.783"/>
    <line x1="241.27" y1="412.27" x2="235.20" y2="419.50" stroke-opacity="0.783"/>
    <line x1="236.53" y1="407.53" x2="229.30" y2="413.60" stroke-opacity="0.783"/>
    <line x1="232.68" y1="402.04" x2="224.50" y2="406.76" stroke-opacity="0.783"/>
    <line x1="229.84" y1="395.96" x2="220.98" y2="399.19" stroke-opacity="0.783"/>
    <line x1="228.11" y1="389.48" x2="218.81" y2="391.12" stroke-opacity="0.783"/>
    <line x1="227.52" y1="382.80" x2="218.09" y2="382.80" stroke-opacity="0.783"/>
    <line x1="228.11" y1="376.12" x2="218.81" y2="374.48" stroke-opacity="0.783"/>
    <line x1="229.84" y1="369.64" x2="220.98" y2="366.41" stroke-opacity="0.783"/>
    <line x1="232.68" y1="363.56" x2="224.50" y2="358.84" stroke-opacity="0.783"/>
    <line x1="236.53" y1="358.07" x2="229.30" y2="352.00" stroke-opacity="0.783"/>
    <line x1="241.27" y1="353.33" x2="235.20" y2="346.10" stroke-opacity="0.783"/>
    <line x1="246.76" y1="349.48" x2="242.04" y2="341.30" stroke-opacity="0.783"/>
    <line x1="252.84" y1="346.64" x2="249.61" y2="337.78" stroke-opacity="0.783"/>
    <line x1="259.32" y1="344.91" x2="257.68" y2="335.61" stroke-opacity="0.783"/>
    <line x1="266.00" y1="344.32" x2="266.00" y2="334.89" stroke-opacity="0.783"/>
    <line x1="272.68" y1="344.91" x2="274.32" y2="335.61" stroke-opacity="0.783"/>
    <line x1="279.16" y1="346.64" x2="282.39" y2="337.78" stroke-opacity="0.783"/>
    <line x1="285.24" y1="349.48" x2="289.96" y2="341.30" stroke-opacity="0.783"/>
    <line x1="290.73" y1="353.33" x2="296.80" y2="346.10" stroke-opacity="0.783"/>
    <line x1="295.47" y1="358.07" x2="302.70" y2="352.00" stroke-opacity="0.783"/>
    <line x1="299.32" y1="363.56" x2="307.50" y2="358.84" stroke-opacity="0.783"/>
    <line x1="302.16" y1="369.64" x2="311.02" y2="366.41" stroke-opacity="0.783"/>
    <line x1="303.89" y1="376.12" x2="313.19" y2="374.48" stroke-opacity="0.783"/>
    <line x1="313.73" y1="386.98" x2="325.44" y2="388.00" stroke-opacity="0.775"/>
    <line x1="312.28" y1="395.20" x2="323.63" y2="398.24" stroke-opacity="0.775"/>
    <line x1="309.43" y1="403.05" x2="320.08" y2="408.02" stroke-opacity="0.775"/>
    <line x1="305.25" y1="410.28" x2="314.88" y2="417.02" stroke-opacity="0.775"/>
    <line x1="299.88" y1="416.68" x2="308.19" y2="424.99" stroke-opacity="0.775"/>
    <line x1="293.48" y1="422.05" x2="300.22" y2="431.68" stroke-opacity="0.775"/>
    <line x1="286.25" y1="426.23" x2="291.22" y2="436.88" stroke-opacity="0.775"/>
    <line x1="278.40" y1="429.08" x2="281.44" y2="440.43" stroke-opacity="0.775"/>
    <line x1="270.18" y1="430.53" x2="271.20" y2="442.24" stroke-opacity="0.775"/>
    <line x1="261.82" y1="430.53" x2="260.80" y2="442.24" stroke-opacity="0.775"/>
    <line x1="253.60" y1="429.08" x2="250.56" y2="440.43" stroke-opacity="0.775"/>
    <line x1="245.75" y1="426.23" x2="240.78" y2="436.88" stroke-opacity="0.775"/>
    <line x1="238.52" y1="422.05" x2="231.78" y2="431.68" stroke-opacity="0.775"/>
    <line x1="232.12" y1="416.68" x2="223.81" y2="424.99" stroke-opacity="0.775"/>
    <line x1="226.75" y1="410.28" x2="217.12" y2="417.02" stroke-opacity="0.775"/>
    <line x1="222.57" y1="403.05" x2="211.92" y2="408.02" stroke-opacity="0.775"/>
    <line x1="219.72" y1="395.20" x2="208.37" y2="398.24" stroke-opacity="0.775"/>
    <line x1="218.27" y1="386.98" x2="206.56" y2="388.00" stroke-opacity="0.775"/>
    <line x1="218.27" y1="378.62" x2="206.56" y2="377.60" stroke-opacity="0.775"/>
    <line x1="219.72" y1="370.40" x2="208.37" y2="367.36" stroke-opacity="0.775"/>
    <line x1="222.57" y1="362.55" x2="211.92" y2="357.58" stroke-opacity="0.775"/>
    <line x1="226.75" y1="355.32" x2="217.12" y2="348.58" stroke-opacity="0.775"/>
    <line x1="232.12" y1="348.92" x2="223.81" y2="340.61" stroke-opacity="0.775"/>
    <line x1="238.52" y1="343.55" x2="231.78" y2="333.92" stroke-opacity="0.775"/>
    <line x1="245.75" y1="339.37" x2="240.78" y2="328.72" stroke-opacity="0.775"/>
    <line x1="253.60" y1="336.52" x2="250.56" y2="325.17" stroke-opacity="0.775"/>
    <line x1="261.82" y1="335.07" x2="260.80" y2="323.36" stroke-opacity="0.775"/>
    <line x1="270.18" y1="335.07" x2="271.20" y2="323.36" stroke-opacity="0.775"/>
    <line x1="278.40" y1="336.52" x2="281.44" y2="325.17" stroke-opacity="0.775"/>
    <line x1="286.25" y1="339.37" x2="291.22" y2="328.72" stroke-opacity="0.775"/>
    <line x1="293.48" y1="343.55" x2="300.22" y2="333.92" stroke-opacity="0.775"/>
    <line x1="299.88" y1="348.92" x2="308.19" y2="340.61" stroke-opacity="0.775"/>
    <line x1="305.25" y1="355.32" x2="314.88" y2="348.58" stroke-opacity="0.775"/>
    <line x1="309.43" y1="362.55" x2="320.08" y2="357.58" stroke-opacity="0.775"/>
    <line x1="312.28" y1="370.40" x2="323.63" y2="367.36" stroke-opacity="0.775"/>
    <line x1="313.73" y1="378.62" x2="325.44" y2="377.60" stroke-opacity="0.775"/>
    <line x1="325.67" y1="382.80" x2="340.30" y2="382.80" stroke-opacity="0.764"/>
    <line x1="324.76" y1="393.16" x2="339.17" y2="395.70" stroke-opacity="0.764"/>
    <line x1="322.07" y1="403.21" x2="335.82" y2="408.21" stroke-opacity="0.764"/>
    <line x1="317.67" y1="412.63" x2="330.35" y2="419.95" stroke-opacity="0.764"/>
    <line x1="311.71" y1="421.15" x2="322.92" y2="430.56" stroke-opacity="0.764"/>
    <line x1="304.35" y1="428.51" x2="313.76" y2="439.72" stroke-opacity="0.764"/>
    <line x1="295.83" y1="434.47" x2="303.15" y2="447.15" stroke-opacity="0.764"/>
    <line x1="286.41" y1="438.87" x2="291.41" y2="452.62" stroke-opacity="0.764"/>
    <line x1="276.36" y1="441.56" x2="278.90" y2="455.97" stroke-opacity="0.764"/>
    <line x1="266.00" y1="442.47" x2="266.00" y2="457.10" stroke-opacity="0.764"/>
    <line x1="255.64" y1="441.56" x2="253.10" y2="455.97" stroke-opacity="0.764"/>
    <line x1="245.59" y1="438.87" x2="240.59" y2="452.62" stroke-opacity="0.764"/>
    <line x1="236.17" y1="434.47" x2="228.85" y2="447.15" stroke-opacity="0.764"/>
    <line x1="227.65" y1="428.51" x2="218.24" y2="439.72" stroke-opacity="0.764"/>
    <line x1="220.29" y1="421.15" x2="209.08" y2="430.56" stroke-opacity="0.764"/>
    <line x1="214.33" y1="412.63" x2="201.65" y2="419.95" stroke-opacity="0.764"/>
    <line x1="209.93" y1="403.21" x2="196.18" y2="408.21" stroke-opacity="0.764"/>
    <line x1="207.24" y1="393.16" x2="192.83" y2="395.70" stroke-opacity="0.764"/>
    <line x1="206.33" y1="382.80" x2="191.70" y2="382.80" stroke-opacity="0.764"/>
    <line x1="207.24" y1="372.44" x2="192.83" y2="369.90" stroke-opacity="0.764"/>
    <line x1="209.93" y1="362.39" x2="196.18" y2="357.39" stroke-opacity="0.764"/>
    <line x1="214.33" y1="352.97" x2="201.65" y2="345.65" stroke-opacity="0.764"/>
    <line x1="220.29" y1="344.45" x2="209.08" y2="335.04" stroke-opacity="0.764"/>
    <line x1="227.65" y1="337.09" x2="218.24" y2="325.88" stroke-opacity="0.764"/>
    <line x1="236.17" y1="331.13" x2="228.85" y2="318.45" stroke-opacity="0.764"/>
    <line x1="245.59" y1="326.73" x2="240.59" y2="312.98" stroke-opacity="0.764"/>
    <line x1="255.64" y1="324.04" x2="253.10" y2="309.63" stroke-opacity="0.764"/>
    <line x1="266.00" y1="323.13" x2="266.00" y2="308.50" stroke-opacity="0.764"/>
    <line x1="276.36" y1="324.04" x2="278.90" y2="309.63" stroke-opacity="0.764"/>
    <line x1="286.41" y1="326.73" x2="291.41" y2="312.98" stroke-opacity="0.764"/>
    <line x1="295.83" y1="331.13" x2="303.15" y2="318.45" stroke-opacity="0.764"/>
    <line x1="304.35" y1="337.09" x2="313.76" y2="325.88" stroke-opacity="0.764"/>
    <line x1="311.71" y1="344.45" x2="322.92" y2="335.04" stroke-opacity="0.764"/>
    <line x1="317.67" y1="352.97" x2="330.35" y2="345.65" stroke-opacity="0.764"/>
    <line x1="322.07" y1="362.39" x2="335.82" y2="357.39" stroke-opacity="0.764"/>
    <line x1="324.76" y1="372.44" x2="339.17" y2="369.90" stroke-opacity="0.764"/>
    <line x1="340.02" y1="389.28" x2="358.18" y2="390.86" stroke-opacity="0.749"/>
    <line x1="337.77" y1="402.03" x2="355.38" y2="406.75" stroke-opacity="0.749"/>
    <line x1="333.34" y1="414.20" x2="349.86" y2="421.90" stroke-opacity="0.749"/>
    <line x1="326.87" y1="425.42" x2="341.79" y2="435.87" stroke-opacity="0.749"/>
    <line x1="318.54" y1="435.34" x2="331.43" y2="448.23" stroke-opacity="0.749"/>
    <line x1="308.62" y1="443.67" x2="319.07" y2="458.59" stroke-opacity="0.749"/>
    <line x1="297.40" y1="450.14" x2="305.10" y2="466.66" stroke-opacity="0.749"/>
    <line x1="285.23" y1="454.57" x2="289.95" y2="472.18" stroke-opacity="0.749"/>
    <line x1="272.48" y1="456.82" x2="274.06" y2="474.98" stroke-opacity="0.749"/>
    <line x1="259.52" y1="456.82" x2="257.94" y2="474.98" stroke-opacity="0.749"/>
    <line x1="246.77" y1="454.57" x2="242.05" y2="472.18" stroke-opacity="0.749"/>
    <line x1="234.60" y1="450.14" x2="226.90" y2="466.66" stroke-opacity="0.749"/>
    <line x1="223.38" y1="443.67" x2="212.93" y2="458.59" stroke-opacity="0.749"/>
    <line x1="213.46" y1="435.34" x2="200.57" y2="448.23" stroke-opacity="0.749"/>
    <line x1="205.13" y1="425.42" x2="190.21" y2="435.87" stroke-opacity="0.749"/>
    <line x1="198.66" y1="414.20" x2="182.14" y2="421.90" stroke-opacity="0.749"/>
    <line x1="194.23" y1="402.03" x2="176.62" y2="406.75" stroke-opacity="0.749"/>
    <line x1="191.98" y1="389.28" x2="173.82" y2="390.86" stroke-opacity="0.749"/>
    <line x1="191.98" y1="376.32" x2="173.82" y2="374.74" stroke-opacity="0.749"/>
    <line x1="194.23" y1="363.57" x2="176.62" y2="358.85" stroke-opacity="0.749"/>
    <line x1="198.66" y1="351.40" x2="182.14" y2="343.70" stroke-opacity="0.749"/>
    <line x1="205.13" y1="340.18" x2="190.21" y2="329.73" stroke-opacity="0.749"/>
    <line x1="213.46" y1="330.26" x2="200.57" y2="317.37" stroke-opacity="0.749"/>
    <line x1="223.38" y1="321.93" x2="212.93" y2="307.01" stroke-opacity="0.749"/>
    <line x1="234.60" y1="315.46" x2="226.90" y2="298.94" stroke-opacity="0.749"/>
    <line x1="246.77" y1="311.03" x2="242.05" y2="293.42" stroke-opacity="0.749"/>
    <line x1="259.52" y1="308.78" x2="257.94" y2="290.62" stroke-opacity="0.749"/>
    <line x1="272.48" y1="308.78" x2="274.06" y2="290.62" stroke-opacity="0.749"/>
    <line x1="285.23" y1="311.03" x2="289.95" y2="293.42" stroke-opacity="0.749"/>
    <line x1="297.40" y1="315.46" x2="305.10" y2="298.94" stroke-opacity="0.749"/>
    <line x1="308.62" y1="321.93" x2="319.07" y2="307.01" stroke-opacity="0.749"/>
    <line x1="318.54" y1="330.26" x2="331.43" y2="317.37" stroke-opacity="0.749"/>
    <line x1="326.87" y1="340.18" x2="341.79" y2="329.73" stroke-opacity="0.749"/>
    <line x1="333.34" y1="351.40" x2="349.86" y2="343.70" stroke-opacity="0.749"/>
    <line x1="337.77" y1="363.57" x2="355.38" y2="358.85" stroke-opacity="0.749"/>
    <line x1="340.02" y1="376.32" x2="358.18" y2="374.74" stroke-opacity="0.749"/>
    <line x1="358.53" y1="382.80" x2="381.22" y2="382.80" stroke-opacity="0.730"/>
    <line x1="357.12" y1="398.87" x2="379.47" y2="402.81" stroke-opacity="0.730"/>
    <line x1="352.95" y1="414.45" x2="374.28" y2="422.21" stroke-opacity="0.730"/>
    <line x1="346.13" y1="429.06" x2="365.79" y2="440.41" stroke-opacity="0.730"/>
    <line x1="336.88" y1="442.28" x2="354.27" y2="456.86" stroke-opacity="0.730"/>
    <line x1="325.48" y1="453.68" x2="340.06" y2="471.07" stroke-opacity="0.730"/>
    <line x1="312.26" y1="462.93" x2="323.61" y2="482.59" stroke-opacity="0.730"/>
    <line x1="297.65" y1="469.75" x2="305.41" y2="491.08" stroke-opacity="0.730"/>
    <line x1="282.07" y1="473.92" x2="286.01" y2="496.27" stroke-opacity="0.730"/>
    <line x1="266.00" y1="475.33" x2="266.00" y2="498.02" stroke-opacity="0.730"/>
    <line x1="249.93" y1="473.92" x2="245.99" y2="496.27" stroke-opacity="0.730"/>
    <line x1="234.35" y1="469.75" x2="226.59" y2="491.08" stroke-opacity="0.730"/>
    <line x1="219.74" y1="462.93" x2="208.39" y2="482.59" stroke-opacity="0.730"/>
    <line x1="206.52" y1="453.68" x2="191.94" y2="471.07" stroke-opacity="0.730"/>
    <line x1="195.12" y1="442.28" x2="177.73" y2="456.86" stroke-opacity="0.730"/>
    <line x1="185.87" y1="429.06" x2="166.21" y2="440.41" stroke-opacity="0.730"/>
    <line x1="179.05" y1="414.45" x2="157.72" y2="422.21" stroke-opacity="0.730"/>
    <line x1="174.88" y1="398.87" x2="152.53" y2="402.81" stroke-opacity="0.730"/>
    <line x1="173.47" y1="382.80" x2="150.78" y2="382.80" stroke-opacity="0.730"/>
    <line x1="174.88" y1="366.73" x2="152.53" y2="362.79" stroke-opacity="0.730"/>
    <line x1="179.05" y1="351.15" x2="157.72" y2="343.39" stroke-opacity="0.730"/>
    <line x1="185.87" y1="336.54" x2="166.21" y2="325.19" stroke-opacity="0.730"/>
    <line x1="195.12" y1="323.32" x2="177.73" y2="308.74" stroke-opacity="0.730"/>
    <line x1="206.52" y1="311.92" x2="191.94" y2="294.53" stroke-opacity="0.730"/>
    <line x1="219.74" y1="302.67" x2="208.39" y2="283.01" stroke-opacity="0.730"/>
    <line x1="234.35" y1="295.85" x2="226.59" y2="274.52" stroke-opacity="0.730"/>
    <line x1="249.93" y1="291.68" x2="245.99" y2="269.33" stroke-opacity="0.730"/>
    <line x1="266.00" y1="290.27" x2="266.00" y2="267.58" stroke-opacity="0.730"/>
    <line x1="282.07" y1="291.68" x2="286.01" y2="269.33" stroke-opacity="0.730"/>
    <line x1="297.65" y1="295.85" x2="305.41" y2="274.52" stroke-opacity="0.730"/>
    <line x1="312.26" y1="302.67" x2="323.61" y2="283.01" stroke-opacity="0.730"/>
    <line x1="325.48" y1="311.92" x2="340.06" y2="294.53" stroke-opacity="0.730"/>
    <line x1="336.88" y1="323.32" x2="354.27" y2="308.74" stroke-opacity="0.730"/>
    <line x1="346.13" y1="336.54" x2="365.79" y2="325.19" stroke-opacity="0.730"/>
    <line x1="352.95" y1="351.15" x2="374.28" y2="343.39" stroke-opacity="0.730"/>
    <line x1="357.12" y1="366.73" x2="379.47" y2="362.79" stroke-opacity="0.730"/>
    <line x1="380.79" y1="392.84" x2="408.94" y2="395.31" stroke-opacity="0.705"/>
    <line x1="377.30" y1="412.62" x2="404.60" y2="419.94" stroke-opacity="0.705"/>
    <line x1="370.43" y1="431.50" x2="396.04" y2="443.44" stroke-opacity="0.705"/>
    <line x1="360.39" y1="448.89" x2="383.54" y2="465.10" stroke-opacity="0.705"/>
    <line x1="347.48" y1="464.28" x2="367.46" y2="484.26" stroke-opacity="0.705"/>
    <line x1="332.09" y1="477.19" x2="348.30" y2="500.34" stroke-opacity="0.705"/>
    <line x1="314.70" y1="487.23" x2="326.64" y2="512.84" stroke-opacity="0.705"/>
    <line x1="295.82" y1="494.10" x2="303.14" y2="521.40" stroke-opacity="0.705"/>
    <line x1="276.04" y1="497.59" x2="278.51" y2="525.74" stroke-opacity="0.705"/>
    <line x1="255.96" y1="497.59" x2="253.49" y2="525.74" stroke-opacity="0.705"/>
    <line x1="236.18" y1="494.10" x2="228.86" y2="521.40" stroke-opacity="0.705"/>
    <line x1="217.30" y1="487.23" x2="205.36" y2="512.84" stroke-opacity="0.705"/>
    <line x1="199.91" y1="477.19" x2="183.70" y2="500.34" stroke-opacity="0.705"/>
    <line x1="184.52" y1="464.28" x2="164.54" y2="484.26" stroke-opacity="0.705"/>
    <line x1="171.61" y1="448.89" x2="148.46" y2="465.10" stroke-opacity="0.705"/>
    <line x1="161.57" y1="431.50" x2="135.96" y2="443.44" stroke-opacity="0.705"/>
    <line x1="154.70" y1="412.62" x2="127.40" y2="419.94" stroke-opacity="0.705"/>
    <line x1="151.21" y1="392.84" x2="123.06" y2="395.31" stroke-opacity="0.705"/>
    <line x1="151.21" y1="372.76" x2="123.06" y2="370.29" stroke-opacity="0.705"/>
    <line x1="154.70" y1="352.98" x2="127.40" y2="345.66" stroke-opacity="0.705"/>
    <line x1="161.57" y1="334.10" x2="135.96" y2="322.16" stroke-opacity="0.705"/>
    <line x1="171.61" y1="316.71" x2="148.46" y2="300.50" stroke-opacity="0.705"/>
    <line x1="184.52" y1="301.32" x2="164.54" y2="281.34" stroke-opacity="0.705"/>
    <line x1="199.91" y1="288.41" x2="183.70" y2="265.26" stroke-opacity="0.705"/>
    <line x1="217.30" y1="278.37" x2="205.36" y2="252.76" stroke-opacity="0.705"/>
    <line x1="236.18" y1="271.50" x2="228.86" y2="244.20" stroke-opacity="0.705"/>
    <line x1="255.96" y1="268.01" x2="253.49" y2="239.86" stroke-opacity="0.705"/>
    <line x1="276.04" y1="268.01" x2="278.51" y2="239.86" stroke-opacity="0.705"/>
    <line x1="295.82" y1="271.50" x2="303.14" y2="244.20" stroke-opacity="0.705"/>
    <line x1="314.70" y1="278.37" x2="326.64" y2="252.76" stroke-opacity="0.705"/>
    <line x1="332.09" y1="288.41" x2="348.30" y2="265.26" stroke-opacity="0.705"/>
    <line x1="347.48" y1="301.32" x2="367.46" y2="281.34" stroke-opacity="0.705"/>
    <line x1="360.39" y1="316.71" x2="383.54" y2="300.50" stroke-opacity="0.705"/>
    <line x1="370.43" y1="334.10" x2="396.04" y2="322.16" stroke-opacity="0.705"/>
    <line x1="377.30" y1="352.98" x2="404.60" y2="345.66" stroke-opacity="0.705"/>
    <line x1="380.79" y1="372.76" x2="408.94" y2="370.29" stroke-opacity="0.705"/>
    <line x1="409.49" y1="382.80" x2="444.68" y2="382.80" stroke-opacity="0.672"/>
    <line x1="407.31" y1="407.72" x2="441.97" y2="413.83" stroke-opacity="0.672"/>
    <line x1="400.83" y1="431.88" x2="433.91" y2="443.91" stroke-opacity="0.672"/>
    <line x1="390.26" y1="454.54" x2="420.74" y2="472.14" stroke-opacity="0.672"/>
    <line x1="375.92" y1="475.03" x2="402.88" y2="497.65" stroke-opacity="0.672"/>
    <line x1="358.23" y1="492.72" x2="380.85" y2="519.68" stroke-opacity="0.672"/>
    <line x1="337.74" y1="507.06" x2="355.34" y2="537.54" stroke-opacity="0.672"/>
    <line x1="315.08" y1="517.63" x2="327.11" y2="550.71" stroke-opacity="0.672"/>
    <line x1="290.92" y1="524.11" x2="297.03" y2="558.77" stroke-opacity="0.672"/>
    <line x1="266.00" y1="526.29" x2="266.00" y2="561.48" stroke-opacity="0.672"/>
    <line x1="241.08" y1="524.11" x2="234.97" y2="558.77" stroke-opacity="0.672"/>
    <line x1="216.92" y1="517.63" x2="204.89" y2="550.71" stroke-opacity="0.672"/>
    <line x1="194.26" y1="507.06" x2="176.66" y2="537.54" stroke-opacity="0.672"/>
    <line x1="173.77" y1="492.72" x2="151.15" y2="519.68" stroke-opacity="0.672"/>
    <line x1="156.08" y1="475.03" x2="129.12" y2="497.65" stroke-opacity="0.672"/>
    <line x1="141.74" y1="454.54" x2="111.26" y2="472.14" stroke-opacity="0.672"/>
    <line x1="131.17" y1="431.88" x2="98.09" y2="443.91" stroke-opacity="0.672"/>
    <line x1="124.69" y1="407.72" x2="90.03" y2="413.83" stroke-opacity="0.672"/>
    <line x1="122.51" y1="382.80" x2="87.32" y2="382.80" stroke-opacity="0.672"/>
    <line x1="124.69" y1="357.88" x2="90.03" y2="351.77" stroke-opacity="0.672"/>
    <line x1="131.17" y1="333.72" x2="98.09" y2="321.69" stroke-opacity="0.672"/>
    <line x1="141.74" y1="311.06" x2="111.26" y2="293.46" stroke-opacity="0.672"/>
    <line x1="156.08" y1="290.57" x2="129.12" y2="267.95" stroke-opacity="0.672"/>
    <line x1="173.77" y1="272.88" x2="151.15" y2="245.92" stroke-opacity="0.672"/>
    <line x1="194.26" y1="258.54" x2="176.66" y2="228.06" stroke-opacity="0.672"/>
    <line x1="216.92" y1="247.97" x2="204.89" y2="214.89" stroke-opacity="0.672"/>
    <line x1="241.08" y1="241.49" x2="234.97" y2="206.83" stroke-opacity="0.672"/>
    <line x1="266.00" y1="239.31" x2="266.00" y2="204.12" stroke-opacity="0.672"/>
    <line x1="290.92" y1="241.49" x2="297.03" y2="206.83" stroke-opacity="0.672"/>
    <line x1="315.08" y1="247.97" x2="327.11" y2="214.89" stroke-opacity="0.672"/>
    <line x1="337.74" y1="258.54" x2="355.34" y2="228.06" stroke-opacity="0.672"/>
    <line x1="358.23" y1="272.88" x2="380.85" y2="245.92" stroke-opacity="0.672"/>
    <line x1="375.92" y1="290.57" x2="402.88" y2="267.95" stroke-opacity="0.672"/>
    <line x1="390.26" y1="311.06" x2="420.74" y2="293.46" stroke-opacity="0.672"/>
    <line x1="400.83" y1="333.72" x2="433.91" y2="321.69" stroke-opacity="0.672"/>
    <line x1="407.31" y1="357.88" x2="441.97" y2="351.77" stroke-opacity="0.672"/>
    <line x1="444.00" y1="398.37" x2="487.66" y2="402.19" stroke-opacity="0.629"/>
    <line x1="438.59" y1="429.05" x2="480.93" y2="440.39" stroke-opacity="0.629"/>
    <line x1="427.94" y1="458.31" x2="467.66" y2="476.84" stroke-opacity="0.629"/>
    <line x1="412.37" y1="485.29" x2="448.27" y2="510.43" stroke-opacity="0.629"/>
    <line x1="392.35" y1="509.15" x2="423.34" y2="540.14" stroke-opacity="0.629"/>
    <line x1="368.49" y1="529.17" x2="393.63" y2="565.07" stroke-opacity="0.629"/>
    <line x1="341.51" y1="544.74" x2="360.04" y2="584.46" stroke-opacity="0.629"/>
    <line x1="312.25" y1="555.39" x2="323.59" y2="597.73" stroke-opacity="0.629"/>
    <line x1="281.57" y1="560.80" x2="285.39" y2="604.46" stroke-opacity="0.629"/>
    <line x1="250.43" y1="560.80" x2="246.61" y2="604.46" stroke-opacity="0.629"/>
    <line x1="219.75" y1="555.39" x2="208.41" y2="597.73" stroke-opacity="0.629"/>
    <line x1="190.49" y1="544.74" x2="171.96" y2="584.46" stroke-opacity="0.629"/>
    <line x1="163.51" y1="529.17" x2="138.37" y2="565.07" stroke-opacity="0.629"/>
    <line x1="139.65" y1="509.15" x2="108.66" y2="540.14" stroke-opacity="0.629"/>
    <line x1="119.63" y1="485.29" x2="83.73" y2="510.43" stroke-opacity="0.629"/>
    <line x1="104.06" y1="458.31" x2="64.34" y2="476.84" stroke-opacity="0.629"/>
    <line x1="93.41" y1="429.05" x2="51.07" y2="440.39" stroke-opacity="0.629"/>
    <line x1="88.00" y1="398.37" x2="44.34" y2="402.19" stroke-opacity="0.629"/>
    <line x1="88.00" y1="367.23" x2="44.34" y2="363.41" stroke-opacity="0.629"/>
    <line x1="93.41" y1="336.55" x2="51.07" y2="325.21" stroke-opacity="0.629"/>
    <line x1="104.06" y1="307.29" x2="64.34" y2="288.76" stroke-opacity="0.629"/>
    <line x1="119.63" y1="280.31" x2="83.73" y2="255.17" stroke-opacity="0.629"/>
    <line x1="139.65" y1="256.45" x2="108.66" y2="225.46" stroke-opacity="0.629"/>
    <line x1="163.51" y1="236.43" x2="138.37" y2="200.53" stroke-opacity="0.629"/>
    <line x1="190.49" y1="220.86" x2="171.96" y2="181.14" stroke-opacity="0.629"/>
    <line x1="219.75" y1="210.21" x2="208.41" y2="167.87" stroke-opacity="0.629"/>
    <line x1="250.43" y1="204.80" x2="246.61" y2="161.14" stroke-opacity="0.629"/>
    <line x1="281.57" y1="204.80" x2="285.39" y2="161.14" stroke-opacity="0.629"/>
    <line x1="312.25" y1="210.21" x2="323.59" y2="167.87" stroke-opacity="0.629"/>
    <line x1="341.51" y1="220.86" x2="360.04" y2="181.14" stroke-opacity="0.629"/>
    <line x1="368.49" y1="236.43" x2="393.63" y2="200.53" stroke-opacity="0.629"/>
    <line x1="392.35" y1="256.45" x2="423.34" y2="225.46" stroke-opacity="0.629"/>
    <line x1="412.37" y1="280.31" x2="448.27" y2="255.17" stroke-opacity="0.629"/>
    <line x1="427.94" y1="307.29" x2="467.66" y2="288.76" stroke-opacity="0.629"/>
    <line x1="438.59" y1="336.55" x2="480.93" y2="325.21" stroke-opacity="0.629"/>
    <line x1="444.00" y1="367.23" x2="487.66" y2="363.41" stroke-opacity="0.629"/>
    <line x1="488.51" y1="382.80" x2="543.09" y2="382.80" stroke-opacity="0.573"/>
    <line x1="485.13" y1="421.44" x2="538.88" y2="430.92" stroke-opacity="0.573"/>
    <line x1="475.09" y1="458.90" x2="526.38" y2="477.57" stroke-opacity="0.573"/>
    <line x1="458.70" y1="494.06" x2="505.97" y2="521.34" stroke-opacity="0.573"/>
    <line x1="436.45" y1="525.83" x2="478.26" y2="560.91" stroke-opacity="0.573"/>
    <line x1="409.03" y1="553.25" x2="444.11" y2="595.06" stroke-opacity="0.573"/>
    <line x1="377.26" y1="575.50" x2="404.54" y2="622.77" stroke-opacity="0.573"/>
    <line x1="342.10" y1="591.89" x2="360.77" y2="643.18" stroke-opacity="0.573"/>
    <line x1="304.64" y1="601.93" x2="314.12" y2="655.68" stroke-opacity="0.573"/>
    <line x1="266.00" y1="605.31" x2="266.00" y2="659.89" stroke-opacity="0.573"/>
    <line x1="227.36" y1="601.93" x2="217.88" y2="655.68" stroke-opacity="0.573"/>
    <line x1="189.90" y1="591.89" x2="171.23" y2="643.18" stroke-opacity="0.573"/>
    <line x1="154.74" y1="575.50" x2="127.46" y2="622.77" stroke-opacity="0.573"/>
    <line x1="122.97" y1="553.25" x2="87.89" y2="595.06" stroke-opacity="0.573"/>
    <line x1="95.55" y1="525.83" x2="53.74" y2="560.91" stroke-opacity="0.573"/>
    <line x1="73.30" y1="494.06" x2="26.03" y2="521.34" stroke-opacity="0.573"/>
    <line x1="56.91" y1="458.90" x2="5.62" y2="477.57" stroke-opacity="0.573"/>
    <line x1="46.87" y1="421.44" x2="-6.88" y2="430.92" stroke-opacity="0.573"/>
    <line x1="43.49" y1="382.80" x2="-11.09" y2="382.80" stroke-opacity="0.573"/>
    <line x1="46.87" y1="344.16" x2="-6.88" y2="334.68" stroke-opacity="0.573"/>
    <line x1="56.91" y1="306.70" x2="5.62" y2="288.03" stroke-opacity="0.573"/>
    <line x1="73.30" y1="271.54" x2="26.03" y2="244.26" stroke-opacity="0.573"/>
    <line x1="95.55" y1="239.77" x2="53.74" y2="204.69" stroke-opacity="0.573"/>
    <line x1="122.97" y1="212.35" x2="87.89" y2="170.54" stroke-opacity="0.573"/>
    <line x1="154.74" y1="190.10" x2="127.46" y2="142.83" stroke-opacity="0.573"/>
    <line x1="189.90" y1="173.71" x2="171.23" y2="122.42" stroke-opacity="0.573"/>
    <line x1="227.36" y1="163.67" x2="217.88" y2="109.92" stroke-opacity="0.573"/>
    <line x1="266.00" y1="160.29" x2="266.00" y2="105.71" stroke-opacity="0.573"/>
    <line x1="304.64" y1="163.67" x2="314.12" y2="109.92" stroke-opacity="0.573"/>
    <line x1="342.10" y1="173.71" x2="360.77" y2="122.42" stroke-opacity="0.573"/>
    <line x1="377.26" y1="190.10" x2="404.54" y2="142.83" stroke-opacity="0.573"/>
    <line x1="409.03" y1="212.35" x2="444.11" y2="170.54" stroke-opacity="0.573"/>
    <line x1="436.45" y1="239.77" x2="478.26" y2="204.69" stroke-opacity="0.573"/>
    <line x1="458.70" y1="271.54" x2="505.97" y2="244.26" stroke-opacity="0.573"/>
    <line x1="475.09" y1="306.70" x2="526.38" y2="288.03" stroke-opacity="0.573"/>
    <line x1="485.13" y1="344.16" x2="538.88" y2="334.68" stroke-opacity="0.573"/>
    <line x1="542.03" y1="406.95" x2="609.74" y2="412.87" stroke-opacity="0.500"/>
    <line x1="533.65" y1="454.52" x2="599.30" y2="472.11" stroke-opacity="0.500"/>
    <line x1="517.13" y1="499.90" x2="578.73" y2="528.63" stroke-opacity="0.500"/>
    <line x1="492.98" y1="541.73" x2="548.65" y2="580.72" stroke-opacity="0.500"/>
    <line x1="461.93" y1="578.73" x2="509.99" y2="626.79" stroke-opacity="0.500"/>
    <line x1="424.93" y1="609.78" x2="463.92" y2="665.45" stroke-opacity="0.500"/>
    <line x1="383.10" y1="633.93" x2="411.83" y2="695.53" stroke-opacity="0.500"/>
    <line x1="337.72" y1="650.45" x2="355.31" y2="716.10" stroke-opacity="0.500"/>
    <line x1="290.15" y1="658.83" x2="296.07" y2="726.54" stroke-opacity="0.500"/>
    <line x1="241.85" y1="658.83" x2="235.93" y2="726.54" stroke-opacity="0.500"/>
    <line x1="194.28" y1="650.45" x2="176.69" y2="716.10" stroke-opacity="0.500"/>
    <line x1="148.90" y1="633.93" x2="120.17" y2="695.53" stroke-opacity="0.500"/>
    <line x1="107.07" y1="609.78" x2="68.08" y2="665.45" stroke-opacity="0.500"/>
    <line x1="70.07" y1="578.73" x2="22.01" y2="626.79" stroke-opacity="0.500"/>
    <line x1="39.02" y1="541.73" x2="-16.65" y2="580.72" stroke-opacity="0.500"/>
    <line x1="14.87" y1="499.90" x2="-46.73" y2="528.63" stroke-opacity="0.500"/>
    <line x1="-1.65" y1="454.52" x2="-67.30" y2="472.11" stroke-opacity="0.500"/>
    <line x1="-10.03" y1="406.95" x2="-77.74" y2="412.87" stroke-opacity="0.500"/>
    <line x1="-10.03" y1="358.65" x2="-77.74" y2="352.73" stroke-opacity="0.500"/>
    <line x1="-1.65" y1="311.08" x2="-67.30" y2="293.49" stroke-opacity="0.500"/>
    <line x1="14.87" y1="265.70" x2="-46.73" y2="236.97" stroke-opacity="0.500"/>
    <line x1="39.02" y1="223.87" x2="-16.65" y2="184.88" stroke-opacity="0.500"/>
    <line x1="70.07" y1="186.87" x2="22.01" y2="138.81" stroke-opacity="0.500"/>
    <line x1="107.07" y1="155.82" x2="68.08" y2="100.15" stroke-opacity="0.500"/>
    <line x1="148.90" y1="131.67" x2="120.17" y2="70.07" stroke-opacity="0.500"/>
    <line x1="194.28" y1="115.15" x2="176.69" y2="49.50" stroke-opacity="0.500"/>
    <line x1="241.85" y1="106.77" x2="235.93" y2="39.06" stroke-opacity="0.500"/>
    <line x1="290.15" y1="106.77" x2="296.07" y2="39.06" stroke-opacity="0.500"/>
    <line x1="337.72" y1="115.15" x2="355.31" y2="49.50" stroke-opacity="0.500"/>
    <line x1="383.10" y1="131.67" x2="411.83" y2="70.07" stroke-opacity="0.500"/>
    <line x1="424.93" y1="155.82" x2="463.92" y2="100.15" stroke-opacity="0.500"/>
    <line x1="461.93" y1="186.87" x2="509.99" y2="138.81" stroke-opacity="0.500"/>
    <line x1="492.98" y1="223.87" x2="548.65" y2="184.88" stroke-opacity="0.500"/>
    <line x1="517.13" y1="265.70" x2="578.73" y2="236.97" stroke-opacity="0.500"/>
    <line x1="533.65" y1="311.08" x2="599.30" y2="293.49" stroke-opacity="0.500"/>
    <line x1="542.03" y1="358.65" x2="609.74" y2="352.73" stroke-opacity="0.500"/>
    <line x1="611.06" y1="382.80" x2="695.69" y2="382.80" stroke-opacity="0.405"/>
    <line x1="605.81" y1="442.72" x2="689.16" y2="457.42" stroke-opacity="0.405"/>
    <line x1="590.25" y1="500.82" x2="669.78" y2="529.76" stroke-opacity="0.405"/>
    <line x1="564.83" y1="555.33" x2="638.12" y2="597.65" stroke-opacity="0.405"/>
    <line x1="530.33" y1="604.60" x2="595.16" y2="659.00" stroke-opacity="0.405"/>
    <line x1="487.80" y1="647.13" x2="542.20" y2="711.96" stroke-opacity="0.405"/>
    <line x1="438.53" y1="681.63" x2="480.85" y2="754.92" stroke-opacity="0.405"/>
    <line x1="384.02" y1="707.05" x2="412.96" y2="786.58" stroke-opacity="0.405"/>
    <line x1="325.92" y1="722.61" x2="340.62" y2="805.96" stroke-opacity="0.405"/>
    <line x1="266.00" y1="727.86" x2="266.00" y2="812.49" stroke-opacity="0.405"/>
    <line x1="206.08" y1="722.61" x2="191.38" y2="805.96" stroke-opacity="0.405"/>
    <line x1="147.98" y1="707.05" x2="119.04" y2="786.58" stroke-opacity="0.405"/>
    <line x1="93.47" y1="681.63" x2="51.15" y2="754.92" stroke-opacity="0.405"/>
    <line x1="44.20" y1="647.13" x2="-10.20" y2="711.96" stroke-opacity="0.405"/>
    <line x1="1.67" y1="604.60" x2="-63.16" y2="659.00" stroke-opacity="0.405"/>
    <line x1="-32.83" y1="555.33" x2="-106.12" y2="597.65" stroke-opacity="0.405"/>
    <line x1="-58.25" y1="500.82" x2="-137.78" y2="529.76" stroke-opacity="0.405"/>
    <line x1="-73.81" y1="442.72" x2="-157.16" y2="457.42" stroke-opacity="0.405"/>
    <line x1="-79.06" y1="382.80" x2="-163.69" y2="382.80" stroke-opacity="0.405"/>
    <line x1="-73.81" y1="322.88" x2="-157.16" y2="308.18" stroke-opacity="0.405"/>
    <line x1="-58.25" y1="264.78" x2="-137.78" y2="235.84" stroke-opacity="0.405"/>
    <line x1="-32.83" y1="210.27" x2="-106.12" y2="167.95" stroke-opacity="0.405"/>
    <line x1="1.67" y1="161.00" x2="-63.16" y2="106.60" stroke-opacity="0.405"/>
    <line x1="44.20" y1="118.47" x2="-10.20" y2="53.64" stroke-opacity="0.405"/>
    <line x1="93.47" y1="83.97" x2="51.15" y2="10.68" stroke-opacity="0.405"/>
    <line x1="147.98" y1="58.55" x2="119.04" y2="-20.98" stroke-opacity="0.405"/>
    <line x1="206.08" y1="42.99" x2="191.38" y2="-40.36" stroke-opacity="0.405"/>
    <line x1="266.00" y1="37.74" x2="266.00" y2="-46.89" stroke-opacity="0.405"/>
    <line x1="325.92" y1="42.99" x2="340.62" y2="-40.36" stroke-opacity="0.405"/>
    <line x1="384.02" y1="58.55" x2="412.96" y2="-20.98" stroke-opacity="0.405"/>
    <line x1="438.53" y1="83.97" x2="480.85" y2="10.68" stroke-opacity="0.405"/>
    <line x1="487.80" y1="118.47" x2="542.20" y2="53.64" stroke-opacity="0.405"/>
    <line x1="530.33" y1="161.00" x2="595.16" y2="106.60" stroke-opacity="0.405"/>
    <line x1="564.83" y1="210.27" x2="638.12" y2="167.95" stroke-opacity="0.405"/>
    <line x1="590.25" y1="264.78" x2="669.78" y2="235.84" stroke-opacity="0.405"/>
    <line x1="605.81" y1="322.88" x2="689.16" y2="308.18" stroke-opacity="0.405"/>
  </g>
  <text x="266.0" y="8" font-family="Didot, 'Bodoni 72', 'Bodoni MT', Georgia, serif" font-weight="700" font-size="520" fill="#C07FA0" text-anchor="middle" dominant-baseline="text-before-edge">M</text>
</svg>