<svg xmlns="http://www.w3.org/2000/svg" viewBox="0 0 460 600">
  <g stroke="#FFFFFF" fill="none" stroke-width="1">
    <circle cx="230.00" cy="348.00" r="16.00" stroke-opacity="0.800"/>
    <circle cx="230.00" cy="348.00" r="19.89" stroke-opacity="0.798"/>
    <circle cx="230.00" cy="348.00" r="24.74" stroke-opacity="0.795"/>
    <circle cx="230.00" cy="348.00" r="30.76" stroke-opacity="0.792"/>
    <circle cx="230.00" cy="348.00" r="38.24" stroke-opacity="0.786"/>
    <circle cx="230.00" cy="348.00" r="47.55" stroke-opacity="0.779"/>
    <circle cx="230.00" cy="348.00" r="59.13" stroke-opacity="0.769"/>
    <circle cx="230.00" cy="348.00" r="73.52" stroke-opacity="0.757"/>
    <circle cx="230.00" cy="348.00" r="91.41" stroke-opacity="0.740"/>
    <circle cx="230.00" cy="348.00" r="113.66" stroke-opacity="0.718"/>
    <circle cx="230.00" cy="348.00" r="141.32" stroke-opacity="0.690"/>
    <circle cx="230.00" cy="348.00" r="175.72" stroke-opacity="0.652"/>
    <circle cx="230.00" cy="348.00" r="218.49" stroke-opacity="0.604"/>
    <circle cx="230.00" cy="348.00" r="271.66" stroke-opacity="0.540"/>
    <circle cx="230.00" cy="348.00" r="337.79" stroke-opacity="0.458"/>
    <circle cx="230.00" cy="348.00" r="420.00" stroke-opacity="0.350"/>
  </g>
  <g stroke="#FFFFFF" fill="none" stroke-width="1">
    <line x1="246.00" y1="348.00" x2="249.89" y2="348.00" stroke-opacity="0.799"/>
    <line x1="245.76" y1="350.78" x2="249.59" y2="351.45" stroke-opacity="0.799"/>
    <line x1="245.04" y1="353.47" x2="248.69" y2="354.80" stroke-opacity="0.799"/>
    <line x1="243.86" y1="356.00" x2="247.23" y2="357.95" stroke-opacity="0.799"/>
    <line x1="242.26" y1="358.28" x2="245.24" y2="360.79" stroke-opacity="0.799"/>
    <line x1="240.28" y1="360.26" x2="242.79" y2="363.24" stroke-opacity="0.799"/>
    <line x1="238.00" y1="361.86" x2="239.95" y2="365.23" stroke-opacity="0.799"/>
    <line x1="235.47" y1="363.04" x2="236.80" y2="366.69" stroke-opacity="0.799"/>
    <line x1="232.78" y1="363.76" x2="233.45" y2="367.59" stroke-opacity="0.799"/>
    <line x1="230.00" y1="364.00" x2="230.00" y2="367.89" stroke-opacity="0.799"/>
    <line x1="227.22" y1="363.76" x2="226.55" y2="367.59" stroke-opacity="0.799"/>
    <line x1="224.53" y1="363.04" x2="223.20" y2="366.69" stroke-opacity="0.799"/>
    <line x1="222.00" y1="361.86" x2="220.05" y2="365.23" stroke-opacity="0.799"/>
    <line x1="219.72" y1="360.26" x2="217.21" y2="363.24" stroke-opacity="0.799"/>
    <line x1="217.74" y1="358.28" x2="214.76" y2="360.79" stroke-opacity="0.799"/>
    <line x1="216.14" y1="356.00" x2="212.77" y2="357.95" stroke-opacity="0.799"/>
    <line x1="214.96" y1="353.47" x2="211.31" y2="354.80" stroke-opacity="0.799"/>
    <line x1="214.24" y1="350.78" x2="210.41" y2="351.45" stroke-opacity="0.799"/>
    <line x1="214.00" y1="348.00" x2="210.11" y2="348.00" stroke-opacity="0.799"/>
    <line x1="214.24" y1="345.22" x2="210.41" y2="344.55" stroke-opacity="0.799"/>
    <line x1="214.96" y1="342.53" x2="211.31" y2="341.20" stroke-opacity="0.799"/>
    <line x1="216.14" y1="340.00" x2="212.77" y2="338.05" stroke-opacity="0.799"/>
    <line x1="217.74" y1="337.72" x2="214.76" y2="335.21" stroke-opacity="0.799"/>
    <line x1="219.72" y1="335.74" x2="217.21" y2="332.76" stroke-opacity="0.799"/>
    <line x1="222.00" y1="334.14" x2="220.05" y2="330.77" stroke-opacity="0.799"/>
    <line x1="224.53" y1="332.96" x2="223.20" y2="329.31" stroke-opacity="0.799"/>
    <line x1="227.22" y1="332.24" x2="226.55" y2="328.41" stroke-opacity="0.799"/>
    <line x1="230.00" y1="332.00" x2="230.00" y2="328.11" stroke-opacity="0.799"/>
    <line x1="232.78" y1="332.24" x2="233.45" y2="328.41" stroke-opacity="0.799"/>
    <line x1="235.47" y1="332.96" x2="236.80" y2="329.31" stroke-opacity="0.799"/>
    <line x1="238.00" y1="334.14" x2="239.95" y2="330.77" stroke-opacity="0.799"/>
    <line x1="240.28" y1="335.74" x2="242.79" y2="332.76" stroke-opacity="0.799"/>
    <line x1="242.26" y1="337.72" x2="245.24" y2="335.21" stroke-opacity="0.799"/>
    <line x1="243.86" y1="340.00" x2="247.23" y2="338.05" stroke-opacity="0.799"/>
    <line x1="245.04" y1="342.53" x2="248.69" y2="341.20" stroke-opacity="0.799"/>
    <line x1="245.76" y1="345.22" x2="249.59" y2="344.55" stroke-opacity="0.799"/>
    <line x1="249.82" y1="349.73" x2="254.64" y2="350.16" stroke-opacity="0.797"/>
    <line x1="249.22" y1="353.15" x2="253.89" y2="354.40" stroke-opacity="0.797"/>
    <line x1="248.03" y1="356.41" x2="252.42" y2="358.45" stroke-opacity="0.797"/>
    <line x1="246.30" y1="359.41" x2="250.26" y2="362.19" stroke-opacity="0.797"/>
    <line x1="244.07" y1="362.07" x2="247.49" y2="365.49" stroke-opacity="0.797"/>
    <line x1="241.41" y1="364.30" x2="244.19" y2="368.26" stroke-opacity="0.797"/>
    <line x1="238.41" y1="366.03" x2="240.45" y2="370.42" stroke-opacity="0.797"/>
    <line x1="235.15" y1="367.22" x2="236.40" y2="371.89" stroke-opacity="0.797"/>
    <line x1="231.73" y1="367.82" x2="232.16" y2="372.64" stroke-opacity="0.797"/>
    <line x1="228.27" y1="367.82" x2="227.84" y2="372.64" stroke-opacity="0.797"/>
    <line x1="224.85" y1="367.22" x2="223.60" y2="371.89" stroke-opacity="0.797"/>
    <line x1="221.59" y1="366.03" x2="219.55" y2="370.42" stroke-opacity="0.797"/>
    <line x1="218.59" y1="364.30" x2="215.81" y2="368.26" stroke-opacity="0.797"/>
    <line x1="215.93" y1="362.07" x2="212.51" y2="365.49" stroke-opacity="0.797"/>
    <line x1="213.70" y1="359.41" x2="209.74" y2="362.19" stroke-opacity="0.797"/>
    <line x1="211.97" y1="356.41" x2="207.58" y2="358.45" stroke-opacity="0.797"/>
    <line x1="210.78" y1="353.15" x2="206.11" y2="354.40" stroke-opacity="0.797"/>
    <line x1="210.18" y1="349.73" x2="205.36" y2="350.16" stroke-opacity="0.797"/>
    <line x1="210.18" y1="346.27" x2="205.36" y2="345.84" stroke-opacity="0.797"/>
    <line x1="210.78" y1="342.85" x2="206.11" y2="341.60" stroke-opacity="0.797"/>
    <line x1="211.97" y1="339.59" x2="207.58" y2="337.55" stroke-opacity="0.797"/>
    <line x1="213.70" y1="336.59" x2="209.74" y2="333.81" stroke-opacity="0.797"/>
    <line x1="215.93" y1="333.93" x2="212.51" y2="330.51" stroke-opacity="0.797"/>
    <line x1="218.59" y1="331.70" x2="215.81" y2="327.74" stroke-opacity="0.797"/>
    <line x1="221.59" y1="329.97" x2="219.55" y2="325.58" stroke-opacity="0.797"/>
    <line x1="224.85" y1="328.78" x2="223.60" y2="324.11" stroke-opacity="0.797"/>
    <line x1="228.27" y1="328.18" x2="227.84" y2="323.36" stroke-opacity="0.797"/>
    <line x1="231.73" y1="328.18" x2="232.16" y2="323.36" stroke-opacity="0.797"/>
    <line x1="235.15" y1="328.78" x2="236.40" y2="324.11" stroke-opacity="0.797"/>
    <line x1="238.41" y1="329.97" x2="240.45" y2="325.58" stroke-opacity="0.797"/>
    <line x1="241.41" y1="331.70" x2="244.19" y2="327.74" stroke-opacity="0.797"/>
    <line x1="244.07" y1="333.93" x2="247.49" y2="330.51" stroke-opacity="0.797"/>
    <line x1="246.30" y1="336.59" x2="250.26" y2="333.81" stroke-opacity="0.797"/>
    <line x1="248.03" y1="339.59" x2="252.42" y2="337.55" stroke-opacity="0.797"/>
    <line x1="249.22" y1="342.85" x2="253.89" y2="341.60" stroke-opacity="0.797"/>
    <line x1="249.82" y1="346.27" x2="254.64" y2="345.84" stroke-opacity="0.797"/>
    <line x1="254.74" y1="348.00" x2="260.76" y2="348.00" stroke-opacity="0.794"/>
    <line x1="254.36" y1="352.30" x2="260.29" y2="353.34" stroke-opacity="0.794"/>
    <line x1="253.24" y1="356.46" x2="258.90" y2="358.52" stroke-opacity="0.794"/>
    <line x1="251.42" y1="360.37" x2="256.64" y2="363.38" stroke-opacity="0.794"/>
    <line x1="248.95" y1="363.90" x2="253.56" y2="367.77" stroke-opacity="0.794"/>
    <line x1="245.90" y1="366.95" x2="249.77" y2="371.56" stroke-opacity="0.794"/>
    <line x1="242.37" y1="369.42" x2="245.38" y2="374.64" stroke-opacity="0.794"/>
    <line x1="238.46" y1="371.24" x2="240.52" y2="376.90" stroke-opacity="0.794"/>
    <line x1="234.30" y1="372.36" x2="235.34" y2="378.29" stroke-opacity="0.794"/>
    <line x1="230.00" y1="372.74" x2="230.00" y2="378.76" stroke-opacity="0.794"/>
    <line x1="225.70" y1="372.36" x2="224.66" y2="378.29" stroke-opacity="0.794"/>
    <line x1="221.54" y1="371.24" x2="219.48" y2="376.90" stroke-opacity="0.794"/>
    <line x1="217.63" y1="369.42" x2="214.62" y2="374.64" stroke-opacity="0.794"/>
    <line x1="214.10" y1="366.95" x2="210.23" y2="371.56" stroke-opacity="0.794"/>
    <line x1="211.05" y1="363.90" x2="206.44" y2="367.77" stroke-opacity="0.794"/>
    <line x1="208.58" y1="360.37" x2="203.36" y2="363.38" stroke-opacity="0.794"/>
    <line x1="206.76" y1="356.46" x2="201.10" y2="358.52" stroke-opacity="0.794"/>
    <line x1="205.64" y1="352.30" x2="199.71" y2="353.34" stroke-opacity="0.794"/>
    <line x1="205.26" y1="348.00" x2="199.24" y2="348.00" stroke-opacity="0.794"/>
    <line x1="205.64" y1="343.70" x2="199.71" y2="342.66" stroke-opacity="0.794"/>
    <line x1="206.76" y1="339.54" x2="201.10" y2="337.48" stroke-opacity="0.794"/>
    <line x1="208.58" y1="335.63" x2="203.36" y2="332.62" stroke-opacity="0.794"/>
    <line x1="211.05" y1="332.10" x2="206.44" y2="328.23" stroke-opacity="0.794"/>
    <line x1="214.10" y1="329.05" x2="210.23" y2="324.44" stroke-opacity="0.794"/>
    <line x1="217.63" y1="326.58" x2="214.62" y2="321.36" stroke-opacity="0.794"/>
    <line x1="221.54" y1="324.76" x2="219.48" y2="319.10" stroke-opacity="0.794"/>
    <line x1="225.70" y1="323.64" x2="224.66" y2="317.71" stroke-opacity="0.794"/>
    <line x1="230.00" y1="323.26" x2="230.00" y2="317.24" stroke-opacity="0.794"/>
    <line x1="234.30" y1="323.64" x2="235.34" y2="317.71" stroke-opacity="0.794"/>
    <line x1="238.46" y1="324.76" x2="240.52" y2="319.10" stroke-opacity="0.794"/>
    <line x1="242.37" y1="326.58" x2="245.38" y2="321.36" stroke-opacity="0.794"/>
    <line x1="245.90" y1="329.05" x2="249.77" y2="324.44" stroke-opacity="0.794"/>
    <line x1="248.95" y1="332.10" x2="253.56" y2="328.23" stroke-opacity="0.794"/>
    <line x1="251.42" y1="335.63" x2="256.64" y2="332.62" stroke-opacity="0.794"/>
    <line x1="253.24" y1="339.54" x2="258.90" y2="337.48" stroke-opacity="0.794"/>
    <line x1="254.36" y1="343.70" x2="260.29" y2="342.66" stroke-opacity="0.794"/>
    <line x1="260.64" y1="350.68" x2="268.10" y2="351.33" stroke-opacity="0.789"/>
    <line x1="259.71" y1="355.96" x2="266.94" y2="357.90" stroke-opacity="0.789"/>
    <line x1="257.88" y1="361.00" x2="264.66" y2="364.16" stroke-opacity="0.789"/>
    <line x1="255.19" y1="365.64" x2="261.33" y2="369.94" stroke-opacity="0.789"/>
    <line x1="251.75" y1="369.75" x2="257.04" y2="375.04" stroke-opacity="0.789"/>
    <line x1="247.64" y1="373.19" x2="251.94" y2="379.33" stroke-opacity="0.789"/>
    <line x1="243.00" y1="375.88" x2="246.16" y2="382.66" stroke-opacity="0.789"/>
    <line x1="237.96" y1="377.71" x2="239.90" y2="384.94" stroke-opacity="0.789"/>
    <line x1="232.68" y1="378.64" x2="233.33" y2="386.10" stroke-opacity="0.789"/>
    <line x1="227.32" y1="378.64" x2="226.67" y2="386.10" stroke-opacity="0.789"/>
    <line x1="222.04" y1="377.71" x2="220.10" y2="384.94" stroke-opacity="0.789"/>
    <line x1="217.00" y1="375.88" x2="213.84" y2="382.66" stroke-opacity="0.789"/>
    <line x1="212.36" y1="373.19" x2="208.06" y2="379.33" stroke-opacity="0.789"/>
    <line x1="208.25" y1="369.75" x2="202.96" y2="375.04" stroke-opacity="0.789"/>
    <line x1="204.81" y1="365.64" x2="198.67" y2="369.94" stroke-opacity="0.789"/>
    <line x1="202.12" y1="361.00" x2="195.34" y2="364.16" stroke-opacity="0.789"/>
    <line x1="200.29" y1="355.96" x2="193.06" y2="357.90" stroke-opacity="0.789"/>
    <line x1="199.36" y1="350.68" x2="191.90" y2="351.33" stroke-opacity="0.789"/>
    <line x1="199.36" y1="345.32" x2="191.90" y2="344.67" stroke-opacity="0.789"/>
    <line x1="200.29" y1="340.04" x2="193.06" y2="338.10" stroke-opacity="0.789"/>
    <line x1="202.12" y1="335.00" x2="195.34" y2="331.84" stroke-opacity="0.789"/>
    <line x1="204.81" y1="330.36" x2="198.67" y2="326.06" stroke-opacity="0.789"/>
    <line x1="208.25" y1="326.25" x2="202.96" y2="320.96" stroke-opacity="0.789"/>
    <line x1="212.36" y1="322.81" x2="208.06" y2="316.67" stroke-opacity="0.789"/>
    <line x1="217.00" y1="320.12" x2="213.84" y2="313.34" stroke-opacity="0.789"/>
    <line x1="222.04" y1="318.29" x2="220.10" y2="311.06" stroke-opacity="0.789"/>
    <line x1="227.32" y1="317.36" x2="226.67" y2="309.90" stroke-opacity="0.789"/>
    <line x1="232.68" y1="317.36" x2="233.33" y2="309.90" stroke-opacity="0.789"/>
    <line x1="237.96" y1="318.29" x2="239.90" y2="311.06" stroke-opacity="0.789"/>
    <line x1="243.00" y1="320.12" x2="246.16" y2="313.34" stroke-opacity="0.789"/>
    <line x1="247.64" y1="322.81" x2="251.94" y2="316.67" stroke-opacity="0.789"/>
    <line x1="251.75" y1="326.25" x2="257.04" y2="320.96" stroke-opacity="0.789"/>
    <line x1="255.19" y1="330.36" x2="261.33" y2="326.06" stroke-opacity="0.789"/>
    <line x1="257.88" y1="335.00" x2="264.66" y2="331.84" stroke-opacity="0.789"/>
    <line x1="259.71" y1="340.04" x2="266.94" y2="338.10" stroke-opacity="0.789"/>
    <line x1="260.64" y1="345.32" x2="268.10" y2="344.67" stroke-opacity="0.789"/>
    <line x1="268.24" y1="348.00" x2="277.55" y2="348.00" stroke-opacity="0.783"/>
    <line x1="267.66" y1="354.64" x2="276.83" y2="356.26" stroke-opacity="0.783"/>
    <line x1="265.94" y1="361.08" x2="274.68" y2="364.26" stroke-opacity="0.783"/>
    <line x1="263.12" y1="367.12" x2="271.18" y2="371.78" stroke-opacity="0.783"/>
    <line x1="259.30" y1="372.58" x2="266.43" y2="378.57" stroke-opacity="0.783"/>
    <line x1="254.58" y1="377.30" x2="260.57" y2="384.43" stroke-opacity="0.783"/>
    <line x1="249.12" y1="381.12" x2="253.78" y2="389.18" stroke-opacity="0.783"/>
    <line x1="243.08" y1="383.94" x2="246.26" y2="392.68" stroke-opacity="0.783"/>
    <line x1="236.64" y1="385.66" x2="238.26" y2="394.83" stroke-opacity="0.783"/>
    <line x1="230.00" y1="386.24" x2="230.00" y2="395.55" stroke-opacity="0.783"/>
    <line x1="223.36" y1="385.66" x2="221.74" y2="394.83" stroke-opacity="0.783"/>
    <line x1="216.92" y1="383.94" x2="213.74" y2="392.68" stroke-opacity="0.783"/>
    <line x1="210.88" y1="381.12" x2="206.22" y2="389.18" stroke-opacity="0.783"/>
    <line x1="205.42" y1="377.30" x2="199.43" y2="384.43" stroke-opacity="0.783"/>
    <line x1="200.70" y1="372.58" x2="193.57" y2="378.57" stroke-opacity="0.783"/>
    <line x1="196.88" y1="367.12" x2="188.82" y2="371.78" stroke-opacity="0.783"/>
    <line x1="194.06" y1="361.08" x2="185.32" y2="364.26" stroke-opacity="0.783"/>
    <line x1="192.34" y1="354.64" x2="183.17" y2="356.26" stroke-opacity="0.783"/>
    <line x1="191.76" y1="348.00" x2="182.45" y2="348.00" stroke-opacity="0.783"/>
    <line x1="192.34" y1="341.36" x2="183.17" y2="339.74" stroke-opacity="0.783"/>
    <line x1="194.06" y1="334.92" x2="185.32" y2="331.74" stroke-opacity="0.783"/>
    <line x1="196.88" y1="328.88" x2="188.82" y2="324.22" stroke-opacity="0.783"/>
    <line x1="200.70" y1="323.42" x2="193.57" y2="317.43" stroke-opacity="0.783"/>
    <line x1="205.42" y1="318.70" x2="199.43" y2="311.57" stroke-opacity="0.783"/>
    <line x1="210.88" y1="314.88" x2="206.22" y2="306.82" stroke-opacity="0.783"/>
    <line x1="216.92" y1="312.06" x2="213.74" y2="303.32" stroke-opacity="0.783"/>
    <line x1="223.36" y1="310.34" x2="221.74" y2="301.17" stroke-opacity="0.783"/>
    <line x1="230.00" y1="309.76" x2="230.00" y2="300.45" stroke-opacity="0.783"/>
    <line x1="236.64" y1="310.34" x2="238.26" y2="301.17" stroke-opacity="0.783"/>
    <line x1="243.08" y1="312.06" x2="246.26" y2="303.32" stroke-opacity="0.783"/>
    <line x1="249.12" y1="314.88" x2="253.78" y2="306.82" stroke-opacity="0.783"/>
    <line x1="254.58" y1="318.70" x2="260.57" y2="311.57" stroke-opacity="0.783"/>
    <line x1="259.30" y1="323.42" x2="266.43" y2="317.43" stroke-opacity="0.783"/>
    <line x1="263.12" y1="328.88" x2="271.18" y2="324.22" stroke-opacity="0.783"/>
    <line x1="265.94" y1="334.92" x2="274.68" y2="331.74" stroke-opacity="0.783"/>
    <line x1="267.66" y1="341.36" x2="276.83" y2="339.74" stroke-opacity="0.783"/>
    <line x1="277.37" y1="352.14" x2="288.90" y2="353.15" stroke-opacity="0.774"/>
    <line x1="275.93" y1="360.31" x2="287.11" y2="363.30" stroke-opacity="0.774"/>
    <line x1="273.10" y1="368.10" x2="283.59" y2="372.99" stroke-opacity="0.774"/>
    <line x1="268.95" y1="375.27" x2="278.43" y2="381.91" stroke-opacity="0.774"/>
    <line x1="263.62" y1="381.62" x2="271.81" y2="389.81" stroke-opacity="0.774"/>
    <line x1="257.27" y1="386.95" x2="263.91" y2="396.43" stroke-opacity="0.774"/>
    <line x1="250.10" y1="391.10" x2="254.99" y2="401.59" stroke-opacity="0.774"/>
    <line x1="242.31" y1="393.93" x2="245.30" y2="405.11" stroke-opacity="0.774"/>
    <line x1="234.14" y1="395.37" x2="235.15" y2="406.90" stroke-opacity="0.774"/>
    <line x1="225.86" y1="395.37" x2="224.85" y2="406.90" stroke-opacity="0.774"/>
    <line x1="217.69" y1="393.93" x2="214.70" y2="405.11" stroke-opacity="0.774"/>
    <line x1="209.90" y1="391.10" x2="205.01" y2="401.59" stroke-opacity="0.774"/>
    <line x1="202.73" y1="386.95" x2="196.09" y2="396.43" stroke-opacity="0.774"/>
    <line x1="196.38" y1="381.62" x2="188.19" y2="389.81" stroke-opacity="0.774"/>
    <line x1="191.05" y1="375.27" x2="181.57" y2="381.91" stroke-opacity="0.774"/>
    <line x1="186.90" y1="368.10" x2="176.41" y2="372.99" stroke-opacity="0.774"/>
    <line x1="184.07" y1="360.31" x2="172.89" y2="363.30" stroke-opacity="0.774"/>
    <line x1="182.63" y1="352.14" x2="171.10" y2="353.15" stroke-opacity="0.774"/>
    <line x1="182.63" y1="343.86" x2="171.10" y2="342.85" stroke-opacity="0.774"/>
    <line x1="184.07" y1="335.69" x2="172.89" y2="332.70" stroke-opacity="0.774"/>
    <line x1="186.90" y1="327.90" x2="176.41" y2="323.01" stroke-opacity="0.774"/>
    <line x1="191.05" y1="320.73" x2="181.57" y2="314.09" stroke-opacity="0.774"/>
    <line x1="196.38" y1="314.38" x2="188.19" y2="306.19" stroke-opacity="0.774"/>
    <line x1="202.73" y1="309.05" x2="196.09" y2="299.57" stroke-opacity="0.774"/>
    <line x1="209.90" y1="304.90" x2="205.01" y2="294.41" stroke-opacity="0.774"/>
    <line x1="217.69" y1="302.07" x2="214.70" y2="290.89" stroke-opacity="0.774"/>
    <line x1="225.86" y1="300.63" x2="224.85" y2="289.10" stroke-opacity="0.774"/>
    <line x1="234.14" y1="300.63" x2="235.15" y2="289.10" stroke-opacity="0.774"/>
    <line x1="242.31" y1="302.07" x2="245.30" y2="290.89" stroke-opacity="0.774"/>
    <line x1="250.10" y1="304.90" x2="254.99" y2="294.41" stroke-opacity="0.774"/>
    <line x1="257.27" y1="309.05" x2="263.91" y2="299.57" stroke-opacity="0.774"/>
    <line x1="263.62" y1="314.38" x2="271.81" y2="306.19" stroke-opacity="0.774"/>
    <line x1="268.95" y1="320.73" x2="278.43" y2="314.09" stroke-opacity="0.774"/>
    <line x1="273.10" y1="327.90" x2="283.59" y2="323.01" stroke-opacity="0.774"/>
    <line x1="275.93" y1="335.69" x2="287.11" y2="332.70" stroke-opacity="0.774"/>
    <line x1="277.37" y1="343.86" x2="288.90" y2="342.85" stroke-opacity="0.774"/>
    <line x1="289.13" y1="348.00" x2="303.52" y2="348.00" stroke-opacity="0.763"/>
    <line x1="288.23" y1="358.27" x2="302.40" y2="360.77" stroke-opacity="0.763"/>
    <line x1="285.56" y1="368.22" x2="299.08" y2="373.14" stroke-opacity="0.763"/>
    <line x1="281.20" y1="377.56" x2="293.67" y2="384.76" stroke-opacity="0.763"/>
    <line x1="275.29" y1="386.00" x2="286.32" y2="395.26" stroke-opacity="0.763"/>
    <line x1="268.00" y1="393.29" x2="277.26" y2="404.32" stroke-opacity="0.763"/>
    <line x1="259.56" y1="399.20" x2="266.76" y2="411.67" stroke-opacity="0.763"/>
    <line x1="250.22" y1="403.56" x2="255.14" y2="417.08" stroke-opacity="0.763"/>
    <line x1="240.27" y1="406.23" x2="242.77" y2="420.40" stroke-opacity="0.763"/>
    <line x1="230.00" y1="407.13" x2="230.00" y2="421.52" stroke-opacity="0.763"/>
    <line x1="219.73" y1="406.23" x2="217.23" y2="420.40" stroke-opacity="0.763"/>
    <line x1="209.78" y1="403.56" x2="204.86" y2="417.08" stroke-opacity="0.763"/>
    <line x1="200.44" y1="399.20" x2="193.24" y2="411.67" stroke-opacity="0.763"/>
    <line x1="192.00" y1="393.29" x2="182.74" y2="404.32" stroke-opacity="0.763"/>
    <line x1="184.71" y1="386.00" x2="173.68" y2="395.26" stroke-opacity="0.763"/>
    <line x1="178.80" y1="377.56" x2="166.33" y2="384.76" stroke-opacity="0.763"/>
    <line x1="174.44" y1="368.22" x2="160.92" y2="373.14" stroke-opacity="0.763"/>
    <line x1="171.77" y1="358.27" x2="157.60" y2="360.77" stroke-opacity="0.763"/>
    <line x1="170.87" y1="348.00" x2="156.48" y2="348.00" stroke-opacity="0.763"/>
    <line x1="171.77" y1="337.73" x2="157.60" y2="335.23" stroke-opacity="0.763"/>
    <line x1="174.44" y1="327.78" x2="160.92" y2="322.86" stroke-opacity="0.763"/>
    <line x1="178.80" y1="318.44" x2="166.33" y2="311.24" stroke-opacity="0.763"/>
    <line x1="184.71" y1="310.00" x2="173.68" y2="300.74" stroke-opacity="0.763"/>
    <line x1="192.00" y1="302.71" x2="182.74" y2="291.68" stroke-opacity="0.763"/>
    <line x1="200.44" y1="296.80" x2="193.24" y2="284.33" stroke-opacity="0.763"/>
    <line x1="209.78" y1="292.44" x2="204.86" y2="278.92" stroke-opacity="0.763"/>
    <line x1="219.73" y1="289.77" x2="217.23" y2="275.60" stroke-opacity="0.763"/>
    <line x1="230.00" y1="288.87" x2="230.00" y2="274.48" stroke-opacity="0.763"/>
    <line x1="240.27" y1="289.77" x2="242.77" y2="275.60" stroke-opacity="0.763"/>
    <line x1="250.22" y1="292.44" x2="255.14" y2="278.92" stroke-opacity="0.763"/>
    <line x1="259.56" y1="296.80" x2="266.76" y2="284.33" stroke-opacity="0.763"/>
    <line x1="268.00" y1="302.71" x2="277.26" y2="291.68" stroke-opacity="0.763"/>
    <line x1="275.29" y1="310.00" x2="286.32" y2="300.74" stroke-opacity="0.763"/>
    <line x1="281.20" y1="318.44" x2="293.67" y2="311.24" stroke-opacity="0.763"/>
    <line x1="285.56" y1="327.78" x2="299.08" y2="322.86" stroke-opacity="0.763"/>
    <line x1="288.23" y1="337.73" x2="302.40" y2="335.23" stroke-opacity="0.763"/>
    <line x1="303.24" y1="354.41" x2="321.06" y2="355.97" stroke-opacity="0.748"/>
    <line x1="301.01" y1="367.03" x2="318.29" y2="371.66" stroke-opacity="0.748"/>
    <line x1="296.63" y1="379.07" x2="312.84" y2="386.63" stroke-opacity="0.748"/>
    <line x1="290.22" y1="390.17" x2="304.88" y2="400.43" stroke-opacity="0.748"/>
    <line x1="281.98" y1="399.98" x2="294.64" y2="412.64" stroke-opacity="0.748"/>
    <line x1="272.17" y1="408.22" x2="282.43" y2="422.88" stroke-opacity="0.748"/>
    <line x1="261.07" y1="414.63" x2="268.63" y2="430.84" stroke-opacity="0.748"/>
    <line x1="249.03" y1="419.01" x2="253.66" y2="436.29" stroke-opacity="0.748"/>
    <line x1="236.41" y1="421.24" x2="237.97" y2="439.06" stroke-opacity="0.748"/>
    <line x1="223.59" y1="421.24" x2="222.03" y2="439.06" stroke-opacity="0.748"/>
    <line x1="210.97" y1="419.01" x2="206.34" y2="436.29" stroke-opacity="0.748"/>
    <line x1="198.93" y1="414.63" x2="191.37" y2="430.84" stroke-opacity="0.748"/>
    <line x1="187.83" y1="408.22" x2="177.57" y2="422.88" stroke-opacity="0.748"/>
    <line x1="178.02" y1="399.98" x2="165.36" y2="412.64" stroke-opacity="0.748"/>
    <line x1="169.78" y1="390.17" x2="155.12" y2="400.43" stroke-opacity="0.748"/>
    <line x1="163.37" y1="379.07" x2="147.16" y2="386.63" stroke-opacity="0.748"/>
    <line x1="158.99" y1="367.03" x2="141.71" y2="371.66" stroke-opacity="0.748"/>
    <line x1="156.76" y1="354.41" x2="138.94" y2="355.97" stroke-opacity="0.748"/>
    <line x1="156.76" y1="341.59" x2="138.94" y2="340.03" stroke-opacity="0.748"/>
    <line x1="158.99" y1="328.97" x2="141.71" y2="324.34" stroke-opacity="0.748"/>
    <line x1="163.37" y1="316.93" x2="147.16" y2="309.37" stroke-opacity="0.748"/>
    <line x1="169.78" y1="305.83" x2="155.12" y2="295.57" stroke-opacity="0.748"/>
    <line x1="178.02" y1="296.02" x2="165.36" y2="283.36" stroke-opacity="0.748"/>
    <line x1="187.83" y1="287.78" x2="177.57" y2="273.12" stroke-opacity="0.748"/>
    <line x1="198.93" y1="281.37" x2="191.37" y2="265.16" stroke-opacity="0.748"/>
    <line x1="210.97" y1="276.99" x2="206.34" y2="259.71" stroke-opacity="0.748"/>
    <line x1="223.59" y1="274.76" x2="222.03" y2="256.94" stroke-opacity="0.748"/>
    <line x1="236.41" y1="274.76" x2="237.97" y2="256.94" stroke-opacity="0.748"/>
    <line x1="249.03" y1="276.99" x2="253.66" y2="259.71" stroke-opacity="0.748"/>
    <line x1="261.07" y1="281.37" x2="268.63" y2="265.16" stroke-opacity="0.748"/>
    <line x1="272.17" y1="287.78" x2="282.43" y2="273.12" stroke-opacity="0.748"/>
    <line x1="281.98" y1="296.02" x2="294.64" y2="283.36" stroke-opacity="0.748"/>
    <line x1="290.22" y1="305.83" x2="304.88" y2="295.57" stroke-opacity="0.748"/>
    <line x1="296.63" y1="316.93" x2="312.84" y2="309.37" stroke-opacity="0.748"/>
    <line x1="301.01" y1="328.97" x2="318.29" y2="324.34" stroke-opacity="0.748"/>
    <line x1="303.24" y1="341.59" x2="321.06" y2="340.03" stroke-opacity="0.748"/>
    <line x1="321.41" y1="348.00" x2="343.66" y2="348.00" stroke-opacity="0.729"/>
    <line x1="320.02" y1="363.87" x2="341.93" y2="367.74" stroke-opacity="0.729"/>
    <line x1="315.90" y1="379.26" x2="336.80" y2="386.87" stroke-opacity="0.729"/>
    <line x1="309.16" y1="393.70" x2="328.43" y2="404.83" stroke-opacity="0.729"/>
    <line x1="300.02" y1="406.76" x2="317.07" y2="421.06" stroke-opacity="0.729"/>
    <line x1="288.76" y1="418.02" x2="303.06" y2="435.07" stroke-opacity="0.729"/>
    <line x1="275.70" y1="427.16" x2="286.83" y2="446.43" stroke-opacity="0.729"/>
    <line x1="261.26" y1="433.90" x2="268.87" y2="454.80" stroke-opacity="0.729"/>
    <line x1="245.87" y1="438.02" x2="249.74" y2="459.93" stroke-opacity="0.729"/>
    <line x1="230.00" y1="439.41" x2="230.00" y2="461.66" stroke-opacity="0.729"/>
    <line x1="214.13" y1="438.02" x2="210.26" y2="459.93" stroke-opacity="0.729"/>
    <line x1="198.74" y1="433.90" x2="191.13" y2="454.80" stroke-opacity="0.729"/>
    <line x1="184.30" y1="427.16" x2="173.17" y2="446.43" stroke-opacity="0.729"/>
    <line x1="171.24" y1="418.02" x2="156.94" y2="435.07" stroke-opacity="0.729"/>
    <line x1="159.98" y1="406.76" x2="142.93" y2="421.06" stroke-opacity="0.729"/>
    <line x1="150.84" y1="393.70" x2="131.57" y2="404.83" stroke-opacity="0.729"/>
    <line x1="144.10" y1="379.26" x2="123.20" y2="386.87" stroke-opacity="0.729"/>
    <line x1="139.98" y1="363.87" x2="118.07" y2="367.74" stroke-opacity="0.729"/>
    <line x1="138.59" y1="348.00" x2="116.34" y2="348.00" stroke-opacity="0.729"/>
    <line x1="139.98" y1="332.13" x2="118.07" y2="328.26" stroke-opacity="0.729"/>
    <line x1="144.10" y1="316.74" x2="123.20" y2="309.13" stroke-opacity="0.729"/>
    <line x1="150.84" y1="302.30" x2="131.57" y2="291.17" stroke-opacity="0.729"/>
    <line x1="159.98" y1="289.24" x2="142.93" y2="274.94" stroke-opacity="0.729"/>
    <line x1="171.24" y1="277.98" x2="156.94" y2="260.93" stroke-opacity="0.729"/>
    <line x1="184.30" y1="268.84" x2="173.17" y2="249.57" stroke-opacity="0.729"/>
    <line x1="198.74" y1="262.10" x2="191.13" y2="241.20" stroke-opacity="0.729"/>
    <line x1="214.13" y1="257.98" x2="210.26" y2="236.07" stroke-opacity="0.729"/>
    <line x1="230.00" y1="256.59" x2="230.00" y2="234.34" stroke-opacity="0.729"/>
    <line x1="245.87" y1="257.98" x2="249.74" y2="236.07" stroke-opacity="0.729"/>
    <line x1="261.26" y1="262.10" x2="268.87" y2="241.20" stroke-opacity="0.729"/>
    <line x1="275.70" y1="268.84" x2="286.83" y2="249.57" stroke-opacity="0.729"/>
    <line x1="288.76" y1="277.98" x2="303.06" y2="260.93" stroke-opacity="0.729"/>
    <line x1="300.02" y1="289.24" x2="317.07" y2="274.94" stroke-opacity="0.729"/>
    <line x1="309.16" y1="302.30" x2="328.43" y2="291.17" stroke-opacity="0.729"/>
    <line x1="315.90" y1="316.74" x2="336.80" y2="309.13" stroke-opacity="0.729"/>
    <line x1="320.02" y1="332.13" x2="341.93" y2="328.26" stroke-opacity="0.729"/>
    <line x1="343.22" y1="357.91" x2="370.78" y2="360.32" stroke-opacity="0.704"/>
    <line x1="339.78" y1="377.42" x2="366.51" y2="384.58" stroke-opacity="0.704"/>
    <line x1="333.01" y1="396.03" x2="358.08" y2="407.72" stroke-opacity="0.704"/>
    <line x1="323.10" y1="413.19" x2="345.76" y2="429.06" stroke-opacity="0.704"/>
    <line x1="310.37" y1="428.37" x2="329.93" y2="447.93" stroke-opacity="0.704"/>
    <line x1="295.19" y1="441.10" x2="311.06" y2="463.76" stroke-opacity="0.704"/>
    <line x1="278.03" y1="451.01" x2="289.72" y2="476.08" stroke-opacity="0.704"/>
    <line x1="259.42" y1="457.78" x2="266.58" y2="484.51" stroke-opacity="0.704"/>
    <line x1="239.91" y1="461.22" x2="242.32" y2="488.78" stroke-opacity="0.704"/>
    <line x1="220.09" y1="461.22" x2="217.68" y2="488.78" stroke-opacity="0.704"/>
    <line x1="200.58" y1="457.78" x2="193.42" y2="484.51" stroke-opacity="0.704"/>
    <line x1="181.97" y1="451.01" x2="170.28" y2="476.08" stroke-opacity="0.704"/>
    <line x1="164.81" y1="441.10" x2="148.94" y2="463.76" stroke-opacity="0.704"/>
    <line x1="149.63" y1="428.37" x2="130.07" y2="447.93" stroke-opacity="0.704"/>
    <line x1="136.90" y1="413.19" x2="114.24" y2="429.06" stroke-opacity="0.704"/>
    <line x1="126.99" y1="396.03" x2="101.92" y2="407.72" stroke-opacity="0.704"/>
    <line x1="120.22" y1="377.42" x2="93.49" y2="384.58" stroke-opacity="0.704"/>
    <line x1="116.78" y1="357.91" x2="89.22" y2="360.32" stroke-opacity="0.704"/>
    <line x1="116.78" y1="338.09" x2="89.22" y2="335.68" stroke-opacity="0.704"/>
    <line x1="120.22" y1="318.58" x2="93.49" y2="311.42" stroke-opacity="0.704"/>
    <line x1="126.99" y1="299.97" x2="101.92" y2="288.28" stroke-opacity="0.704"/>
    <line x1="136.90" y1="282.81" x2="114.24" y2="266.94" stroke-opacity="0.704"/>
    <line x1="149.63" y1="267.63" x2="130.07" y2="248.07" stroke-opacity="0.704"/>
    <line x1="164.81" y1="254.90" x2="148.94" y2="232.24" stroke-opacity="0.704"/>
    <line x1="181.97" y1="244.99" x2="170.28" y2="219.92" stroke-opacity="0.704"/>
    <line x1="200.58" y1="238.22" x2="193.42" y2="211.49" stroke-opacity="0.704"/>
    <line x1="220.09" y1="234.78" x2="217.68" y2="207.22" stroke-opacity="0.704"/>
    <line x1="239.91" y1="234.78" x2="242.32" y2="207.22" stroke-opacity="0.704"/>
    <line x1="259.42" y1="238.22" x2="266.58" y2="211.49" stroke-opacity="0.704"/>
    <line x1="278.03" y1="244.99" x2="289.72" y2="219.92" stroke-opacity="0.704"/>
    <line x1="295.19" y1="254.90" x2="311.06" y2="232.24" stroke-opacity="0.704"/>
    <line x1="310.37" y1="267.63" x2="329.93" y2="248.07" stroke-opacity="0.704"/>
    <line x1="323.10" y1="282.81" x2="345.76" y2="266.94" stroke-opacity="0.704"/>
    <line x1="333.01" y1="299.97" x2="358.08" y2="288.28" stroke-opacity="0.704"/>
    <line x1="339.78" y1="318.58" x2="366.51" y2="311.42" stroke-opacity="0.704"/>
    <line x1="343.22" y1="338.09" x2="370.78" y2="335.68" stroke-opacity="0.704"/>
    <line x1="371.32" y1="348.00" x2="405.72" y2="348.00" stroke-opacity="0.671"/>
    <line x1="369.17" y1="372.54" x2="403.05" y2="378.51" stroke-opacity="0.671"/>
    <line x1="362.80" y1="396.33" x2="395.12" y2="408.10" stroke-opacity="0.671"/>
    <line x1="352.39" y1="418.66" x2="382.18" y2="435.86" stroke-opacity="0.671"/>
    <line x1="338.26" y1="438.84" x2="364.61" y2="460.95" stroke-opacity="0.671"/>
    <line x1="320.84" y1="456.26" x2="342.95" y2="482.61" stroke-opacity="0.671"/>
    <line x1="300.66" y1="470.39" x2="317.86" y2="500.18" stroke-opacity="0.671"/>
    <line x1="278.33" y1="480.80" x2="290.10" y2="513.12" stroke-opacity="0.671"/>
    <line x1="254.54" y1="487.17" x2="260.51" y2="521.05" stroke-opacity="0.671"/>
    <line x1="230.00" y1="489.32" x2="230.00" y2="523.72" stroke-opacity="0.671"/>
    <line x1="205.46" y1="487.17" x2="199.49" y2="521.05" stroke-opacity="0.671"/>
    <line x1="181.67" y1="480.80" x2="169.90" y2="513.12" stroke-opacity="0.671"/>
    <line x1="159.34" y1="470.39" x2="142.14" y2="500.18" stroke-opacity="0.671"/>
    <line x1="139.16" y1="456.26" x2="117.05" y2="482.61" stroke-opacity="0.671"/>
    <line x1="121.74" y1="438.84" x2="95.39" y2="460.95" stroke-opacity="0.671"/>
    <line x1="107.61" y1="418.66" x2="77.82" y2="435.86" stroke-opacity="0.671"/>
    <line x1="97.20" y1="396.33" x2="64.88" y2="408.10" stroke-opacity="0.671"/>
    <line x1="90.83" y1="372.54" x2="56.95" y2="378.51" stroke-opacity="0.671"/>
    <line x1="88.68" y1="348.00" x2="54.28" y2="348.00" stroke-opacity="0.671"/>
    <line x1="90.83" y1="323.46" x2="56.95" y2="317.49" stroke-opacity="0.671"/>
    <line x1="97.20" y1="299.67" x2="64.88" y2="287.90" stroke-opacity="0.671"/>
    <line x1="107.61" y1="277.34" x2="77.82" y2="260.14" stroke-opacity="0.671"/>
    <line x1="121.74" y1="257.16" x2="95.39" y2="235.05" stroke-opacity="0.671"/>
    <line x1="139.16" y1="239.74" x2="117.05" y2="213.39" stroke-opacity="0.671"/>
    <line x1="159.34" y1="225.61" x2="142.14" y2="195.82" stroke-opacity="0.671"/>
    <line x1="181.67" y1="215.20" x2="169.90" y2="182.88" stroke-opacity="0.671"/>
    <line x1="205.46" y1="208.83" x2="199.49" y2="174.95" stroke-opacity="0.671"/>
    <line x1="230.00" y1="206.68" x2="230.00" y2="172.28" stroke-opacity="0.671"/>
    <line x1="254.54" y1="208.83" x2="260.51" y2="174.95" stroke-opacity="0.671"/>
    <line x1="278.33" y1="215.20" x2="290.10" y2="182.88" stroke-opacity="0.671"/>
    <line x1="300.66" y1="225.61" x2="317.86" y2="195.82" stroke-opacity="0.671"/>
    <line x1="320.84" y1="239.74" x2="342.95" y2="213.39" stroke-opacity="0.671"/>
    <line x1="338.26" y1="257.16" x2="364.61" y2="235.05" stroke-opacity="0.671"/>
    <line x1="352.39" y1="277.34" x2="382.18" y2="260.14" stroke-opacity="0.671"/>
    <line x1="362.80" y1="299.67" x2="395.12" y2="287.90" stroke-opacity="0.671"/>
    <line x1="369.17" y1="323.46" x2="403.05" y2="317.49" stroke-opacity="0.671"/>
    <line x1="405.05" y1="363.31" x2="447.65" y2="367.04" stroke-opacity="0.628"/>
    <line x1="399.73" y1="393.48" x2="441.04" y2="404.55" stroke-opacity="0.628"/>
    <line x1="389.25" y1="422.26" x2="428.02" y2="440.34" stroke-opacity="0.628"/>
    <line x1="373.94" y1="448.79" x2="408.97" y2="473.32" stroke-opacity="0.628"/>
    <line x1="354.25" y1="472.25" x2="384.49" y2="502.49" stroke-opacity="0.628"/>
    <line x1="330.79" y1="491.94" x2="355.32" y2="526.97" stroke-opacity="0.628"/>
    <line x1="304.26" y1="507.25" x2="322.34" y2="546.02" stroke-opacity="0.628"/>
    <line x1="275.48" y1="517.73" x2="286.55" y2="559.04" stroke-opacity="0.628"/>
    <line x1="245.31" y1="523.05" x2="249.04" y2="565.65" stroke-opacity="0.628"/>
    <line x1="214.69" y1="523.05" x2="210.96" y2="565.65" stroke-opacity="0.628"/>
    <line x1="184.52" y1="517.73" x2="173.45" y2="559.04" stroke-opacity="0.628"/>
    <line x1="155.74" y1="507.25" x2="137.66" y2="546.02" stroke-opacity="0.628"/>
    <line x1="129.21" y1="491.94" x2="104.68" y2="526.97" stroke-opacity="0.628"/>
    <line x1="105.75" y1="472.25" x2="75.51" y2="502.49" stroke-opacity="0.628"/>
    <line x1="86.06" y1="448.79" x2="51.03" y2="473.32" stroke-opacity="0.628"/>
    <line x1="70.75" y1="422.26" x2="31.98" y2="440.34" stroke-opacity="0.628"/>
    <line x1="60.27" y1="393.48" x2="18.96" y2="404.55" stroke-opacity="0.628"/>
    <line x1="54.95" y1="363.31" x2="12.35" y2="367.04" stroke-opacity="0.628"/>
    <line x1="54.95" y1="332.69" x2="12.35" y2="328.96" stroke-opacity="0.628"/>
    <line x1="60.27" y1="302.52" x2="18.96" y2="291.45" stroke-opacity="0.628"/>
    <line x1="70.75" y1="273.74" x2="31.98" y2="255.66" stroke-opacity="0.628"/>
    <line x1="86.06" y1="247.21" x2="51.03" y2="222.68" stroke-opacity="0.628"/>
    <line x1="105.75" y1="223.75" x2="75.51" y2="193.51" stroke-opacity="0.628"/>
    <line x1="129.21" y1="204.06" x2="104.68" y2="169.03" stroke-opacity="0.628"/>
    <line x1="155.74" y1="188.75" x2="137.66" y2="149.98" stroke-opacity="0.628"/>
    <line x1="184.52" y1="178.27" x2="173.45" y2="136.96" stroke-opacity="0.628"/>
    <line x1="214.69" y1="172.95" x2="210.96" y2="130.35" stroke-opacity="0.628"/>
    <line x1="245.31" y1="172.95" x2="249.04" y2="130.35" stroke-opacity="0.628"/>
    <line x1="275.48" y1="178.27" x2="286.55" y2="136.96" stroke-opacity="0.628"/>
    <line x1="304.26" y1="188.75" x2="322.34" y2="149.98" stroke-opacity="0.628"/>
    <line x1="330.79" y1="204.06" x2="355.32" y2="169.03" stroke-opacity="0.628"/>
    <line x1="354.25" y1="223.75" x2="384.49" y2="193.51" stroke-opacity="0.628"/>
    <line x1="373.94" y1="247.21" x2="408.97" y2="222.68" stroke-opacity="0.628"/>
    <line x1="389.25" y1="273.74" x2="428.02" y2="255.66" stroke-opacity="0.628"/>
    <line x1="399.73" y1="302.52" x2="441.04" y2="291.45" stroke-opacity="0.628"/>
    <line x1="405.05" y1="332.69" x2="447.65" y2="328.96" stroke-opacity="0.628"/>
    <line x1="448.49" y1="348.00" x2="501.66" y2="348.00" stroke-opacity="0.572"/>
    <line x1="445.17" y1="385.94" x2="497.54" y2="395.17" stroke-opacity="0.572"/>
    <line x1="435.31" y1="422.73" x2="485.28" y2="440.91" stroke-opacity="0.572"/>
    <line x1="419.21" y1="457.24" x2="465.27" y2="483.83" stroke-opacity="0.572"/>
    <line x1="397.37" y1="488.44" x2="438.11" y2="522.62" stroke-opacity="0.572"/>
    <line x1="370.44" y1="515.37" x2="404.62" y2="556.11" stroke-opacity="0.572"/>
    <line x1="339.24" y1="537.21" x2="365.83" y2="583.27" stroke-opacity="0.572"/>
    <line x1="304.73" y1="553.31" x2="322.91" y2="603.28" stroke-opacity="0.572"/>
    <line x1="267.94" y1="563.17" x2="277.17" y2="615.54" stroke-opacity="0.572"/>
    <line x1="230.00" y1="566.49" x2="230.00" y2="619.66" stroke-opacity="0.572"/>
    <line x1="192.06" y1="563.17" x2="182.83" y2="615.54" stroke-opacity="0.572"/>
    <line x1="155.27" y1="553.31" x2="137.09" y2="603.28" stroke-opacity="0.572"/>
    <line x1="120.76" y1="537.21" x2="94.17" y2="583.27" stroke-opacity="0.572"/>
    <line x1="89.56" y1="515.37" x2="55.38" y2="556.11" stroke-opacity="0.572"/>
    <line x1="62.63" y1="488.44" x2="21.89" y2="522.62" stroke-opacity="0.572"/>
    <line x1="40.79" y1="457.24" x2="-5.27" y2="483.83" stroke-opacity="0.572"/>
    <line x1="24.69" y1="422.73" x2="-25.28" y2="440.91" stroke-opacity="0.572"/>
    <line x1="14.83" y1="385.94" x2="-37.54" y2="395.17" stroke-opacity="0.572"/>
    <line x1="11.51" y1="348.00" x2="-41.66" y2="348.00" stroke-opacity="0.572"/>
    <line x1="14.83" y1="310.06" x2="-37.54" y2="300.83" stroke-opacity="0.572"/>
    <line x1="24.69" y1="273.27" x2="-25.28" y2="255.09" stroke-opacity="0.572"/>
    <line x1="40.79" y1="238.76" x2="-5.27" y2="212.17" stroke-opacity="0.572"/>
    <line x1="62.63" y1="207.56" x2="21.89" y2="173.38" stroke-opacity="0.572"/>
    <line x1="89.56" y1="180.63" x2="55.38" y2="139.89" stroke-opacity="0.572"/>
    <line x1="120.76" y1="158.79" x2="94.17" y2="112.73" stroke-opacity="0.572"/>
    <line x1="155.27" y1="142.69" x2="137.09" y2="92.72" stroke-opacity="0.572"/>
    <line x1="192.06" y1="132.83" x2="182.83" y2="80.46" stroke-opacity="0.572"/>
    <line x1="230.00" y1="129.51" x2="230.00" y2="76.34" stroke-opacity="0.572"/>
    <line x1="267.94" y1="132.83" x2="277.17" y2="80.46" stroke-opacity="0.572"/>
    <line x1="304.73" y1="142.69" x2="322.91" y2="92.72" stroke-opacity="0.572"/>
    <line x1="339.24" y1="158.79" x2="365.83" y2="112.73" stroke-opacity="0.572"/>
    <line x1="370.44" y1="180.63" x2="404.62" y2="139.89" stroke-opacity="0.572"/>
    <line x1="397.37" y1="207.56" x2="438.11" y2="173.38" stroke-opacity="0.572"/>
    <line x1="419.21" y1="238.76" x2="465.27" y2="212.17" stroke-opacity="0.572"/>
    <line x1="435.31" y1="273.27" x2="485.28" y2="255.09" stroke-opacity="0.572"/>
    <line x1="445.17" y1="310.06" x2="497.54" y2="300.83" stroke-opacity="0.572"/>
    <line x1="500.63" y1="371.68" x2="566.50" y2="377.44" stroke-opacity="0.499"/>
    <line x1="492.41" y1="418.31" x2="556.28" y2="435.43" stroke-opacity="0.499"/>
    <line x1="476.21" y1="462.81" x2="536.14" y2="490.75" stroke-opacity="0.499"/>
    <line x1="452.53" y1="503.82" x2="506.70" y2="541.75" stroke-opacity="0.499"/>
    <line x1="422.10" y1="540.10" x2="468.85" y2="586.85" stroke-opacity="0.499"/>
    <line x1="385.82" y1="570.53" x2="423.75" y2="624.70" stroke-opacity="0.499"/>
    <line x1="344.81" y1="594.21" x2="372.75" y2="654.14" stroke-opacity="0.499"/>
    <line x1="300.31" y1="610.41" x2="317.43" y2="674.28" stroke-opacity="0.499"/>
    <line x1="253.68" y1="618.63" x2="259.44" y2="684.50" stroke-opacity="0.499"/>
    <line x1="206.32" y1="618.63" x2="200.56" y2="684.50" stroke-opacity="0.499"/>
    <line x1="159.69" y1="610.41" x2="142.57" y2="674.28" stroke-opacity="0.499"/>
    <line x1="115.19" y1="594.21" x2="87.25" y2="654.14" stroke-opacity="0.499"/>
    <line x1="74.18" y1="570.53" x2="36.25" y2="624.70" stroke-opacity="0.499"/>
    <line x1="37.90" y1="540.10" x2="-8.85" y2="586.85" stroke-opacity="0.499"/>
    <line x1="7.47" y1="503.82" x2="-46.70" y2="541.75" stroke-opacity="0.499"/>
    <line x1="-16.21" y1="462.81" x2="-76.14" y2="490.75" stroke-opacity="0.499"/>
    <line x1="-32.41" y1="418.31" x2="-96.28" y2="435.43" stroke-opacity="0.499"/>
    <line x1="-40.63" y1="371.68" x2="-106.50" y2="377.44" stroke-opacity="0.499"/>
    <line x1="-40.63" y1="324.32" x2="-106.50" y2="318.56" stroke-opacity="0.499"/>
    <line x1="-32.41" y1="277.69" x2="-96.28" y2="260.57" stroke-opacity="0.499"/>
    <line x1="-16.21" y1="233.19" x2="-76.14" y2="205.25" stroke-opacity="0.499"/>
    <line x1="7.47" y1="192.18" x2="-46.70" y2="154.25" stroke-opacity="0.499"/>
    <line x1="37.90" y1="155.90" x2="-8.85" y2="109.15" stroke-opacity="0.499"/>
    <line x1="74.18" y1="125.47" x2="36.25" y2="71.30" stroke-opacity="0.499"/>
    <line x1="115.19" y1="101.79" x2="87.25" y2="41.86" stroke-opacity="0.499"/>
    <line x1="159.69" y1="85.59" x2="142.57" y2="21.72" stroke-opacity="0.499"/>
    <line x1="206.32" y1="77.37" x2="200.56" y2="11.50" stroke-opacity="0.499"/>
    <line x1="253.68" y1="77.37" x2="259.44" y2="11.50" stroke-opacity="0.499"/>
    <line x1="300.31" y1="85.59" x2="317.43" y2="21.72" stroke-opacity="0.499"/>
    <line x1="344.81" y1="101.79" x2="372.75" y2="41.86" stroke-opacity="0.499"/>
    <line x1="385.82" y1="125.47" x2="423.75" y2="71.30" stroke-opacity="0.499"/>
    <line x1="422.10" y1="155.90" x2="468.85" y2="109.15" stroke-opacity="0.499"/>
    <line x1="452.53" y1="192.18" x2="506.70" y2="154.25" stroke-opacity="0.499"/>
    <line x1="476.21" y1="233.19" x2="536.14" y2="205.25" stroke-opacity="0.499"/>
    <line x1="492.41" y1="277.69" x2="556.28" y2="260.57" stroke-opacity="0.499"/>
    <line x1="500.63" y1="324.32" x2="566.50" y2="318.56" stroke-opacity="0.499"/>
    <line x1="567.79" y1="348.00" x2="650.00" y2="348.00" stroke-opacity="0.404"/>
    <line x1="562.65" y1="406.66" x2="643.62" y2="420.93" stroke-opacity="0.404"/>
    <line x1="547.41" y1="463.53" x2="624.67" y2="491.65" stroke-opacity="0.404"/>
    <line x1="522.53" y1="516.89" x2="593.73" y2="558.00" stroke-opacity="0.404"/>
    <line x1="488.76" y1="565.12" x2="551.74" y2="617.97" stroke-opacity="0.404"/>
    <line x1="447.12" y1="606.76" x2="499.97" y2="669.74" stroke-opacity="0.404"/>
    <line x1="398.89" y1="640.53" x2="440.00" y2="711.73" stroke-opacity="0.404"/>
    <line x1="345.53" y1="665.41" x2="373.65" y2="742.67" stroke-opacity="0.404"/>
    <line x1="288.66" y1="680.65" x2="302.93" y2="761.62" stroke-opacity="0.404"/>
    <line x1="230.00" y1="685.79" x2="230.00" y2="768.00" stroke-opacity="0.404"/>
    <line x1="171.34" y1="680.65" x2="157.07" y2="761.62" stroke-opacity="0.404"/>
    <line x1="114.47" y1="665.41" x2="86.35" y2="742.67" stroke-opacity="0.404"/>
    <line x1="61.11" y1="640.53" x2="20.00" y2="711.73" stroke-opacity="0.404"/>
    <line x1="12.88" y1="606.76" x2="-39.97" y2="669.74" stroke-opacity="0.404"/>
    <line x1="-28.76" y1="565.12" x2="-91.74" y2="617.97" stroke-opacity="0.404"/>
    <line x1="-62.53" y1="516.89" x2="-133.73" y2="558.00" stroke-opacity="0.404"/>
    <line x1="-87.41" y1="463.53" x2="-164.67" y2="491.65" stroke-opacity="0.404"/>
    <line x1="-102.65" y1="406.66" x2="-183.62" y2="420.93" stroke-opacity="0.404"/>
    <line x1="-107.79" y1="348.00" x2="-190.00" y2="348.00" stroke-opacity="0.404"/>
    <line x1="-102.65" y1="289.34" x2="-183.62" y2="275.07" stroke-opacity="0.404"/>
    <line x1="-87.41" y1="232.47" x2="-164.67" y2="204.35" stroke-opacity="0.404"/>
    <line x1="-62.53" y1="179.11" x2="-133.73" y2="138.00" stroke-opacity="0.404"/>
    <line x1="-28.76" y1="130.88" x2="-91.74" y2="78.03" stroke-opacity="0.404"/>
    <line x1="12.88" y1="89.24" x2="-39.97" y2="26.26" stroke-opacity="0.404"/>
    <line x1="61.11" y1="55.47" x2="20.00" y2="-15.73" stroke-opacity="0.404"/>
    <line x1="114.47" y1="30.59" x2="86.35" y2="-46.67" stroke-opacity="0.404"/>
    <line x1="171.34" y1="15.35" x2="157.07" y2="-65.62" stroke-opacity="0.404"/>
    <line x1="230.00" y1="10.21" x2="230.00" y2="-72.00" stroke-opacity="0.404"/>
    <line x1="288.66" y1="15.35" x2="302.93" y2="-65.62" stroke-opacity="0.404"/>
    <line x1="345.53" y1="30.59" x2="373.65" y2="-46.67" stroke-opacity="0.404"/>
    <line x1="398.89" y1="55.47" x2="440.00" y2="-15.73" stroke-opacity="0.404"/>
    <line x1="447.12" y1="89.24" x2="499.97" y2="26.26" stroke-opacity="0.404"/>
    <line x1="488.76" y1="130.88" x2="551.74" y2="78.03" stroke-opacity="0.404"/>
    <line x1="522.53" y1="179.11" x2="593.73" y2="138.00" stroke-opacity="0.404"/>
    <line x1="547.41" y1="232.47" x2="624.67" y2="204.35" stroke-opacity="0.404"/>
    <line x1="562.65" y1="289.34" x2="643.62" y2="275.07" stroke-opacity="0.404"/>
  </g>
</svg>