<svg xmlns="http://www.w3.org/2000/svg" viewBox="0 0 520 660" width="520" height="660">
  <rect width="100%" height="100%" fill="#0A0A0E"/>
  <g stroke="#C07FA0" fill="none" stroke-width="1">
    <circle cx="260.00" cy="382.80" r="18.00" stroke-opacity="0.550"/>
    <circle cx="260.00" cy="382.80" r="22.94" stroke-opacity="0.549"/>
    <circle cx="260.00" cy="382.80" r="29.22" stroke-opacity="0.546"/>
    <circle cx="260.00" cy="382.80" r="37.24" stroke-opacity="0.542"/>
    <circle cx="260.00" cy="382.80" r="47.44" stroke-opacity="0.536"/>
    <circle cx="260.00" cy="382.80" r="60.45" stroke-opacity="0.526"/>
    <circle cx="260.00" cy="382.80" r="77.03" stroke-opacity="0.513"/>
    <circle cx="260.00" cy="382.80" r="98.15" stroke-opacity="0.492"/>
    <circle cx="260.00" cy="382.80" r="125.06" stroke-opacity="0.464"/>
    <circle cx="260.00" cy="382.80" r="159.34" stroke-opacity="0.423"/>
    <circle cx="260.00" cy="382.80" r="203.03" stroke-opacity="0.364"/>
    <circle cx="260.00" cy="382.80" r="258.70" stroke-opacity="0.282"/>
    <circle cx="260.00" cy="382.80" r="329.63" stroke-opacity="0.165"/>
    <circle cx="260.00" cy="382.80" r="420.00" stroke-opacity="0.000"/>
  </g>
  <defs>
    <radialGradient id="spokeFade_lp" cx="50%" cy="50%" r="50%">
      <stop offset="0%" stop-color="#C07FA0" stop-opacity="0.550"/>
      <stop offset="55%" stop-color="#C07FA0" stop-opacity="0.303"/>
      <stop offset="100%" stop-color="#C07FA0" stop-opacity="0.000"/>
    </radialGradient>
  </defs>
  <g stroke="url(#spokeFade_lp)" stroke-width="1" fill="none">
    <line x1="278.00" y1="382.80" x2="680.00" y2="382.80"/>
    <line x1="277.85" y1="385.15" x2="676.41" y2="437.62"/>
    <line x1="277.39" y1="387.46" x2="665.69" y2="491.50"/>
    <line x1="276.63" y1="389.69" x2="648.03" y2="543.53"/>
    <line x1="275.59" y1="391.80" x2="623.73" y2="592.80"/>
    <line x1="274.28" y1="393.76" x2="593.21" y2="638.48"/>
    <line x1="272.73" y1="395.53" x2="556.98" y2="679.78"/>
    <line x1="270.96" y1="397.08" x2="515.68" y2="716.01"/>
    <line x1="269.00" y1="398.39" x2="470.00" y2="746.53"/>
    <line x1="266.89" y1="399.43" x2="420.73" y2="770.83"/>
    <line x1="264.66" y1="400.19" x2="368.70" y2="788.49"/>
    <line x1="262.35" y1="400.65" x2="314.82" y2="799.21"/>
    <line x1="260.00" y1="400.80" x2="260.00" y2="802.80"/>
    <line x1="257.65" y1="400.65" x2="205.18" y2="799.21"/>
    <line x1="255.34" y1="400.19" x2="151.30" y2="788.49"/>
    <line x1="253.11" y1="399.43" x2="99.27" y2="770.83"/>
    <line x1="251.00" y1="398.39" x2="50.00" y2="746.53"/>
    <line x1="249.04" y1="397.08" x2="4.32" y2="716.01"/>
    <line x1="247.27" y1="395.53" x2="-36.98" y2="679.78"/>
    <line x1="245.72" y1="393.76" x2="-73.21" y2="638.48"/>
    <line x1="244.41" y1="391.80" x2="-103.73" y2="592.80"/>
    <line x1="243.37" y1="389.69" x2="-128.03" y2="543.53"/>
    <line x1="242.61" y1="387.46" x2="-145.69" y2="491.50"/>
    <line x1="242.15" y1="385.15" x2="-156.41" y2="437.62"/>
    <line x1="242.00" y1="382.80" x2="-160.00" y2="382.80"/>
    <line x1="242.15" y1="380.45" x2="-156.41" y2="327.98"/>
    <line x1="242.61" y1="378.14" x2="-145.69" y2="274.10"/>
    <line x1="243.37" y1="375.91" x2="-128.03" y2="222.07"/>
    <line x1="244.41" y1="373.80" x2="-103.73" y2="172.80"/>
    <line x1="245.72" y1="371.84" x2="-73.21" y2="127.12"/>
    <line x1="247.27" y1="370.07" x2="-36.98" y2="85.82"/>
    <line x1="249.04" y1="368.52" x2="4.32" y2="49.59"/>
    <line x1="251.00" y1="367.21" x2="50.00" y2="19.07"/>
    <line x1="253.11" y1="366.17" x2="99.27" y2="-5.23"/>
    <line x1="255.34" y1="365.41" x2="151.30" y2="-22.89"/>
    <line x1="257.65" y1="364.95" x2="205.18" y2="-33.61"/>
    <line x1="260.00" y1="364.80" x2="260.00" y2="-37.20"/>
    <line x1="262.35" y1="364.95" x2="314.82" y2="-33.61"/>
    <line x1="264.66" y1="365.41" x2="368.70" y2="-22.89"/>
    <line x1="266.89" y1="366.17" x2="420.73" y2="-5.23"/>
    <line x1="269.00" y1="367.21" x2="470.00" y2="19.07"/>
    <line x1="270.96" y1="368.52" x2="515.68" y2="49.59"/>
    <line x1="272.73" y1="370.07" x2="556.98" y2="85.82"/>
    <line x1="274.28" y1="371.84" x2="593.21" y2="127.12"/>
    <line x1="275.59" y1="373.80" x2="623.73" y2="172.80"/>
    <line x1="276.63" y1="375.91" x2="648.03" y2="222.07"/>
    <line x1="277.39" y1="378.14" x2="665.69" y2="274.10"/>
    <line x1="277.85" y1="380.45" x2="676.41" y2="327.98"/>
  </g>
  <text x="260.0" y="277.2" font-family="Didot, 'Bodoni 72', 'Bodoni MT', Georgia, serif" font-weight="700" font-size="560" fill="#C07FA0" text-anchor="middle" dominant-baseline="central">H</text>
</svg>