<svg xmlns="http://www.w3.org/2000/svg" viewBox="0 0 427 660" width="427" height="660">
  <rect width="100%" height="100%" fill="#0A0A0E"/>
  <g stroke="#C07FA0" fill="none" stroke-width="1">
    <circle cx="213.50" cy="382.80" r="16.00" stroke-opacity="0.800"/>
    <circle cx="213.50" cy="382.80" r="19.63" stroke-opacity="0.798"/>
    <circle cx="213.50" cy="382.80" r="24.10" stroke-opacity="0.795"/>
    <circle cx="213.50" cy="382.80" r="29.57" stroke-opacity="0.790"/>
    <circle cx="213.50" cy="382.80" r="36.29" stroke-opacity="0.784"/>
    <circle cx="213.50" cy="382.80" r="44.53" stroke-opacity="0.776"/>
    <circle cx="213.50" cy="382.80" r="54.64" stroke-opacity="0.766"/>
    <circle cx="213.50" cy="382.80" r="67.06" stroke-opacity="0.752"/>
    <circle cx="213.50" cy="382.80" r="82.29" stroke-opacity="0.734"/>
    <circle cx="213.50" cy="382.80" r="100.98" stroke-opacity="0.711"/>
    <circle cx="213.50" cy="382.80" r="123.92" stroke-opacity="0.682"/>
    <circle cx="213.50" cy="382.80" r="152.08" stroke-opacity="0.644"/>
    <circle cx="213.50" cy="382.80" r="186.62" stroke-opacity="0.595"/>
    <circle cx="213.50" cy="382.80" r="229.02" stroke-opacity="0.533"/>
    <circle cx="213.50" cy="382.80" r="281.04" stroke-opacity="0.453"/>
    <circle cx="213.50" cy="382.80" r="344.88" stroke-opacity="0.350"/>
  </g>
  <g stroke="#C07FA0" fill="none" stroke-width="1">
    <line x1="229.50" y1="382.80" x2="233.13" y2="382.80" stroke-opacity="0.799"/>
    <line x1="229.26" y1="385.58" x2="232.84" y2="386.21" stroke-opacity="0.799"/>
    <line x1="228.54" y1="388.27" x2="231.95" y2="389.52" stroke-opacity="0.799"/>
    <line x1="227.36" y1="390.80" x2="230.50" y2="392.62" stroke-opacity="0.799"/>
    <line x1="225.76" y1="393.08" x2="228.54" y2="395.42" stroke-opacity="0.799"/>
    <line x1="223.78" y1="395.06" x2="226.12" y2="397.84" stroke-opacity="0.799"/>
    <line x1="221.50" y1="396.66" x2="223.32" y2="399.80" stroke-opacity="0.799"/>
    <line x1="218.97" y1="397.84" x2="220.22" y2="401.25" stroke-opacity="0.799"/>
    <line x1="216.28" y1="398.56" x2="216.91" y2="402.14" stroke-opacity="0.799"/>
    <line x1="213.50" y1="398.80" x2="213.50" y2="402.43" stroke-opacity="0.799"/>
    <line x1="210.72" y1="398.56" x2="210.09" y2="402.14" stroke-opacity="0.799"/>
    <line x1="208.03" y1="397.84" x2="206.78" y2="401.25" stroke-opacity="0.799"/>
    <line x1="205.50" y1="396.66" x2="203.68" y2="399.80" stroke-opacity="0.799"/>
    <line x1="203.22" y1="395.06" x2="200.88" y2="397.84" stroke-opacity="0.799"/>
    <line x1="201.24" y1="393.08" x2="198.46" y2="395.42" stroke-opacity="0.799"/>
    <line x1="199.64" y1="390.80" x2="196.50" y2="392.62" stroke-opacity="0.799"/>
    <line x1="198.46" y1="388.27" x2="195.05" y2="389.52" stroke-opacity="0.799"/>
    <line x1="197.74" y1="385.58" x2="194.16" y2="386.21" stroke-opacity="0.799"/>
    <line x1="197.50" y1="382.80" x2="193.87" y2="382.80" stroke-opacity="0.799"/>
    <line x1="197.74" y1="380.02" x2="194.16" y2="379.39" stroke-opacity="0.799"/>
    <line x1="198.46" y1="377.33" x2="195.05" y2="376.08" stroke-opacity="0.799"/>
    <line x1="199.64" y1="374.80" x2="196.50" y2="372.98" stroke-opacity="0.799"/>
    <line x1="201.24" y1="372.52" x2="198.46" y2="370.18" stroke-opacity="0.799"/>
    <line x1="203.22" y1="370.54" x2="200.88" y2="367.76" stroke-opacity="0.799"/>
    <line x1="205.50" y1="368.94" x2="203.68" y2="365.80" stroke-opacity="0.799"/>
    <line x1="208.03" y1="367.76" x2="206.78" y2="364.35" stroke-opacity="0.799"/>
    <line x1="210.72" y1="367.04" x2="210.09" y2="363.46" stroke-opacity="0.799"/>
    <line x1="213.50" y1="366.80" x2="213.50" y2="363.17" stroke-opacity="0.799"/>
    <line x1="216.28" y1="367.04" x2="216.91" y2="363.46" stroke-opacity="0.799"/>
    <line x1="218.97" y1="367.76" x2="220.22" y2="364.35" stroke-opacity="0.799"/>
    <line x1="221.50" y1="368.94" x2="223.32" y2="365.80" stroke-opacity="0.799"/>
    <line x1="223.78" y1="370.54" x2="226.12" y2="367.76" stroke-opacity="0.799"/>
    <line x1="225.76" y1="372.52" x2="228.54" y2="370.18" stroke-opacity="0.799"/>
    <line x1="227.36" y1="374.80" x2="230.50" y2="372.98" stroke-opacity="0.799"/>
    <line x1="228.54" y1="377.33" x2="231.95" y2="376.08" stroke-opacity="0.799"/>
    <line x1="229.26" y1="380.02" x2="232.84" y2="379.39" stroke-opacity="0.799"/>
    <line x1="233.06" y1="384.51" x2="237.50" y2="384.90" stroke-opacity="0.796"/>
    <line x1="232.47" y1="387.88" x2="236.77" y2="389.04" stroke-opacity="0.796"/>
    <line x1="231.30" y1="391.10" x2="235.34" y2="392.98" stroke-opacity="0.796"/>
    <line x1="229.58" y1="394.06" x2="233.24" y2="396.62" stroke-opacity="0.796"/>
    <line x1="227.38" y1="396.68" x2="230.54" y2="399.84" stroke-opacity="0.796"/>
    <line x1="224.76" y1="398.88" x2="227.32" y2="402.54" stroke-opacity="0.796"/>
    <line x1="221.80" y1="400.60" x2="223.68" y2="404.64" stroke-opacity="0.796"/>
    <line x1="218.58" y1="401.77" x2="219.74" y2="406.07" stroke-opacity="0.796"/>
    <line x1="215.21" y1="402.36" x2="215.60" y2="406.80" stroke-opacity="0.796"/>
    <line x1="211.79" y1="402.36" x2="211.40" y2="406.80" stroke-opacity="0.796"/>
    <line x1="208.42" y1="401.77" x2="207.26" y2="406.07" stroke-opacity="0.796"/>
    <line x1="205.20" y1="400.60" x2="203.32" y2="404.64" stroke-opacity="0.796"/>
    <line x1="202.24" y1="398.88" x2="199.68" y2="402.54" stroke-opacity="0.796"/>
    <line x1="199.62" y1="396.68" x2="196.46" y2="399.84" stroke-opacity="0.796"/>
    <line x1="197.42" y1="394.06" x2="193.76" y2="396.62" stroke-opacity="0.796"/>
    <line x1="195.70" y1="391.10" x2="191.66" y2="392.98" stroke-opacity="0.796"/>
    <line x1="194.53" y1="387.88" x2="190.23" y2="389.04" stroke-opacity="0.796"/>
    <line x1="193.94" y1="384.51" x2="189.50" y2="384.90" stroke-opacity="0.796"/>
    <line x1="193.94" y1="381.09" x2="189.50" y2="380.70" stroke-opacity="0.796"/>
    <line x1="194.53" y1="377.72" x2="190.23" y2="376.56" stroke-opacity="0.796"/>
    <line x1="195.70" y1="374.50" x2="191.66" y2="372.62" stroke-opacity="0.796"/>
    <line x1="197.42" y1="371.54" x2="193.76" y2="368.98" stroke-opacity="0.796"/>
    <line x1="199.62" y1="368.92" x2="196.46" y2="365.76" stroke-opacity="0.796"/>
    <line x1="202.24" y1="366.72" x2="199.68" y2="363.06" stroke-opacity="0.796"/>
    <line x1="205.20" y1="365.00" x2="203.32" y2="360.96" stroke-opacity="0.796"/>
    <line x1="208.42" y1="363.83" x2="207.26" y2="359.53" stroke-opacity="0.796"/>
    <line x1="211.79" y1="363.24" x2="211.40" y2="358.80" stroke-opacity="0.796"/>
    <line x1="215.21" y1="363.24" x2="215.60" y2="358.80" stroke-opacity="0.796"/>
    <line x1="218.58" y1="363.83" x2="219.74" y2="359.53" stroke-opacity="0.796"/>
    <line x1="221.80" y1="365.00" x2="223.68" y2="360.96" stroke-opacity="0.796"/>
    <line x1="224.76" y1="366.72" x2="227.32" y2="363.06" stroke-opacity="0.796"/>
    <line x1="227.38" y1="368.92" x2="230.54" y2="365.76" stroke-opacity="0.796"/>
    <line x1="229.58" y1="371.54" x2="233.24" y2="368.98" stroke-opacity="0.796"/>
    <line x1="231.30" y1="374.50" x2="235.34" y2="372.62" stroke-opacity="0.796"/>
    <line x1="232.47" y1="377.72" x2="236.77" y2="376.56" stroke-opacity="0.796"/>
    <line x1="233.06" y1="381.09" x2="237.50" y2="380.70" stroke-opacity="0.796"/>
    <line x1="237.60" y1="382.80" x2="243.07" y2="382.80" stroke-opacity="0.793"/>
    <line x1="237.23" y1="386.98" x2="242.62" y2="387.93" stroke-opacity="0.793"/>
    <line x1="236.14" y1="391.04" x2="241.29" y2="392.91" stroke-opacity="0.793"/>
    <line x1="234.37" y1="394.85" x2="239.11" y2="397.58" stroke-opacity="0.793"/>
    <line x1="231.96" y1="398.29" x2="236.15" y2="401.81" stroke-opacity="0.793"/>
    <line x1="228.99" y1="401.26" x2="232.51" y2="405.45" stroke-opacity="0.793"/>
    <line x1="225.55" y1="403.67" x2="228.28" y2="408.41" stroke-opacity="0.793"/>
    <line x1="221.74" y1="405.44" x2="223.61" y2="410.59" stroke-opacity="0.793"/>
    <line x1="217.68" y1="406.53" x2="218.63" y2="411.92" stroke-opacity="0.793"/>
    <line x1="213.50" y1="406.90" x2="213.50" y2="412.37" stroke-opacity="0.793"/>
    <line x1="209.32" y1="406.53" x2="208.37" y2="411.92" stroke-opacity="0.793"/>
    <line x1="205.26" y1="405.44" x2="203.39" y2="410.59" stroke-opacity="0.793"/>
    <line x1="201.45" y1="403.67" x2="198.72" y2="408.41" stroke-opacity="0.793"/>
    <line x1="198.01" y1="401.26" x2="194.49" y2="405.45" stroke-opacity="0.793"/>
    <line x1="195.04" y1="398.29" x2="190.85" y2="401.81" stroke-opacity="0.793"/>
    <line x1="192.63" y1="394.85" x2="187.89" y2="397.58" stroke-opacity="0.793"/>
    <line x1="190.86" y1="391.04" x2="185.71" y2="392.91" stroke-opacity="0.793"/>
    <line x1="189.77" y1="386.98" x2="184.38" y2="387.93" stroke-opacity="0.793"/>
    <line x1="189.40" y1="382.80" x2="183.93" y2="382.80" stroke-opacity="0.793"/>
    <line x1="189.77" y1="378.62" x2="184.38" y2="377.67" stroke-opacity="0.793"/>
    <line x1="190.86" y1="374.56" x2="185.71" y2="372.69" stroke-opacity="0.793"/>
    <line x1="192.63" y1="370.75" x2="187.89" y2="368.02" stroke-opacity="0.793"/>
    <line x1="195.04" y1="367.31" x2="190.85" y2="363.79" stroke-opacity="0.793"/>
    <line x1="198.01" y1="364.34" x2="194.49" y2="360.15" stroke-opacity="0.793"/>
    <line x1="201.45" y1="361.93" x2="198.72" y2="357.19" stroke-opacity="0.793"/>
    <line x1="205.26" y1="360.16" x2="203.39" y2="355.01" stroke-opacity="0.793"/>
    <line x1="209.32" y1="359.07" x2="208.37" y2="353.68" stroke-opacity="0.793"/>
    <line x1="213.50" y1="358.70" x2="213.50" y2="353.23" stroke-opacity="0.793"/>
    <line x1="217.68" y1="359.07" x2="218.63" y2="353.68" stroke-opacity="0.793"/>
    <line x1="221.74" y1="360.16" x2="223.61" y2="355.01" stroke-opacity="0.793"/>
    <line x1="225.55" y1="361.93" x2="228.28" y2="357.19" stroke-opacity="0.793"/>
    <line x1="228.99" y1="364.34" x2="232.51" y2="360.15" stroke-opacity="0.793"/>
    <line x1="231.96" y1="367.31" x2="236.15" y2="363.79" stroke-opacity="0.793"/>
    <line x1="234.37" y1="370.75" x2="239.11" y2="368.02" stroke-opacity="0.793"/>
    <line x1="236.14" y1="374.56" x2="241.29" y2="372.69" stroke-opacity="0.793"/>
    <line x1="237.23" y1="378.62" x2="242.62" y2="377.67" stroke-opacity="0.793"/>
    <line x1="242.96" y1="385.38" x2="249.65" y2="385.96" stroke-opacity="0.787"/>
    <line x1="242.06" y1="390.45" x2="248.55" y2="392.19" stroke-opacity="0.787"/>
    <line x1="240.30" y1="395.30" x2="246.39" y2="398.13" stroke-opacity="0.787"/>
    <line x1="237.72" y1="399.76" x2="243.22" y2="403.61" stroke-opacity="0.787"/>
    <line x1="234.41" y1="403.71" x2="239.16" y2="408.46" stroke-opacity="0.787"/>
    <line x1="230.46" y1="407.02" x2="234.31" y2="412.52" stroke-opacity="0.787"/>
    <line x1="226.00" y1="409.60" x2="228.83" y2="415.69" stroke-opacity="0.787"/>
    <line x1="221.15" y1="411.36" x2="222.89" y2="417.85" stroke-opacity="0.787"/>
    <line x1="216.08" y1="412.26" x2="216.66" y2="418.95" stroke-opacity="0.787"/>
    <line x1="210.92" y1="412.26" x2="210.34" y2="418.95" stroke-opacity="0.787"/>
    <line x1="205.85" y1="411.36" x2="204.11" y2="417.85" stroke-opacity="0.787"/>
    <line x1="201.00" y1="409.60" x2="198.17" y2="415.69" stroke-opacity="0.787"/>
    <line x1="196.54" y1="407.02" x2="192.69" y2="412.52" stroke-opacity="0.787"/>
    <line x1="192.59" y1="403.71" x2="187.84" y2="408.46" stroke-opacity="0.787"/>
    <line x1="189.28" y1="399.76" x2="183.78" y2="403.61" stroke-opacity="0.787"/>
    <line x1="186.70" y1="395.30" x2="180.61" y2="398.13" stroke-opacity="0.787"/>
    <line x1="184.94" y1="390.45" x2="178.45" y2="392.19" stroke-opacity="0.787"/>
    <line x1="184.04" y1="385.38" x2="177.35" y2="385.96" stroke-opacity="0.787"/>
    <line x1="184.04" y1="380.22" x2="177.35" y2="379.64" stroke-opacity="0.787"/>
    <line x1="184.94" y1="375.15" x2="178.45" y2="373.41" stroke-opacity="0.787"/>
    <line x1="186.70" y1="370.30" x2="180.61" y2="367.47" stroke-opacity="0.787"/>
    <line x1="189.28" y1="365.84" x2="183.78" y2="361.99" stroke-opacity="0.787"/>
    <line x1="192.59" y1="361.89" x2="187.84" y2="357.14" stroke-opacity="0.787"/>
    <line x1="196.54" y1="358.58" x2="192.69" y2="353.08" stroke-opacity="0.787"/>
    <line x1="201.00" y1="356.00" x2="198.17" y2="349.91" stroke-opacity="0.787"/>
    <line x1="205.85" y1="354.24" x2="204.11" y2="347.75" stroke-opacity="0.787"/>
    <line x1="210.92" y1="353.34" x2="210.34" y2="346.65" stroke-opacity="0.787"/>
    <line x1="216.08" y1="353.34" x2="216.66" y2="346.65" stroke-opacity="0.787"/>
    <line x1="221.15" y1="354.24" x2="222.89" y2="347.75" stroke-opacity="0.787"/>
    <line x1="226.00" y1="356.00" x2="228.83" y2="349.91" stroke-opacity="0.787"/>
    <line x1="230.46" y1="358.58" x2="234.31" y2="353.08" stroke-opacity="0.787"/>
    <line x1="234.41" y1="361.89" x2="239.16" y2="357.14" stroke-opacity="0.787"/>
    <line x1="237.72" y1="365.84" x2="243.22" y2="361.99" stroke-opacity="0.787"/>
    <line x1="240.30" y1="370.30" x2="246.39" y2="367.47" stroke-opacity="0.787"/>
    <line x1="242.06" y1="375.15" x2="248.55" y2="373.41" stroke-opacity="0.787"/>
    <line x1="242.96" y1="380.22" x2="249.65" y2="379.64" stroke-opacity="0.787"/>
    <line x1="249.79" y1="382.80" x2="258.03" y2="382.80" stroke-opacity="0.780"/>
    <line x1="249.23" y1="389.10" x2="257.35" y2="390.53" stroke-opacity="0.780"/>
    <line x1="247.60" y1="395.21" x2="255.34" y2="398.03" stroke-opacity="0.780"/>
    <line x1="244.92" y1="400.94" x2="252.06" y2="405.06" stroke-opacity="0.780"/>
    <line x1="241.30" y1="406.12" x2="247.61" y2="411.42" stroke-opacity="0.780"/>
    <line x1="236.82" y1="410.60" x2="242.12" y2="416.91" stroke-opacity="0.780"/>
    <line x1="231.64" y1="414.22" x2="235.76" y2="421.36" stroke-opacity="0.780"/>
    <line x1="225.91" y1="416.90" x2="228.73" y2="424.64" stroke-opacity="0.780"/>
    <line x1="219.80" y1="418.53" x2="221.23" y2="426.65" stroke-opacity="0.780"/>
    <line x1="213.50" y1="419.09" x2="213.50" y2="427.33" stroke-opacity="0.780"/>
    <line x1="207.20" y1="418.53" x2="205.77" y2="426.65" stroke-opacity="0.780"/>
    <line x1="201.09" y1="416.90" x2="198.27" y2="424.64" stroke-opacity="0.780"/>
    <line x1="195.36" y1="414.22" x2="191.24" y2="421.36" stroke-opacity="0.780"/>
    <line x1="190.18" y1="410.60" x2="184.88" y2="416.91" stroke-opacity="0.780"/>
    <line x1="185.70" y1="406.12" x2="179.39" y2="411.42" stroke-opacity="0.780"/>
    <line x1="182.08" y1="400.94" x2="174.94" y2="405.06" stroke-opacity="0.780"/>
    <line x1="179.40" y1="395.21" x2="171.66" y2="398.03" stroke-opacity="0.780"/>
    <line x1="177.77" y1="389.10" x2="169.65" y2="390.53" stroke-opacity="0.780"/>
    <line x1="177.21" y1="382.80" x2="168.97" y2="382.80" stroke-opacity="0.780"/>
    <line x1="177.77" y1="376.50" x2="169.65" y2="375.07" stroke-opacity="0.780"/>
    <line x1="179.40" y1="370.39" x2="171.66" y2="367.57" stroke-opacity="0.780"/>
    <line x1="182.08" y1="364.66" x2="174.94" y2="360.54" stroke-opacity="0.780"/>
    <line x1="185.70" y1="359.48" x2="179.39" y2="354.18" stroke-opacity="0.780"/>
    <line x1="190.18" y1="355.00" x2="184.88" y2="348.69" stroke-opacity="0.780"/>
    <line x1="195.36" y1="351.38" x2="191.24" y2="344.24" stroke-opacity="0.780"/>
    <line x1="201.09" y1="348.70" x2="198.27" y2="340.96" stroke-opacity="0.780"/>
    <line x1="207.20" y1="347.07" x2="205.77" y2="338.95" stroke-opacity="0.780"/>
    <line x1="213.50" y1="346.51" x2="213.50" y2="338.27" stroke-opacity="0.780"/>
    <line x1="219.80" y1="347.07" x2="221.23" y2="338.95" stroke-opacity="0.780"/>
    <line x1="225.91" y1="348.70" x2="228.73" y2="340.96" stroke-opacity="0.780"/>
    <line x1="231.64" y1="351.38" x2="235.76" y2="344.24" stroke-opacity="0.780"/>
    <line x1="236.82" y1="355.00" x2="242.12" y2="348.69" stroke-opacity="0.780"/>
    <line x1="241.30" y1="359.48" x2="247.61" y2="354.18" stroke-opacity="0.780"/>
    <line x1="244.92" y1="364.66" x2="252.06" y2="360.54" stroke-opacity="0.780"/>
    <line x1="247.60" y1="370.39" x2="255.34" y2="367.57" stroke-opacity="0.780"/>
    <line x1="249.23" y1="376.50" x2="257.35" y2="375.07" stroke-opacity="0.780"/>
    <line x1="257.86" y1="386.68" x2="267.94" y2="387.56" stroke-opacity="0.771"/>
    <line x1="256.51" y1="394.32" x2="266.28" y2="396.94" stroke-opacity="0.771"/>
    <line x1="253.86" y1="401.62" x2="263.02" y2="405.89" stroke-opacity="0.771"/>
    <line x1="249.98" y1="408.34" x2="258.26" y2="414.14" stroke-opacity="0.771"/>
    <line x1="244.99" y1="414.29" x2="252.14" y2="421.44" stroke-opacity="0.771"/>
    <line x1="239.04" y1="419.28" x2="244.84" y2="427.56" stroke-opacity="0.771"/>
    <line x1="232.32" y1="423.16" x2="236.59" y2="432.32" stroke-opacity="0.771"/>
    <line x1="225.02" y1="425.81" x2="227.64" y2="435.58" stroke-opacity="0.771"/>
    <line x1="217.38" y1="427.16" x2="218.26" y2="437.24" stroke-opacity="0.771"/>
    <line x1="209.62" y1="427.16" x2="208.74" y2="437.24" stroke-opacity="0.771"/>
    <line x1="201.98" y1="425.81" x2="199.36" y2="435.58" stroke-opacity="0.771"/>
    <line x1="194.68" y1="423.16" x2="190.41" y2="432.32" stroke-opacity="0.771"/>
    <line x1="187.96" y1="419.28" x2="182.16" y2="427.56" stroke-opacity="0.771"/>
    <line x1="182.01" y1="414.29" x2="174.86" y2="421.44" stroke-opacity="0.771"/>
    <line x1="177.02" y1="408.34" x2="168.74" y2="414.14" stroke-opacity="0.771"/>
    <line x1="173.14" y1="401.62" x2="163.98" y2="405.89" stroke-opacity="0.771"/>
    <line x1="170.49" y1="394.32" x2="160.72" y2="396.94" stroke-opacity="0.771"/>
    <line x1="169.14" y1="386.68" x2="159.06" y2="387.56" stroke-opacity="0.771"/>
    <line x1="169.14" y1="378.92" x2="159.06" y2="378.04" stroke-opacity="0.771"/>
    <line x1="170.49" y1="371.28" x2="160.72" y2="368.66" stroke-opacity="0.771"/>
    <line x1="173.14" y1="363.98" x2="163.98" y2="359.71" stroke-opacity="0.771"/>
    <line x1="177.02" y1="357.26" x2="168.74" y2="351.46" stroke-opacity="0.771"/>
    <line x1="182.01" y1="351.31" x2="174.86" y2="344.16" stroke-opacity="0.771"/>
    <line x1="187.96" y1="346.32" x2="182.16" y2="338.04" stroke-opacity="0.771"/>
    <line x1="194.68" y1="342.44" x2="190.41" y2="333.28" stroke-opacity="0.771"/>
    <line x1="201.98" y1="339.79" x2="199.36" y2="330.02" stroke-opacity="0.771"/>
    <line x1="209.62" y1="338.44" x2="208.74" y2="328.36" stroke-opacity="0.771"/>
    <line x1="217.38" y1="338.44" x2="218.26" y2="328.36" stroke-opacity="0.771"/>
    <line x1="225.02" y1="339.79" x2="227.64" y2="330.02" stroke-opacity="0.771"/>
    <line x1="232.32" y1="342.44" x2="236.59" y2="333.28" stroke-opacity="0.771"/>
    <line x1="239.04" y1="346.32" x2="244.84" y2="338.04" stroke-opacity="0.771"/>
    <line x1="244.99" y1="351.31" x2="252.14" y2="344.16" stroke-opacity="0.771"/>
    <line x1="249.98" y1="357.26" x2="258.26" y2="351.46" stroke-opacity="0.771"/>
    <line x1="253.86" y1="363.98" x2="263.02" y2="359.71" stroke-opacity="0.771"/>
    <line x1="256.51" y1="371.28" x2="266.28" y2="368.66" stroke-opacity="0.771"/>
    <line x1="257.86" y1="378.92" x2="267.94" y2="378.04" stroke-opacity="0.771"/>
    <line x1="268.14" y1="382.80" x2="280.56" y2="382.80" stroke-opacity="0.759"/>
    <line x1="267.31" y1="392.29" x2="279.54" y2="394.44" stroke-opacity="0.759"/>
    <line x1="264.85" y1="401.49" x2="276.51" y2="405.73" stroke-opacity="0.759"/>
    <line x1="260.82" y1="410.12" x2="271.57" y2="416.33" stroke-opacity="0.759"/>
    <line x1="255.36" y1="417.92" x2="264.87" y2="425.90" stroke-opacity="0.759"/>
    <line x1="248.62" y1="424.66" x2="256.60" y2="434.17" stroke-opacity="0.759"/>
    <line x1="240.82" y1="430.12" x2="247.03" y2="440.87" stroke-opacity="0.759"/>
    <line x1="232.19" y1="434.15" x2="236.43" y2="445.81" stroke-opacity="0.759"/>
    <line x1="222.99" y1="436.61" x2="225.14" y2="448.84" stroke-opacity="0.759"/>
    <line x1="213.50" y1="437.44" x2="213.50" y2="449.86" stroke-opacity="0.759"/>
    <line x1="204.01" y1="436.61" x2="201.86" y2="448.84" stroke-opacity="0.759"/>
    <line x1="194.81" y1="434.15" x2="190.57" y2="445.81" stroke-opacity="0.759"/>
    <line x1="186.18" y1="430.12" x2="179.97" y2="440.87" stroke-opacity="0.759"/>
    <line x1="178.38" y1="424.66" x2="170.40" y2="434.17" stroke-opacity="0.759"/>
    <line x1="171.64" y1="417.92" x2="162.13" y2="425.90" stroke-opacity="0.759"/>
    <line x1="166.18" y1="410.12" x2="155.43" y2="416.33" stroke-opacity="0.759"/>
    <line x1="162.15" y1="401.49" x2="150.49" y2="405.73" stroke-opacity="0.759"/>
    <line x1="159.69" y1="392.29" x2="147.46" y2="394.44" stroke-opacity="0.759"/>
    <line x1="158.86" y1="382.80" x2="146.44" y2="382.80" stroke-opacity="0.759"/>
    <line x1="159.69" y1="373.31" x2="147.46" y2="371.16" stroke-opacity="0.759"/>
    <line x1="162.15" y1="364.11" x2="150.49" y2="359.87" stroke-opacity="0.759"/>
    <line x1="166.18" y1="355.48" x2="155.43" y2="349.27" stroke-opacity="0.759"/>
    <line x1="171.64" y1="347.68" x2="162.13" y2="339.70" stroke-opacity="0.759"/>
    <line x1="178.38" y1="340.94" x2="170.40" y2="331.43" stroke-opacity="0.759"/>
    <line x1="186.18" y1="335.48" x2="179.97" y2="324.73" stroke-opacity="0.759"/>
    <line x1="194.81" y1="331.45" x2="190.57" y2="319.79" stroke-opacity="0.759"/>
    <line x1="204.01" y1="328.99" x2="201.86" y2="316.76" stroke-opacity="0.759"/>
    <line x1="213.50" y1="328.16" x2="213.50" y2="315.74" stroke-opacity="0.759"/>
    <line x1="222.99" y1="328.99" x2="225.14" y2="316.76" stroke-opacity="0.759"/>
    <line x1="232.19" y1="331.45" x2="236.43" y2="319.79" stroke-opacity="0.759"/>
    <line x1="240.82" y1="335.48" x2="247.03" y2="324.73" stroke-opacity="0.759"/>
    <line x1="248.62" y1="340.94" x2="256.60" y2="331.43" stroke-opacity="0.759"/>
    <line x1="255.36" y1="347.68" x2="264.87" y2="339.70" stroke-opacity="0.759"/>
    <line x1="260.82" y1="355.48" x2="271.57" y2="349.27" stroke-opacity="0.759"/>
    <line x1="264.85" y1="364.11" x2="276.51" y2="359.87" stroke-opacity="0.759"/>
    <line x1="267.31" y1="373.31" x2="279.54" y2="371.16" stroke-opacity="0.759"/>
    <line x1="280.30" y1="388.64" x2="295.48" y2="389.97" stroke-opacity="0.743"/>
    <line x1="278.27" y1="400.16" x2="292.99" y2="404.10" stroke-opacity="0.743"/>
    <line x1="274.27" y1="411.14" x2="288.08" y2="417.58" stroke-opacity="0.743"/>
    <line x1="268.43" y1="421.26" x2="280.91" y2="430.00" stroke-opacity="0.743"/>
    <line x1="260.92" y1="430.22" x2="271.69" y2="440.99" stroke-opacity="0.743"/>
    <line x1="251.96" y1="437.73" x2="260.70" y2="450.21" stroke-opacity="0.743"/>
    <line x1="241.84" y1="443.57" x2="248.28" y2="457.38" stroke-opacity="0.743"/>
    <line x1="230.86" y1="447.57" x2="234.80" y2="462.29" stroke-opacity="0.743"/>
    <line x1="219.34" y1="449.60" x2="220.67" y2="464.78" stroke-opacity="0.743"/>
    <line x1="207.66" y1="449.60" x2="206.33" y2="464.78" stroke-opacity="0.743"/>
    <line x1="196.14" y1="447.57" x2="192.20" y2="462.29" stroke-opacity="0.743"/>
    <line x1="185.16" y1="443.57" x2="178.72" y2="457.38" stroke-opacity="0.743"/>
    <line x1="175.04" y1="437.73" x2="166.30" y2="450.21" stroke-opacity="0.743"/>
    <line x1="166.08" y1="430.22" x2="155.31" y2="440.99" stroke-opacity="0.743"/>
    <line x1="158.57" y1="421.26" x2="146.09" y2="430.00" stroke-opacity="0.743"/>
    <line x1="152.73" y1="411.14" x2="138.92" y2="417.58" stroke-opacity="0.743"/>
    <line x1="148.73" y1="400.16" x2="134.01" y2="404.10" stroke-opacity="0.743"/>
    <line x1="146.70" y1="388.64" x2="131.52" y2="389.97" stroke-opacity="0.743"/>
    <line x1="146.70" y1="376.96" x2="131.52" y2="375.63" stroke-opacity="0.743"/>
    <line x1="148.73" y1="365.44" x2="134.01" y2="361.50" stroke-opacity="0.743"/>
    <line x1="152.73" y1="354.46" x2="138.92" y2="348.02" stroke-opacity="0.743"/>
    <line x1="158.57" y1="344.34" x2="146.09" y2="335.60" stroke-opacity="0.743"/>
    <line x1="166.08" y1="335.38" x2="155.31" y2="324.61" stroke-opacity="0.743"/>
    <line x1="175.04" y1="327.87" x2="166.30" y2="315.39" stroke-opacity="0.743"/>
    <line x1="185.16" y1="322.03" x2="178.72" y2="308.22" stroke-opacity="0.743"/>
    <line x1="196.14" y1="318.03" x2="192.20" y2="303.31" stroke-opacity="0.743"/>
    <line x1="207.66" y1="316.00" x2="206.33" y2="300.82" stroke-opacity="0.743"/>
    <line x1="219.34" y1="316.00" x2="220.67" y2="300.82" stroke-opacity="0.743"/>
    <line x1="230.86" y1="318.03" x2="234.80" y2="303.31" stroke-opacity="0.743"/>
    <line x1="241.84" y1="322.03" x2="248.28" y2="308.22" stroke-opacity="0.743"/>
    <line x1="251.96" y1="327.87" x2="260.70" y2="315.39" stroke-opacity="0.743"/>
    <line x1="260.92" y1="335.38" x2="271.69" y2="324.61" stroke-opacity="0.743"/>
    <line x1="268.43" y1="344.34" x2="280.91" y2="335.60" stroke-opacity="0.743"/>
    <line x1="274.27" y1="354.46" x2="288.08" y2="348.02" stroke-opacity="0.743"/>
    <line x1="278.27" y1="365.44" x2="292.99" y2="361.50" stroke-opacity="0.743"/>
    <line x1="280.30" y1="376.96" x2="295.48" y2="375.63" stroke-opacity="0.743"/>
    <line x1="295.79" y1="382.80" x2="314.48" y2="382.80" stroke-opacity="0.723"/>
    <line x1="294.54" y1="397.09" x2="312.95" y2="400.34" stroke-opacity="0.723"/>
    <line x1="290.83" y1="410.94" x2="308.39" y2="417.34" stroke-opacity="0.723"/>
    <line x1="284.77" y1="423.95" x2="300.95" y2="433.29" stroke-opacity="0.723"/>
    <line x1="276.54" y1="435.70" x2="290.86" y2="447.71" stroke-opacity="0.723"/>
    <line x1="266.40" y1="445.84" x2="278.41" y2="460.16" stroke-opacity="0.723"/>
    <line x1="254.65" y1="454.07" x2="263.99" y2="470.25" stroke-opacity="0.723"/>
    <line x1="241.64" y1="460.13" x2="248.04" y2="477.69" stroke-opacity="0.723"/>
    <line x1="227.79" y1="463.84" x2="231.04" y2="482.25" stroke-opacity="0.723"/>
    <line x1="213.50" y1="465.09" x2="213.50" y2="483.78" stroke-opacity="0.723"/>
    <line x1="199.21" y1="463.84" x2="195.96" y2="482.25" stroke-opacity="0.723"/>
    <line x1="185.36" y1="460.13" x2="178.96" y2="477.69" stroke-opacity="0.723"/>
    <line x1="172.35" y1="454.07" x2="163.01" y2="470.25" stroke-opacity="0.723"/>
    <line x1="160.60" y1="445.84" x2="148.59" y2="460.16" stroke-opacity="0.723"/>
    <line x1="150.46" y1="435.70" x2="136.14" y2="447.71" stroke-opacity="0.723"/>
    <line x1="142.23" y1="423.95" x2="126.05" y2="433.29" stroke-opacity="0.723"/>
    <line x1="136.17" y1="410.94" x2="118.61" y2="417.34" stroke-opacity="0.723"/>
    <line x1="132.46" y1="397.09" x2="114.05" y2="400.34" stroke-opacity="0.723"/>
    <line x1="131.21" y1="382.80" x2="112.52" y2="382.80" stroke-opacity="0.723"/>
    <line x1="132.46" y1="368.51" x2="114.05" y2="365.26" stroke-opacity="0.723"/>
    <line x1="136.17" y1="354.66" x2="118.61" y2="348.26" stroke-opacity="0.723"/>
    <line x1="142.23" y1="341.65" x2="126.05" y2="332.31" stroke-opacity="0.723"/>
    <line x1="150.46" y1="329.90" x2="136.14" y2="317.89" stroke-opacity="0.723"/>
    <line x1="160.60" y1="319.76" x2="148.59" y2="305.44" stroke-opacity="0.723"/>
    <line x1="172.35" y1="311.53" x2="163.01" y2="295.35" stroke-opacity="0.723"/>
    <line x1="185.36" y1="305.47" x2="178.96" y2="287.91" stroke-opacity="0.723"/>
    <line x1="199.21" y1="301.76" x2="195.96" y2="283.35" stroke-opacity="0.723"/>
    <line x1="213.50" y1="300.51" x2="213.50" y2="281.82" stroke-opacity="0.723"/>
    <line x1="227.79" y1="301.76" x2="231.04" y2="283.35" stroke-opacity="0.723"/>
    <line x1="241.64" y1="305.47" x2="248.04" y2="287.91" stroke-opacity="0.723"/>
    <line x1="254.65" y1="311.53" x2="263.99" y2="295.35" stroke-opacity="0.723"/>
    <line x1="266.40" y1="319.76" x2="278.41" y2="305.44" stroke-opacity="0.723"/>
    <line x1="276.54" y1="329.90" x2="290.86" y2="317.89" stroke-opacity="0.723"/>
    <line x1="284.77" y1="341.65" x2="300.95" y2="332.31" stroke-opacity="0.723"/>
    <line x1="290.83" y1="354.66" x2="308.39" y2="348.26" stroke-opacity="0.723"/>
    <line x1="294.54" y1="368.51" x2="312.95" y2="365.26" stroke-opacity="0.723"/>
    <line x1="314.10" y1="391.60" x2="336.95" y2="393.60" stroke-opacity="0.697"/>
    <line x1="311.04" y1="408.94" x2="333.20" y2="414.87" stroke-opacity="0.697"/>
    <line x1="305.02" y1="425.48" x2="325.81" y2="435.17" stroke-opacity="0.697"/>
    <line x1="296.22" y1="440.72" x2="315.01" y2="453.88" stroke-opacity="0.697"/>
    <line x1="284.91" y1="454.21" x2="301.13" y2="470.43" stroke-opacity="0.697"/>
    <line x1="271.42" y1="465.52" x2="284.58" y2="484.31" stroke-opacity="0.697"/>
    <line x1="256.18" y1="474.32" x2="265.87" y2="495.11" stroke-opacity="0.697"/>
    <line x1="239.64" y1="480.34" x2="245.57" y2="502.50" stroke-opacity="0.697"/>
    <line x1="222.30" y1="483.40" x2="224.30" y2="506.25" stroke-opacity="0.697"/>
    <line x1="204.70" y1="483.40" x2="202.70" y2="506.25" stroke-opacity="0.697"/>
    <line x1="187.36" y1="480.34" x2="181.43" y2="502.50" stroke-opacity="0.697"/>
    <line x1="170.82" y1="474.32" x2="161.13" y2="495.11" stroke-opacity="0.697"/>
    <line x1="155.58" y1="465.52" x2="142.42" y2="484.31" stroke-opacity="0.697"/>
    <line x1="142.09" y1="454.21" x2="125.87" y2="470.43" stroke-opacity="0.697"/>
    <line x1="130.78" y1="440.72" x2="111.99" y2="453.88" stroke-opacity="0.697"/>
    <line x1="121.98" y1="425.48" x2="101.19" y2="435.17" stroke-opacity="0.697"/>
    <line x1="115.96" y1="408.94" x2="93.80" y2="414.87" stroke-opacity="0.697"/>
    <line x1="112.90" y1="391.60" x2="90.05" y2="393.60" stroke-opacity="0.697"/>
    <line x1="112.90" y1="374.00" x2="90.05" y2="372.00" stroke-opacity="0.697"/>
    <line x1="115.96" y1="356.66" x2="93.80" y2="350.73" stroke-opacity="0.697"/>
    <line x1="121.98" y1="340.12" x2="101.19" y2="330.43" stroke-opacity="0.697"/>
    <line x1="130.78" y1="324.88" x2="111.99" y2="311.72" stroke-opacity="0.697"/>
    <line x1="142.09" y1="311.39" x2="125.87" y2="295.17" stroke-opacity="0.697"/>
    <line x1="155.58" y1="300.08" x2="142.42" y2="281.29" stroke-opacity="0.697"/>
    <line x1="170.82" y1="291.28" x2="161.13" y2="270.49" stroke-opacity="0.697"/>
    <line x1="187.36" y1="285.26" x2="181.43" y2="263.10" stroke-opacity="0.697"/>
    <line x1="204.70" y1="282.20" x2="202.70" y2="259.35" stroke-opacity="0.697"/>
    <line x1="222.30" y1="282.20" x2="224.30" y2="259.35" stroke-opacity="0.697"/>
    <line x1="239.64" y1="285.26" x2="245.57" y2="263.10" stroke-opacity="0.697"/>
    <line x1="256.18" y1="291.28" x2="265.87" y2="270.49" stroke-opacity="0.697"/>
    <line x1="271.42" y1="300.08" x2="284.58" y2="281.29" stroke-opacity="0.697"/>
    <line x1="284.91" y1="311.39" x2="301.13" y2="295.17" stroke-opacity="0.697"/>
    <line x1="296.22" y1="324.88" x2="315.01" y2="311.72" stroke-opacity="0.697"/>
    <line x1="305.02" y1="340.12" x2="325.81" y2="330.43" stroke-opacity="0.697"/>
    <line x1="311.04" y1="356.66" x2="333.20" y2="350.73" stroke-opacity="0.697"/>
    <line x1="314.10" y1="374.00" x2="336.95" y2="372.00" stroke-opacity="0.697"/>
    <line x1="337.42" y1="382.80" x2="365.58" y2="382.80" stroke-opacity="0.663"/>
    <line x1="335.54" y1="404.32" x2="363.27" y2="409.21" stroke-opacity="0.663"/>
    <line x1="329.95" y1="425.18" x2="356.40" y2="434.81" stroke-opacity="0.663"/>
    <line x1="320.82" y1="444.76" x2="345.20" y2="458.84" stroke-opacity="0.663"/>
    <line x1="308.43" y1="462.46" x2="330.00" y2="480.55" stroke-opacity="0.663"/>
    <line x1="293.16" y1="477.73" x2="311.25" y2="499.30" stroke-opacity="0.663"/>
    <line x1="275.46" y1="490.12" x2="289.54" y2="514.50" stroke-opacity="0.663"/>
    <line x1="255.88" y1="499.25" x2="265.51" y2="525.70" stroke-opacity="0.663"/>
    <line x1="235.02" y1="504.84" x2="239.91" y2="532.57" stroke-opacity="0.663"/>
    <line x1="213.50" y1="506.72" x2="213.50" y2="534.88" stroke-opacity="0.663"/>
    <line x1="191.98" y1="504.84" x2="187.09" y2="532.57" stroke-opacity="0.663"/>
    <line x1="171.12" y1="499.25" x2="161.49" y2="525.70" stroke-opacity="0.663"/>
    <line x1="151.54" y1="490.12" x2="137.46" y2="514.50" stroke-opacity="0.663"/>
    <line x1="133.84" y1="477.73" x2="115.75" y2="499.30" stroke-opacity="0.663"/>
    <line x1="118.57" y1="462.46" x2="97.00" y2="480.55" stroke-opacity="0.663"/>
    <line x1="106.18" y1="444.76" x2="81.80" y2="458.84" stroke-opacity="0.663"/>
    <line x1="97.05" y1="425.18" x2="70.60" y2="434.81" stroke-opacity="0.663"/>
    <line x1="91.46" y1="404.32" x2="63.73" y2="409.21" stroke-opacity="0.663"/>
    <line x1="89.58" y1="382.80" x2="61.42" y2="382.80" stroke-opacity="0.663"/>
    <line x1="91.46" y1="361.28" x2="63.73" y2="356.39" stroke-opacity="0.663"/>
    <line x1="97.05" y1="340.42" x2="70.60" y2="330.79" stroke-opacity="0.663"/>
    <line x1="106.18" y1="320.84" x2="81.80" y2="306.76" stroke-opacity="0.663"/>
    <line x1="118.57" y1="303.14" x2="97.00" y2="285.05" stroke-opacity="0.663"/>
    <line x1="133.84" y1="287.87" x2="115.75" y2="266.30" stroke-opacity="0.663"/>
    <line x1="151.54" y1="275.48" x2="137.46" y2="251.10" stroke-opacity="0.663"/>
    <line x1="171.12" y1="266.35" x2="161.49" y2="239.90" stroke-opacity="0.663"/>
    <line x1="191.98" y1="260.76" x2="187.09" y2="233.03" stroke-opacity="0.663"/>
    <line x1="213.50" y1="258.88" x2="213.50" y2="230.72" stroke-opacity="0.663"/>
    <line x1="235.02" y1="260.76" x2="239.91" y2="233.03" stroke-opacity="0.663"/>
    <line x1="255.88" y1="266.35" x2="265.51" y2="239.90" stroke-opacity="0.663"/>
    <line x1="275.46" y1="275.48" x2="289.54" y2="251.10" stroke-opacity="0.663"/>
    <line x1="293.16" y1="287.87" x2="311.25" y2="266.30" stroke-opacity="0.663"/>
    <line x1="308.43" y1="303.14" x2="330.00" y2="285.05" stroke-opacity="0.663"/>
    <line x1="320.82" y1="320.84" x2="345.20" y2="306.76" stroke-opacity="0.663"/>
    <line x1="329.95" y1="340.42" x2="356.40" y2="330.79" stroke-opacity="0.663"/>
    <line x1="335.54" y1="361.28" x2="363.27" y2="356.39" stroke-opacity="0.663"/>
    <line x1="365.00" y1="396.05" x2="399.41" y2="399.07" stroke-opacity="0.620"/>
    <line x1="360.39" y1="422.16" x2="393.76" y2="431.10" stroke-opacity="0.620"/>
    <line x1="351.33" y1="447.07" x2="382.64" y2="461.67" stroke-opacity="0.620"/>
    <line x1="338.07" y1="470.03" x2="366.37" y2="489.84" stroke-opacity="0.620"/>
    <line x1="321.03" y1="490.33" x2="345.46" y2="514.76" stroke-opacity="0.620"/>
    <line x1="300.73" y1="507.37" x2="320.54" y2="535.67" stroke-opacity="0.620"/>
    <line x1="277.77" y1="520.63" x2="292.37" y2="551.94" stroke-opacity="0.620"/>
    <line x1="252.86" y1="529.69" x2="261.80" y2="563.06" stroke-opacity="0.620"/>
    <line x1="226.75" y1="534.30" x2="229.77" y2="568.71" stroke-opacity="0.620"/>
    <line x1="200.25" y1="534.30" x2="197.23" y2="568.71" stroke-opacity="0.620"/>
    <line x1="174.14" y1="529.69" x2="165.20" y2="563.06" stroke-opacity="0.620"/>
    <line x1="149.23" y1="520.63" x2="134.63" y2="551.94" stroke-opacity="0.620"/>
    <line x1="126.27" y1="507.37" x2="106.46" y2="535.67" stroke-opacity="0.620"/>
    <line x1="105.97" y1="490.33" x2="81.54" y2="514.76" stroke-opacity="0.620"/>
    <line x1="88.93" y1="470.03" x2="60.63" y2="489.84" stroke-opacity="0.620"/>
    <line x1="75.67" y1="447.07" x2="44.36" y2="461.67" stroke-opacity="0.620"/>
    <line x1="66.61" y1="422.16" x2="33.24" y2="431.10" stroke-opacity="0.620"/>
    <line x1="62.00" y1="396.05" x2="27.59" y2="399.07" stroke-opacity="0.620"/>
    <line x1="62.00" y1="369.55" x2="27.59" y2="366.53" stroke-opacity="0.620"/>
    <line x1="66.61" y1="343.44" x2="33.24" y2="334.50" stroke-opacity="0.620"/>
    <line x1="75.67" y1="318.53" x2="44.36" y2="303.93" stroke-opacity="0.620"/>
    <line x1="88.93" y1="295.57" x2="60.63" y2="275.76" stroke-opacity="0.620"/>
    <line x1="105.97" y1="275.27" x2="81.54" y2="250.84" stroke-opacity="0.620"/>
    <line x1="126.27" y1="258.23" x2="106.46" y2="229.93" stroke-opacity="0.620"/>
    <line x1="149.23" y1="244.97" x2="134.63" y2="213.66" stroke-opacity="0.620"/>
    <line x1="174.14" y1="235.91" x2="165.20" y2="202.54" stroke-opacity="0.620"/>
    <line x1="200.25" y1="231.30" x2="197.23" y2="196.89" stroke-opacity="0.620"/>
    <line x1="226.75" y1="231.30" x2="229.77" y2="196.89" stroke-opacity="0.620"/>
    <line x1="252.86" y1="235.91" x2="261.80" y2="202.54" stroke-opacity="0.620"/>
    <line x1="277.77" y1="244.97" x2="292.37" y2="213.66" stroke-opacity="0.620"/>
    <line x1="300.73" y1="258.23" x2="320.54" y2="229.93" stroke-opacity="0.620"/>
    <line x1="321.03" y1="275.27" x2="345.46" y2="250.84" stroke-opacity="0.620"/>
    <line x1="338.07" y1="295.57" x2="366.37" y2="275.76" stroke-opacity="0.620"/>
    <line x1="351.33" y1="318.53" x2="382.64" y2="303.93" stroke-opacity="0.620"/>
    <line x1="360.39" y1="343.44" x2="393.76" y2="334.50" stroke-opacity="0.620"/>
    <line x1="365.00" y1="369.55" x2="399.41" y2="366.53" stroke-opacity="0.620"/>
    <line x1="400.12" y1="382.80" x2="442.52" y2="382.80" stroke-opacity="0.564"/>
    <line x1="397.29" y1="415.21" x2="439.04" y2="422.57" stroke-opacity="0.564"/>
    <line x1="388.87" y1="446.63" x2="428.71" y2="461.13" stroke-opacity="0.564"/>
    <line x1="375.12" y1="476.11" x2="411.83" y2="497.31" stroke-opacity="0.564"/>
    <line x1="356.46" y1="502.76" x2="388.94" y2="530.01" stroke-opacity="0.564"/>
    <line x1="333.46" y1="525.76" x2="360.71" y2="558.24" stroke-opacity="0.564"/>
    <line x1="306.81" y1="544.42" x2="328.01" y2="581.13" stroke-opacity="0.564"/>
    <line x1="277.33" y1="558.17" x2="291.83" y2="598.01" stroke-opacity="0.564"/>
    <line x1="245.91" y1="566.59" x2="253.27" y2="608.34" stroke-opacity="0.564"/>
    <line x1="213.50" y1="569.42" x2="213.50" y2="611.82" stroke-opacity="0.564"/>
    <line x1="181.09" y1="566.59" x2="173.73" y2="608.34" stroke-opacity="0.564"/>
    <line x1="149.67" y1="558.17" x2="135.17" y2="598.01" stroke-opacity="0.564"/>
    <line x1="120.19" y1="544.42" x2="98.99" y2="581.13" stroke-opacity="0.564"/>
    <line x1="93.54" y1="525.76" x2="66.29" y2="558.24" stroke-opacity="0.564"/>
    <line x1="70.54" y1="502.76" x2="38.06" y2="530.01" stroke-opacity="0.564"/>
    <line x1="51.88" y1="476.11" x2="15.17" y2="497.31" stroke-opacity="0.564"/>
    <line x1="38.13" y1="446.63" x2="-1.71" y2="461.13" stroke-opacity="0.564"/>
    <line x1="29.71" y1="415.21" x2="-12.04" y2="422.57" stroke-opacity="0.564"/>
    <line x1="26.88" y1="382.80" x2="-15.52" y2="382.80" stroke-opacity="0.564"/>
    <line x1="29.71" y1="350.39" x2="-12.04" y2="343.03" stroke-opacity="0.564"/>
    <line x1="38.13" y1="318.97" x2="-1.71" y2="304.47" stroke-opacity="0.564"/>
    <line x1="51.88" y1="289.49" x2="15.17" y2="268.29" stroke-opacity="0.564"/>
    <line x1="70.54" y1="262.84" x2="38.06" y2="235.59" stroke-opacity="0.564"/>
    <line x1="93.54" y1="239.84" x2="66.29" y2="207.36" stroke-opacity="0.564"/>
    <line x1="120.19" y1="221.18" x2="98.99" y2="184.47" stroke-opacity="0.564"/>
    <line x1="149.67" y1="207.43" x2="135.17" y2="167.59" stroke-opacity="0.564"/>
    <line x1="181.09" y1="199.01" x2="173.73" y2="157.26" stroke-opacity="0.564"/>
    <line x1="213.50" y1="196.18" x2="213.50" y2="153.78" stroke-opacity="0.564"/>
    <line x1="245.91" y1="199.01" x2="253.27" y2="157.26" stroke-opacity="0.564"/>
    <line x1="277.33" y1="207.43" x2="291.83" y2="167.59" stroke-opacity="0.564"/>
    <line x1="306.81" y1="221.18" x2="328.01" y2="184.47" stroke-opacity="0.564"/>
    <line x1="333.46" y1="239.84" x2="360.71" y2="207.36" stroke-opacity="0.564"/>
    <line x1="356.46" y1="262.84" x2="388.94" y2="235.59" stroke-opacity="0.564"/>
    <line x1="375.12" y1="289.49" x2="411.83" y2="268.29" stroke-opacity="0.564"/>
    <line x1="388.87" y1="318.97" x2="428.71" y2="304.47" stroke-opacity="0.564"/>
    <line x1="397.29" y1="350.39" x2="439.04" y2="343.03" stroke-opacity="0.564"/>
    <line x1="441.64" y1="402.76" x2="493.47" y2="407.29" stroke-opacity="0.493"/>
    <line x1="434.71" y1="442.07" x2="484.97" y2="455.54" stroke-opacity="0.493"/>
    <line x1="421.06" y1="479.59" x2="468.21" y2="501.57" stroke-opacity="0.493"/>
    <line x1="401.10" y1="514.16" x2="443.72" y2="544.00" stroke-opacity="0.493"/>
    <line x1="375.44" y1="544.74" x2="412.23" y2="581.53" stroke-opacity="0.493"/>
    <line x1="344.86" y1="570.40" x2="374.70" y2="613.02" stroke-opacity="0.493"/>
    <line x1="310.29" y1="590.36" x2="332.27" y2="637.51" stroke-opacity="0.493"/>
    <line x1="272.77" y1="604.01" x2="286.24" y2="654.27" stroke-opacity="0.493"/>
    <line x1="233.46" y1="610.94" x2="237.99" y2="662.77" stroke-opacity="0.493"/>
    <line x1="193.54" y1="610.94" x2="189.01" y2="662.77" stroke-opacity="0.493"/>
    <line x1="154.23" y1="604.01" x2="140.76" y2="654.27" stroke-opacity="0.493"/>
    <line x1="116.71" y1="590.36" x2="94.73" y2="637.51" stroke-opacity="0.493"/>
    <line x1="82.14" y1="570.40" x2="52.30" y2="613.02" stroke-opacity="0.493"/>
    <line x1="51.56" y1="544.74" x2="14.77" y2="581.53" stroke-opacity="0.493"/>
    <line x1="25.90" y1="514.16" x2="-16.72" y2="544.00" stroke-opacity="0.493"/>
    <line x1="5.94" y1="479.59" x2="-41.21" y2="501.57" stroke-opacity="0.493"/>
    <line x1="-7.71" y1="442.07" x2="-57.97" y2="455.54" stroke-opacity="0.493"/>
    <line x1="-14.64" y1="402.76" x2="-66.47" y2="407.29" stroke-opacity="0.493"/>
    <line x1="-14.64" y1="362.84" x2="-66.47" y2="358.31" stroke-opacity="0.493"/>
    <line x1="-7.71" y1="323.53" x2="-57.97" y2="310.06" stroke-opacity="0.493"/>
    <line x1="5.94" y1="286.01" x2="-41.21" y2="264.03" stroke-opacity="0.493"/>
    <line x1="25.90" y1="251.44" x2="-16.72" y2="221.60" stroke-opacity="0.493"/>
    <line x1="51.56" y1="220.86" x2="14.77" y2="184.07" stroke-opacity="0.493"/>
    <line x1="82.14" y1="195.20" x2="52.30" y2="152.58" stroke-opacity="0.493"/>
    <line x1="116.71" y1="175.24" x2="94.73" y2="128.09" stroke-opacity="0.493"/>
    <line x1="154.23" y1="161.59" x2="140.76" y2="111.33" stroke-opacity="0.493"/>
    <line x1="193.54" y1="154.66" x2="189.01" y2="102.83" stroke-opacity="0.493"/>
    <line x1="233.46" y1="154.66" x2="237.99" y2="102.83" stroke-opacity="0.493"/>
    <line x1="272.77" y1="161.59" x2="286.24" y2="111.33" stroke-opacity="0.493"/>
    <line x1="310.29" y1="175.24" x2="332.27" y2="128.09" stroke-opacity="0.493"/>
    <line x1="344.86" y1="195.20" x2="374.70" y2="152.58" stroke-opacity="0.493"/>
    <line x1="375.44" y1="220.86" x2="412.23" y2="184.07" stroke-opacity="0.493"/>
    <line x1="401.10" y1="251.44" x2="443.72" y2="221.60" stroke-opacity="0.493"/>
    <line x1="421.06" y1="286.01" x2="468.21" y2="264.03" stroke-opacity="0.493"/>
    <line x1="434.71" y1="323.53" x2="484.97" y2="310.06" stroke-opacity="0.493"/>
    <line x1="441.64" y1="362.84" x2="493.47" y2="358.31" stroke-opacity="0.493"/>
    <line x1="494.54" y1="382.80" x2="558.38" y2="382.80" stroke-opacity="0.402"/>
    <line x1="490.27" y1="431.60" x2="553.15" y2="442.69" stroke-opacity="0.402"/>
    <line x1="477.59" y1="478.92" x2="537.59" y2="500.76" stroke-opacity="0.402"/>
    <line x1="456.89" y1="523.32" x2="512.18" y2="555.24" stroke-opacity="0.402"/>
    <line x1="428.79" y1="563.45" x2="477.70" y2="604.49" stroke-opacity="0.402"/>
    <line x1="394.15" y1="598.09" x2="435.19" y2="647.00" stroke-opacity="0.402"/>
    <line x1="354.02" y1="626.19" x2="385.94" y2="681.48" stroke-opacity="0.402"/>
    <line x1="309.62" y1="646.89" x2="331.46" y2="706.89" stroke-opacity="0.402"/>
    <line x1="262.30" y1="659.57" x2="273.39" y2="722.45" stroke-opacity="0.402"/>
    <line x1="213.50" y1="663.84" x2="213.50" y2="727.68" stroke-opacity="0.402"/>
    <line x1="164.70" y1="659.57" x2="153.61" y2="722.45" stroke-opacity="0.402"/>
    <line x1="117.38" y1="646.89" x2="95.54" y2="706.89" stroke-opacity="0.402"/>
    <line x1="72.98" y1="626.19" x2="41.06" y2="681.48" stroke-opacity="0.402"/>
    <line x1="32.85" y1="598.09" x2="-8.19" y2="647.00" stroke-opacity="0.402"/>
    <line x1="-1.79" y1="563.45" x2="-50.70" y2="604.49" stroke-opacity="0.402"/>
    <line x1="-29.89" y1="523.32" x2="-85.18" y2="555.24" stroke-opacity="0.402"/>
    <line x1="-50.59" y1="478.92" x2="-110.59" y2="500.76" stroke-opacity="0.402"/>
    <line x1="-63.27" y1="431.60" x2="-126.15" y2="442.69" stroke-opacity="0.402"/>
    <line x1="-67.54" y1="382.80" x2="-131.38" y2="382.80" stroke-opacity="0.402"/>
    <line x1="-63.27" y1="334.00" x2="-126.15" y2="322.91" stroke-opacity="0.402"/>
    <line x1="-50.59" y1="286.68" x2="-110.59" y2="264.84" stroke-opacity="0.402"/>
    <line x1="-29.89" y1="242.28" x2="-85.18" y2="210.36" stroke-opacity="0.402"/>
    <line x1="-1.79" y1="202.15" x2="-50.70" y2="161.11" stroke-opacity="0.402"/>
    <line x1="32.85" y1="167.51" x2="-8.19" y2="118.60" stroke-opacity="0.402"/>
    <line x1="72.98" y1="139.41" x2="41.06" y2="84.12" stroke-opacity="0.402"/>
    <line x1="117.38" y1="118.71" x2="95.54" y2="58.71" stroke-opacity="0.402"/>
    <line x1="164.70" y1="106.03" x2="153.61" y2="43.15" stroke-opacity="0.402"/>
    <line x1="213.50" y1="101.76" x2="213.50" y2="37.92" stroke-opacity="0.402"/>
    <line x1="262.30" y1="106.03" x2="273.39" y2="43.15" stroke-opacity="0.402"/>
    <line x1="309.62" y1="118.71" x2="331.46" y2="58.71" stroke-opacity="0.402"/>
    <line x1="354.02" y1="139.41" x2="385.94" y2="84.12" stroke-opacity="0.402"/>
    <line x1="394.15" y1="167.51" x2="435.19" y2="118.60" stroke-opacity="0.402"/>
    <line x1="428.79" y1="202.15" x2="477.70" y2="161.11" stroke-opacity="0.402"/>
    <line x1="456.89" y1="242.28" x2="512.18" y2="210.36" stroke-opacity="0.402"/>
    <line x1="477.59" y1="286.68" x2="537.59" y2="264.84" stroke-opacity="0.402"/>
    <line x1="490.27" y1="334.00" x2="553.15" y2="322.91" stroke-opacity="0.402"/>
  </g>
  <text x="213.5" y="-75" font-family="Didot, 'Bodoni 72', 'Bodoni MT', Georgia, serif" font-weight="700" font-size="520" fill="#C07FA0" text-anchor="middle" dominant-baseline="text-before-edge">F</text>
</svg>