<svg xmlns="http://www.w3.org/2000/svg" viewBox="0 0 460 600">
  <g stroke="#FFFFFF" fill="none" stroke-width="1">
    <circle cx="230.00" cy="168.00" r="24.00" stroke-opacity="0.850"/>
    <circle cx="230.00" cy="168.00" r="29.46" stroke-opacity="0.847"/>
    <circle cx="230.00" cy="168.00" r="36.17" stroke-opacity="0.842"/>
    <circle cx="230.00" cy="168.00" r="44.40" stroke-opacity="0.836"/>
    <circle cx="230.00" cy="168.00" r="54.50" stroke-opacity="0.828"/>
    <circle cx="230.00" cy="168.00" r="66.91" stroke-opacity="0.817"/>
    <circle cx="230.00" cy="168.00" r="82.13" stroke-opacity="0.803"/>
    <circle cx="230.00" cy="168.00" r="100.83" stroke-opacity="0.786"/>
    <circle cx="230.00" cy="168.00" r="123.78" stroke-opacity="0.763"/>
    <circle cx="230.00" cy="168.00" r="151.95" stroke-opacity="0.734"/>
    <circle cx="230.00" cy="168.00" r="186.53" stroke-opacity="0.698"/>
    <circle cx="230.00" cy="168.00" r="228.98" stroke-opacity="0.651"/>
    <circle cx="230.00" cy="168.00" r="281.09" stroke-opacity="0.592"/>
    <circle cx="230.00" cy="168.00" r="345.06" stroke-opacity="0.516"/>
    <circle cx="230.00" cy="168.00" r="423.59" stroke-opacity="0.421"/>
    <circle cx="230.00" cy="168.00" r="520.00" stroke-opacity="0.300"/>
  </g>
  <g stroke="#FFFFFF" fill="none" stroke-width="1">
    <line x1="254.00" y1="168.00" x2="259.46" y2="168.00" stroke-opacity="0.849"/>
    <line x1="253.64" y1="172.17" x2="259.01" y2="173.12" stroke-opacity="0.849"/>
    <line x1="252.55" y1="176.21" x2="257.69" y2="178.08" stroke-opacity="0.849"/>
    <line x1="250.78" y1="180.00" x2="255.51" y2="182.73" stroke-opacity="0.849"/>
    <line x1="248.39" y1="183.43" x2="252.57" y2="186.94" stroke-opacity="0.849"/>
    <line x1="245.43" y1="186.39" x2="248.94" y2="190.57" stroke-opacity="0.849"/>
    <line x1="242.00" y1="188.78" x2="244.73" y2="193.51" stroke-opacity="0.849"/>
    <line x1="238.21" y1="190.55" x2="240.08" y2="195.69" stroke-opacity="0.849"/>
    <line x1="234.17" y1="191.64" x2="235.12" y2="197.01" stroke-opacity="0.849"/>
    <line x1="230.00" y1="192.00" x2="230.00" y2="197.46" stroke-opacity="0.849"/>
    <line x1="225.83" y1="191.64" x2="224.88" y2="197.01" stroke-opacity="0.849"/>
    <line x1="221.79" y1="190.55" x2="219.92" y2="195.69" stroke-opacity="0.849"/>
    <line x1="218.00" y1="188.78" x2="215.27" y2="193.51" stroke-opacity="0.849"/>
    <line x1="214.57" y1="186.39" x2="211.06" y2="190.57" stroke-opacity="0.849"/>
    <line x1="211.61" y1="183.43" x2="207.43" y2="186.94" stroke-opacity="0.849"/>
    <line x1="209.22" y1="180.00" x2="204.49" y2="182.73" stroke-opacity="0.849"/>
    <line x1="207.45" y1="176.21" x2="202.31" y2="178.08" stroke-opacity="0.849"/>
    <line x1="206.36" y1="172.17" x2="200.99" y2="173.12" stroke-opacity="0.849"/>
    <line x1="206.00" y1="168.00" x2="200.54" y2="168.00" stroke-opacity="0.849"/>
    <line x1="206.36" y1="163.83" x2="200.99" y2="162.88" stroke-opacity="0.849"/>
    <line x1="207.45" y1="159.79" x2="202.31" y2="157.92" stroke-opacity="0.849"/>
    <line x1="209.22" y1="156.00" x2="204.49" y2="153.27" stroke-opacity="0.849"/>
    <line x1="211.61" y1="152.57" x2="207.43" y2="149.06" stroke-opacity="0.849"/>
    <line x1="214.57" y1="149.61" x2="211.06" y2="145.43" stroke-opacity="0.849"/>
    <line x1="218.00" y1="147.22" x2="215.27" y2="142.49" stroke-opacity="0.849"/>
    <line x1="221.79" y1="145.45" x2="219.92" y2="140.31" stroke-opacity="0.849"/>
    <line x1="225.83" y1="144.36" x2="224.88" y2="138.99" stroke-opacity="0.849"/>
    <line x1="230.00" y1="144.00" x2="230.00" y2="138.54" stroke-opacity="0.849"/>
    <line x1="234.17" y1="144.36" x2="235.12" y2="138.99" stroke-opacity="0.849"/>
    <line x1="238.21" y1="145.45" x2="240.08" y2="140.31" stroke-opacity="0.849"/>
    <line x1="242.00" y1="147.22" x2="244.73" y2="142.49" stroke-opacity="0.849"/>
    <line x1="245.43" y1="149.61" x2="248.94" y2="145.43" stroke-opacity="0.849"/>
    <line x1="248.39" y1="152.57" x2="252.57" y2="149.06" stroke-opacity="0.849"/>
    <line x1="250.78" y1="156.00" x2="255.51" y2="153.27" stroke-opacity="0.849"/>
    <line x1="252.55" y1="159.79" x2="257.69" y2="157.92" stroke-opacity="0.849"/>
    <line x1="253.64" y1="163.83" x2="259.01" y2="162.88" stroke-opacity="0.849"/>
    <line x1="259.35" y1="170.57" x2="266.03" y2="171.15" stroke-opacity="0.845"/>
    <line x1="258.46" y1="175.63" x2="264.93" y2="177.36" stroke-opacity="0.845"/>
    <line x1="256.70" y1="180.45" x2="262.78" y2="183.28" stroke-opacity="0.845"/>
    <line x1="254.13" y1="184.90" x2="259.63" y2="188.74" stroke-opacity="0.845"/>
    <line x1="250.83" y1="188.83" x2="255.57" y2="193.57" stroke-opacity="0.845"/>
    <line x1="246.90" y1="192.13" x2="250.74" y2="197.63" stroke-opacity="0.845"/>
    <line x1="242.45" y1="194.70" x2="245.28" y2="200.78" stroke-opacity="0.845"/>
    <line x1="237.63" y1="196.46" x2="239.36" y2="202.93" stroke-opacity="0.845"/>
    <line x1="232.57" y1="197.35" x2="233.15" y2="204.03" stroke-opacity="0.845"/>
    <line x1="227.43" y1="197.35" x2="226.85" y2="204.03" stroke-opacity="0.845"/>
    <line x1="222.37" y1="196.46" x2="220.64" y2="202.93" stroke-opacity="0.845"/>
    <line x1="217.55" y1="194.70" x2="214.72" y2="200.78" stroke-opacity="0.845"/>
    <line x1="213.10" y1="192.13" x2="209.26" y2="197.63" stroke-opacity="0.845"/>
    <line x1="209.17" y1="188.83" x2="204.43" y2="193.57" stroke-opacity="0.845"/>
    <line x1="205.87" y1="184.90" x2="200.37" y2="188.74" stroke-opacity="0.845"/>
    <line x1="203.30" y1="180.45" x2="197.22" y2="183.28" stroke-opacity="0.845"/>
    <line x1="201.54" y1="175.63" x2="195.07" y2="177.36" stroke-opacity="0.845"/>
    <line x1="200.65" y1="170.57" x2="193.97" y2="171.15" stroke-opacity="0.845"/>
    <line x1="200.65" y1="165.43" x2="193.97" y2="164.85" stroke-opacity="0.845"/>
    <line x1="201.54" y1="160.37" x2="195.07" y2="158.64" stroke-opacity="0.845"/>
    <line x1="203.30" y1="155.55" x2="197.22" y2="152.72" stroke-opacity="0.845"/>
    <line x1="205.87" y1="151.10" x2="200.37" y2="147.26" stroke-opacity="0.845"/>
    <line x1="209.17" y1="147.17" x2="204.43" y2="142.43" stroke-opacity="0.845"/>
    <line x1="213.10" y1="143.87" x2="209.26" y2="138.37" stroke-opacity="0.845"/>
    <line x1="217.55" y1="141.30" x2="214.72" y2="135.22" stroke-opacity="0.845"/>
    <line x1="222.37" y1="139.54" x2="220.64" y2="133.07" stroke-opacity="0.845"/>
    <line x1="227.43" y1="138.65" x2="226.85" y2="131.97" stroke-opacity="0.845"/>
    <line x1="232.57" y1="138.65" x2="233.15" y2="131.97" stroke-opacity="0.845"/>
    <line x1="237.63" y1="139.54" x2="239.36" y2="133.07" stroke-opacity="0.845"/>
    <line x1="242.45" y1="141.30" x2="245.28" y2="135.22" stroke-opacity="0.845"/>
    <line x1="246.90" y1="143.87" x2="250.74" y2="138.37" stroke-opacity="0.845"/>
    <line x1="250.83" y1="147.17" x2="255.57" y2="142.43" stroke-opacity="0.845"/>
    <line x1="254.13" y1="151.10" x2="259.63" y2="147.26" stroke-opacity="0.845"/>
    <line x1="256.70" y1="155.55" x2="262.78" y2="152.72" stroke-opacity="0.845"/>
    <line x1="258.46" y1="160.37" x2="264.93" y2="158.64" stroke-opacity="0.845"/>
    <line x1="259.35" y1="165.43" x2="266.03" y2="164.85" stroke-opacity="0.845"/>
    <line x1="266.17" y1="168.00" x2="274.40" y2="168.00" stroke-opacity="0.839"/>
    <line x1="265.62" y1="174.28" x2="273.72" y2="175.71" stroke-opacity="0.839"/>
    <line x1="263.99" y1="180.37" x2="271.72" y2="183.19" stroke-opacity="0.839"/>
    <line x1="261.32" y1="186.08" x2="268.45" y2="190.20" stroke-opacity="0.839"/>
    <line x1="257.71" y1="191.25" x2="264.01" y2="196.54" stroke-opacity="0.839"/>
    <line x1="253.25" y1="195.71" x2="258.54" y2="202.01" stroke-opacity="0.839"/>
    <line x1="248.08" y1="199.32" x2="252.20" y2="206.45" stroke-opacity="0.839"/>
    <line x1="242.37" y1="201.99" x2="245.19" y2="209.72" stroke-opacity="0.839"/>
    <line x1="236.28" y1="203.62" x2="237.71" y2="211.72" stroke-opacity="0.839"/>
    <line x1="230.00" y1="204.17" x2="230.00" y2="212.40" stroke-opacity="0.839"/>
    <line x1="223.72" y1="203.62" x2="222.29" y2="211.72" stroke-opacity="0.839"/>
    <line x1="217.63" y1="201.99" x2="214.81" y2="209.72" stroke-opacity="0.839"/>
    <line x1="211.92" y1="199.32" x2="207.80" y2="206.45" stroke-opacity="0.839"/>
    <line x1="206.75" y1="195.71" x2="201.46" y2="202.01" stroke-opacity="0.839"/>
    <line x1="202.29" y1="191.25" x2="195.99" y2="196.54" stroke-opacity="0.839"/>
    <line x1="198.68" y1="186.08" x2="191.55" y2="190.20" stroke-opacity="0.839"/>
    <line x1="196.01" y1="180.37" x2="188.28" y2="183.19" stroke-opacity="0.839"/>
    <line x1="194.38" y1="174.28" x2="186.28" y2="175.71" stroke-opacity="0.839"/>
    <line x1="193.83" y1="168.00" x2="185.60" y2="168.00" stroke-opacity="0.839"/>
    <line x1="194.38" y1="161.72" x2="186.28" y2="160.29" stroke-opacity="0.839"/>
    <line x1="196.01" y1="155.63" x2="188.28" y2="152.81" stroke-opacity="0.839"/>
    <line x1="198.68" y1="149.92" x2="191.55" y2="145.80" stroke-opacity="0.839"/>
    <line x1="202.29" y1="144.75" x2="195.99" y2="139.46" stroke-opacity="0.839"/>
    <line x1="206.75" y1="140.29" x2="201.46" y2="133.99" stroke-opacity="0.839"/>
    <line x1="211.92" y1="136.68" x2="207.80" y2="129.55" stroke-opacity="0.839"/>
    <line x1="217.63" y1="134.01" x2="214.81" y2="126.28" stroke-opacity="0.839"/>
    <line x1="223.72" y1="132.38" x2="222.29" y2="124.28" stroke-opacity="0.839"/>
    <line x1="230.00" y1="131.83" x2="230.00" y2="123.60" stroke-opacity="0.839"/>
    <line x1="236.28" y1="132.38" x2="237.71" y2="124.28" stroke-opacity="0.839"/>
    <line x1="242.37" y1="134.01" x2="245.19" y2="126.28" stroke-opacity="0.839"/>
    <line x1="248.08" y1="136.68" x2="252.20" y2="129.55" stroke-opacity="0.839"/>
    <line x1="253.25" y1="140.29" x2="258.54" y2="133.99" stroke-opacity="0.839"/>
    <line x1="257.71" y1="144.75" x2="264.01" y2="139.46" stroke-opacity="0.839"/>
    <line x1="261.32" y1="149.92" x2="268.45" y2="145.80" stroke-opacity="0.839"/>
    <line x1="263.99" y1="155.63" x2="271.72" y2="152.81" stroke-opacity="0.839"/>
    <line x1="265.62" y1="161.72" x2="273.72" y2="160.29" stroke-opacity="0.839"/>
    <line x1="274.23" y1="171.87" x2="284.30" y2="172.75" stroke-opacity="0.832"/>
    <line x1="272.89" y1="179.49" x2="282.65" y2="182.11" stroke-opacity="0.832"/>
    <line x1="270.24" y1="186.76" x2="279.40" y2="191.03" stroke-opacity="0.832"/>
    <line x1="266.37" y1="193.47" x2="274.65" y2="199.26" stroke-opacity="0.832"/>
    <line x1="261.39" y1="199.39" x2="268.54" y2="206.54" stroke-opacity="0.832"/>
    <line x1="255.47" y1="204.37" x2="261.26" y2="212.65" stroke-opacity="0.832"/>
    <line x1="248.76" y1="208.24" x2="253.03" y2="217.40" stroke-opacity="0.832"/>
    <line x1="241.49" y1="210.89" x2="244.11" y2="220.65" stroke-opacity="0.832"/>
    <line x1="233.87" y1="212.23" x2="234.75" y2="222.30" stroke-opacity="0.832"/>
    <line x1="226.13" y1="212.23" x2="225.25" y2="222.30" stroke-opacity="0.832"/>
    <line x1="218.51" y1="210.89" x2="215.89" y2="220.65" stroke-opacity="0.832"/>
    <line x1="211.24" y1="208.24" x2="206.97" y2="217.40" stroke-opacity="0.832"/>
    <line x1="204.53" y1="204.37" x2="198.74" y2="212.65" stroke-opacity="0.832"/>
    <line x1="198.61" y1="199.39" x2="191.46" y2="206.54" stroke-opacity="0.832"/>
    <line x1="193.63" y1="193.47" x2="185.35" y2="199.26" stroke-opacity="0.832"/>
    <line x1="189.76" y1="186.76" x2="180.60" y2="191.03" stroke-opacity="0.832"/>
    <line x1="187.11" y1="179.49" x2="177.35" y2="182.11" stroke-opacity="0.832"/>
    <line x1="185.77" y1="171.87" x2="175.70" y2="172.75" stroke-opacity="0.832"/>
    <line x1="185.77" y1="164.13" x2="175.70" y2="163.25" stroke-opacity="0.832"/>
    <line x1="187.11" y1="156.51" x2="177.35" y2="153.89" stroke-opacity="0.832"/>
    <line x1="189.76" y1="149.24" x2="180.60" y2="144.97" stroke-opacity="0.832"/>
    <line x1="193.63" y1="142.53" x2="185.35" y2="136.74" stroke-opacity="0.832"/>
    <line x1="198.61" y1="136.61" x2="191.46" y2="129.46" stroke-opacity="0.832"/>
    <line x1="204.53" y1="131.63" x2="198.74" y2="123.35" stroke-opacity="0.832"/>
    <line x1="211.24" y1="127.76" x2="206.97" y2="118.60" stroke-opacity="0.832"/>
    <line x1="218.51" y1="125.11" x2="215.89" y2="115.35" stroke-opacity="0.832"/>
    <line x1="226.13" y1="123.77" x2="225.25" y2="113.70" stroke-opacity="0.832"/>
    <line x1="233.87" y1="123.77" x2="234.75" y2="113.70" stroke-opacity="0.832"/>
    <line x1="241.49" y1="125.11" x2="244.11" y2="115.35" stroke-opacity="0.832"/>
    <line x1="248.76" y1="127.76" x2="253.03" y2="118.60" stroke-opacity="0.832"/>
    <line x1="255.47" y1="131.63" x2="261.26" y2="123.35" stroke-opacity="0.832"/>
    <line x1="261.39" y1="136.61" x2="268.54" y2="129.46" stroke-opacity="0.832"/>
    <line x1="266.37" y1="142.53" x2="274.65" y2="136.74" stroke-opacity="0.832"/>
    <line x1="270.24" y1="149.24" x2="279.40" y2="144.97" stroke-opacity="0.832"/>
    <line x1="272.89" y1="156.51" x2="282.65" y2="153.89" stroke-opacity="0.832"/>
    <line x1="274.23" y1="164.13" x2="284.30" y2="163.25" stroke-opacity="0.832"/>
    <line x1="284.50" y1="168.00" x2="296.91" y2="168.00" stroke-opacity="0.822"/>
    <line x1="283.68" y1="177.46" x2="295.89" y2="179.62" stroke-opacity="0.822"/>
    <line x1="281.22" y1="186.64" x2="292.87" y2="190.88" stroke-opacity="0.822"/>
    <line x1="277.20" y1="195.25" x2="287.94" y2="201.45" stroke-opacity="0.822"/>
    <line x1="271.75" y1="203.03" x2="281.25" y2="211.01" stroke-opacity="0.822"/>
    <line x1="265.03" y1="209.75" x2="273.01" y2="219.25" stroke-opacity="0.822"/>
    <line x1="257.25" y1="215.20" x2="263.45" y2="225.94" stroke-opacity="0.822"/>
    <line x1="248.64" y1="219.22" x2="252.88" y2="230.87" stroke-opacity="0.822"/>
    <line x1="239.46" y1="221.68" x2="241.62" y2="233.89" stroke-opacity="0.822"/>
    <line x1="230.00" y1="222.50" x2="230.00" y2="234.91" stroke-opacity="0.822"/>
    <line x1="220.54" y1="221.68" x2="218.38" y2="233.89" stroke-opacity="0.822"/>
    <line x1="211.36" y1="219.22" x2="207.12" y2="230.87" stroke-opacity="0.822"/>
    <line x1="202.75" y1="215.20" x2="196.55" y2="225.94" stroke-opacity="0.822"/>
    <line x1="194.97" y1="209.75" x2="186.99" y2="219.25" stroke-opacity="0.822"/>
    <line x1="188.25" y1="203.03" x2="178.75" y2="211.01" stroke-opacity="0.822"/>
    <line x1="182.80" y1="195.25" x2="172.06" y2="201.45" stroke-opacity="0.822"/>
    <line x1="178.78" y1="186.64" x2="167.13" y2="190.88" stroke-opacity="0.822"/>
    <line x1="176.32" y1="177.46" x2="164.11" y2="179.62" stroke-opacity="0.822"/>
    <line x1="175.50" y1="168.00" x2="163.09" y2="168.00" stroke-opacity="0.822"/>
    <line x1="176.32" y1="158.54" x2="164.11" y2="156.38" stroke-opacity="0.822"/>
    <line x1="178.78" y1="149.36" x2="167.13" y2="145.12" stroke-opacity="0.822"/>
    <line x1="182.80" y1="140.75" x2="172.06" y2="134.55" stroke-opacity="0.822"/>
    <line x1="188.25" y1="132.97" x2="178.75" y2="124.99" stroke-opacity="0.822"/>
    <line x1="194.97" y1="126.25" x2="186.99" y2="116.75" stroke-opacity="0.822"/>
    <line x1="202.75" y1="120.80" x2="196.55" y2="110.06" stroke-opacity="0.822"/>
    <line x1="211.36" y1="116.78" x2="207.12" y2="105.13" stroke-opacity="0.822"/>
    <line x1="220.54" y1="114.32" x2="218.38" y2="102.11" stroke-opacity="0.822"/>
    <line x1="230.00" y1="113.50" x2="230.00" y2="101.09" stroke-opacity="0.822"/>
    <line x1="239.46" y1="114.32" x2="241.62" y2="102.11" stroke-opacity="0.822"/>
    <line x1="248.64" y1="116.78" x2="252.88" y2="105.13" stroke-opacity="0.822"/>
    <line x1="257.25" y1="120.80" x2="263.45" y2="110.06" stroke-opacity="0.822"/>
    <line x1="265.03" y1="126.25" x2="273.01" y2="116.75" stroke-opacity="0.822"/>
    <line x1="271.75" y1="132.97" x2="281.25" y2="124.99" stroke-opacity="0.822"/>
    <line x1="277.20" y1="140.75" x2="287.94" y2="134.55" stroke-opacity="0.822"/>
    <line x1="281.22" y1="149.36" x2="292.87" y2="145.12" stroke-opacity="0.822"/>
    <line x1="283.68" y1="158.54" x2="295.89" y2="156.38" stroke-opacity="0.822"/>
    <line x1="296.65" y1="173.83" x2="311.82" y2="175.16" stroke-opacity="0.810"/>
    <line x1="294.63" y1="185.32" x2="309.34" y2="189.26" stroke-opacity="0.810"/>
    <line x1="290.64" y1="196.28" x2="304.44" y2="202.71" stroke-opacity="0.810"/>
    <line x1="284.81" y1="206.38" x2="297.28" y2="215.11" stroke-opacity="0.810"/>
    <line x1="277.31" y1="215.31" x2="288.08" y2="226.08" stroke-opacity="0.810"/>
    <line x1="268.38" y1="222.81" x2="277.11" y2="235.28" stroke-opacity="0.810"/>
    <line x1="258.28" y1="228.64" x2="264.71" y2="242.44" stroke-opacity="0.810"/>
    <line x1="247.32" y1="232.63" x2="251.26" y2="247.34" stroke-opacity="0.810"/>
    <line x1="235.83" y1="234.65" x2="237.16" y2="249.82" stroke-opacity="0.810"/>
    <line x1="224.17" y1="234.65" x2="222.84" y2="249.82" stroke-opacity="0.810"/>
    <line x1="212.68" y1="232.63" x2="208.74" y2="247.34" stroke-opacity="0.810"/>
    <line x1="201.72" y1="228.64" x2="195.29" y2="242.44" stroke-opacity="0.810"/>
    <line x1="191.62" y1="222.81" x2="182.89" y2="235.28" stroke-opacity="0.810"/>
    <line x1="182.69" y1="215.31" x2="171.92" y2="226.08" stroke-opacity="0.810"/>
    <line x1="175.19" y1="206.38" x2="162.72" y2="215.11" stroke-opacity="0.810"/>
    <line x1="169.36" y1="196.28" x2="155.56" y2="202.71" stroke-opacity="0.810"/>
    <line x1="165.37" y1="185.32" x2="150.66" y2="189.26" stroke-opacity="0.810"/>
    <line x1="163.35" y1="173.83" x2="148.18" y2="175.16" stroke-opacity="0.810"/>
    <line x1="163.35" y1="162.17" x2="148.18" y2="160.84" stroke-opacity="0.810"/>
    <line x1="165.37" y1="150.68" x2="150.66" y2="146.74" stroke-opacity="0.810"/>
    <line x1="169.36" y1="139.72" x2="155.56" y2="133.29" stroke-opacity="0.810"/>
    <line x1="175.19" y1="129.62" x2="162.72" y2="120.89" stroke-opacity="0.810"/>
    <line x1="182.69" y1="120.69" x2="171.92" y2="109.92" stroke-opacity="0.810"/>
    <line x1="191.62" y1="113.19" x2="182.89" y2="100.72" stroke-opacity="0.810"/>
    <line x1="201.72" y1="107.36" x2="195.29" y2="93.56" stroke-opacity="0.810"/>
    <line x1="212.68" y1="103.37" x2="208.74" y2="88.66" stroke-opacity="0.810"/>
    <line x1="224.17" y1="101.35" x2="222.84" y2="86.18" stroke-opacity="0.810"/>
    <line x1="235.83" y1="101.35" x2="237.16" y2="86.18" stroke-opacity="0.810"/>
    <line x1="247.32" y1="103.37" x2="251.26" y2="88.66" stroke-opacity="0.810"/>
    <line x1="258.28" y1="107.36" x2="264.71" y2="93.56" stroke-opacity="0.810"/>
    <line x1="268.38" y1="113.19" x2="277.11" y2="100.72" stroke-opacity="0.810"/>
    <line x1="277.31" y1="120.69" x2="288.08" y2="109.92" stroke-opacity="0.810"/>
    <line x1="284.81" y1="129.62" x2="297.28" y2="120.89" stroke-opacity="0.810"/>
    <line x1="290.64" y1="139.72" x2="304.44" y2="133.29" stroke-opacity="0.810"/>
    <line x1="294.63" y1="150.68" x2="309.34" y2="146.74" stroke-opacity="0.810"/>
    <line x1="296.65" y1="162.17" x2="311.82" y2="160.84" stroke-opacity="0.810"/>
    <line x1="312.13" y1="168.00" x2="330.83" y2="168.00" stroke-opacity="0.795"/>
    <line x1="310.89" y1="182.26" x2="329.30" y2="185.51" stroke-opacity="0.795"/>
    <line x1="307.18" y1="196.09" x2="324.75" y2="202.49" stroke-opacity="0.795"/>
    <line x1="301.13" y1="209.07" x2="317.32" y2="218.41" stroke-opacity="0.795"/>
    <line x1="292.92" y1="220.80" x2="307.24" y2="232.81" stroke-opacity="0.795"/>
    <line x1="282.80" y1="230.92" x2="294.81" y2="245.24" stroke-opacity="0.795"/>
    <line x1="271.07" y1="239.13" x2="280.41" y2="255.32" stroke-opacity="0.795"/>
    <line x1="258.09" y1="245.18" x2="264.49" y2="262.75" stroke-opacity="0.795"/>
    <line x1="244.26" y1="248.89" x2="247.51" y2="267.30" stroke-opacity="0.795"/>
    <line x1="230.00" y1="250.13" x2="230.00" y2="268.83" stroke-opacity="0.795"/>
    <line x1="215.74" y1="248.89" x2="212.49" y2="267.30" stroke-opacity="0.795"/>
    <line x1="201.91" y1="245.18" x2="195.51" y2="262.75" stroke-opacity="0.795"/>
    <line x1="188.93" y1="239.13" x2="179.59" y2="255.32" stroke-opacity="0.795"/>
    <line x1="177.20" y1="230.92" x2="165.19" y2="245.24" stroke-opacity="0.795"/>
    <line x1="167.08" y1="220.80" x2="152.76" y2="232.81" stroke-opacity="0.795"/>
    <line x1="158.87" y1="209.07" x2="142.68" y2="218.41" stroke-opacity="0.795"/>
    <line x1="152.82" y1="196.09" x2="135.25" y2="202.49" stroke-opacity="0.795"/>
    <line x1="149.11" y1="182.26" x2="130.70" y2="185.51" stroke-opacity="0.795"/>
    <line x1="147.87" y1="168.00" x2="129.17" y2="168.00" stroke-opacity="0.795"/>
    <line x1="149.11" y1="153.74" x2="130.70" y2="150.49" stroke-opacity="0.795"/>
    <line x1="152.82" y1="139.91" x2="135.25" y2="133.51" stroke-opacity="0.795"/>
    <line x1="158.87" y1="126.93" x2="142.68" y2="117.59" stroke-opacity="0.795"/>
    <line x1="167.08" y1="115.20" x2="152.76" y2="103.19" stroke-opacity="0.795"/>
    <line x1="177.20" y1="105.08" x2="165.19" y2="90.76" stroke-opacity="0.795"/>
    <line x1="188.93" y1="96.87" x2="179.59" y2="80.68" stroke-opacity="0.795"/>
    <line x1="201.91" y1="90.82" x2="195.51" y2="73.25" stroke-opacity="0.795"/>
    <line x1="215.74" y1="87.11" x2="212.49" y2="68.70" stroke-opacity="0.795"/>
    <line x1="230.00" y1="85.87" x2="230.00" y2="67.17" stroke-opacity="0.795"/>
    <line x1="244.26" y1="87.11" x2="247.51" y2="68.70" stroke-opacity="0.795"/>
    <line x1="258.09" y1="90.82" x2="264.49" y2="73.25" stroke-opacity="0.795"/>
    <line x1="271.07" y1="96.87" x2="280.41" y2="80.68" stroke-opacity="0.795"/>
    <line x1="282.80" y1="105.08" x2="294.81" y2="90.76" stroke-opacity="0.795"/>
    <line x1="292.92" y1="115.20" x2="307.24" y2="103.19" stroke-opacity="0.795"/>
    <line x1="301.13" y1="126.93" x2="317.32" y2="117.59" stroke-opacity="0.795"/>
    <line x1="307.18" y1="139.91" x2="324.75" y2="133.51" stroke-opacity="0.795"/>
    <line x1="310.89" y1="153.74" x2="329.30" y2="150.49" stroke-opacity="0.795"/>
    <line x1="330.44" y1="176.79" x2="353.30" y2="178.79" stroke-opacity="0.774"/>
    <line x1="327.39" y1="194.10" x2="349.56" y2="200.04" stroke-opacity="0.774"/>
    <line x1="321.38" y1="210.61" x2="342.18" y2="220.31" stroke-opacity="0.774"/>
    <line x1="312.59" y1="225.83" x2="331.39" y2="238.99" stroke-opacity="0.774"/>
    <line x1="301.30" y1="239.30" x2="317.52" y2="255.52" stroke-opacity="0.774"/>
    <line x1="287.83" y1="250.59" x2="300.99" y2="269.39" stroke-opacity="0.774"/>
    <line x1="272.61" y1="259.38" x2="282.31" y2="280.18" stroke-opacity="0.774"/>
    <line x1="256.10" y1="265.39" x2="262.04" y2="287.56" stroke-opacity="0.774"/>
    <line x1="238.79" y1="268.44" x2="240.79" y2="291.30" stroke-opacity="0.774"/>
    <line x1="221.21" y1="268.44" x2="219.21" y2="291.30" stroke-opacity="0.774"/>
    <line x1="203.90" y1="265.39" x2="197.96" y2="287.56" stroke-opacity="0.774"/>
    <line x1="187.39" y1="259.38" x2="177.69" y2="280.18" stroke-opacity="0.774"/>
    <line x1="172.17" y1="250.59" x2="159.01" y2="269.39" stroke-opacity="0.774"/>
    <line x1="158.70" y1="239.30" x2="142.48" y2="255.52" stroke-opacity="0.774"/>
    <line x1="147.41" y1="225.83" x2="128.61" y2="238.99" stroke-opacity="0.774"/>
    <line x1="138.62" y1="210.61" x2="117.82" y2="220.31" stroke-opacity="0.774"/>
    <line x1="132.61" y1="194.10" x2="110.44" y2="200.04" stroke-opacity="0.774"/>
    <line x1="129.56" y1="176.79" x2="106.70" y2="178.79" stroke-opacity="0.774"/>
    <line x1="129.56" y1="159.21" x2="106.70" y2="157.21" stroke-opacity="0.774"/>
    <line x1="132.61" y1="141.90" x2="110.44" y2="135.96" stroke-opacity="0.774"/>
    <line x1="138.62" y1="125.39" x2="117.82" y2="115.69" stroke-opacity="0.774"/>
    <line x1="147.41" y1="110.17" x2="128.61" y2="97.01" stroke-opacity="0.774"/>
    <line x1="158.70" y1="96.70" x2="142.48" y2="80.48" stroke-opacity="0.774"/>
    <line x1="172.17" y1="85.41" x2="159.01" y2="66.61" stroke-opacity="0.774"/>
    <line x1="187.39" y1="76.62" x2="177.69" y2="55.82" stroke-opacity="0.774"/>
    <line x1="203.90" y1="70.61" x2="197.96" y2="48.44" stroke-opacity="0.774"/>
    <line x1="221.21" y1="67.56" x2="219.21" y2="44.70" stroke-opacity="0.774"/>
    <line x1="238.79" y1="67.56" x2="240.79" y2="44.70" stroke-opacity="0.774"/>
    <line x1="256.10" y1="70.61" x2="262.04" y2="48.44" stroke-opacity="0.774"/>
    <line x1="272.61" y1="76.62" x2="282.31" y2="55.82" stroke-opacity="0.774"/>
    <line x1="287.83" y1="85.41" x2="300.99" y2="66.61" stroke-opacity="0.774"/>
    <line x1="301.30" y1="96.70" x2="317.52" y2="80.48" stroke-opacity="0.774"/>
    <line x1="312.59" y1="110.17" x2="331.39" y2="97.01" stroke-opacity="0.774"/>
    <line x1="321.38" y1="125.39" x2="342.18" y2="115.69" stroke-opacity="0.774"/>
    <line x1="327.39" y1="141.90" x2="349.56" y2="135.96" stroke-opacity="0.774"/>
    <line x1="330.44" y1="159.21" x2="353.30" y2="157.21" stroke-opacity="0.774"/>
    <line x1="353.78" y1="168.00" x2="381.95" y2="168.00" stroke-opacity="0.749"/>
    <line x1="351.89" y1="189.49" x2="379.64" y2="194.38" stroke-opacity="0.749"/>
    <line x1="346.31" y1="210.33" x2="372.78" y2="219.97" stroke-opacity="0.749"/>
    <line x1="337.19" y1="229.89" x2="361.59" y2="243.97" stroke-opacity="0.749"/>
    <line x1="324.82" y1="247.56" x2="346.40" y2="265.67" stroke-opacity="0.749"/>
    <line x1="309.56" y1="262.82" x2="327.67" y2="284.40" stroke-opacity="0.749"/>
    <line x1="291.89" y1="275.19" x2="305.97" y2="299.59" stroke-opacity="0.749"/>
    <line x1="272.33" y1="284.31" x2="281.97" y2="310.78" stroke-opacity="0.749"/>
    <line x1="251.49" y1="289.89" x2="256.38" y2="317.64" stroke-opacity="0.749"/>
    <line x1="230.00" y1="291.78" x2="230.00" y2="319.95" stroke-opacity="0.749"/>
    <line x1="208.51" y1="289.89" x2="203.62" y2="317.64" stroke-opacity="0.749"/>
    <line x1="187.67" y1="284.31" x2="178.03" y2="310.78" stroke-opacity="0.749"/>
    <line x1="168.11" y1="275.19" x2="154.03" y2="299.59" stroke-opacity="0.749"/>
    <line x1="150.44" y1="262.82" x2="132.33" y2="284.40" stroke-opacity="0.749"/>
    <line x1="135.18" y1="247.56" x2="113.60" y2="265.67" stroke-opacity="0.749"/>
    <line x1="122.81" y1="229.89" x2="98.41" y2="243.97" stroke-opacity="0.749"/>
    <line x1="113.69" y1="210.33" x2="87.22" y2="219.97" stroke-opacity="0.749"/>
    <line x1="108.11" y1="189.49" x2="80.36" y2="194.38" stroke-opacity="0.749"/>
    <line x1="106.22" y1="168.00" x2="78.05" y2="168.00" stroke-opacity="0.749"/>
    <line x1="108.11" y1="146.51" x2="80.36" y2="141.62" stroke-opacity="0.749"/>
    <line x1="113.69" y1="125.67" x2="87.22" y2="116.03" stroke-opacity="0.749"/>
    <line x1="122.81" y1="106.11" x2="98.41" y2="92.03" stroke-opacity="0.749"/>
    <line x1="135.18" y1="88.44" x2="113.60" y2="70.33" stroke-opacity="0.749"/>
    <line x1="150.44" y1="73.18" x2="132.33" y2="51.60" stroke-opacity="0.749"/>
    <line x1="168.11" y1="60.81" x2="154.03" y2="36.41" stroke-opacity="0.749"/>
    <line x1="187.67" y1="51.69" x2="178.03" y2="25.22" stroke-opacity="0.749"/>
    <line x1="208.51" y1="46.11" x2="203.62" y2="18.36" stroke-opacity="0.749"/>
    <line x1="230.00" y1="44.22" x2="230.00" y2="16.05" stroke-opacity="0.749"/>
    <line x1="251.49" y1="46.11" x2="256.38" y2="18.36" stroke-opacity="0.749"/>
    <line x1="272.33" y1="51.69" x2="281.97" y2="25.22" stroke-opacity="0.749"/>
    <line x1="291.89" y1="60.81" x2="305.97" y2="36.41" stroke-opacity="0.749"/>
    <line x1="309.56" y1="73.18" x2="327.67" y2="51.60" stroke-opacity="0.749"/>
    <line x1="324.82" y1="88.44" x2="346.40" y2="70.33" stroke-opacity="0.749"/>
    <line x1="337.19" y1="106.11" x2="361.59" y2="92.03" stroke-opacity="0.749"/>
    <line x1="346.31" y1="125.67" x2="372.78" y2="116.03" stroke-opacity="0.749"/>
    <line x1="351.89" y1="146.51" x2="379.64" y2="141.62" stroke-opacity="0.749"/>
    <line x1="381.37" y1="181.24" x2="415.82" y2="184.26" stroke-opacity="0.716"/>
    <line x1="376.77" y1="207.33" x2="410.17" y2="216.28" stroke-opacity="0.716"/>
    <line x1="367.71" y1="232.21" x2="399.05" y2="246.83" stroke-opacity="0.716"/>
    <line x1="354.47" y1="255.15" x2="382.79" y2="274.99" stroke-opacity="0.716"/>
    <line x1="337.44" y1="275.44" x2="361.89" y2="299.89" stroke-opacity="0.716"/>
    <line x1="317.15" y1="292.47" x2="336.99" y2="320.79" stroke-opacity="0.716"/>
    <line x1="294.21" y1="305.71" x2="308.83" y2="337.05" stroke-opacity="0.716"/>
    <line x1="269.33" y1="314.77" x2="278.28" y2="348.17" stroke-opacity="0.716"/>
    <line x1="243.24" y1="319.37" x2="246.26" y2="353.82" stroke-opacity="0.716"/>
    <line x1="216.76" y1="319.37" x2="213.74" y2="353.82" stroke-opacity="0.716"/>
    <line x1="190.67" y1="314.77" x2="181.72" y2="348.17" stroke-opacity="0.716"/>
    <line x1="165.79" y1="305.71" x2="151.17" y2="337.05" stroke-opacity="0.716"/>
    <line x1="142.85" y1="292.47" x2="123.01" y2="320.79" stroke-opacity="0.716"/>
    <line x1="122.56" y1="275.44" x2="98.11" y2="299.89" stroke-opacity="0.716"/>
    <line x1="105.53" y1="255.15" x2="77.21" y2="274.99" stroke-opacity="0.716"/>
    <line x1="92.29" y1="232.21" x2="60.95" y2="246.83" stroke-opacity="0.716"/>
    <line x1="83.23" y1="207.33" x2="49.83" y2="216.28" stroke-opacity="0.716"/>
    <line x1="78.63" y1="181.24" x2="44.18" y2="184.26" stroke-opacity="0.716"/>
    <line x1="78.63" y1="154.76" x2="44.18" y2="151.74" stroke-opacity="0.716"/>
    <line x1="83.23" y1="128.67" x2="49.83" y2="119.72" stroke-opacity="0.716"/>
    <line x1="92.29" y1="103.79" x2="60.95" y2="89.17" stroke-opacity="0.716"/>
    <line x1="105.53" y1="80.85" x2="77.21" y2="61.01" stroke-opacity="0.716"/>
    <line x1="122.56" y1="60.56" x2="98.11" y2="36.11" stroke-opacity="0.716"/>
    <line x1="142.85" y1="43.53" x2="123.01" y2="15.21" stroke-opacity="0.716"/>
    <line x1="165.79" y1="30.29" x2="151.17" y2="-1.05" stroke-opacity="0.716"/>
    <line x1="190.67" y1="21.23" x2="181.72" y2="-12.17" stroke-opacity="0.716"/>
    <line x1="216.76" y1="16.63" x2="213.74" y2="-17.82" stroke-opacity="0.716"/>
    <line x1="243.24" y1="16.63" x2="246.26" y2="-17.82" stroke-opacity="0.716"/>
    <line x1="269.33" y1="21.23" x2="278.28" y2="-12.17" stroke-opacity="0.716"/>
    <line x1="294.21" y1="30.29" x2="308.83" y2="-1.05" stroke-opacity="0.716"/>
    <line x1="317.15" y1="43.53" x2="336.99" y2="15.21" stroke-opacity="0.716"/>
    <line x1="337.44" y1="60.56" x2="361.89" y2="36.11" stroke-opacity="0.716"/>
    <line x1="354.47" y1="80.85" x2="382.79" y2="61.01" stroke-opacity="0.716"/>
    <line x1="367.71" y1="103.79" x2="399.05" y2="89.17" stroke-opacity="0.716"/>
    <line x1="376.77" y1="128.67" x2="410.17" y2="119.72" stroke-opacity="0.716"/>
    <line x1="381.37" y1="154.76" x2="415.82" y2="151.74" stroke-opacity="0.716"/>
    <line x1="416.53" y1="168.00" x2="458.98" y2="168.00" stroke-opacity="0.674"/>
    <line x1="413.69" y1="200.39" x2="455.50" y2="207.76" stroke-opacity="0.674"/>
    <line x1="405.28" y1="231.80" x2="445.17" y2="246.31" stroke-opacity="0.674"/>
    <line x1="391.54" y1="261.26" x2="428.30" y2="282.49" stroke-opacity="0.674"/>
    <line x1="372.89" y1="287.90" x2="405.41" y2="315.18" stroke-opacity="0.674"/>
    <line x1="349.90" y1="310.89" x2="377.18" y2="343.41" stroke-opacity="0.674"/>
    <line x1="323.26" y1="329.54" x2="344.49" y2="366.30" stroke-opacity="0.674"/>
    <line x1="293.80" y1="343.28" x2="308.31" y2="383.17" stroke-opacity="0.674"/>
    <line x1="262.39" y1="351.69" x2="269.76" y2="393.50" stroke-opacity="0.674"/>
    <line x1="230.00" y1="354.53" x2="230.00" y2="396.98" stroke-opacity="0.674"/>
    <line x1="197.61" y1="351.69" x2="190.24" y2="393.50" stroke-opacity="0.674"/>
    <line x1="166.20" y1="343.28" x2="151.69" y2="383.17" stroke-opacity="0.674"/>
    <line x1="136.74" y1="329.54" x2="115.51" y2="366.30" stroke-opacity="0.674"/>
    <line x1="110.10" y1="310.89" x2="82.82" y2="343.41" stroke-opacity="0.674"/>
    <line x1="87.11" y1="287.90" x2="54.59" y2="315.18" stroke-opacity="0.674"/>
    <line x1="68.46" y1="261.26" x2="31.70" y2="282.49" stroke-opacity="0.674"/>
    <line x1="54.72" y1="231.80" x2="14.83" y2="246.31" stroke-opacity="0.674"/>
    <line x1="46.31" y1="200.39" x2="4.50" y2="207.76" stroke-opacity="0.674"/>
    <line x1="43.47" y1="168.00" x2="1.02" y2="168.00" stroke-opacity="0.674"/>
    <line x1="46.31" y1="135.61" x2="4.50" y2="128.24" stroke-opacity="0.674"/>
    <line x1="54.72" y1="104.20" x2="14.83" y2="89.69" stroke-opacity="0.674"/>
    <line x1="68.46" y1="74.74" x2="31.70" y2="53.51" stroke-opacity="0.674"/>
    <line x1="87.11" y1="48.10" x2="54.59" y2="20.82" stroke-opacity="0.674"/>
    <line x1="110.10" y1="25.11" x2="82.82" y2="-7.41" stroke-opacity="0.674"/>
    <line x1="136.74" y1="6.46" x2="115.51" y2="-30.30" stroke-opacity="0.674"/>
    <line x1="166.20" y1="-7.28" x2="151.69" y2="-47.17" stroke-opacity="0.674"/>
    <line x1="197.61" y1="-15.69" x2="190.24" y2="-57.50" stroke-opacity="0.674"/>
    <line x1="230.00" y1="-18.53" x2="230.00" y2="-60.98" stroke-opacity="0.674"/>
    <line x1="262.39" y1="-15.69" x2="269.76" y2="-57.50" stroke-opacity="0.674"/>
    <line x1="293.80" y1="-7.28" x2="308.31" y2="-47.17" stroke-opacity="0.674"/>
    <line x1="323.26" y1="6.46" x2="344.49" y2="-30.30" stroke-opacity="0.674"/>
    <line x1="349.90" y1="25.11" x2="377.18" y2="-7.41" stroke-opacity="0.674"/>
    <line x1="372.89" y1="48.10" x2="405.41" y2="20.82" stroke-opacity="0.674"/>
    <line x1="391.54" y1="74.74" x2="428.30" y2="53.51" stroke-opacity="0.674"/>
    <line x1="405.28" y1="104.20" x2="445.17" y2="89.69" stroke-opacity="0.674"/>
    <line x1="413.69" y1="135.61" x2="455.50" y2="128.24" stroke-opacity="0.674"/>
    <line x1="458.11" y1="187.96" x2="510.02" y2="192.50" stroke-opacity="0.622"/>
    <line x1="451.17" y1="227.26" x2="501.51" y2="240.75" stroke-opacity="0.622"/>
    <line x1="437.52" y1="264.77" x2="484.75" y2="286.79" stroke-opacity="0.622"/>
    <line x1="417.57" y1="299.34" x2="460.26" y2="329.23" stroke-opacity="0.622"/>
    <line x1="391.91" y1="329.91" x2="428.76" y2="366.76" stroke-opacity="0.622"/>
    <line x1="361.34" y1="355.57" x2="391.23" y2="398.26" stroke-opacity="0.622"/>
    <line x1="326.77" y1="375.52" x2="348.79" y2="422.75" stroke-opacity="0.622"/>
    <line x1="289.26" y1="389.17" x2="302.75" y2="439.51" stroke-opacity="0.622"/>
    <line x1="249.96" y1="396.11" x2="254.50" y2="448.02" stroke-opacity="0.622"/>
    <line x1="210.04" y1="396.11" x2="205.50" y2="448.02" stroke-opacity="0.622"/>
    <line x1="170.74" y1="389.17" x2="157.25" y2="439.51" stroke-opacity="0.622"/>
    <line x1="133.23" y1="375.52" x2="111.21" y2="422.75" stroke-opacity="0.622"/>
    <line x1="98.66" y1="355.57" x2="68.77" y2="398.26" stroke-opacity="0.622"/>
    <line x1="68.09" y1="329.91" x2="31.24" y2="366.76" stroke-opacity="0.622"/>
    <line x1="42.43" y1="299.34" x2="-0.26" y2="329.23" stroke-opacity="0.622"/>
    <line x1="22.48" y1="264.77" x2="-24.75" y2="286.79" stroke-opacity="0.622"/>
    <line x1="8.83" y1="227.26" x2="-41.51" y2="240.75" stroke-opacity="0.622"/>
    <line x1="1.89" y1="187.96" x2="-50.02" y2="192.50" stroke-opacity="0.622"/>
    <line x1="1.89" y1="148.04" x2="-50.02" y2="143.50" stroke-opacity="0.622"/>
    <line x1="8.83" y1="108.74" x2="-41.51" y2="95.25" stroke-opacity="0.622"/>
    <line x1="22.48" y1="71.23" x2="-24.75" y2="49.21" stroke-opacity="0.622"/>
    <line x1="42.43" y1="36.66" x2="-0.26" y2="6.77" stroke-opacity="0.622"/>
    <line x1="68.09" y1="6.09" x2="31.24" y2="-30.76" stroke-opacity="0.622"/>
    <line x1="98.66" y1="-19.57" x2="68.77" y2="-62.26" stroke-opacity="0.622"/>
    <line x1="133.23" y1="-39.52" x2="111.21" y2="-86.75" stroke-opacity="0.622"/>
    <line x1="170.74" y1="-53.17" x2="157.25" y2="-103.51" stroke-opacity="0.622"/>
    <line x1="210.04" y1="-60.11" x2="205.50" y2="-112.02" stroke-opacity="0.622"/>
    <line x1="249.96" y1="-60.11" x2="254.50" y2="-112.02" stroke-opacity="0.622"/>
    <line x1="289.26" y1="-53.17" x2="302.75" y2="-103.51" stroke-opacity="0.622"/>
    <line x1="326.77" y1="-39.52" x2="348.79" y2="-86.75" stroke-opacity="0.622"/>
    <line x1="361.34" y1="-19.57" x2="391.23" y2="-62.26" stroke-opacity="0.622"/>
    <line x1="391.91" y1="6.09" x2="428.76" y2="-30.76" stroke-opacity="0.622"/>
    <line x1="417.57" y1="36.66" x2="460.26" y2="6.77" stroke-opacity="0.622"/>
    <line x1="437.52" y1="71.23" x2="484.75" y2="49.21" stroke-opacity="0.622"/>
    <line x1="451.17" y1="108.74" x2="501.51" y2="95.25" stroke-opacity="0.622"/>
    <line x1="458.11" y1="148.04" x2="510.02" y2="143.50" stroke-opacity="0.622"/>
    <line x1="511.09" y1="168.00" x2="575.06" y2="168.00" stroke-opacity="0.554"/>
    <line x1="506.82" y1="216.81" x2="569.82" y2="227.92" stroke-opacity="0.554"/>
    <line x1="494.14" y1="264.14" x2="554.25" y2="286.02" stroke-opacity="0.554"/>
    <line x1="473.43" y1="308.54" x2="528.83" y2="340.53" stroke-opacity="0.554"/>
    <line x1="445.33" y1="348.68" x2="494.33" y2="389.80" stroke-opacity="0.554"/>
    <line x1="410.68" y1="383.33" x2="451.80" y2="432.33" stroke-opacity="0.554"/>
    <line x1="370.54" y1="411.43" x2="402.53" y2="466.83" stroke-opacity="0.554"/>
    <line x1="326.14" y1="432.14" x2="348.02" y2="492.25" stroke-opacity="0.554"/>
    <line x1="278.81" y1="444.82" x2="289.92" y2="507.82" stroke-opacity="0.554"/>
    <line x1="230.00" y1="449.09" x2="230.00" y2="513.06" stroke-opacity="0.554"/>
    <line x1="181.19" y1="444.82" x2="170.08" y2="507.82" stroke-opacity="0.554"/>
    <line x1="133.86" y1="432.14" x2="111.98" y2="492.25" stroke-opacity="0.554"/>
    <line x1="89.46" y1="411.43" x2="57.47" y2="466.83" stroke-opacity="0.554"/>
    <line x1="49.32" y1="383.33" x2="8.20" y2="432.33" stroke-opacity="0.554"/>
    <line x1="14.67" y1="348.68" x2="-34.33" y2="389.80" stroke-opacity="0.554"/>
    <line x1="-13.43" y1="308.54" x2="-68.83" y2="340.53" stroke-opacity="0.554"/>
    <line x1="-34.14" y1="264.14" x2="-94.25" y2="286.02" stroke-opacity="0.554"/>
    <line x1="-46.82" y1="216.81" x2="-109.82" y2="227.92" stroke-opacity="0.554"/>
    <line x1="-51.09" y1="168.00" x2="-115.06" y2="168.00" stroke-opacity="0.554"/>
    <line x1="-46.82" y1="119.19" x2="-109.82" y2="108.08" stroke-opacity="0.554"/>
    <line x1="-34.14" y1="71.86" x2="-94.25" y2="49.98" stroke-opacity="0.554"/>
    <line x1="-13.43" y1="27.46" x2="-68.83" y2="-4.53" stroke-opacity="0.554"/>
    <line x1="14.67" y1="-12.68" x2="-34.33" y2="-53.80" stroke-opacity="0.554"/>
    <line x1="49.32" y1="-47.33" x2="8.20" y2="-96.33" stroke-opacity="0.554"/>
    <line x1="89.46" y1="-75.43" x2="57.47" y2="-130.83" stroke-opacity="0.554"/>
    <line x1="133.86" y1="-96.14" x2="111.98" y2="-156.25" stroke-opacity="0.554"/>
    <line x1="181.19" y1="-108.82" x2="170.08" y2="-171.82" stroke-opacity="0.554"/>
    <line x1="230.00" y1="-113.09" x2="230.00" y2="-177.06" stroke-opacity="0.554"/>
    <line x1="278.81" y1="-108.82" x2="289.92" y2="-171.82" stroke-opacity="0.554"/>
    <line x1="326.14" y1="-96.14" x2="348.02" y2="-156.25" stroke-opacity="0.554"/>
    <line x1="370.54" y1="-75.43" x2="402.53" y2="-130.83" stroke-opacity="0.554"/>
    <line x1="410.68" y1="-47.33" x2="451.80" y2="-96.33" stroke-opacity="0.554"/>
    <line x1="445.33" y1="-12.68" x2="494.33" y2="-53.80" stroke-opacity="0.554"/>
    <line x1="473.43" y1="27.46" x2="528.83" y2="-4.53" stroke-opacity="0.554"/>
    <line x1="494.14" y1="71.86" x2="554.25" y2="49.98" stroke-opacity="0.554"/>
    <line x1="506.82" y1="119.19" x2="569.82" y2="108.08" stroke-opacity="0.554"/>
    <line x1="573.75" y1="198.07" x2="651.98" y2="204.92" stroke-opacity="0.469"/>
    <line x1="563.30" y1="257.31" x2="639.16" y2="277.63" stroke-opacity="0.469"/>
    <line x1="542.73" y1="313.83" x2="613.91" y2="347.02" stroke-opacity="0.469"/>
    <line x1="512.66" y1="365.92" x2="576.99" y2="410.96" stroke-opacity="0.469"/>
    <line x1="474.00" y1="412.00" x2="529.53" y2="467.53" stroke-opacity="0.469"/>
    <line x1="427.92" y1="450.66" x2="472.96" y2="514.99" stroke-opacity="0.469"/>
    <line x1="375.83" y1="480.73" x2="409.02" y2="551.91" stroke-opacity="0.469"/>
    <line x1="319.31" y1="501.30" x2="339.63" y2="577.16" stroke-opacity="0.469"/>
    <line x1="260.07" y1="511.75" x2="266.92" y2="589.98" stroke-opacity="0.469"/>
    <line x1="199.93" y1="511.75" x2="193.08" y2="589.98" stroke-opacity="0.469"/>
    <line x1="140.69" y1="501.30" x2="120.37" y2="577.16" stroke-opacity="0.469"/>
    <line x1="84.17" y1="480.73" x2="50.98" y2="551.91" stroke-opacity="0.469"/>
    <line x1="32.08" y1="450.66" x2="-12.96" y2="514.99" stroke-opacity="0.469"/>
    <line x1="-14.00" y1="412.00" x2="-69.53" y2="467.53" stroke-opacity="0.469"/>
    <line x1="-52.66" y1="365.92" x2="-116.99" y2="410.96" stroke-opacity="0.469"/>
    <line x1="-82.73" y1="313.83" x2="-153.91" y2="347.02" stroke-opacity="0.469"/>
    <line x1="-103.30" y1="257.31" x2="-179.16" y2="277.63" stroke-opacity="0.469"/>
    <line x1="-113.75" y1="198.07" x2="-191.98" y2="204.92" stroke-opacity="0.469"/>
    <line x1="-113.75" y1="137.93" x2="-191.98" y2="131.08" stroke-opacity="0.469"/>
    <line x1="-103.30" y1="78.69" x2="-179.16" y2="58.37" stroke-opacity="0.469"/>
    <line x1="-82.73" y1="22.17" x2="-153.91" y2="-11.02" stroke-opacity="0.469"/>
    <line x1="-52.66" y1="-29.92" x2="-116.99" y2="-74.96" stroke-opacity="0.469"/>
    <line x1="-14.00" y1="-76.00" x2="-69.53" y2="-131.53" stroke-opacity="0.469"/>
    <line x1="32.08" y1="-114.66" x2="-12.96" y2="-178.99" stroke-opacity="0.469"/>
    <line x1="84.17" y1="-144.73" x2="50.98" y2="-215.91" stroke-opacity="0.469"/>
    <line x1="140.69" y1="-165.30" x2="120.37" y2="-241.16" stroke-opacity="0.469"/>
    <line x1="199.93" y1="-175.75" x2="193.08" y2="-253.98" stroke-opacity="0.469"/>
    <line x1="260.07" y1="-175.75" x2="266.92" y2="-253.98" stroke-opacity="0.469"/>
    <line x1="319.31" y1="-165.30" x2="339.63" y2="-241.16" stroke-opacity="0.469"/>
    <line x1="375.83" y1="-144.73" x2="409.02" y2="-215.91" stroke-opacity="0.469"/>
    <line x1="427.92" y1="-114.66" x2="472.96" y2="-178.99" stroke-opacity="0.469"/>
    <line x1="474.00" y1="-76.00" x2="529.53" y2="-131.53" stroke-opacity="0.469"/>
    <line x1="512.66" y1="-29.92" x2="576.99" y2="-74.96" stroke-opacity="0.469"/>
    <line x1="542.73" y1="22.17" x2="613.91" y2="-11.02" stroke-opacity="0.469"/>
    <line x1="563.30" y1="78.69" x2="639.16" y2="58.37" stroke-opacity="0.469"/>
    <line x1="573.75" y1="137.93" x2="651.98" y2="131.08" stroke-opacity="0.469"/>
    <line x1="653.59" y1="168.00" x2="750.00" y2="168.00" stroke-opacity="0.361"/>
    <line x1="647.16" y1="241.56" x2="742.10" y2="258.30" stroke-opacity="0.361"/>
    <line x1="628.05" y1="312.88" x2="718.64" y2="345.85" stroke-opacity="0.361"/>
    <line x1="596.84" y1="379.80" x2="680.33" y2="428.00" stroke-opacity="0.361"/>
    <line x1="554.49" y1="440.28" x2="628.34" y2="502.25" stroke-opacity="0.361"/>
    <line x1="502.28" y1="492.49" x2="564.25" y2="566.34" stroke-opacity="0.361"/>
    <line x1="441.80" y1="534.84" x2="490.00" y2="618.33" stroke-opacity="0.361"/>
    <line x1="374.88" y1="566.05" x2="407.85" y2="656.64" stroke-opacity="0.361"/>
    <line x1="303.56" y1="585.16" x2="320.30" y2="680.10" stroke-opacity="0.361"/>
    <line x1="230.00" y1="591.59" x2="230.00" y2="688.00" stroke-opacity="0.361"/>
    <line x1="156.44" y1="585.16" x2="139.70" y2="680.10" stroke-opacity="0.361"/>
    <line x1="85.12" y1="566.05" x2="52.15" y2="656.64" stroke-opacity="0.361"/>
    <line x1="18.20" y1="534.84" x2="-30.00" y2="618.33" stroke-opacity="0.361"/>
    <line x1="-42.28" y1="492.49" x2="-104.25" y2="566.34" stroke-opacity="0.361"/>
    <line x1="-94.49" y1="440.28" x2="-168.34" y2="502.25" stroke-opacity="0.361"/>
    <line x1="-136.84" y1="379.80" x2="-220.33" y2="428.00" stroke-opacity="0.361"/>
    <line x1="-168.05" y1="312.88" x2="-258.64" y2="345.85" stroke-opacity="0.361"/>
    <line x1="-187.16" y1="241.56" x2="-282.10" y2="258.30" stroke-opacity="0.361"/>
    <line x1="-193.59" y1="168.00" x2="-290.00" y2="168.00" stroke-opacity="0.361"/>
    <line x1="-187.16" y1="94.44" x2="-282.10" y2="77.70" stroke-opacity="0.361"/>
    <line x1="-168.05" y1="23.12" x2="-258.64" y2="-9.85" stroke-opacity="0.361"/>
    <line x1="-136.84" y1="-43.80" x2="-220.33" y2="-92.00" stroke-opacity="0.361"/>
    <line x1="-94.49" y1="-104.28" x2="-168.34" y2="-166.25" stroke-opacity="0.361"/>
    <line x1="-42.28" y1="-156.49" x2="-104.25" y2="-230.34" stroke-opacity="0.361"/>
    <line x1="18.20" y1="-198.84" x2="-30.00" y2="-282.33" stroke-opacity="0.361"/>
    <line x1="85.12" y1="-230.05" x2="52.15" y2="-320.64" stroke-opacity="0.361"/>
    <line x1="156.44" y1="-249.16" x2="139.70" y2="-344.10" stroke-opacity="0.361"/>
    <line x1="230.00" y1="-255.59" x2="230.00" y2="-352.00" stroke-opacity="0.361"/>
    <line x1="303.56" y1="-249.16" x2="320.30" y2="-344.10" stroke-opacity="0.361"/>
    <line x1="374.88" y1="-230.05" x2="407.85" y2="-320.64" stroke-opacity="0.361"/>
    <line x1="441.80" y1="-198.84" x2="490.00" y2="-282.33" stroke-opacity="0.361"/>
    <line x1="502.28" y1="-156.49" x2="564.25" y2="-230.34" stroke-opacity="0.361"/>
    <line x1="554.49" y1="-104.28" x2="628.34" y2="-166.25" stroke-opacity="0.361"/>
    <line x1="596.84" y1="-43.80" x2="680.33" y2="-92.00" stroke-opacity="0.361"/>
    <line x1="628.05" y1="23.12" x2="718.64" y2="-9.85" stroke-opacity="0.361"/>
    <line x1="647.16" y1="94.44" x2="742.10" y2="77.70" stroke-opacity="0.361"/>
  </g>
</svg>