<svg xmlns="http://www.w3.org/2000/svg" viewBox="0 0 720 720" width="720" height="720" font-family="ui-sans-serif, -apple-system, system-ui, sans-serif" shape-rendering="geometricPrecision">
<defs><filter id="halo-shadow" x="-50%" y="-50%" width="200%" height="200%"><feDropShadow dx="0" dy="0" stdDeviation="1.5" flood-color="rgba(0,0,0,0.9)"/></filter></defs>
<rect width="720" height="720" fill="#0a0a0f"/>
<circle cx="360.00" cy="360.00" r="180.00" fill="none" stroke="#00ccff" opacity="0.15" stroke-width="0.90" vector-effect="non-scaling-stroke"/>
<circle cx="360.00" cy="360.00" r="210.00" fill="none" stroke="#00ccff" opacity="0.15" stroke-width="0.85" vector-effect="non-scaling-stroke"/>
<circle cx="360.00" cy="360.00" r="240.00" fill="none" stroke="#00ccff" opacity="0.15" stroke-width="0.80" vector-effect="non-scaling-stroke"/>
<circle cx="360.00" cy="360.00" r="270.00" fill="none" stroke="#00ccff" opacity="0.15" stroke-width="0.75" vector-effect="non-scaling-stroke"/>
<circle cx="360.00" cy="360.00" r="300.00" fill="none" stroke="#00ccff" opacity="0.15" stroke-width="0.70" vector-effect="non-scaling-stroke"/>
<circle cx="360.00" cy="360.00" r="330.00" fill="none" stroke="#00ccff" opacity="0.15" stroke-width="0.65" vector-effect="non-scaling-stroke"/>
<circle cx="360.00" cy="360.00" r="360.00" fill="none" stroke="#00ccff" opacity="0.15" stroke-width="0.60" vector-effect="non-scaling-stroke"/>
<line x1="510.00" y1="360.00" x2="720.00" y2="360.00" stroke="#80a0ff" opacity="0.15" stroke-width="1"/>
<line x1="498.58" y1="417.40" x2="692.60" y2="497.77" stroke="#80a0ff" opacity="0.15" stroke-width="1"/>
<line x1="466.07" y1="466.07" x2="614.56" y2="614.56" stroke="#80a0ff" opacity="0.15" stroke-width="1"/>
<line x1="417.40" y1="498.58" x2="497.77" y2="692.60" stroke="#80a0ff" opacity="0.15" stroke-width="1"/>
<line x1="360.00" y1="510.00" x2="360.00" y2="720.00" stroke="#80a0ff" opacity="0.15" stroke-width="1"/>
<line x1="302.60" y1="498.58" x2="222.23" y2="692.60" stroke="#80a0ff" opacity="0.15" stroke-width="1"/>
<line x1="253.93" y1="466.07" x2="105.44" y2="614.56" stroke="#80a0ff" opacity="0.15" stroke-width="1"/>
<line x1="221.42" y1="417.40" x2="27.40" y2="497.77" stroke="#80a0ff" opacity="0.15" stroke-width="1"/>
<line x1="210.00" y1="360.00" x2="0.00" y2="360.00" stroke="#80a0ff" opacity="0.15" stroke-width="1"/>
<line x1="221.42" y1="302.60" x2="27.40" y2="222.23" stroke="#80a0ff" opacity="0.15" stroke-width="1"/>
<line x1="253.93" y1="253.93" x2="105.44" y2="105.44" stroke="#80a0ff" opacity="0.15" stroke-width="1"/>
<line x1="302.60" y1="221.42" x2="222.23" y2="27.40" stroke="#80a0ff" opacity="0.15" stroke-width="1"/>
<line x1="360.00" y1="210.00" x2="360.00" y2="0.00" stroke="#80a0ff" opacity="0.15" stroke-width="1"/>
<line x1="417.40" y1="221.42" x2="497.77" y2="27.40" stroke="#80a0ff" opacity="0.15" stroke-width="1"/>
<line x1="466.07" y1="253.93" x2="614.56" y2="105.44" stroke="#80a0ff" opacity="0.15" stroke-width="1"/>
<line x1="498.58" y1="302.60" x2="692.60" y2="222.23" stroke="#80a0ff" opacity="0.15" stroke-width="1"/>
<g filter="url(#halo-shadow)">
<circle cx="360.00" cy="360.00" r="150.00" fill="none" stroke="#a0c0ff" opacity="0.7" stroke-width="1.5" stroke-dasharray="28.1,14.1" stroke-linecap="butt" vector-effect="non-scaling-stroke"/>
</g>
<g filter="url(#halo-shadow)">
<circle cx="360.00" cy="360.00" r="30.00" fill="none" stroke="#ffffff" opacity="0.6" stroke-width="1.5" vector-effect="non-scaling-stroke"/>
<line x1="390.00" y1="360.00" x2="411.09" y2="360.00" stroke="#ffffff" stroke-width="1.5" opacity="0.8"/>
<line x1="385.98" y1="375.00" x2="404.25" y2="385.55" stroke="#ffffff" stroke-width="1.5" opacity="0.8"/>
<line x1="375.00" y1="385.98" x2="385.55" y2="404.25" stroke="#ffffff" stroke-width="1.5" opacity="0.8"/>
<line x1="360.00" y1="390.00" x2="360.00" y2="411.09" stroke="#ffffff" stroke-width="1.5" opacity="0.8"/>
<line x1="345.00" y1="385.98" x2="334.45" y2="404.25" stroke="#ffffff" stroke-width="1.5" opacity="0.8"/>
<line x1="334.02" y1="375.00" x2="315.75" y2="385.55" stroke="#ffffff" stroke-width="1.5" opacity="0.8"/>
<line x1="330.00" y1="360.00" x2="308.91" y2="360.00" stroke="#ffffff" stroke-width="1.5" opacity="0.8"/>
<line x1="334.02" y1="345.00" x2="315.75" y2="334.45" stroke="#ffffff" stroke-width="1.5" opacity="0.8"/>
<line x1="345.00" y1="334.02" x2="334.45" y2="315.75" stroke="#ffffff" stroke-width="1.5" opacity="0.8"/>
<line x1="360.00" y1="330.00" x2="360.00" y2="308.91" stroke="#ffffff" stroke-width="1.5" opacity="0.8"/>
<line x1="375.00" y1="334.02" x2="385.55" y2="315.75" stroke="#ffffff" stroke-width="1.5" opacity="0.8"/>
<line x1="385.98" y1="345.00" x2="404.25" y2="334.45" stroke="#ffffff" stroke-width="1.5" opacity="0.8"/>
</g>
<text x="360.00" y="318.00" fill="#b0b0c4" font-size="11" font-weight="500" text-anchor="middle" dominant-baseline="middle">1°</text>
<text x="360.00" y="198.00" fill="#b0b0c4" font-size="11" font-weight="500" text-anchor="middle" dominant-baseline="middle">5°</text>
<text x="360.00" y="48.00" fill="#b0b0c4" font-size="11" font-weight="500" text-anchor="middle" dominant-baseline="middle">10°</text>
<text x="360.00" y="712.00" fill="#b0b0c4" font-size="10" text-anchor="middle">fovea 1° · parafovea 5° · 16 spokes · field shown ±12° (port of svg-overlay.js)</text>
</svg>