<svg xmlns="http://www.w3.org/2000/svg" viewBox="0 0 1320 552" width="1320" height="552" font-family="ui-sans-serif, -apple-system, system-ui, sans-serif">
<defs><marker id="sl-flow" markerWidth="9" markerHeight="9" refX="8" refY="4.5" orient="auto" markerUnits="strokeWidth"><path d="M0,0 L9,4.5 L0,9 z" fill="rgba(176, 176, 196, 0.55)"/></marker><marker id="sl-handoff" markerWidth="9" markerHeight="9" refX="8" refY="4.5" orient="auto" markerUnits="strokeWidth"><path d="M0,0 L9,4.5 L0,9 z" fill="#7dd4e4"/></marker></defs>
<rect width="1320" height="552" fill="#0a0a0f"/>
<text x="168" y="48.0" fill="#e6e4d2" font-size="20" font-weight="600" text-anchor="start">Release pipeline</text>
<text x="148" y="172.0" fill="#b0b0c4" font-family="ui-monospace, SFMono-Regular, Menlo, Consolas, monospace" font-size="11" letter-spacing="1.5" text-anchor="end">PM</text>
<rect x="168" y="216.0" width="1104" height="96" fill="rgba(230, 228, 210, 0.04)"/>
<line x1="168" y1="216.0" x2="1272" y2="216.0" stroke="rgba(230, 228, 210, 0.14)" stroke-width="1"/>
<text x="148" y="268.0" fill="#b0b0c4" font-family="ui-monospace, SFMono-Regular, Menlo, Consolas, monospace" font-size="11" letter-spacing="1.5" text-anchor="end">ENGINEERING</text>
<line x1="168" y1="312.0" x2="1272" y2="312.0" stroke="rgba(230, 228, 210, 0.14)" stroke-width="1"/>
<text x="148" y="364.0" fill="#b0b0c4" font-family="ui-monospace, SFMono-Regular, Menlo, Consolas, monospace" font-size="11" letter-spacing="1.5" text-anchor="end">QA</text>
<rect x="168" y="408.0" width="1104" height="96" fill="rgba(230, 228, 210, 0.04)"/>
<line x1="168" y1="408.0" x2="1272" y2="408.0" stroke="rgba(230, 228, 210, 0.14)" stroke-width="1"/>
<text x="148" y="460.0" fill="#b0b0c4" font-family="ui-monospace, SFMono-Regular, Menlo, Consolas, monospace" font-size="11" letter-spacing="1.5" text-anchor="end">RELEASE</text>
<path d="M 332.0 168.0 L 352.0 168.0 L 352.0 264.0 L 372.0 264.0" fill="none" stroke="#7dd4e4" stroke-width="1.5" marker-end="url(#sl-handoff)"/>
<path d="M 516.0 264.0 L 556.0 264.0" fill="none" stroke="rgba(176, 176, 196, 0.55)" stroke-width="1" marker-end="url(#sl-flow)"/>
<path d="M 700.0 264.0 L 720.0 264.0 L 720.0 360.0 L 740.0 360.0" fill="none" stroke="#7dd4e4" stroke-width="1.5" marker-end="url(#sl-handoff)"/>
<path d="M 884.0 360.0 L 904.0 360.0 L 904.0 168.0 L 924.0 168.0" fill="none" stroke="#7dd4e4" stroke-width="1.5" marker-end="url(#sl-handoff)"/>
<path d="M 1068.0 168.0 L 1088.0 168.0 L 1088.0 456.0 L 1108.0 456.0" fill="none" stroke="#7dd4e4" stroke-width="1.5" marker-end="url(#sl-handoff)"/>
<rect x="188.0" y="140.0" width="144" height="56" rx="4" fill="rgba(230, 228, 210, 0.04)" stroke="rgba(230, 228, 210, 0.14)" stroke-width="1"/>
<text x="260.0" y="173.0" fill="#e6e4d2" font-size="13" font-weight="600" text-anchor="middle">Write spec</text>
<rect x="372.0" y="236.0" width="144" height="56" rx="4" fill="rgba(230, 228, 210, 0.04)" stroke="rgba(230, 228, 210, 0.14)" stroke-width="1"/>
<text x="444.0" y="269.0" fill="#e6e4d2" font-size="13" font-weight="600" text-anchor="middle">Implement</text>
<rect x="556.0" y="236.0" width="144" height="56" rx="4" fill="rgba(230, 228, 210, 0.04)" stroke="rgba(230, 228, 210, 0.14)" stroke-width="1"/>
<text x="628.0" y="269.0" fill="#e6e4d2" font-size="13" font-weight="600" text-anchor="middle">Review PR</text>
<rect x="740.0" y="332.0" width="144" height="56" rx="4" fill="rgba(125, 212, 228, 0.12)" stroke="#7dd4e4" stroke-width="1.5"/>
<text x="812.0" y="365.0" fill="#e6e4d2" font-size="13" font-weight="600" text-anchor="middle">Test build</text>
<rect x="924.0" y="140.0" width="144" height="56" rx="4" fill="rgba(230, 228, 210, 0.04)" stroke="rgba(230, 228, 210, 0.14)" stroke-width="1"/>
<text x="996.0" y="173.0" fill="#e6e4d2" font-size="13" font-weight="600" text-anchor="middle">Sign off</text>
<rect x="1108.0" y="428.0" width="144" height="56" rx="4" fill="rgba(230, 228, 210, 0.04)" stroke="rgba(230, 228, 210, 0.14)" stroke-width="1"/>
<text x="1180.0" y="461.0" fill="#e6e4d2" font-size="13" font-weight="600" text-anchor="middle">Ship</text>
</svg>