<svg xmlns="http://www.w3.org/2000/svg" viewBox="0 0 1080 1920" width="1080" height="1920" role="img" aria-label="Scrutinizer foveation explainer — only two degrees of your visual field is sharp">
<defs>
<style>
@import url('https://fonts.googleapis.com/css2?family=Inter:wght@300;400;500;600;700;800;900&amp;display=swap');
.bg      { fill: #0f172a; }
.hero    { fill: #ffffff;      font-family: 'Inter', system-ui, -apple-system, sans-serif; font-weight: 800; letter-spacing: -0.02em; }
.stat    { fill: #c7d2fe; font-family: 'Inter', system-ui, -apple-system, sans-serif; font-weight: 900; letter-spacing: -0.04em; }
.eyebrow { fill: #c7d2fe; font-family: 'Inter', system-ui, -apple-system, sans-serif; font-weight: 600; letter-spacing: 0.16em; text-transform: uppercase; }
.section { fill: #ffffff;      font-family: 'Inter', system-ui, -apple-system, sans-serif; font-weight: 700; letter-spacing: -0.01em; }
.body    { fill: #e2e8f0;  font-family: 'Inter', system-ui, -apple-system, sans-serif; font-weight: 400; }
.label   { fill: #e2e8f0;  font-family: 'Inter', system-ui, -apple-system, sans-serif; font-weight: 500; }
.muted   { fill: #cbd5e1;  font-family: 'Inter', system-ui, -apple-system, sans-serif; font-weight: 400; }
.foot    { fill: #cbd5e1;  font-family: 'Inter', system-ui, -apple-system, sans-serif; font-weight: 400; letter-spacing: 0.02em; }
.url     { fill: #c7d2fe; font-family: 'Inter', system-ui, -apple-system, sans-serif; font-weight: 600; }
</style>
<!-- Generous filter regions so blur has headroom around small elements (dots)
     as well as big ones (thumbnails). 300% on all sides of bbox gives 100% bleed. -->
<filter id="blur5"  x="-100%" y="-100%" width="300%" height="300%">
  <feGaussianBlur stdDeviation="2.0"/>
  <feColorMatrix type="saturate" values="0.85"/>
</filter>
<filter id="blur15" x="-100%" y="-100%" width="300%" height="300%">
  <feGaussianBlur stdDeviation="6.0"/>
  <feColorMatrix type="saturate" values="0.55"/>
</filter>
<filter id="blur30" x="-100%" y="-100%" width="300%" height="300%">
  <feGaussianBlur stdDeviation="14.0"/>
  <feColorMatrix type="saturate" values="0.25"/>
</filter>
<!-- Dot-specific filters with tighter blur scales so the markers don't vanish
     entirely but visibly degrade. Progressive to match eccentricity. -->
<filter id="dot5"  x="-200%" y="-200%" width="500%" height="500%">
  <feGaussianBlur stdDeviation="0.8"/>
  <feColorMatrix type="saturate" values="0.85"/>
</filter>
<filter id="dot15" x="-200%" y="-200%" width="500%" height="500%">
  <feGaussianBlur stdDeviation="2.2"/>
  <feColorMatrix type="saturate" values="0.55"/>
</filter>
<filter id="dot30" x="-200%" y="-200%" width="500%" height="500%">
  <feGaussianBlur stdDeviation="4.5"/>
  <feColorMatrix type="saturate" values="0.25"/>
</filter>
<radialGradient id="eyeBall" cx="50%" cy="45%" r="50%">
  <stop offset="0%"   stop-color="#334155"/>
  <stop offset="75%"  stop-color="#1e293b"/>
  <stop offset="100%" stop-color="#0f172a"/>
</radialGradient>
</defs>
<rect class="bg" width="1080" height="1920"/>
<text x="72.0" y="76.0" class="eyebrow" font-size="28" text-anchor="start">SCRUTINIZER</text>
<text x="72.0" y="156.0" class="hero" font-size="68" text-anchor="start">Your vision</text>
<text x="72.0" y="220.0" class="hero" font-size="68" text-anchor="start">is mostly</text>
<text x="72.0" y="284.0" class="hero" font-size="68" text-anchor="start">peripheral.</text>
<text x="72.0" y="342.0" class="label" font-size="30" text-anchor="start">Scrutinizer shows you what users actually see —</text>
<text x="72.0" y="378.0" class="label" font-size="30" text-anchor="start">so you can design for it.</text>
<text x="1008.0" y="200.0" class="stat" font-size="120" text-anchor="end">2°</text>
<text x="1008.0" y="240.0" class="label" font-size="32" text-anchor="end">is sharp.</text>
<text x="1008.0" y="272.0" class="muted" font-size="22" text-anchor="end">The rest is inferred.</text>
<text x="72.0" y="432.0" class="eyebrow" font-size="22" text-anchor="start">WHERE SHARPNESS LIVES</text>
<text x="72.0" y="486.0" class="section" font-size="36" text-anchor="start">Half your cortex processes the central 2°.</text>
<circle cx="540" cy="685" r="150" fill="url(#eyeBall)" stroke="#334155" stroke-width="2"/>
<path d="M 684 639 C 720 661, 720 709, 684 731 Z" fill="#1e293b" stroke="#334155" stroke-width="2"/>
<circle cx="684" cy="685" r="28" fill="#6366f1" opacity="0.75"/>
<circle cx="684" cy="685" r="12" fill="#0f172a"/>
<line x1="380" y1="685" x2="720" y2="685" stroke="#334155" stroke-width="1" stroke-dasharray="4,4"/>
<circle cx="402" cy="685" r="9" fill="#c7d2fe"/>
<circle cx="402" cy="685" r="16" fill="none" stroke="#c7d2fe" stroke-width="1.5" opacity="0.45"/>
<line x1="210" y1="685" x2="389" y2="685" stroke="#c7d2fe" stroke-width="1.5"/>
<circle cx="204" cy="685" r="3" fill="#c7d2fe"/>
<text x="92.0" y="671.0" class="eyebrow" font-size="22" text-anchor="start">FOVEA</text>
<text x="92.0" y="719.0" class="label" font-size="28" text-anchor="start">~2° wide.</text>
<text x="92.0" y="749.0" class="body" font-size="22" text-anchor="start">Sharp vision</text>
<text x="92.0" y="775.0" class="body" font-size="22" text-anchor="start">happens here.</text>
<line x1="694" y1="685" x2="856" y2="685" stroke="#22d3ee" stroke-width="1.5"/>
<circle cx="862" cy="685" r="3" fill="#22d3ee"/>
<circle cx="690" cy="685" r="3" fill="#22d3ee"/>
<text x="988.0" y="671.0" class="eyebrow" font-size="22" text-anchor="end">PERIPHERY</text>
<text x="988.0" y="719.0" class="label" font-size="28" text-anchor="end">~200° wide.</text>
<text x="988.0" y="749.0" class="body" font-size="22" text-anchor="end">Blurred, desaturated,</text>
<text x="988.0" y="775.0" class="body" font-size="22" text-anchor="end">crowded — inferred.</text>
<text x="72.0" y="912.0" class="eyebrow" font-size="22" text-anchor="start">ACUITY FALLS OFF FAST</text>
<text x="72.0" y="966.0" class="section" font-size="36" text-anchor="start">At 15° off-center, you see ~3× less detail.</text>
<line x1="112" y1="1270" x2="968" y2="1270" stroke="#334155" stroke-width="1.5"/>
<line x1="112" y1="1030" x2="112" y2="1270" stroke="#334155" stroke-width="1.5"/>
<line x1="254.7" y1="1030" x2="254.7" y2="1270" stroke="#334155" stroke-width="0.5" opacity="0.35"/>
<line x1="397.3" y1="1030" x2="397.3" y2="1270" stroke="#334155" stroke-width="0.5" opacity="0.35"/>
<line x1="540.0" y1="1030" x2="540.0" y2="1270" stroke="#334155" stroke-width="0.5" opacity="0.35"/>
<line x1="682.7" y1="1030" x2="682.7" y2="1270" stroke="#334155" stroke-width="0.5" opacity="0.35"/>
<line x1="825.3" y1="1030" x2="825.3" y2="1270" stroke="#334155" stroke-width="0.5" opacity="0.35"/>
<line x1="112" y1="1210.0" x2="968" y2="1210.0" stroke="#334155" stroke-width="0.5" opacity="0.25"/>
<text x="102.0" y="1215.0" class="muted" font-size="16" text-anchor="end">0.25</text>
<line x1="112" y1="1150.0" x2="968" y2="1150.0" stroke="#334155" stroke-width="0.5" opacity="0.25"/>
<text x="102.0" y="1155.0" class="muted" font-size="16" text-anchor="end">0.50</text>
<line x1="112" y1="1090.0" x2="968" y2="1090.0" stroke="#334155" stroke-width="0.5" opacity="0.25"/>
<text x="102.0" y="1095.0" class="muted" font-size="16" text-anchor="end">0.75</text>
<line x1="112" y1="1030.0" x2="968" y2="1030.0" stroke="#334155" stroke-width="0.5" opacity="0.25"/>
<text x="102.0" y="1035.0" class="muted" font-size="16" text-anchor="end">1.00</text>
<path d="M 112.0,1030.0 L 126.3,1046.7 L 140.5,1061.3 L 154.8,1074.1 L 169.1,1085.4 L 183.3,1095.5 L 197.6,1104.5 L 211.9,1112.6 L 226.1,1120.0 L 240.4,1126.7 L 254.7,1132.9 L 268.9,1138.5 L 283.2,1143.7 L 297.5,1148.5 L 311.7,1152.9 L 326.0,1157.1 L 340.3,1160.9 L 354.5,1164.5 L 368.8,1167.9 L 383.1,1171.0 L 397.3,1174.0 L 411.6,1176.8 L 425.9,1179.4 L 440.1,1181.9 L 454.4,1184.3 L 468.7,1186.5 L 482.9,1188.6 L 497.2,1190.7 L 511.5,1192.6 L 525.7,1194.4 L 540.0,1196.2 L 554.3,1197.8 L 568.5,1199.4 L 582.8,1200.9 L 597.1,1202.4 L 611.3,1203.8 L 625.6,1205.1 L 639.9,1206.4 L 654.1,1207.7 L 668.4,1208.9 L 682.7,1210.0 L 696.9,1211.1 L 711.2,1212.2 L 725.5,1213.2 L 739.7,1214.2 L 754.0,1215.1 L 768.3,1216.1 L 782.5,1217.0 L 796.8,1217.8 L 811.1,1218.7 L 825.3,1219.5 L 839.6,1220.3 L 853.9,1221.0 L 868.1,1221.8 L 882.4,1222.5 L 896.7,1223.2 L 910.9,1223.8 L 925.2,1224.5 L 939.5,1225.1 L 953.7,1225.8 L 968.0,1226.4" fill="none" stroke="#818cf8" stroke-width="3.5" stroke-linejoin="round"/>
<path d="M 112.0,1030.0 L 126.3,1046.7 L 140.5,1061.3 L 154.8,1074.1 L 169.1,1085.4 L 183.3,1095.5 L 197.6,1104.5 L 211.9,1112.6 L 226.1,1120.0 L 240.4,1126.7 L 254.7,1132.9 L 268.9,1138.5 L 283.2,1143.7 L 297.5,1148.5 L 311.7,1152.9 L 326.0,1157.1 L 340.3,1160.9 L 354.5,1164.5 L 368.8,1167.9 L 383.1,1171.0 L 397.3,1174.0 L 411.6,1176.8 L 425.9,1179.4 L 440.1,1181.9 L 454.4,1184.3 L 468.7,1186.5 L 482.9,1188.6 L 497.2,1190.7 L 511.5,1192.6 L 525.7,1194.4 L 540.0,1196.2 L 554.3,1197.8 L 568.5,1199.4 L 582.8,1200.9 L 597.1,1202.4 L 611.3,1203.8 L 625.6,1205.1 L 639.9,1206.4 L 654.1,1207.7 L 668.4,1208.9 L 682.7,1210.0 L 696.9,1211.1 L 711.2,1212.2 L 725.5,1213.2 L 739.7,1214.2 L 754.0,1215.1 L 768.3,1216.1 L 782.5,1217.0 L 796.8,1217.8 L 811.1,1218.7 L 825.3,1219.5 L 839.6,1220.3 L 853.9,1221.0 L 868.1,1221.8 L 882.4,1222.5 L 896.7,1223.2 L 910.9,1223.8 L 925.2,1224.5 L 939.5,1225.1 L 953.7,1225.8 L 968.0,1226.4 L 968.0,1270.0 L 112.0,1270.0 Z" fill="#6366f1" opacity="0.12"/>
<g>
<circle cx="112.0" cy="1030.0" r="8" fill="#c7d2fe" stroke="#0f172a" stroke-width="3"/>
</g>
<text x="112.0" y="1014.0" class="label" font-size="24" text-anchor="middle">0°</text>
<g filter="url(#dot5)">
<circle cx="254.7" cy="1132.9" r="8" fill="#c7d2fe" stroke="#0f172a" stroke-width="3"/>
</g>
<text x="254.7" y="1116.9" class="label" font-size="24" text-anchor="middle">5°</text>
<g filter="url(#dot15)">
<circle cx="540.0" cy="1196.2" r="8" fill="#c7d2fe" stroke="#0f172a" stroke-width="3"/>
</g>
<text x="540.0" y="1180.2" class="label" font-size="24" text-anchor="middle">15°</text>
<g filter="url(#dot30)">
<circle cx="968.0" cy="1226.4" r="8" fill="#c7d2fe" stroke="#0f172a" stroke-width="3"/>
</g>
<text x="968.0" y="1210.4" class="label" font-size="24" text-anchor="middle">30°</text>
<text x="112.0" y="1302.0" class="eyebrow" font-size="18" text-anchor="start">ECCENTRICITY →</text>
<text x="968.0" y="1302.0" class="muted" font-size="18" text-anchor="end">0 – 30°</text>
<text x="72.0" y="1372.0" class="eyebrow" font-size="22" text-anchor="start">WHAT YOUR USERS ACTUALLY SEE</text>
<text x="72.0" y="1426.0" class="section" font-size="36" text-anchor="start">Scrutinizer renders this on your designs.</text>
<rect x="72.0" y="1460" width="196" height="132" rx="8" fill="#1e293b" stroke="#334155" stroke-width="1"/>
<g clip-path="inset(0)"><g>
<rect x="75.0" y="1463.0" width="26.7" height="27.0" rx="3" fill="#22d3ee"/>
<rect x="107.7" y="1463.0" width="26.7" height="27.0" rx="3" fill="#818cf8"/>
<rect x="140.3" y="1463.0" width="26.7" height="27.0" rx="3" fill="#f472b6"/>
<rect x="173.0" y="1463.0" width="26.7" height="27.0" rx="3" fill="#E69F00"/>
<rect x="205.7" y="1463.0" width="26.7" height="27.0" rx="3" fill="#009E73"/>
<rect x="238.3" y="1463.0" width="26.7" height="27.0" rx="3" fill="#56B4E9"/>
<rect x="75.0" y="1496.0" width="26.7" height="27.0" rx="3" fill="#F0E442"/>
<rect x="107.7" y="1496.0" width="26.7" height="27.0" rx="3" fill="#CC79A7"/>
<rect x="140.3" y="1496.0" width="26.7" height="27.0" rx="3" fill="#22d3ee"/>
<rect x="173.0" y="1496.0" width="26.7" height="27.0" rx="3" fill="#818cf8"/>
<rect x="205.7" y="1496.0" width="26.7" height="27.0" rx="3" fill="#f472b6"/>
<rect x="238.3" y="1496.0" width="26.7" height="27.0" rx="3" fill="#E69F00"/>
<rect x="75.0" y="1529.0" width="26.7" height="27.0" rx="3" fill="#009E73"/>
<rect x="107.7" y="1529.0" width="26.7" height="27.0" rx="3" fill="#56B4E9"/>
<rect x="140.3" y="1529.0" width="26.7" height="27.0" rx="3" fill="#F0E442"/>
<rect x="173.0" y="1529.0" width="26.7" height="27.0" rx="3" fill="#CC79A7"/>
<rect x="205.7" y="1529.0" width="26.7" height="27.0" rx="3" fill="#22d3ee"/>
<rect x="238.3" y="1529.0" width="26.7" height="27.0" rx="3" fill="#818cf8"/>
<rect x="75.0" y="1562.0" width="26.7" height="27.0" rx="3" fill="#f472b6"/>
<rect x="107.7" y="1562.0" width="26.7" height="27.0" rx="3" fill="#E69F00"/>
<rect x="140.3" y="1562.0" width="26.7" height="27.0" rx="3" fill="#009E73"/>
<rect x="173.0" y="1562.0" width="26.7" height="27.0" rx="3" fill="#56B4E9"/>
<rect x="205.7" y="1562.0" width="26.7" height="27.0" rx="3" fill="#F0E442"/>
<rect x="238.3" y="1562.0" width="26.7" height="27.0" rx="3" fill="#CC79A7"/>
</g></g>
<text x="170.0" y="1626.0" class="label" font-size="28" text-anchor="middle">0°</text>
<text x="170.0" y="1652.0" class="muted" font-size="18" text-anchor="middle">fovea</text>
<rect x="318.66666666666663" y="1460" width="196" height="132" rx="8" fill="#1e293b" stroke="#334155" stroke-width="1"/>
<g clip-path="inset(0)"><g filter="url(#blur5)">
<rect x="321.7" y="1463.0" width="26.7" height="27.0" rx="3" fill="#E69F00"/>
<rect x="354.3" y="1463.0" width="26.7" height="27.0" rx="3" fill="#009E73"/>
<rect x="387.0" y="1463.0" width="26.7" height="27.0" rx="3" fill="#56B4E9"/>
<rect x="419.7" y="1463.0" width="26.7" height="27.0" rx="3" fill="#F0E442"/>
<rect x="452.3" y="1463.0" width="26.7" height="27.0" rx="3" fill="#CC79A7"/>
<rect x="485.0" y="1463.0" width="26.7" height="27.0" rx="3" fill="#22d3ee"/>
<rect x="321.7" y="1496.0" width="26.7" height="27.0" rx="3" fill="#818cf8"/>
<rect x="354.3" y="1496.0" width="26.7" height="27.0" rx="3" fill="#f472b6"/>
<rect x="387.0" y="1496.0" width="26.7" height="27.0" rx="3" fill="#E69F00"/>
<rect x="419.7" y="1496.0" width="26.7" height="27.0" rx="3" fill="#009E73"/>
<rect x="452.3" y="1496.0" width="26.7" height="27.0" rx="3" fill="#56B4E9"/>
<rect x="485.0" y="1496.0" width="26.7" height="27.0" rx="3" fill="#F0E442"/>
<rect x="321.7" y="1529.0" width="26.7" height="27.0" rx="3" fill="#CC79A7"/>
<rect x="354.3" y="1529.0" width="26.7" height="27.0" rx="3" fill="#22d3ee"/>
<rect x="387.0" y="1529.0" width="26.7" height="27.0" rx="3" fill="#818cf8"/>
<rect x="419.7" y="1529.0" width="26.7" height="27.0" rx="3" fill="#f472b6"/>
<rect x="452.3" y="1529.0" width="26.7" height="27.0" rx="3" fill="#E69F00"/>
<rect x="485.0" y="1529.0" width="26.7" height="27.0" rx="3" fill="#009E73"/>
<rect x="321.7" y="1562.0" width="26.7" height="27.0" rx="3" fill="#56B4E9"/>
<rect x="354.3" y="1562.0" width="26.7" height="27.0" rx="3" fill="#F0E442"/>
<rect x="387.0" y="1562.0" width="26.7" height="27.0" rx="3" fill="#CC79A7"/>
<rect x="419.7" y="1562.0" width="26.7" height="27.0" rx="3" fill="#22d3ee"/>
<rect x="452.3" y="1562.0" width="26.7" height="27.0" rx="3" fill="#818cf8"/>
<rect x="485.0" y="1562.0" width="26.7" height="27.0" rx="3" fill="#f472b6"/>
</g></g>
<text x="416.7" y="1626.0" class="label" font-size="28" text-anchor="middle">5°</text>
<text x="416.7" y="1652.0" class="muted" font-size="18" text-anchor="middle">parafovea</text>
<rect x="565.3333333333333" y="1460" width="196" height="132" rx="8" fill="#1e293b" stroke="#334155" stroke-width="1"/>
<g clip-path="inset(0)"><g filter="url(#blur15)">
<rect x="568.3" y="1463.0" width="26.7" height="27.0" rx="3" fill="#F0E442"/>
<rect x="601.0" y="1463.0" width="26.7" height="27.0" rx="3" fill="#CC79A7"/>
<rect x="633.7" y="1463.0" width="26.7" height="27.0" rx="3" fill="#22d3ee"/>
<rect x="666.3" y="1463.0" width="26.7" height="27.0" rx="3" fill="#818cf8"/>
<rect x="699.0" y="1463.0" width="26.7" height="27.0" rx="3" fill="#f472b6"/>
<rect x="731.7" y="1463.0" width="26.7" height="27.0" rx="3" fill="#E69F00"/>
<rect x="568.3" y="1496.0" width="26.7" height="27.0" rx="3" fill="#009E73"/>
<rect x="601.0" y="1496.0" width="26.7" height="27.0" rx="3" fill="#56B4E9"/>
<rect x="633.7" y="1496.0" width="26.7" height="27.0" rx="3" fill="#F0E442"/>
<rect x="666.3" y="1496.0" width="26.7" height="27.0" rx="3" fill="#CC79A7"/>
<rect x="699.0" y="1496.0" width="26.7" height="27.0" rx="3" fill="#22d3ee"/>
<rect x="731.7" y="1496.0" width="26.7" height="27.0" rx="3" fill="#818cf8"/>
<rect x="568.3" y="1529.0" width="26.7" height="27.0" rx="3" fill="#f472b6"/>
<rect x="601.0" y="1529.0" width="26.7" height="27.0" rx="3" fill="#E69F00"/>
<rect x="633.7" y="1529.0" width="26.7" height="27.0" rx="3" fill="#009E73"/>
<rect x="666.3" y="1529.0" width="26.7" height="27.0" rx="3" fill="#56B4E9"/>
<rect x="699.0" y="1529.0" width="26.7" height="27.0" rx="3" fill="#F0E442"/>
<rect x="731.7" y="1529.0" width="26.7" height="27.0" rx="3" fill="#CC79A7"/>
<rect x="568.3" y="1562.0" width="26.7" height="27.0" rx="3" fill="#22d3ee"/>
<rect x="601.0" y="1562.0" width="26.7" height="27.0" rx="3" fill="#818cf8"/>
<rect x="633.7" y="1562.0" width="26.7" height="27.0" rx="3" fill="#f472b6"/>
<rect x="666.3" y="1562.0" width="26.7" height="27.0" rx="3" fill="#E69F00"/>
<rect x="699.0" y="1562.0" width="26.7" height="27.0" rx="3" fill="#009E73"/>
<rect x="731.7" y="1562.0" width="26.7" height="27.0" rx="3" fill="#56B4E9"/>
</g></g>
<text x="663.3" y="1626.0" class="label" font-size="28" text-anchor="middle">15°</text>
<text x="663.3" y="1652.0" class="muted" font-size="18" text-anchor="middle">near</text>
<rect x="812.0" y="1460" width="196" height="132" rx="8" fill="#1e293b" stroke="#334155" stroke-width="1"/>
<g clip-path="inset(0)"><g filter="url(#blur30)">
<rect x="815.0" y="1463.0" width="26.7" height="27.0" rx="3" fill="#818cf8"/>
<rect x="847.7" y="1463.0" width="26.7" height="27.0" rx="3" fill="#f472b6"/>
<rect x="880.3" y="1463.0" width="26.7" height="27.0" rx="3" fill="#E69F00"/>
<rect x="913.0" y="1463.0" width="26.7" height="27.0" rx="3" fill="#009E73"/>
<rect x="945.7" y="1463.0" width="26.7" height="27.0" rx="3" fill="#56B4E9"/>
<rect x="978.3" y="1463.0" width="26.7" height="27.0" rx="3" fill="#F0E442"/>
<rect x="815.0" y="1496.0" width="26.7" height="27.0" rx="3" fill="#CC79A7"/>
<rect x="847.7" y="1496.0" width="26.7" height="27.0" rx="3" fill="#22d3ee"/>
<rect x="880.3" y="1496.0" width="26.7" height="27.0" rx="3" fill="#818cf8"/>
<rect x="913.0" y="1496.0" width="26.7" height="27.0" rx="3" fill="#f472b6"/>
<rect x="945.7" y="1496.0" width="26.7" height="27.0" rx="3" fill="#E69F00"/>
<rect x="978.3" y="1496.0" width="26.7" height="27.0" rx="3" fill="#009E73"/>
<rect x="815.0" y="1529.0" width="26.7" height="27.0" rx="3" fill="#56B4E9"/>
<rect x="847.7" y="1529.0" width="26.7" height="27.0" rx="3" fill="#F0E442"/>
<rect x="880.3" y="1529.0" width="26.7" height="27.0" rx="3" fill="#CC79A7"/>
<rect x="913.0" y="1529.0" width="26.7" height="27.0" rx="3" fill="#22d3ee"/>
<rect x="945.7" y="1529.0" width="26.7" height="27.0" rx="3" fill="#818cf8"/>
<rect x="978.3" y="1529.0" width="26.7" height="27.0" rx="3" fill="#f472b6"/>
<rect x="815.0" y="1562.0" width="26.7" height="27.0" rx="3" fill="#E69F00"/>
<rect x="847.7" y="1562.0" width="26.7" height="27.0" rx="3" fill="#009E73"/>
<rect x="880.3" y="1562.0" width="26.7" height="27.0" rx="3" fill="#56B4E9"/>
<rect x="913.0" y="1562.0" width="26.7" height="27.0" rx="3" fill="#F0E442"/>
<rect x="945.7" y="1562.0" width="26.7" height="27.0" rx="3" fill="#CC79A7"/>
<rect x="978.3" y="1562.0" width="26.7" height="27.0" rx="3" fill="#22d3ee"/>
</g></g>
<text x="910.0" y="1626.0" class="label" font-size="28" text-anchor="middle">30°</text>
<text x="910.0" y="1652.0" class="muted" font-size="18" text-anchor="middle">far</text>
<text x="72.0" y="1870.0" class="url" font-size="38" text-anchor="start">scrutinizer.app</text>
<text x="1008.0" y="1870.0" class="foot" font-size="18" text-anchor="end">Open source · MIT · github.com/andyed/scrutinizer2025</text>
</svg>