<svg xmlns="http://www.w3.org/2000/svg" viewBox="0 0 64 64" width="64" height="64" font-family="ui-sans-serif, -apple-system, system-ui, sans-serif" shape-rendering="geometricPrecision">
<rect width="64" height="64" fill="#fafaf6"/>
<circle cx="32.00" cy="32.00" r="0.69" fill="rgba(30, 70, 130, 0.0200)" stroke="rgba(30, 70, 130, 0.0120)" stroke-width="0.5"/>
<path d="M 32.56 32.00 A 0.56 0.56 0 0 1 32.17 32.53 L 32.68 34.10 A 2.21 2.21 0 0 0 34.21 32.00 Z" fill="rgba(30, 70, 130, 0.1530)" stroke="rgba(30, 70, 130, 0.0918)" stroke-width="0.5"/>
<path d="M 32.17 32.53 A 0.56 0.56 0 0 1 31.55 32.33 L 30.21 33.30 A 2.21 2.21 0 0 0 32.68 34.10 Z" fill="rgba(30, 70, 130, 0.1530)" stroke="rgba(30, 70, 130, 0.0918)" stroke-width="0.5"/>
<path d="M 31.55 32.33 A 0.56 0.56 0 0 1 31.55 31.67 L 30.21 30.70 A 2.21 2.21 0 0 0 30.21 33.30 Z" fill="rgba(30, 70, 130, 0.1530)" stroke="rgba(30, 70, 130, 0.0918)" stroke-width="0.5"/>
<path d="M 31.55 31.67 A 0.56 0.56 0 0 1 32.17 31.47 L 32.68 29.90 A 2.21 2.21 0 0 0 30.21 30.70 Z" fill="rgba(30, 70, 130, 0.1530)" stroke="rgba(30, 70, 130, 0.0918)" stroke-width="0.5"/>
<path d="M 32.17 31.47 A 0.56 0.56 0 0 1 32.56 32.00 L 34.21 32.00 A 2.21 2.21 0 0 0 32.68 29.90 Z" fill="rgba(30, 70, 130, 0.1530)" stroke="rgba(30, 70, 130, 0.0918)" stroke-width="0.5"/>
<path d="M 34.16 32.00 A 2.16 2.16 0 0 1 33.66 33.39 L 35.42 34.87 A 4.46 4.46 0 0 0 36.46 32.00 Z" fill="rgba(30, 70, 130, 0.2082)" stroke="rgba(30, 70, 130, 0.1249)" stroke-width="0.5"/>
<path d="M 33.66 33.39 A 2.16 2.16 0 0 1 32.38 34.13 L 32.77 36.39 A 4.46 4.46 0 0 0 35.42 34.87 Z" fill="rgba(30, 70, 130, 0.2082)" stroke="rgba(30, 70, 130, 0.1249)" stroke-width="0.5"/>
<path d="M 32.38 34.13 A 2.16 2.16 0 0 1 30.92 33.87 L 29.77 35.86 A 4.46 4.46 0 0 0 32.77 36.39 Z" fill="rgba(30, 70, 130, 0.2082)" stroke="rgba(30, 70, 130, 0.1249)" stroke-width="0.5"/>
<path d="M 30.92 33.87 A 2.16 2.16 0 0 1 29.97 32.74 L 27.81 33.53 A 4.46 4.46 0 0 0 29.77 35.86 Z" fill="rgba(30, 70, 130, 0.2082)" stroke="rgba(30, 70, 130, 0.1249)" stroke-width="0.5"/>
<path d="M 29.97 32.74 A 2.16 2.16 0 0 1 29.97 31.26 L 27.81 30.47 A 4.46 4.46 0 0 0 27.81 33.53 Z" fill="rgba(30, 70, 130, 0.2082)" stroke="rgba(30, 70, 130, 0.1249)" stroke-width="0.5"/>
<path d="M 29.97 31.26 A 2.16 2.16 0 0 1 30.92 30.13 L 29.77 28.14 A 4.46 4.46 0 0 0 27.81 30.47 Z" fill="rgba(30, 70, 130, 0.2082)" stroke="rgba(30, 70, 130, 0.1249)" stroke-width="0.5"/>
<path d="M 30.92 30.13 A 2.16 2.16 0 0 1 32.38 29.87 L 32.77 27.61 A 4.46 4.46 0 0 0 29.77 28.14 Z" fill="rgba(30, 70, 130, 0.2082)" stroke="rgba(30, 70, 130, 0.1249)" stroke-width="0.5"/>
<path d="M 32.38 29.87 A 2.16 2.16 0 0 1 33.66 30.61 L 35.42 29.13 A 4.46 4.46 0 0 0 32.77 27.61 Z" fill="rgba(30, 70, 130, 0.2082)" stroke="rgba(30, 70, 130, 0.1249)" stroke-width="0.5"/>
<path d="M 33.66 30.61 A 2.16 2.16 0 0 1 34.16 32.00 L 36.46 32.00 A 4.46 4.46 0 0 0 35.42 29.13 Z" fill="rgba(30, 70, 130, 0.2082)" stroke="rgba(30, 70, 130, 0.1249)" stroke-width="0.5"/>
<path d="M 36.39 32.00 A 4.39 4.39 0 0 1 35.69 34.37 L 38.38 36.10 A 7.58 7.58 0 0 0 39.58 32.00 Z" fill="rgba(30, 70, 130, 0.2848)" stroke="rgba(30, 70, 130, 0.1709)" stroke-width="0.5"/>
<path d="M 35.69 34.37 A 4.39 4.39 0 0 1 33.82 35.99 L 35.15 38.90 A 7.58 7.58 0 0 0 38.38 36.10 Z" fill="rgba(30, 70, 130, 0.2848)" stroke="rgba(30, 70, 130, 0.1709)" stroke-width="0.5"/>
<path d="M 33.82 35.99 A 4.39 4.39 0 0 1 31.38 36.34 L 30.92 39.51 A 7.58 7.58 0 0 0 35.15 38.90 Z" fill="rgba(30, 70, 130, 0.2848)" stroke="rgba(30, 70, 130, 0.1709)" stroke-width="0.5"/>
<path d="M 31.38 36.34 A 4.39 4.39 0 0 1 29.13 35.32 L 27.03 37.73 A 7.58 7.58 0 0 0 30.92 39.51 Z" fill="rgba(30, 70, 130, 0.2848)" stroke="rgba(30, 70, 130, 0.1709)" stroke-width="0.5"/>
<path d="M 29.13 35.32 A 4.39 4.39 0 0 1 27.79 33.24 L 24.72 34.14 A 7.58 7.58 0 0 0 27.03 37.73 Z" fill="rgba(30, 70, 130, 0.2848)" stroke="rgba(30, 70, 130, 0.1709)" stroke-width="0.5"/>
<path d="M 27.79 33.24 A 4.39 4.39 0 0 1 27.79 30.76 L 24.72 29.86 A 7.58 7.58 0 0 0 24.72 34.14 Z" fill="rgba(30, 70, 130, 0.2848)" stroke="rgba(30, 70, 130, 0.1709)" stroke-width="0.5"/>
<path d="M 27.79 30.76 A 4.39 4.39 0 0 1 29.13 28.68 L 27.03 26.27 A 7.58 7.58 0 0 0 24.72 29.86 Z" fill="rgba(30, 70, 130, 0.2848)" stroke="rgba(30, 70, 130, 0.1709)" stroke-width="0.5"/>
<path d="M 29.13 28.68 A 4.39 4.39 0 0 1 31.38 27.66 L 30.92 24.49 A 7.58 7.58 0 0 0 27.03 26.27 Z" fill="rgba(30, 70, 130, 0.2848)" stroke="rgba(30, 70, 130, 0.1709)" stroke-width="0.5"/>
<path d="M 31.38 27.66 A 4.39 4.39 0 0 1 33.82 28.01 L 35.15 25.10 A 7.58 7.58 0 0 0 30.92 24.49 Z" fill="rgba(30, 70, 130, 0.2848)" stroke="rgba(30, 70, 130, 0.1709)" stroke-width="0.5"/>
<path d="M 33.82 28.01 A 4.39 4.39 0 0 1 35.69 29.63 L 38.38 27.90 A 7.58 7.58 0 0 0 35.15 25.10 Z" fill="rgba(30, 70, 130, 0.2848)" stroke="rgba(30, 70, 130, 0.1709)" stroke-width="0.5"/>
<path d="M 35.69 29.63 A 4.39 4.39 0 0 1 36.39 32.00 L 39.58 32.00 A 7.58 7.58 0 0 0 38.38 27.90 Z" fill="rgba(30, 70, 130, 0.2848)" stroke="rgba(30, 70, 130, 0.1709)" stroke-width="0.5"/>
<path d="M 39.48 32.00 A 7.48 7.48 0 0 1 38.62 35.48 L 42.55 37.54 A 11.92 11.92 0 0 0 43.92 32.00 Z" fill="rgba(30, 70, 130, 0.3912)" stroke="rgba(30, 70, 130, 0.2347)" stroke-width="0.5"/>
<path d="M 38.62 35.48 A 7.48 7.48 0 0 1 36.25 38.16 L 38.77 41.81 A 11.92 11.92 0 0 0 42.55 37.54 Z" fill="rgba(30, 70, 130, 0.3912)" stroke="rgba(30, 70, 130, 0.2347)" stroke-width="0.5"/>
<path d="M 36.25 38.16 A 7.48 7.48 0 0 1 32.90 39.43 L 33.44 43.83 A 11.92 11.92 0 0 0 38.77 41.81 Z" fill="rgba(30, 70, 130, 0.3912)" stroke="rgba(30, 70, 130, 0.2347)" stroke-width="0.5"/>
<path d="M 32.90 39.43 A 7.48 7.48 0 0 1 29.35 38.99 L 27.77 43.15 A 11.92 11.92 0 0 0 33.44 43.83 Z" fill="rgba(30, 70, 130, 0.3912)" stroke="rgba(30, 70, 130, 0.2347)" stroke-width="0.5"/>
<path d="M 29.35 38.99 A 7.48 7.48 0 0 1 26.40 36.96 L 23.08 39.90 A 11.92 11.92 0 0 0 27.77 43.15 Z" fill="rgba(30, 70, 130, 0.3912)" stroke="rgba(30, 70, 130, 0.2347)" stroke-width="0.5"/>
<path d="M 26.40 36.96 A 7.48 7.48 0 0 1 24.74 33.79 L 20.43 34.85 A 11.92 11.92 0 0 0 23.08 39.90 Z" fill="rgba(30, 70, 130, 0.3912)" stroke="rgba(30, 70, 130, 0.2347)" stroke-width="0.5"/>
<path d="M 24.74 33.79 A 7.48 7.48 0 0 1 24.74 30.21 L 20.43 29.15 A 11.92 11.92 0 0 0 20.43 34.85 Z" fill="rgba(30, 70, 130, 0.3912)" stroke="rgba(30, 70, 130, 0.2347)" stroke-width="0.5"/>
<path d="M 24.74 30.21 A 7.48 7.48 0 0 1 26.40 27.04 L 23.08 24.10 A 11.92 11.92 0 0 0 20.43 29.15 Z" fill="rgba(30, 70, 130, 0.3912)" stroke="rgba(30, 70, 130, 0.2347)" stroke-width="0.5"/>
<path d="M 26.40 27.04 A 7.48 7.48 0 0 1 29.35 25.01 L 27.77 20.85 A 11.92 11.92 0 0 0 23.08 24.10 Z" fill="rgba(30, 70, 130, 0.3912)" stroke="rgba(30, 70, 130, 0.2347)" stroke-width="0.5"/>
<path d="M 29.35 25.01 A 7.48 7.48 0 0 1 32.90 24.57 L 33.44 20.17 A 11.92 11.92 0 0 0 27.77 20.85 Z" fill="rgba(30, 70, 130, 0.3912)" stroke="rgba(30, 70, 130, 0.2347)" stroke-width="0.5"/>
<path d="M 32.90 24.57 A 7.48 7.48 0 0 1 36.25 25.84 L 38.77 22.19 A 11.92 11.92 0 0 0 33.44 20.17 Z" fill="rgba(30, 70, 130, 0.3912)" stroke="rgba(30, 70, 130, 0.2347)" stroke-width="0.5"/>
<path d="M 36.25 25.84 A 7.48 7.48 0 0 1 38.62 28.52 L 42.55 26.46 A 11.92 11.92 0 0 0 38.77 22.19 Z" fill="rgba(30, 70, 130, 0.3912)" stroke="rgba(30, 70, 130, 0.2347)" stroke-width="0.5"/>
<path d="M 38.62 28.52 A 7.48 7.48 0 0 1 39.48 32.00 L 43.92 32.00 A 11.92 11.92 0 0 0 42.55 26.46 Z" fill="rgba(30, 70, 130, 0.3912)" stroke="rgba(30, 70, 130, 0.2347)" stroke-width="0.5"/>
<path d="M 43.78 32.00 A 11.78 11.78 0 0 1 42.76 36.79 L 48.39 39.30 A 17.95 17.95 0 0 0 49.95 32.00 Z" fill="rgba(30, 70, 130, 0.5391)" stroke="rgba(30, 70, 130, 0.3235)" stroke-width="0.5"/>
<path d="M 42.76 36.79 A 11.78 11.78 0 0 1 39.88 40.75 L 44.01 45.34 A 17.95 17.95 0 0 0 48.39 39.30 Z" fill="rgba(30, 70, 130, 0.5391)" stroke="rgba(30, 70, 130, 0.3235)" stroke-width="0.5"/>
<path d="M 39.88 40.75 A 11.78 11.78 0 0 1 35.64 43.20 L 37.55 49.07 A 17.95 17.95 0 0 0 44.01 45.34 Z" fill="rgba(30, 70, 130, 0.5391)" stroke="rgba(30, 70, 130, 0.3235)" stroke-width="0.5"/>
<path d="M 35.64 43.20 A 11.78 11.78 0 0 1 30.77 43.71 L 30.12 49.85 A 17.95 17.95 0 0 0 37.55 49.07 Z" fill="rgba(30, 70, 130, 0.5391)" stroke="rgba(30, 70, 130, 0.3235)" stroke-width="0.5"/>
<path d="M 30.77 43.71 A 11.78 11.78 0 0 1 26.11 42.20 L 23.03 47.54 A 17.95 17.95 0 0 0 30.12 49.85 Z" fill="rgba(30, 70, 130, 0.5391)" stroke="rgba(30, 70, 130, 0.3235)" stroke-width="0.5"/>
<path d="M 26.11 42.20 A 11.78 11.78 0 0 1 22.47 38.92 L 17.48 42.55 A 17.95 17.95 0 0 0 23.03 47.54 Z" fill="rgba(30, 70, 130, 0.5391)" stroke="rgba(30, 70, 130, 0.3235)" stroke-width="0.5"/>
<path d="M 22.47 38.92 A 11.78 11.78 0 0 1 20.48 34.45 L 14.45 35.73 A 17.95 17.95 0 0 0 17.48 42.55 Z" fill="rgba(30, 70, 130, 0.5391)" stroke="rgba(30, 70, 130, 0.3235)" stroke-width="0.5"/>
<path d="M 20.48 34.45 A 11.78 11.78 0 0 1 20.48 29.55 L 14.45 28.27 A 17.95 17.95 0 0 0 14.45 35.73 Z" fill="rgba(30, 70, 130, 0.5391)" stroke="rgba(30, 70, 130, 0.3235)" stroke-width="0.5"/>
<path d="M 20.48 29.55 A 11.78 11.78 0 0 1 22.47 25.08 L 17.48 21.45 A 17.95 17.95 0 0 0 14.45 28.27 Z" fill="rgba(30, 70, 130, 0.5391)" stroke="rgba(30, 70, 130, 0.3235)" stroke-width="0.5"/>
<path d="M 22.47 25.08 A 11.78 11.78 0 0 1 26.11 21.80 L 23.03 16.46 A 17.95 17.95 0 0 0 17.48 21.45 Z" fill="rgba(30, 70, 130, 0.5391)" stroke="rgba(30, 70, 130, 0.3235)" stroke-width="0.5"/>
<path d="M 26.11 21.80 A 11.78 11.78 0 0 1 30.77 20.29 L 30.12 14.15 A 17.95 17.95 0 0 0 23.03 16.46 Z" fill="rgba(30, 70, 130, 0.5391)" stroke="rgba(30, 70, 130, 0.3235)" stroke-width="0.5"/>
<path d="M 30.77 20.29 A 11.78 11.78 0 0 1 35.64 20.80 L 37.55 14.93 A 17.95 17.95 0 0 0 30.12 14.15 Z" fill="rgba(30, 70, 130, 0.5391)" stroke="rgba(30, 70, 130, 0.3235)" stroke-width="0.5"/>
<path d="M 35.64 20.80 A 11.78 11.78 0 0 1 39.88 23.25 L 44.01 18.66 A 17.95 17.95 0 0 0 37.55 14.93 Z" fill="rgba(30, 70, 130, 0.5391)" stroke="rgba(30, 70, 130, 0.3235)" stroke-width="0.5"/>
<path d="M 39.88 23.25 A 11.78 11.78 0 0 1 42.76 27.21 L 48.39 24.70 A 17.95 17.95 0 0 0 44.01 18.66 Z" fill="rgba(30, 70, 130, 0.5391)" stroke="rgba(30, 70, 130, 0.3235)" stroke-width="0.5"/>
<path d="M 42.76 27.21 A 11.78 11.78 0 0 1 43.78 32.00 L 49.95 32.00 A 17.95 17.95 0 0 0 48.39 24.70 Z" fill="rgba(30, 70, 130, 0.5391)" stroke="rgba(30, 70, 130, 0.3235)" stroke-width="0.5"/>
<path d="M 49.75 32.00 A 17.75 17.75 0 0 1 48.40 38.79 L 56.32 42.07 A 26.32 26.32 0 0 0 58.32 32.00 Z" fill="rgba(30, 70, 130, 0.7000)" stroke="rgba(30, 70, 130, 0.4200)" stroke-width="0.5"/>
<path d="M 48.40 38.79 A 17.75 17.75 0 0 1 44.55 44.55 L 50.61 50.61 A 26.32 26.32 0 0 0 56.32 42.07 Z" fill="rgba(30, 70, 130, 0.7000)" stroke="rgba(30, 70, 130, 0.4200)" stroke-width="0.5"/>
<path d="M 44.55 44.55 A 17.75 17.75 0 0 1 38.79 48.40 L 42.07 56.32 A 26.32 26.32 0 0 0 50.61 50.61 Z" fill="rgba(30, 70, 130, 0.7000)" stroke="rgba(30, 70, 130, 0.4200)" stroke-width="0.5"/>
<path d="M 38.79 48.40 A 17.75 17.75 0 0 1 32.00 49.75 L 32.00 58.32 A 26.32 26.32 0 0 0 42.07 56.32 Z" fill="rgba(30, 70, 130, 0.7000)" stroke="rgba(30, 70, 130, 0.4200)" stroke-width="0.5"/>
<path d="M 32.00 49.75 A 17.75 17.75 0 0 1 25.21 48.40 L 21.93 56.32 A 26.32 26.32 0 0 0 32.00 58.32 Z" fill="rgba(30, 70, 130, 0.7000)" stroke="rgba(30, 70, 130, 0.4200)" stroke-width="0.5"/>
<path d="M 25.21 48.40 A 17.75 17.75 0 0 1 19.45 44.55 L 13.39 50.61 A 26.32 26.32 0 0 0 21.93 56.32 Z" fill="rgba(30, 70, 130, 0.7000)" stroke="rgba(30, 70, 130, 0.4200)" stroke-width="0.5"/>
<path d="M 19.45 44.55 A 17.75 17.75 0 0 1 15.60 38.79 L 7.68 42.07 A 26.32 26.32 0 0 0 13.39 50.61 Z" fill="rgba(30, 70, 130, 0.7000)" stroke="rgba(30, 70, 130, 0.4200)" stroke-width="0.5"/>
<path d="M 15.60 38.79 A 17.75 17.75 0 0 1 14.25 32.00 L 5.68 32.00 A 26.32 26.32 0 0 0 7.68 42.07 Z" fill="rgba(30, 70, 130, 0.7000)" stroke="rgba(30, 70, 130, 0.4200)" stroke-width="0.5"/>
<path d="M 14.25 32.00 A 17.75 17.75 0 0 1 15.60 25.21 L 7.68 21.93 A 26.32 26.32 0 0 0 5.68 32.00 Z" fill="rgba(30, 70, 130, 0.7000)" stroke="rgba(30, 70, 130, 0.4200)" stroke-width="0.5"/>
<path d="M 15.60 25.21 A 17.75 17.75 0 0 1 19.45 19.45 L 13.39 13.39 A 26.32 26.32 0 0 0 7.68 21.93 Z" fill="rgba(30, 70, 130, 0.7000)" stroke="rgba(30, 70, 130, 0.4200)" stroke-width="0.5"/>
<path d="M 19.45 19.45 A 17.75 17.75 0 0 1 25.21 15.60 L 21.93 7.68 A 26.32 26.32 0 0 0 13.39 13.39 Z" fill="rgba(30, 70, 130, 0.7000)" stroke="rgba(30, 70, 130, 0.4200)" stroke-width="0.5"/>
<path d="M 25.21 15.60 A 17.75 17.75 0 0 1 32.00 14.25 L 32.00 5.68 A 26.32 26.32 0 0 0 21.93 7.68 Z" fill="rgba(30, 70, 130, 0.7000)" stroke="rgba(30, 70, 130, 0.4200)" stroke-width="0.5"/>
<path d="M 32.00 14.25 A 17.75 17.75 0 0 1 38.79 15.60 L 42.07 7.68 A 26.32 26.32 0 0 0 32.00 5.68 Z" fill="rgba(30, 70, 130, 0.7000)" stroke="rgba(30, 70, 130, 0.4200)" stroke-width="0.5"/>
<path d="M 38.79 15.60 A 17.75 17.75 0 0 1 44.55 19.45 L 50.61 13.39 A 26.32 26.32 0 0 0 42.07 7.68 Z" fill="rgba(30, 70, 130, 0.7000)" stroke="rgba(30, 70, 130, 0.4200)" stroke-width="0.5"/>
<path d="M 44.55 19.45 A 17.75 17.75 0 0 1 48.40 25.21 L 56.32 21.93 A 26.32 26.32 0 0 0 50.61 13.39 Z" fill="rgba(30, 70, 130, 0.7000)" stroke="rgba(30, 70, 130, 0.4200)" stroke-width="0.5"/>
<path d="M 48.40 25.21 A 17.75 17.75 0 0 1 49.75 32.00 L 58.32 32.00 A 26.32 26.32 0 0 0 56.32 21.93 Z" fill="rgba(30, 70, 130, 0.7000)" stroke="rgba(30, 70, 130, 0.4200)" stroke-width="0.5"/>
<path d="M 59.02 32.00 A 27.02 27.02 0 0 1 57.70 40.35 L 62.43 41.89 A 32.00 32.00 0 0 0 64.00 32.00 Z" fill="rgba(30, 70, 130, 0.7000)" stroke="rgba(30, 70, 130, 0.4200)" stroke-width="0.5"/>
<path d="M 57.70 40.35 A 27.02 27.02 0 0 1 53.86 47.88 L 57.89 50.81 A 32.00 32.00 0 0 0 62.43 41.89 Z" fill="rgba(30, 70, 130, 0.7000)" stroke="rgba(30, 70, 130, 0.4200)" stroke-width="0.5"/>
<path d="M 53.86 47.88 A 27.02 27.02 0 0 1 47.88 53.86 L 50.81 57.89 A 32.00 32.00 0 0 0 57.89 50.81 Z" fill="rgba(30, 70, 130, 0.7000)" stroke="rgba(30, 70, 130, 0.4200)" stroke-width="0.5"/>
<path d="M 47.88 53.86 A 27.02 27.02 0 0 1 40.35 57.70 L 41.89 62.43 A 32.00 32.00 0 0 0 50.81 57.89 Z" fill="rgba(30, 70, 130, 0.7000)" stroke="rgba(30, 70, 130, 0.4200)" stroke-width="0.5"/>
<path d="M 40.35 57.70 A 27.02 27.02 0 0 1 32.00 59.02 L 32.00 64.00 A 32.00 32.00 0 0 0 41.89 62.43 Z" fill="rgba(30, 70, 130, 0.7000)" stroke="rgba(30, 70, 130, 0.4200)" stroke-width="0.5"/>
<path d="M 32.00 59.02 A 27.02 27.02 0 0 1 23.65 57.70 L 22.11 62.43 A 32.00 32.00 0 0 0 32.00 64.00 Z" fill="rgba(30, 70, 130, 0.7000)" stroke="rgba(30, 70, 130, 0.4200)" stroke-width="0.5"/>
<path d="M 23.65 57.70 A 27.02 27.02 0 0 1 16.12 53.86 L 13.19 57.89 A 32.00 32.00 0 0 0 22.11 62.43 Z" fill="rgba(30, 70, 130, 0.7000)" stroke="rgba(30, 70, 130, 0.4200)" stroke-width="0.5"/>
<path d="M 16.12 53.86 A 27.02 27.02 0 0 1 10.14 47.88 L 6.11 50.81 A 32.00 32.00 0 0 0 13.19 57.89 Z" fill="rgba(30, 70, 130, 0.7000)" stroke="rgba(30, 70, 130, 0.4200)" stroke-width="0.5"/>
<path d="M 10.14 47.88 A 27.02 27.02 0 0 1 6.30 40.35 L 1.57 41.89 A 32.00 32.00 0 0 0 6.11 50.81 Z" fill="rgba(30, 70, 130, 0.7000)" stroke="rgba(30, 70, 130, 0.4200)" stroke-width="0.5"/>
<path d="M 6.30 40.35 A 27.02 27.02 0 0 1 4.98 32.00 L 0.00 32.00 A 32.00 32.00 0 0 0 1.57 41.89 Z" fill="rgba(30, 70, 130, 0.7000)" stroke="rgba(30, 70, 130, 0.4200)" stroke-width="0.5"/>
<path d="M 4.98 32.00 A 27.02 27.02 0 0 1 6.30 23.65 L 1.57 22.11 A 32.00 32.00 0 0 0 0.00 32.00 Z" fill="rgba(30, 70, 130, 0.7000)" stroke="rgba(30, 70, 130, 0.4200)" stroke-width="0.5"/>
<path d="M 6.30 23.65 A 27.02 27.02 0 0 1 10.14 16.12 L 6.11 13.19 A 32.00 32.00 0 0 0 1.57 22.11 Z" fill="rgba(30, 70, 130, 0.7000)" stroke="rgba(30, 70, 130, 0.4200)" stroke-width="0.5"/>
<path d="M 10.14 16.12 A 27.02 27.02 0 0 1 16.12 10.14 L 13.19 6.11 A 32.00 32.00 0 0 0 6.11 13.19 Z" fill="rgba(30, 70, 130, 0.7000)" stroke="rgba(30, 70, 130, 0.4200)" stroke-width="0.5"/>
<path d="M 16.12 10.14 A 27.02 27.02 0 0 1 23.65 6.30 L 22.11 1.57 A 32.00 32.00 0 0 0 13.19 6.11 Z" fill="rgba(30, 70, 130, 0.7000)" stroke="rgba(30, 70, 130, 0.4200)" stroke-width="0.5"/>
<path d="M 23.65 6.30 A 27.02 27.02 0 0 1 32.00 4.98 L 32.00 0.00 A 32.00 32.00 0 0 0 22.11 1.57 Z" fill="rgba(30, 70, 130, 0.7000)" stroke="rgba(30, 70, 130, 0.4200)" stroke-width="0.5"/>
<path d="M 32.00 4.98 A 27.02 27.02 0 0 1 40.35 6.30 L 41.89 1.57 A 32.00 32.00 0 0 0 32.00 0.00 Z" fill="rgba(30, 70, 130, 0.7000)" stroke="rgba(30, 70, 130, 0.4200)" stroke-width="0.5"/>
<path d="M 40.35 6.30 A 27.02 27.02 0 0 1 47.88 10.14 L 50.81 6.11 A 32.00 32.00 0 0 0 41.89 1.57 Z" fill="rgba(30, 70, 130, 0.7000)" stroke="rgba(30, 70, 130, 0.4200)" stroke-width="0.5"/>
<path d="M 47.88 10.14 A 27.02 27.02 0 0 1 53.86 16.12 L 57.89 13.19 A 32.00 32.00 0 0 0 50.81 6.11 Z" fill="rgba(30, 70, 130, 0.7000)" stroke="rgba(30, 70, 130, 0.4200)" stroke-width="0.5"/>
<path d="M 53.86 16.12 A 27.02 27.02 0 0 1 57.70 23.65 L 62.43 22.11 A 32.00 32.00 0 0 0 57.89 13.19 Z" fill="rgba(30, 70, 130, 0.7000)" stroke="rgba(30, 70, 130, 0.4200)" stroke-width="0.5"/>
<path d="M 57.70 23.65 A 27.02 27.02 0 0 1 59.02 32.00 L 64.00 32.00 A 32.00 32.00 0 0 0 62.43 22.11 Z" fill="rgba(30, 70, 130, 0.7000)" stroke="rgba(30, 70, 130, 0.4200)" stroke-width="0.5"/>
<circle cx="32.00" cy="32.00" r="1.28" fill="none" stroke="rgba(26,26,36,0.45)" stroke-width="1" stroke-dasharray="4,4" vector-effect="non-scaling-stroke"/>
<line x1="32.00" y1="29.00" x2="32.00" y2="35.00" stroke="rgba(26,26,36,0.85)" stroke-width="1.00"/>
<line x1="29.00" y1="32.00" x2="35.00" y2="32.00" stroke="rgba(26,26,36,0.85)" stroke-width="1.00"/>
</svg>