<svg xmlns="http://www.w3.org/2000/svg" viewBox="0 0 256 256" width="256" height="256" font-family="ui-sans-serif, -apple-system, system-ui, sans-serif" shape-rendering="geometricPrecision">
<rect width="256" height="256" fill="#fafaf6"/>
<circle cx="128.00" cy="128.00" r="2.77" fill="rgba(30, 70, 130, 0.0200)" stroke="rgba(30, 70, 130, 0.0120)" stroke-width="0.5"/>
<path d="M 130.23 128.00 A 2.23 2.23 0 0 1 128.69 130.12 L 130.74 136.42 A 8.85 8.85 0 0 0 136.85 128.00 Z" fill="rgba(30, 70, 130, 0.1530)" stroke="rgba(30, 70, 130, 0.0918)" stroke-width="0.5"/>
<path d="M 128.69 130.12 A 2.23 2.23 0 0 1 126.19 129.31 L 120.84 133.20 A 8.85 8.85 0 0 0 130.74 136.42 Z" fill="rgba(30, 70, 130, 0.1530)" stroke="rgba(30, 70, 130, 0.0918)" stroke-width="0.5"/>
<path d="M 126.19 129.31 A 2.23 2.23 0 0 1 126.19 126.69 L 120.84 122.80 A 8.85 8.85 0 0 0 120.84 133.20 Z" fill="rgba(30, 70, 130, 0.1530)" stroke="rgba(30, 70, 130, 0.0918)" stroke-width="0.5"/>
<path d="M 126.19 126.69 A 2.23 2.23 0 0 1 128.69 125.88 L 130.74 119.58 A 8.85 8.85 0 0 0 120.84 122.80 Z" fill="rgba(30, 70, 130, 0.1530)" stroke="rgba(30, 70, 130, 0.0918)" stroke-width="0.5"/>
<path d="M 128.69 125.88 A 2.23 2.23 0 0 1 130.23 128.00 L 136.85 128.00 A 8.85 8.85 0 0 0 130.74 119.58 Z" fill="rgba(30, 70, 130, 0.1530)" stroke="rgba(30, 70, 130, 0.0918)" stroke-width="0.5"/>
<path d="M 136.64 128.00 A 8.64 8.64 0 0 1 134.62 133.56 L 141.67 139.47 A 17.84 17.84 0 0 0 145.84 128.00 Z" fill="rgba(30, 70, 130, 0.2082)" stroke="rgba(30, 70, 130, 0.1249)" stroke-width="0.5"/>
<path d="M 134.62 133.56 A 8.64 8.64 0 0 1 129.50 136.51 L 131.10 145.57 A 17.84 17.84 0 0 0 141.67 139.47 Z" fill="rgba(30, 70, 130, 0.2082)" stroke="rgba(30, 70, 130, 0.1249)" stroke-width="0.5"/>
<path d="M 129.50 136.51 A 8.64 8.64 0 0 1 123.68 135.48 L 119.08 143.45 A 17.84 17.84 0 0 0 131.10 145.57 Z" fill="rgba(30, 70, 130, 0.2082)" stroke="rgba(30, 70, 130, 0.1249)" stroke-width="0.5"/>
<path d="M 123.68 135.48 A 8.64 8.64 0 0 1 119.88 130.96 L 111.24 134.10 A 17.84 17.84 0 0 0 119.08 143.45 Z" fill="rgba(30, 70, 130, 0.2082)" stroke="rgba(30, 70, 130, 0.1249)" stroke-width="0.5"/>
<path d="M 119.88 130.96 A 8.64 8.64 0 0 1 119.88 125.04 L 111.24 121.90 A 17.84 17.84 0 0 0 111.24 134.10 Z" fill="rgba(30, 70, 130, 0.2082)" stroke="rgba(30, 70, 130, 0.1249)" stroke-width="0.5"/>
<path d="M 119.88 125.04 A 8.64 8.64 0 0 1 123.68 120.52 L 119.08 112.55 A 17.84 17.84 0 0 0 111.24 121.90 Z" fill="rgba(30, 70, 130, 0.2082)" stroke="rgba(30, 70, 130, 0.1249)" stroke-width="0.5"/>
<path d="M 123.68 120.52 A 8.64 8.64 0 0 1 129.50 119.49 L 131.10 110.43 A 17.84 17.84 0 0 0 119.08 112.55 Z" fill="rgba(30, 70, 130, 0.2082)" stroke="rgba(30, 70, 130, 0.1249)" stroke-width="0.5"/>
<path d="M 129.50 119.49 A 8.64 8.64 0 0 1 134.62 122.44 L 141.67 116.53 A 17.84 17.84 0 0 0 131.10 110.43 Z" fill="rgba(30, 70, 130, 0.2082)" stroke="rgba(30, 70, 130, 0.1249)" stroke-width="0.5"/>
<path d="M 134.62 122.44 A 8.64 8.64 0 0 1 136.64 128.00 L 145.84 128.00 A 17.84 17.84 0 0 0 141.67 116.53 Z" fill="rgba(30, 70, 130, 0.2082)" stroke="rgba(30, 70, 130, 0.1249)" stroke-width="0.5"/>
<path d="M 145.55 128.00 A 17.55 17.55 0 0 1 142.76 137.49 L 153.51 144.40 A 30.33 30.33 0 0 0 158.33 128.00 Z" fill="rgba(30, 70, 130, 0.2848)" stroke="rgba(30, 70, 130, 0.1709)" stroke-width="0.5"/>
<path d="M 142.76 137.49 A 17.55 17.55 0 0 1 135.29 143.96 L 140.60 155.59 A 30.33 30.33 0 0 0 153.51 144.40 Z" fill="rgba(30, 70, 130, 0.2848)" stroke="rgba(30, 70, 130, 0.1709)" stroke-width="0.5"/>
<path d="M 135.29 143.96 A 17.55 17.55 0 0 1 125.50 145.37 L 123.68 158.02 A 30.33 30.33 0 0 0 140.60 155.59 Z" fill="rgba(30, 70, 130, 0.2848)" stroke="rgba(30, 70, 130, 0.1709)" stroke-width="0.5"/>
<path d="M 125.50 145.37 A 17.55 17.55 0 0 1 116.51 141.26 L 108.14 150.92 A 30.33 30.33 0 0 0 123.68 158.02 Z" fill="rgba(30, 70, 130, 0.2848)" stroke="rgba(30, 70, 130, 0.1709)" stroke-width="0.5"/>
<path d="M 116.51 141.26 A 17.55 17.55 0 0 1 111.16 132.94 L 98.90 136.54 A 30.33 30.33 0 0 0 108.14 150.92 Z" fill="rgba(30, 70, 130, 0.2848)" stroke="rgba(30, 70, 130, 0.1709)" stroke-width="0.5"/>
<path d="M 111.16 132.94 A 17.55 17.55 0 0 1 111.16 123.06 L 98.90 119.46 A 30.33 30.33 0 0 0 98.90 136.54 Z" fill="rgba(30, 70, 130, 0.2848)" stroke="rgba(30, 70, 130, 0.1709)" stroke-width="0.5"/>
<path d="M 111.16 123.06 A 17.55 17.55 0 0 1 116.51 114.74 L 108.14 105.08 A 30.33 30.33 0 0 0 98.90 119.46 Z" fill="rgba(30, 70, 130, 0.2848)" stroke="rgba(30, 70, 130, 0.1709)" stroke-width="0.5"/>
<path d="M 116.51 114.74 A 17.55 17.55 0 0 1 125.50 110.63 L 123.68 97.98 A 30.33 30.33 0 0 0 108.14 105.08 Z" fill="rgba(30, 70, 130, 0.2848)" stroke="rgba(30, 70, 130, 0.1709)" stroke-width="0.5"/>
<path d="M 125.50 110.63 A 17.55 17.55 0 0 1 135.29 112.04 L 140.60 100.41 A 30.33 30.33 0 0 0 123.68 97.98 Z" fill="rgba(30, 70, 130, 0.2848)" stroke="rgba(30, 70, 130, 0.1709)" stroke-width="0.5"/>
<path d="M 135.29 112.04 A 17.55 17.55 0 0 1 142.76 118.51 L 153.51 111.60 A 30.33 30.33 0 0 0 140.60 100.41 Z" fill="rgba(30, 70, 130, 0.2848)" stroke="rgba(30, 70, 130, 0.1709)" stroke-width="0.5"/>
<path d="M 142.76 118.51 A 17.55 17.55 0 0 1 145.55 128.00 L 158.33 128.00 A 30.33 30.33 0 0 0 153.51 111.60 Z" fill="rgba(30, 70, 130, 0.2848)" stroke="rgba(30, 70, 130, 0.1709)" stroke-width="0.5"/>
<path d="M 157.92 128.00 A 29.92 29.92 0 0 1 154.50 141.91 L 170.22 150.16 A 47.68 47.68 0 0 0 175.68 128.00 Z" fill="rgba(30, 70, 130, 0.3912)" stroke="rgba(30, 70, 130, 0.2347)" stroke-width="0.5"/>
<path d="M 154.50 141.91 A 29.92 29.92 0 0 1 145.00 152.63 L 155.09 167.24 A 47.68 47.68 0 0 0 170.22 150.16 Z" fill="rgba(30, 70, 130, 0.3912)" stroke="rgba(30, 70, 130, 0.2347)" stroke-width="0.5"/>
<path d="M 145.00 152.63 A 29.92 29.92 0 0 1 131.61 157.71 L 133.75 175.33 A 47.68 47.68 0 0 0 155.09 167.24 Z" fill="rgba(30, 70, 130, 0.3912)" stroke="rgba(30, 70, 130, 0.2347)" stroke-width="0.5"/>
<path d="M 131.61 157.71 A 29.92 29.92 0 0 1 117.39 155.98 L 111.09 172.58 A 47.68 47.68 0 0 0 133.75 175.33 Z" fill="rgba(30, 70, 130, 0.3912)" stroke="rgba(30, 70, 130, 0.2347)" stroke-width="0.5"/>
<path d="M 117.39 155.98 A 29.92 29.92 0 0 1 105.60 147.84 L 92.31 159.62 A 47.68 47.68 0 0 0 111.09 172.58 Z" fill="rgba(30, 70, 130, 0.3912)" stroke="rgba(30, 70, 130, 0.2347)" stroke-width="0.5"/>
<path d="M 105.60 147.84 A 29.92 29.92 0 0 1 98.95 135.16 L 81.71 139.41 A 47.68 47.68 0 0 0 92.31 159.62 Z" fill="rgba(30, 70, 130, 0.3912)" stroke="rgba(30, 70, 130, 0.2347)" stroke-width="0.5"/>
<path d="M 98.95 135.16 A 29.92 29.92 0 0 1 98.95 120.84 L 81.71 116.59 A 47.68 47.68 0 0 0 81.71 139.41 Z" fill="rgba(30, 70, 130, 0.3912)" stroke="rgba(30, 70, 130, 0.2347)" stroke-width="0.5"/>
<path d="M 98.95 120.84 A 29.92 29.92 0 0 1 105.60 108.16 L 92.31 96.38 A 47.68 47.68 0 0 0 81.71 116.59 Z" fill="rgba(30, 70, 130, 0.3912)" stroke="rgba(30, 70, 130, 0.2347)" stroke-width="0.5"/>
<path d="M 105.60 108.16 A 29.92 29.92 0 0 1 117.39 100.02 L 111.09 83.42 A 47.68 47.68 0 0 0 92.31 96.38 Z" fill="rgba(30, 70, 130, 0.3912)" stroke="rgba(30, 70, 130, 0.2347)" stroke-width="0.5"/>
<path d="M 117.39 100.02 A 29.92 29.92 0 0 1 131.61 98.29 L 133.75 80.67 A 47.68 47.68 0 0 0 111.09 83.42 Z" fill="rgba(30, 70, 130, 0.3912)" stroke="rgba(30, 70, 130, 0.2347)" stroke-width="0.5"/>
<path d="M 131.61 98.29 A 29.92 29.92 0 0 1 145.00 103.37 L 155.09 88.76 A 47.68 47.68 0 0 0 133.75 80.67 Z" fill="rgba(30, 70, 130, 0.3912)" stroke="rgba(30, 70, 130, 0.2347)" stroke-width="0.5"/>
<path d="M 145.00 103.37 A 29.92 29.92 0 0 1 154.50 114.09 L 170.22 105.84 A 47.68 47.68 0 0 0 155.09 88.76 Z" fill="rgba(30, 70, 130, 0.3912)" stroke="rgba(30, 70, 130, 0.2347)" stroke-width="0.5"/>
<path d="M 154.50 114.09 A 29.92 29.92 0 0 1 157.92 128.00 L 175.68 128.00 A 47.68 47.68 0 0 0 170.22 105.84 Z" fill="rgba(30, 70, 130, 0.3912)" stroke="rgba(30, 70, 130, 0.2347)" stroke-width="0.5"/>
<path d="M 175.12 128.00 A 47.12 47.12 0 0 1 171.04 147.16 L 193.58 157.20 A 71.79 71.79 0 0 0 199.79 128.00 Z" fill="rgba(30, 70, 130, 0.5391)" stroke="rgba(30, 70, 130, 0.3235)" stroke-width="0.5"/>
<path d="M 171.04 147.16 A 47.12 47.12 0 0 1 159.53 163.01 L 176.03 181.35 A 71.79 71.79 0 0 0 193.58 157.20 Z" fill="rgba(30, 70, 130, 0.5391)" stroke="rgba(30, 70, 130, 0.3235)" stroke-width="0.5"/>
<path d="M 159.53 163.01 A 47.12 47.12 0 0 1 142.56 172.81 L 150.18 196.27 A 71.79 71.79 0 0 0 176.03 181.35 Z" fill="rgba(30, 70, 130, 0.5391)" stroke="rgba(30, 70, 130, 0.3235)" stroke-width="0.5"/>
<path d="M 142.56 172.81 A 47.12 47.12 0 0 1 123.07 174.86 L 120.50 199.39 A 71.79 71.79 0 0 0 150.18 196.27 Z" fill="rgba(30, 70, 130, 0.5391)" stroke="rgba(30, 70, 130, 0.3235)" stroke-width="0.5"/>
<path d="M 123.07 174.86 A 47.12 47.12 0 0 1 104.44 168.80 L 92.11 190.17 A 71.79 71.79 0 0 0 120.50 199.39 Z" fill="rgba(30, 70, 130, 0.5391)" stroke="rgba(30, 70, 130, 0.3235)" stroke-width="0.5"/>
<path d="M 104.44 168.80 A 47.12 47.12 0 0 1 89.88 155.69 L 69.92 170.19 A 71.79 71.79 0 0 0 92.11 190.17 Z" fill="rgba(30, 70, 130, 0.5391)" stroke="rgba(30, 70, 130, 0.3235)" stroke-width="0.5"/>
<path d="M 89.88 155.69 A 47.12 47.12 0 0 1 81.91 137.80 L 57.78 142.93 A 71.79 71.79 0 0 0 69.92 170.19 Z" fill="rgba(30, 70, 130, 0.5391)" stroke="rgba(30, 70, 130, 0.3235)" stroke-width="0.5"/>
<path d="M 81.91 137.80 A 47.12 47.12 0 0 1 81.91 118.20 L 57.78 113.07 A 71.79 71.79 0 0 0 57.78 142.93 Z" fill="rgba(30, 70, 130, 0.5391)" stroke="rgba(30, 70, 130, 0.3235)" stroke-width="0.5"/>
<path d="M 81.91 118.20 A 47.12 47.12 0 0 1 89.88 100.31 L 69.92 85.81 A 71.79 71.79 0 0 0 57.78 113.07 Z" fill="rgba(30, 70, 130, 0.5391)" stroke="rgba(30, 70, 130, 0.3235)" stroke-width="0.5"/>
<path d="M 89.88 100.31 A 47.12 47.12 0 0 1 104.44 87.20 L 92.11 65.83 A 71.79 71.79 0 0 0 69.92 85.81 Z" fill="rgba(30, 70, 130, 0.5391)" stroke="rgba(30, 70, 130, 0.3235)" stroke-width="0.5"/>
<path d="M 104.44 87.20 A 47.12 47.12 0 0 1 123.07 81.14 L 120.50 56.61 A 71.79 71.79 0 0 0 92.11 65.83 Z" fill="rgba(30, 70, 130, 0.5391)" stroke="rgba(30, 70, 130, 0.3235)" stroke-width="0.5"/>
<path d="M 123.07 81.14 A 47.12 47.12 0 0 1 142.56 83.19 L 150.18 59.73 A 71.79 71.79 0 0 0 120.50 56.61 Z" fill="rgba(30, 70, 130, 0.5391)" stroke="rgba(30, 70, 130, 0.3235)" stroke-width="0.5"/>
<path d="M 142.56 83.19 A 47.12 47.12 0 0 1 159.53 92.99 L 176.03 74.65 A 71.79 71.79 0 0 0 150.18 59.73 Z" fill="rgba(30, 70, 130, 0.5391)" stroke="rgba(30, 70, 130, 0.3235)" stroke-width="0.5"/>
<path d="M 159.53 92.99 A 47.12 47.12 0 0 1 171.04 108.84 L 193.58 98.80 A 71.79 71.79 0 0 0 176.03 74.65 Z" fill="rgba(30, 70, 130, 0.5391)" stroke="rgba(30, 70, 130, 0.3235)" stroke-width="0.5"/>
<path d="M 171.04 108.84 A 47.12 47.12 0 0 1 175.12 128.00 L 199.79 128.00 A 71.79 71.79 0 0 0 193.58 98.80 Z" fill="rgba(30, 70, 130, 0.5391)" stroke="rgba(30, 70, 130, 0.3235)" stroke-width="0.5"/>
<path d="M 199.00 128.00 A 71.00 71.00 0 0 1 193.60 155.17 L 225.26 168.29 A 105.28 105.28 0 0 0 233.28 128.00 Z" fill="rgba(30, 70, 130, 0.7000)" stroke="rgba(30, 70, 130, 0.4200)" stroke-width="0.5"/>
<path d="M 193.60 155.17 A 71.00 71.00 0 0 1 178.21 178.21 L 202.44 202.44 A 105.28 105.28 0 0 0 225.26 168.29 Z" fill="rgba(30, 70, 130, 0.7000)" stroke="rgba(30, 70, 130, 0.4200)" stroke-width="0.5"/>
<path d="M 178.21 178.21 A 71.00 71.00 0 0 1 155.17 193.60 L 168.29 225.26 A 105.28 105.28 0 0 0 202.44 202.44 Z" fill="rgba(30, 70, 130, 0.7000)" stroke="rgba(30, 70, 130, 0.4200)" stroke-width="0.5"/>
<path d="M 155.17 193.60 A 71.00 71.00 0 0 1 128.00 199.00 L 128.00 233.28 A 105.28 105.28 0 0 0 168.29 225.26 Z" fill="rgba(30, 70, 130, 0.7000)" stroke="rgba(30, 70, 130, 0.4200)" stroke-width="0.5"/>
<path d="M 128.00 199.00 A 71.00 71.00 0 0 1 100.83 193.60 L 87.71 225.26 A 105.28 105.28 0 0 0 128.00 233.28 Z" fill="rgba(30, 70, 130, 0.7000)" stroke="rgba(30, 70, 130, 0.4200)" stroke-width="0.5"/>
<path d="M 100.83 193.60 A 71.00 71.00 0 0 1 77.79 178.21 L 53.56 202.44 A 105.28 105.28 0 0 0 87.71 225.26 Z" fill="rgba(30, 70, 130, 0.7000)" stroke="rgba(30, 70, 130, 0.4200)" stroke-width="0.5"/>
<path d="M 77.79 178.21 A 71.00 71.00 0 0 1 62.40 155.17 L 30.74 168.29 A 105.28 105.28 0 0 0 53.56 202.44 Z" fill="rgba(30, 70, 130, 0.7000)" stroke="rgba(30, 70, 130, 0.4200)" stroke-width="0.5"/>
<path d="M 62.40 155.17 A 71.00 71.00 0 0 1 57.00 128.00 L 22.72 128.00 A 105.28 105.28 0 0 0 30.74 168.29 Z" fill="rgba(30, 70, 130, 0.7000)" stroke="rgba(30, 70, 130, 0.4200)" stroke-width="0.5"/>
<path d="M 57.00 128.00 A 71.00 71.00 0 0 1 62.40 100.83 L 30.74 87.71 A 105.28 105.28 0 0 0 22.72 128.00 Z" fill="rgba(30, 70, 130, 0.7000)" stroke="rgba(30, 70, 130, 0.4200)" stroke-width="0.5"/>
<path d="M 62.40 100.83 A 71.00 71.00 0 0 1 77.79 77.79 L 53.56 53.56 A 105.28 105.28 0 0 0 30.74 87.71 Z" fill="rgba(30, 70, 130, 0.7000)" stroke="rgba(30, 70, 130, 0.4200)" stroke-width="0.5"/>
<path d="M 77.79 77.79 A 71.00 71.00 0 0 1 100.83 62.40 L 87.71 30.74 A 105.28 105.28 0 0 0 53.56 53.56 Z" fill="rgba(30, 70, 130, 0.7000)" stroke="rgba(30, 70, 130, 0.4200)" stroke-width="0.5"/>
<path d="M 100.83 62.40 A 71.00 71.00 0 0 1 128.00 57.00 L 128.00 22.72 A 105.28 105.28 0 0 0 87.71 30.74 Z" fill="rgba(30, 70, 130, 0.7000)" stroke="rgba(30, 70, 130, 0.4200)" stroke-width="0.5"/>
<path d="M 128.00 57.00 A 71.00 71.00 0 0 1 155.17 62.40 L 168.29 30.74 A 105.28 105.28 0 0 0 128.00 22.72 Z" fill="rgba(30, 70, 130, 0.7000)" stroke="rgba(30, 70, 130, 0.4200)" stroke-width="0.5"/>
<path d="M 155.17 62.40 A 71.00 71.00 0 0 1 178.21 77.79 L 202.44 53.56 A 105.28 105.28 0 0 0 168.29 30.74 Z" fill="rgba(30, 70, 130, 0.7000)" stroke="rgba(30, 70, 130, 0.4200)" stroke-width="0.5"/>
<path d="M 178.21 77.79 A 71.00 71.00 0 0 1 193.60 100.83 L 225.26 87.71 A 105.28 105.28 0 0 0 202.44 53.56 Z" fill="rgba(30, 70, 130, 0.7000)" stroke="rgba(30, 70, 130, 0.4200)" stroke-width="0.5"/>
<path d="M 193.60 100.83 A 71.00 71.00 0 0 1 199.00 128.00 L 233.28 128.00 A 105.28 105.28 0 0 0 225.26 87.71 Z" fill="rgba(30, 70, 130, 0.7000)" stroke="rgba(30, 70, 130, 0.4200)" stroke-width="0.5"/>
<path d="M 236.07 128.00 A 108.07 108.07 0 0 1 230.78 161.40 L 249.74 167.55 A 128.00 128.00 0 0 0 256.00 128.00 Z" fill="rgba(30, 70, 130, 0.7000)" stroke="rgba(30, 70, 130, 0.4200)" stroke-width="0.5"/>
<path d="M 230.78 161.40 A 108.07 108.07 0 0 1 215.43 191.52 L 231.55 203.24 A 128.00 128.00 0 0 0 249.74 167.55 Z" fill="rgba(30, 70, 130, 0.7000)" stroke="rgba(30, 70, 130, 0.4200)" stroke-width="0.5"/>
<path d="M 215.43 191.52 A 108.07 108.07 0 0 1 191.52 215.43 L 203.24 231.55 A 128.00 128.00 0 0 0 231.55 203.24 Z" fill="rgba(30, 70, 130, 0.7000)" stroke="rgba(30, 70, 130, 0.4200)" stroke-width="0.5"/>
<path d="M 191.52 215.43 A 108.07 108.07 0 0 1 161.40 230.78 L 167.55 249.74 A 128.00 128.00 0 0 0 203.24 231.55 Z" fill="rgba(30, 70, 130, 0.7000)" stroke="rgba(30, 70, 130, 0.4200)" stroke-width="0.5"/>
<path d="M 161.40 230.78 A 108.07 108.07 0 0 1 128.00 236.07 L 128.00 256.00 A 128.00 128.00 0 0 0 167.55 249.74 Z" fill="rgba(30, 70, 130, 0.7000)" stroke="rgba(30, 70, 130, 0.4200)" stroke-width="0.5"/>
<path d="M 128.00 236.07 A 108.07 108.07 0 0 1 94.60 230.78 L 88.45 249.74 A 128.00 128.00 0 0 0 128.00 256.00 Z" fill="rgba(30, 70, 130, 0.7000)" stroke="rgba(30, 70, 130, 0.4200)" stroke-width="0.5"/>
<path d="M 94.60 230.78 A 108.07 108.07 0 0 1 64.48 215.43 L 52.76 231.55 A 128.00 128.00 0 0 0 88.45 249.74 Z" fill="rgba(30, 70, 130, 0.7000)" stroke="rgba(30, 70, 130, 0.4200)" stroke-width="0.5"/>
<path d="M 64.48 215.43 A 108.07 108.07 0 0 1 40.57 191.52 L 24.45 203.24 A 128.00 128.00 0 0 0 52.76 231.55 Z" fill="rgba(30, 70, 130, 0.7000)" stroke="rgba(30, 70, 130, 0.4200)" stroke-width="0.5"/>
<path d="M 40.57 191.52 A 108.07 108.07 0 0 1 25.22 161.40 L 6.26 167.55 A 128.00 128.00 0 0 0 24.45 203.24 Z" fill="rgba(30, 70, 130, 0.7000)" stroke="rgba(30, 70, 130, 0.4200)" stroke-width="0.5"/>
<path d="M 25.22 161.40 A 108.07 108.07 0 0 1 19.93 128.00 L 0.00 128.00 A 128.00 128.00 0 0 0 6.26 167.55 Z" fill="rgba(30, 70, 130, 0.7000)" stroke="rgba(30, 70, 130, 0.4200)" stroke-width="0.5"/>
<path d="M 19.93 128.00 A 108.07 108.07 0 0 1 25.22 94.60 L 6.26 88.45 A 128.00 128.00 0 0 0 0.00 128.00 Z" fill="rgba(30, 70, 130, 0.7000)" stroke="rgba(30, 70, 130, 0.4200)" stroke-width="0.5"/>
<path d="M 25.22 94.60 A 108.07 108.07 0 0 1 40.57 64.48 L 24.45 52.76 A 128.00 128.00 0 0 0 6.26 88.45 Z" fill="rgba(30, 70, 130, 0.7000)" stroke="rgba(30, 70, 130, 0.4200)" stroke-width="0.5"/>
<path d="M 40.57 64.48 A 108.07 108.07 0 0 1 64.48 40.57 L 52.76 24.45 A 128.00 128.00 0 0 0 24.45 52.76 Z" fill="rgba(30, 70, 130, 0.7000)" stroke="rgba(30, 70, 130, 0.4200)" stroke-width="0.5"/>
<path d="M 64.48 40.57 A 108.07 108.07 0 0 1 94.60 25.22 L 88.45 6.26 A 128.00 128.00 0 0 0 52.76 24.45 Z" fill="rgba(30, 70, 130, 0.7000)" stroke="rgba(30, 70, 130, 0.4200)" stroke-width="0.5"/>
<path d="M 94.60 25.22 A 108.07 108.07 0 0 1 128.00 19.93 L 128.00 0.00 A 128.00 128.00 0 0 0 88.45 6.26 Z" fill="rgba(30, 70, 130, 0.7000)" stroke="rgba(30, 70, 130, 0.4200)" stroke-width="0.5"/>
<path d="M 128.00 19.93 A 108.07 108.07 0 0 1 161.40 25.22 L 167.55 6.26 A 128.00 128.00 0 0 0 128.00 0.00 Z" fill="rgba(30, 70, 130, 0.7000)" stroke="rgba(30, 70, 130, 0.4200)" stroke-width="0.5"/>
<path d="M 161.40 25.22 A 108.07 108.07 0 0 1 191.52 40.57 L 203.24 24.45 A 128.00 128.00 0 0 0 167.55 6.26 Z" fill="rgba(30, 70, 130, 0.7000)" stroke="rgba(30, 70, 130, 0.4200)" stroke-width="0.5"/>
<path d="M 191.52 40.57 A 108.07 108.07 0 0 1 215.43 64.48 L 231.55 52.76 A 128.00 128.00 0 0 0 203.24 24.45 Z" fill="rgba(30, 70, 130, 0.7000)" stroke="rgba(30, 70, 130, 0.4200)" stroke-width="0.5"/>
<path d="M 215.43 64.48 A 108.07 108.07 0 0 1 230.78 94.60 L 249.74 88.45 A 128.00 128.00 0 0 0 231.55 52.76 Z" fill="rgba(30, 70, 130, 0.7000)" stroke="rgba(30, 70, 130, 0.4200)" stroke-width="0.5"/>
<path d="M 230.78 94.60 A 108.07 108.07 0 0 1 236.07 128.00 L 256.00 128.00 A 128.00 128.00 0 0 0 249.74 88.45 Z" fill="rgba(30, 70, 130, 0.7000)" stroke="rgba(30, 70, 130, 0.4200)" stroke-width="0.5"/>
<circle cx="128.00" cy="128.00" r="5.12" fill="none" stroke="rgba(26,26,36,0.45)" stroke-width="1" stroke-dasharray="4,4" vector-effect="non-scaling-stroke"/>
<line x1="128.00" y1="124.00" x2="128.00" y2="132.00" stroke="rgba(26,26,36,0.85)" stroke-width="1.00"/>
<line x1="124.00" y1="128.00" x2="132.00" y2="128.00" stroke="rgba(26,26,36,0.85)" stroke-width="1.00"/>
</svg>